<svg width="38" height="38" viewBox="0 0 38 38" fill="none" xmlns="http://www.w3.org/2000/svg">
    <g filter="url(#filter0_d)">
        <rect x="7" y="1" width="24" height="24" rx="4" fill="#FF3D00"/>
        <path fill-rule="evenodd" clip-rule="evenodd" d="M24 7H14C13.7049 7 13.4449 7.19403 13.3609 7.47694L12.3609 10.8455C12.3426 10.9071 12.3333 10.971 12.3333 11.0353V13C12.3333 13.3682 12.6318 13.6667 13 13.6667H13.0037L13.0296 18.337C13.0317 18.7047 13.331 19.0013 13.6986 19L20.3357 18.9764C20.703 18.9751 21 18.677 21 18.3097V13.6667H23.6667V19H25V13.6667C25.3682 13.6667 25.6667 13.3682 25.6667 13V11.0353C25.6667 10.971 25.6574 10.9071 25.6391 10.8455L24.6391 7.47694C24.5551 7.19403 24.2951 7 24 7ZM24.3333 12.3333V11.1321L23.5025 8.33333H14.4975L13.6667 11.1321V12.3333H24.3333ZM19.6667 13.6667H14.337L14.3592 17.6643L19.6667 17.6454V13.6667Z" fill="white"/>
    </g>
    <rect x="18" y="24" width="2" height="8" rx="1" fill="#FF3D00"/>
    <defs>
        <filter id="filter0_d" x="0" y="0" width="38" height="38" filterUnits="userSpaceOnUse" color-interpolation-filters="sRGB">
            <feFlood flood-opacity="0" result="BackgroundImageFix"/>
            <feColorMatrix in="SourceAlpha" type="matrix" values="0 0 0 0 0 0 0 0 0 0 0 0 0 0 0 0 0 0 127 0"/>
            <feOffset dy="6"/>
            <feGaussianBlur stdDeviation="3.5"/>
            <feColorMatrix type="matrix" values="0 0 0 0 0 0 0 0 0 0 0 0 0 0 0 0 0 0 0.3 0"/>
            <feBlend mode="normal" in2="BackgroundImageFix" result="effect1_dropShadow"/>
            <feBlend mode="normal" in="SourceGraphic" in2="effect1_dropShadow" result="shape"/>
        </filter>
    </defs>
</svg>
