<svg width="28" height="28" viewBox="0 0 28 28" fill="none" xmlns="http://www.w3.org/2000/svg">
    <g filter="url(#filter0_dd)">
        <rect x="2" width="24" height="24" rx="4" fill="white"/>
        <path fill-rule="evenodd" clip-rule="evenodd" d="M19 6H9C8.70489 6 8.44489 6.19403 8.3609 6.47694L7.3609 9.84554C7.34262 9.90713 7.33334 9.97103 7.33334 10.0353V12C7.33334 12.3682 7.63181 12.6667 8 12.6667H8.00369L8.02962 17.337C8.03167 17.7047 8.33098 18.0013 8.69865 18L15.3357 17.9764C15.703 17.9751 16 17.677 16 17.3097V12.6667H18.6667V18H20V12.6667C20.3682 12.6667 20.6667 12.3682 20.6667 12V10.0353C20.6667 9.97103 20.6574 9.90713 20.6391 9.84554L19.6391 6.47694C19.5551 6.19403 19.2951 6 19 6ZM19.3333 11.3333V10.1321L18.5025 7.33333H9.49752L8.66667 10.1321V11.3333H19.3333ZM14.6667 12.6667H9.33705L9.35924 16.6643L14.6667 16.6454V12.6667Z" fill="#8B9794"/>
    </g>
    <defs>
        <filter id="filter0_dd" x="0" y="0" width="28" height="28" filterUnits="userSpaceOnUse" color-interpolation-filters="sRGB">
            <feFlood flood-opacity="0" result="BackgroundImageFix"/>
            <feColorMatrix in="SourceAlpha" type="matrix" values="0 0 0 0 0 0 0 0 0 0 0 0 0 0 0 0 0 0 127 0"/>
            <feOffset dy="2"/>
            <feGaussianBlur stdDeviation="1"/>
            <feColorMatrix type="matrix" values="0 0 0 0 0 0 0 0 0 0 0 0 0 0 0 0 0 0 0.05 0"/>
            <feBlend mode="normal" in2="BackgroundImageFix" result="effect1_dropShadow"/>
            <feColorMatrix in="SourceAlpha" type="matrix" values="0 0 0 0 0 0 0 0 0 0 0 0 0 0 0 0 0 0 127 0"/>
            <feOffset dy="1"/>
            <feGaussianBlur stdDeviation="0.5"/>
            <feColorMatrix type="matrix" values="0 0 0 0 0 0 0 0 0 0 0 0 0 0 0 0 0 0 0.14 0"/>
            <feBlend mode="normal" in2="effect1_dropShadow" result="effect2_dropShadow"/>
            <feBlend mode="normal" in="SourceGraphic" in2="effect2_dropShadow" result="shape"/>
        </filter>
    </defs>
</svg>
