<svg width="168" height="126" viewBox="0 0 168 126" fill="none" xmlns="http://www.w3.org/2000/svg">
<g clip-path="url(#clip0_1_21721)">
<path d="M159.805 108.958C157.422 96.0394 139.108 110.756 139.108 110.756C139.108 110.756 139.861 107.161 136.181 101.182C132.502 95.2032 122.342 101.182 122.342 101.182C122.342 101.182 130.746 84.8764 115.526 74.6332C100.265 64.4318 67.3591 104.15 67.3591 104.15C67.3591 104.15 71.7075 89.0991 55.819 86.3397C39.9306 83.5803 34.4951 107.161 34.4951 107.161C34.4951 107.161 35.164 102.394 34.4114 97.3773C34.3278 97.5446 34.286 97.7118 34.2024 97.879C34.9132 103.732 33.7006 109.335 31.5682 114.686H158.091C158.091 114.728 161.017 115.606 159.805 108.958Z" fill="#D7F4DF"/>
<path d="M0.000391769 114.185C0.000391769 114.185 -0.208665 100.388 9.03173 100.638C18.2721 100.889 13.3383 111.467 13.3383 111.467C13.3383 111.467 15.3035 96.374 25.9655 94.5762C36.6693 92.7784 32.4045 110.882 32.4045 110.882C32.4045 110.882 35.7494 105.154 37.84 108.457C37.84 108.457 47.0386 71.9574 65.7702 84.9183C84.5019 97.8791 69.7842 114.268 69.7842 114.268L0.000391769 114.185Z" fill="#D7F4DF"/>
<path d="M167.373 115.188H97.7563C97.4218 115.188 97.1292 114.895 97.1292 114.561C97.1292 114.226 97.4218 113.934 97.7563 113.934H167.373C167.707 113.934 168 114.226 168 114.561C168 114.895 167.707 115.188 167.373 115.188Z" fill="black"/>
<path d="M116.864 111.551C116.153 111.216 117.199 110.171 116.739 109.502L110.007 100.555C109.84 100.304 110.133 95.0778 110.383 94.9106L113.645 95.036C114.147 95.036 114.523 95.0778 114.732 95.3705L120.335 103.105C120.544 103.44 121.045 103.44 121.255 103.105L142.578 71.2884C142.871 70.9121 146.76 71.163 147.178 71.4975L151.819 74.2987C152.028 74.4659 152.028 74.7168 151.902 74.9258L124.599 109.669C123.638 110.882 122.174 111.592 120.627 111.551C119.875 111.551 117.868 111.551 116.864 111.551Z" fill="black"/>
<path d="M114.732 111.049C114.021 110.715 113.436 110.171 112.934 109.544L106.202 100.597C106.035 100.346 106.077 100.011 106.328 99.8441L109.84 95.0361C110.133 94.8271 110.592 94.8689 110.802 95.2033L116.53 103.105C116.739 103.44 117.241 103.44 117.45 103.105L142.118 71.623C142.411 71.2467 142.997 71.1631 143.373 71.4558L148.014 73.8389C148.223 74.0061 148.223 74.257 148.098 74.466L120.795 109.627C119.833 110.84 118.369 111.551 116.822 111.509C116.112 111.551 115.401 111.383 114.732 111.049Z" fill="#029D53"/>
<path d="M130.997 78.3541C133.491 78.3541 135.512 76.3325 135.512 73.8387C135.512 71.345 133.491 69.3234 130.997 69.3234C128.503 69.3234 126.481 71.345 126.481 73.8387C126.481 76.3325 128.503 78.3541 130.997 78.3541Z" fill="#D7F4DF"/>
<path d="M116.321 112.805C116.321 116.735 125.394 114.31 129.157 114.31C132.92 114.31 135.972 111.133 135.972 107.161C135.972 103.189 132.46 103.272 128.697 103.272C124.934 103.272 116.321 108.833 116.321 112.805Z" fill="#D7F4DF"/>
<path d="M141.742 98.8824C143.128 98.8824 144.251 97.7593 144.251 96.3739C144.251 94.9885 143.128 93.8654 141.742 93.8654C140.357 93.8654 139.234 94.9885 139.234 96.3739C139.234 97.7593 140.357 98.8824 141.742 98.8824Z" fill="#D7F4DF"/>
<path d="M91.359 85.838C92.3058 85.838 93.0733 85.0706 93.0733 84.1238C93.0733 83.1771 92.3058 82.4097 91.359 82.4097C90.4122 82.4097 89.6447 83.1771 89.6447 84.1238C89.6447 85.0706 90.4122 85.838 91.359 85.838Z" fill="#D7F4DF"/>
<path d="M12.8784 94.9943C13.5019 94.9943 14.0073 94.4889 14.0073 93.8654C14.0073 93.242 13.5019 92.7366 12.8784 92.7366C12.2549 92.7366 11.7495 93.242 11.7495 93.8654C11.7495 94.4889 12.2549 94.9943 12.8784 94.9943Z" fill="#D7F4DF"/>
<path d="M92.1535 87.8867C92.028 87.8867 91.9026 87.8449 91.7772 87.7613C91.4845 87.5523 91.4427 87.176 91.6099 86.8833C97.4635 78.6469 105.617 76.4728 105.993 76.3474C106.328 76.2638 106.662 76.4728 106.746 76.8073C106.829 77.1418 106.62 77.4763 106.286 77.5599C106.202 77.6017 98.1744 79.7758 92.6134 87.5941C92.5716 87.8031 92.3625 87.8867 92.1535 87.8867Z" fill="white"/>
<path d="M18.3139 109.084H18.2721C17.9376 109.042 17.6867 108.749 17.6867 108.415C18.2303 101.349 25.3801 97.6699 25.6727 97.5027C25.9654 97.3355 26.3417 97.4609 26.509 97.7954C26.6762 98.1298 26.5508 98.4643 26.2163 98.6315C26.1327 98.6734 19.401 102.185 18.8992 108.498C18.9411 108.833 18.6484 109.084 18.3139 109.084Z" fill="white"/>
<path d="M120.627 112.178C120.502 112.178 120.418 112.136 120.293 112.094C120 111.927 119.917 111.551 120.084 111.216C120.167 111.049 122.509 107.244 126.983 105.739C127.317 105.614 127.652 105.823 127.777 106.157C127.903 106.492 127.693 106.826 127.359 106.952C123.345 108.248 121.171 111.843 121.129 111.843C121.045 112.094 120.836 112.178 120.627 112.178Z" fill="white"/>
<path d="M57.7005 38.8446C57.6587 38.8446 57.6169 38.8446 57.5751 38.8446C57.2406 38.761 57.0315 38.4265 57.0734 38.092L60.7528 19.9469C61.8817 14.2191 66.9827 10.08 72.7946 10.08C76.474 10.08 79.9444 11.7105 82.2858 14.5953C84.6273 17.4384 85.5472 21.1594 84.8364 24.7968L82.244 38.3429C82.1604 38.6774 81.8677 38.8864 81.4914 38.8446C81.1569 38.761 80.9479 38.4683 80.9897 38.092L83.582 24.5041C84.251 21.243 83.4148 17.8983 81.2824 15.3479C79.1918 12.7975 76.0559 11.2924 72.7528 11.2924C67.5263 11.2924 62.9688 15.0134 61.9235 20.1559L58.2441 38.3011C58.2441 38.6356 57.9932 38.8446 57.7005 38.8446Z" fill="black"/>
<path d="M70.0769 38.8446C70.0351 38.8446 69.9933 38.8446 69.9514 38.8446C69.617 38.761 69.4079 38.4265 69.4497 38.092L73.1291 19.9469C74.2581 14.2191 79.3591 10.08 85.1709 10.08C88.8504 10.08 92.3207 11.7105 94.6622 14.5953C97.0036 17.4384 97.9235 21.1594 97.2127 24.7968L94.6204 38.3429C94.5368 38.6774 94.2441 38.8864 93.8678 38.8446C93.5333 38.761 93.3242 38.4683 93.366 38.092L95.9584 24.5041C96.6273 21.243 95.7911 17.8983 93.6587 15.3479C91.5681 12.7975 88.4322 11.2924 85.1291 11.2924C79.9026 11.2924 75.3452 15.0134 74.2999 20.1559L70.6204 38.3011C70.6204 38.6356 70.3696 38.8446 70.0769 38.8446Z" fill="black"/>
<path d="M94.4112 114.854H66.0629C65.6866 114.854 65.3939 114.519 65.4775 114.143L80.4043 49.7567C80.4879 49.4641 80.7388 49.2968 81.0315 49.2968L83.8329 49.6313C84.0837 49.6731 84.3346 49.5059 84.4182 49.2968L91.7353 32.1133C91.8607 31.7788 92.3206 31.6534 92.6133 31.8625L99.345 35.7507C99.5541 35.8761 99.8049 35.8761 100.014 35.7507L107.958 33.1167C108.293 32.8659 108.794 33.0749 108.878 33.493C108.962 33.493 94.7875 114.854 94.4112 114.854Z" fill="black"/>
<path d="M28.725 114.017H74.8852C75.2197 114.017 75.5124 113.766 75.5542 113.474L92.1116 31.4443L85.1291 34.9563C84.8782 35.0817 84.6273 35.0399 84.4183 34.9145L80.0698 31.6952C79.8608 31.528 79.5681 31.528 79.3172 31.6534L73.0455 34.9981C72.7946 35.1235 72.5437 35.0817 72.3347 34.9563L67.7772 31.6952C67.5681 31.528 67.2336 31.528 67.0246 31.6534L61.6727 34.9563C61.4218 35.0817 61.1291 35.0817 60.9201 34.9563L56.0699 31.6952C55.8609 31.528 55.5264 31.528 55.3173 31.6952L50.0908 34.9981C49.84 35.1653 49.5473 35.1235 49.2964 34.9563L45.2825 32.0715C44.8644 31.7788 44.279 31.9879 44.1954 32.4896L28.0561 113.265C27.9306 113.599 28.2651 114.017 28.725 114.017Z" fill="#029D53"/>
<path d="M30.6902 99.8859L79.2754 31.6116L73.0036 34.9563C72.7528 35.0818 72.5019 35.04 72.2929 34.9145L67.7354 31.6534C67.5263 31.4862 67.1918 31.4862 66.9828 31.6116L61.6309 34.9145C61.38 35.04 61.0873 35.04 60.8783 34.9145L56.0281 31.6534C55.819 31.4862 55.4845 31.4862 55.2755 31.6534L50.049 34.9563C49.7981 35.1236 49.5055 35.0818 49.2546 34.9145L45.2407 32.0297C44.8225 31.737 44.2372 31.9461 44.1536 32.4478L30.6902 99.8859Z" fill="#45B874"/>
<path d="M88.0559 105.363C88.0141 105.363 88.0141 105.363 87.9723 105.363C87.6378 105.321 87.3869 105.028 87.3869 104.736C87.3869 104.652 87.3869 104.569 87.4287 104.485C87.596 103.649 88.5576 98.1299 89.1012 94.6598C89.143 94.3253 89.4775 94.0744 89.812 94.1581C90.1465 94.1999 90.3974 94.5343 90.3137 94.8688C90.3137 94.8688 89.8956 97.3773 89.4775 99.8859C89.2684 101.14 89.0594 102.394 88.8921 103.314C88.8085 103.774 88.7249 104.192 88.6831 104.443C88.6412 104.903 88.5576 105.363 88.0559 105.363Z" fill="white"/>
<path d="M90.6064 90.3952C90.5646 90.3952 90.5228 90.3952 90.481 90.3952C90.1465 90.3116 89.8956 90.019 89.9792 89.6845C92.9897 73.3371 95.8747 56.6971 98.5506 40.1407C98.5924 39.8062 98.9269 39.5554 99.2614 39.639C99.5959 39.6808 99.8468 40.0153 99.7632 40.3498C97.0872 56.9062 94.2022 73.588 91.1918 89.9353C91.1499 90.1862 90.8991 90.3952 90.6064 90.3952Z" fill="white"/>
<path d="M59.833 91.9422C59.7911 91.9422 59.7493 91.9422 59.7075 91.9422C59.373 91.9003 59.1222 91.5659 59.2058 91.2314C59.7075 88.5138 60.1675 85.838 60.6692 83.1205C60.711 82.786 61.0455 82.5351 61.38 82.6187C61.7145 82.6606 61.9654 82.995 61.8817 83.3295C61.4218 86.0471 60.9201 88.7229 60.4183 91.4405C60.3765 91.7331 60.1256 91.9422 59.833 91.9422Z" fill="white"/>
<path d="M54.6483 98.3389C54.6065 98.3389 54.5646 98.3389 54.5228 98.3389C54.1883 98.2971 53.9375 97.9626 54.0211 97.6282C54.8573 92.7365 55.7354 87.803 56.5298 82.9114C56.5716 82.5769 56.9061 82.326 57.2406 82.4096C57.5751 82.4514 57.826 82.7859 57.7424 83.1204C56.9061 88.0121 56.0699 92.9873 55.2336 97.8372C55.2336 98.1299 54.9828 98.3389 54.6483 98.3389Z" fill="white"/>
<path d="M79.7354 107.119C68.3626 107.119 56.7807 107.119 45.2825 107.119C44.948 107.119 44.6553 106.826 44.6553 106.492C44.6553 106.157 44.948 105.865 45.2825 105.865C56.7807 105.865 68.3626 105.865 79.7354 105.865C80.0699 105.865 80.3625 106.157 80.3625 106.492C80.3625 106.826 80.1117 107.119 79.7354 107.119Z" fill="black"/>
<path d="M37.6728 107.119H31.5683C31.2338 107.119 30.9411 106.826 30.9411 106.492C30.9411 106.157 31.2338 105.865 31.5683 105.865H37.6728C38.0073 105.865 38.3 106.157 38.3 106.492C38.3 106.826 38.0491 107.119 37.6728 107.119Z" fill="black"/>
<path d="M148.892 115.063H28.5996C28.2652 115.063 27.9725 114.77 27.9725 114.435C27.9725 114.101 28.2652 113.808 28.5996 113.808H148.892C149.226 113.808 149.519 114.101 149.519 114.435C149.519 114.77 149.226 115.063 148.892 115.063Z" fill="black"/>
<path d="M24.4185 115.063H20.6972C20.3628 115.063 20.0701 114.77 20.0701 114.435C20.0701 114.101 20.3628 113.808 20.6972 113.808H24.4185C24.753 113.808 25.0457 114.101 25.0457 114.435C25.0457 114.77 24.753 115.063 24.4185 115.063Z" fill="black"/>
<path d="M77.4776 68.4872C78.0212 67.1911 78.3557 65.8114 78.5647 64.3899C79.6936 55.819 73.6727 48.8369 65.1013 48.8369C56.5299 48.8369 48.6275 55.819 47.4986 64.3899C46.3697 72.9608 52.3906 79.9429 60.962 79.9429C62.6763 79.9429 64.3487 79.6502 65.9794 79.1485" fill="#FF3D00"/>
<path d="M65.1013 48.8788C56.5299 48.8788 48.6275 55.8609 47.4986 64.4318C47.1223 67.3166 47.5404 70.0342 48.6275 72.3755L65.394 48.8788C65.2685 48.8788 65.1849 48.8788 65.1013 48.8788Z" fill="#FF9600"/>
<path d="M65.9375 79.1903C67.9863 74.215 72.2929 70.1177 77.4775 68.4872L65.9375 79.1903Z" fill="black"/>
<path d="M63.8051 62.2159C57.5751 62.2159 53.3103 58.6204 53.2685 58.5785C53.1013 58.4113 53.0595 58.1605 53.2267 57.9932C53.394 57.826 53.6448 57.7842 53.8121 57.9514C54.1884 58.2859 63.0106 65.6861 73.8817 57.9096C74.0908 57.7842 74.3416 57.826 74.4671 57.9932C74.5925 58.1605 74.5507 58.4531 74.3834 58.5785C70.5786 61.2961 66.941 62.2159 63.8051 62.2159Z" fill="black"/>
<path d="M60.5019 58.6621C58.8295 58.6621 57.9933 57.1152 57.826 56.279C57.7842 56.0699 57.9096 55.8191 58.1187 55.7773C58.3277 55.7355 58.5786 55.8609 58.6204 56.0699C58.6204 56.1536 59.0804 57.9095 60.6274 57.7841C62.1744 57.6587 62.4253 56.1536 62.4253 56.1118C62.4671 55.9027 62.6762 55.7355 62.8852 55.7355C63.0943 55.7773 63.2615 55.9863 63.2615 56.1954C63.1779 56.9897 62.5089 58.4949 60.711 58.6203C60.6274 58.6621 60.5856 58.6621 60.5019 58.6621Z" fill="black"/>
<path d="M66.8573 58.6621C66.7736 58.6621 66.7318 58.6621 66.6482 58.6621C65.9792 58.6203 65.4357 58.3694 65.1012 57.9095C64.5158 57.157 64.6412 56.1535 64.6412 56.1117C64.683 55.9027 64.8921 55.7354 65.1012 55.7354C65.3102 55.7773 65.4775 55.9863 65.4775 56.1953C65.4775 56.1953 65.3938 56.9061 65.7701 57.3242C65.9792 57.575 66.3137 57.7005 66.7318 57.7423C68.3207 57.8677 69.3241 55.9445 69.3241 55.9027C69.4496 55.6936 69.7005 55.61 69.8677 55.7354C70.0768 55.8609 70.1604 56.1117 70.035 56.279C69.9931 56.4462 68.8642 58.6621 66.8573 58.6621Z" fill="black"/>
<path d="M50.258 69.1145C50.0072 69.1145 49.7563 68.9472 49.6727 68.6964C49.4636 68.0274 49.2964 67.3167 49.1709 66.6059C49.1291 66.2715 49.38 65.937 49.7145 65.8952C50.049 65.8534 50.3835 66.1042 50.4253 66.4387C50.5089 67.0658 50.6762 67.693 50.8434 68.2783C50.9689 68.6128 50.7598 68.9472 50.4671 69.0727C50.3835 69.1145 50.2999 69.1145 50.258 69.1145Z" fill="white"/>
<path d="M49.7145 65.0171C49.6727 65.0171 49.6727 65.0171 49.7145 65.0171C49.3382 65.0171 49.0873 64.6826 49.0873 64.3482C49.171 62.5504 49.6727 60.7944 50.5089 59.2056C50.6762 58.913 51.0525 58.7876 51.3452 58.9548C51.6379 59.122 51.7633 59.4983 51.596 59.791C50.8434 61.2125 50.4253 62.843 50.3417 64.4318C50.2999 64.7662 50.049 65.0171 49.7145 65.0171Z" fill="white"/>
</g>
<defs>
<clipPath id="clip0_1_21721">
<rect width="168" height="126" fill="white"/>
</clipPath>
</defs>
</svg>
