<svg width="168" height="128" viewBox="0 0 168 128" fill="none" xmlns="http://www.w3.org/2000/svg">
<g clip-path="url(#clip0_1_21742)">
<path d="M16.3557 49.8612L67.7692 49.9492C70.7184 49.9492 73.5796 47.6162 74.1519 44.711L81.679 5.49061C82.2512 2.5854 80.2704 0.208404 77.3212 0.208404L25.9077 0.120361C22.9584 0.120361 20.0972 2.45334 19.525 5.35856L11.9979 44.579C11.4256 47.4842 13.3624 49.8612 16.3557 49.8612Z" fill="#F3F3F3"/>
<path d="M113.856 101.715L144.053 101.759C145.814 101.759 147.487 100.394 147.795 98.6776L152.197 75.612C152.505 73.8953 151.36 72.5307 149.643 72.5307L119.447 72.4867C117.686 72.4867 116.013 73.8513 115.705 75.568L111.303 98.6336C110.951 100.35 112.096 101.715 113.856 101.715Z" fill="#F3F3F3"/>
<path d="M62.3549 40.1771C62.3109 40.1771 62.2669 40.1771 62.2229 40.1771C61.8707 40.0891 61.6506 39.7369 61.6947 39.3848L65.5683 20.2808C66.7568 14.2503 72.127 9.89246 78.2456 9.89246C82.1192 9.89246 85.7728 11.6092 88.2378 14.6464C90.7028 17.6397 91.6712 21.5573 90.9229 25.3869L88.1938 39.6489C88.1057 40.001 87.7976 40.2211 87.4014 40.1771C87.0493 40.0891 86.8292 39.7809 86.8732 39.3848L89.6464 25.0788C90.3507 21.6454 89.4703 18.1239 87.2254 15.4388C85.0244 12.7536 81.7231 11.169 78.2456 11.169C72.7433 11.169 67.9453 15.0866 66.8448 20.5009L62.9712 39.6049C62.9272 39.957 62.6631 40.1771 62.3549 40.1771Z" fill="black"/>
<path d="M75.3844 40.1771C75.3403 40.1771 75.2963 40.1771 75.2523 40.1771C74.9002 40.0891 74.6801 39.7369 74.7241 39.3848L78.5977 20.2808C79.7862 14.2503 85.1565 9.89246 91.275 9.89246C95.1486 9.89246 98.8022 11.6092 101.267 14.6464C103.732 17.6397 104.701 21.5573 103.952 25.3869L101.223 39.6489C101.135 40.001 100.783 40.2211 100.431 40.1771C100.079 40.0891 99.8586 39.7809 99.9026 39.3848L102.676 25.0788C103.38 21.6454 102.5 18.1239 100.255 15.4388C98.0539 12.7536 94.7525 11.169 91.275 11.169C85.7727 11.169 80.9747 15.0866 79.8742 20.5009L76.0006 39.6049C76.0006 39.957 75.6925 40.1771 75.3844 40.1771Z" fill="black"/>
<path d="M101.047 120.203H71.2028C70.8066 120.203 70.4985 119.851 70.5865 119.454L86.3011 51.666C86.3891 51.3579 86.6533 51.1818 86.9614 51.1818L89.9106 51.5339C90.1747 51.578 90.4388 51.4019 90.5269 51.1818L98.2301 33.0902C98.3622 32.7381 98.8464 32.606 99.1545 32.8261L106.241 36.9198C106.462 37.0519 106.726 37.0519 106.946 36.9198L115.309 34.1467C115.661 33.8825 116.19 34.1026 116.278 34.5428C116.322 34.5428 101.443 120.203 101.047 120.203Z" fill="black"/>
<path d="M31.8504 119.322H80.4468C80.7989 119.322 81.1071 119.058 81.1511 118.75L98.5824 32.3859L91.2313 36.0834C90.9672 36.2155 90.7031 36.1714 90.483 36.0394L85.9051 32.65C85.685 32.4739 85.3768 32.4739 85.1127 32.606L78.51 36.1274C78.2459 36.2595 77.9817 36.2155 77.7616 36.0834L72.9636 32.65C72.7436 32.4739 72.3914 32.4739 72.1713 32.606L66.537 36.0834C66.2728 36.2155 65.9647 36.2155 65.7446 36.0834L60.6385 32.65C60.4184 32.4739 60.0662 32.4739 59.8462 32.65L54.3439 36.1274C54.0797 36.3035 53.7716 36.2595 53.5075 36.0834L49.2817 33.0461C48.8416 32.738 48.2253 32.9581 48.1373 33.4863L31.1461 118.442C31.0581 118.926 31.4103 119.322 31.8504 119.322Z" fill="#FF3000"/>
<path d="M33.963 104.444L85.1124 32.5619L78.5096 36.0834C78.2455 36.2154 77.9814 36.1714 77.7613 36.0394L72.9633 32.6059C72.7432 32.4298 72.3911 32.4299 72.171 32.5619L66.5366 36.0394C66.2725 36.1714 65.9644 36.1714 65.7443 36.0394L60.6382 32.6059C60.4181 32.4298 60.0659 32.4298 59.8458 32.6059L54.3435 36.0834C54.0794 36.2595 53.7713 36.2154 53.5072 36.0394L49.2814 33.0021C48.8412 32.694 48.225 32.9141 48.1369 33.4423L33.963 104.444Z" fill="#FF4D1D"/>
<path d="M100.299 76.2282C100.255 76.2282 100.211 76.2282 100.167 76.2282C99.8146 76.1842 99.5505 75.8321 99.6385 75.4799C101.619 64.2993 103.556 52.8545 105.361 41.5417C105.405 41.1896 105.757 40.9255 106.109 41.0135C106.461 41.0575 106.725 41.4097 106.637 41.7618C104.789 53.0746 102.852 64.5193 100.915 75.7C100.915 76.0081 100.607 76.2282 100.299 76.2282Z" fill="white"/>
<path d="M85.5967 112.059C73.6237 112.059 61.4306 112.059 49.3256 112.059C48.9734 112.059 48.6653 111.751 48.6653 111.399C48.6653 111.047 48.9734 110.739 49.3256 110.739C61.4306 110.739 73.6237 110.739 85.5967 110.739C85.9489 110.739 86.257 111.047 86.257 111.399C86.257 111.751 85.9489 112.059 85.5967 112.059Z" fill="black"/>
<path d="M41.3141 112.059H34.8874C34.5353 112.059 34.2272 111.751 34.2272 111.399C34.2272 111.047 34.5353 110.739 34.8874 110.739H41.3141C41.6663 110.739 41.9744 111.047 41.9744 111.399C41.9744 111.751 41.6663 112.059 41.3141 112.059Z" fill="black"/>
<path d="M158.403 120.423H31.7181C31.366 120.423 31.0579 120.115 31.0579 119.763C31.0579 119.41 31.366 119.102 31.7181 119.102H158.359C158.711 119.102 159.019 119.41 159.019 119.763C159.019 120.115 158.755 120.423 158.403 120.423Z" fill="black"/>
<path d="M27.3604 120.423H23.4427C23.0906 120.423 22.7825 120.115 22.7825 119.763C22.7825 119.41 23.0906 119.102 23.4427 119.102H27.3604C27.7125 119.102 28.0207 119.41 28.0207 119.763C28.0207 120.115 27.7125 120.423 27.3604 120.423Z" fill="black"/>
<path d="M106.071 115.541C114.474 109.698 117.415 99.3949 112.641 92.529C107.866 85.6631 97.1842 84.8339 88.7815 90.6769C80.3787 96.52 77.4373 106.823 82.2116 113.689C86.986 120.554 97.6682 121.384 106.071 115.541Z" fill="#45B874"/>
<path d="M103.952 87.1448C95.7649 88.5974 88.4579 95.2001 86.8292 103.079C85.2005 111.047 89.8224 117.694 97.4816 119.146C105.669 117.694 112.976 111.091 114.605 103.211C116.233 95.2442 111.612 88.5974 103.952 87.1448Z" fill="#029D53"/>
<path d="M99.9026 94.3199C99.3743 94.3199 98.8461 94.1878 98.2739 93.7917C96.6892 92.7352 97.0414 90.7984 97.4375 89.9621C97.5256 89.742 97.7897 89.654 98.0098 89.742C98.2299 89.83 98.3179 90.0941 98.2299 90.3142C98.1858 90.4023 97.4375 92.163 98.7581 93.0434C100.123 93.9677 101.311 92.8673 101.355 92.8233C101.531 92.6472 101.795 92.6472 101.971 92.8233C102.147 92.9993 102.147 93.2635 101.971 93.4395C101.575 93.8797 100.827 94.3199 99.9026 94.3199Z" fill="black"/>
<path d="M105.405 98.4576C104.701 98.4576 103.864 98.2815 103.204 97.6653C102.676 97.1811 102.412 96.6528 102.412 96.0366C102.412 95.0242 103.16 94.2759 103.204 94.2759C103.38 94.0998 103.644 94.0998 103.82 94.2759C103.996 94.4519 103.996 94.716 103.82 94.8921C103.82 94.8921 103.292 95.4203 103.336 96.0366C103.336 96.3887 103.512 96.6969 103.864 97.005C105.097 98.1495 107.166 97.1811 107.21 97.1811C107.43 97.093 107.694 97.1811 107.782 97.4012C107.87 97.6213 107.782 97.8854 107.562 97.9734C107.43 98.0614 106.505 98.4576 105.405 98.4576Z" fill="black"/>
<path d="M83.8359 106.205C83.4838 106.205 83.2197 105.941 83.1756 105.589C83.1316 104.84 83.1316 104.092 83.2197 103.344C83.2637 102.991 83.5718 102.727 83.968 102.771C84.3201 102.815 84.5842 103.124 84.5402 103.52C84.4522 104.18 84.4522 104.884 84.4962 105.501C84.5402 105.853 84.2321 106.161 83.8799 106.205C83.8799 106.205 83.8799 106.205 83.8359 106.205Z" fill="white"/>
<path d="M84.4082 101.847C84.3201 101.847 84.2761 101.847 84.1881 101.803C83.8359 101.671 83.6599 101.319 83.7479 100.967C84.3201 99.1619 85.2885 97.4892 86.5651 96.0806C86.8292 95.8165 87.2254 95.7725 87.4895 96.0366C87.7536 96.3007 87.7976 96.6969 87.5335 96.961C86.389 98.2375 85.5086 99.7341 84.9804 101.363C84.9364 101.671 84.6723 101.847 84.4082 101.847Z" fill="white"/>
<path d="M100.299 100.659C100.255 100.659 100.211 100.659 100.167 100.659C99.9466 100.615 99.7705 100.35 99.8586 100.13C100.211 98.8978 100.079 97.8854 99.5064 97.2691C98.406 95.9486 95.8089 96.1687 95.7649 96.1687C95.5448 96.1687 95.3247 96.0366 95.2807 95.7725C95.2366 95.5524 95.4127 95.3323 95.6768 95.2883C95.8089 95.2883 98.7581 95.0242 100.167 96.6969C100.915 97.5772 101.091 98.8098 100.695 100.394C100.695 100.526 100.519 100.659 100.299 100.659Z" fill="black"/>
<path d="M21.3299 118.97L17.1482 114.436L20.8898 109.55C20.9338 109.462 20.9338 109.33 20.8457 109.286L18.8649 108.318C18.6888 108.186 18.4687 108.23 18.3367 108.406L15.2114 112.455L11.778 108.714C11.6459 108.582 11.4698 108.582 11.3378 108.67L9.31292 109.946C9.22488 109.99 9.22489 110.122 9.26891 110.166L13.5387 114.612L9.7531 119.542C9.70909 119.63 9.70909 119.718 9.79712 119.762L11.954 120.819C12.0861 120.907 12.3062 120.863 12.3942 120.731L15.4755 116.681L18.953 120.379C19.085 120.511 19.3491 120.555 19.4812 120.379L21.374 119.19C21.418 119.19 21.418 119.058 21.3299 118.97Z" fill="black"/>
<path d="M136.922 103.388C136.526 102.903 136.526 102.199 136.922 101.671L146.122 89.9621C146.606 89.3458 146.474 88.5095 145.902 88.0253L142.777 85.6042C142.645 85.5162 142.469 85.4282 142.336 85.3842C142.204 85.3401 142.116 85.3401 141.984 85.3401L139.475 84.944L140.18 86.7487L133.137 95.7285C132.564 96.4328 131.508 96.4328 130.98 95.7285L123.232 85.8684C123.056 85.6483 122.792 85.4722 122.528 85.3842H122.484C122.396 85.3401 122.264 85.3401 122.176 85.3401L119.799 84.944L120.063 86.5726L118.17 88.0693C117.554 88.5535 117.466 89.3898 117.95 90.0061L127.15 101.715C127.546 102.199 127.546 102.903 127.15 103.432L117.95 115.141C117.466 115.757 117.598 116.593 118.17 117.077L119.799 118.354V119.41L121.956 119.807C122.44 119.851 122.88 119.674 123.232 119.278L130.98 109.418C131.552 108.714 132.608 108.714 133.137 109.418L140.003 118.178L139.519 119.454L141.544 119.763C141.676 119.807 141.808 119.807 141.984 119.807H142.028C142.336 119.807 142.601 119.719 142.865 119.498L145.99 117.077C146.606 116.593 146.694 115.757 146.21 115.141L136.922 103.388Z" fill="black"/>
<path d="M143.261 87.6731L140.135 85.2521C139.519 84.7679 138.683 84.9 138.199 85.4722L130.451 95.3323C129.879 96.0366 128.823 96.0366 128.294 95.3323L120.503 85.4722C120.019 84.8559 119.183 84.7679 118.566 85.2521L115.441 87.6731C114.825 88.1573 114.737 88.9937 115.221 89.6099L124.421 101.319C124.817 101.803 124.817 102.507 124.421 103.036L115.221 114.7C114.737 115.317 114.869 116.153 115.441 116.637L118.566 119.058C119.183 119.542 120.019 119.41 120.503 118.838L128.25 108.978C128.823 108.274 129.879 108.274 130.407 108.978L138.155 118.838C138.639 119.454 139.475 119.542 140.091 119.058L143.217 116.637C143.833 116.153 143.921 115.317 143.437 114.7L134.237 102.992C133.841 102.507 133.841 101.803 134.237 101.275L143.437 89.5659C143.965 89.0377 143.833 88.1573 143.261 87.6731Z" fill="#FF3000"/>
</g>
<defs>
<clipPath id="clip0_1_21742">
<rect width="168" height="126" fill="white" transform="translate(0 0.120361)"/>
</clipPath>
</defs>
</svg>
