<svg width="200" height="150" viewBox="0 0 200 150" fill="none" xmlns="http://www.w3.org/2000/svg">
<path d="M129.639 128.121H179.929C180.364 128.121 180.745 127.794 180.8 127.359L181.834 121.861C181.888 121.48 181.616 121.099 181.235 121.099H130.945C130.51 121.099 130.129 121.426 130.074 121.861L129.04 127.359C128.986 127.794 129.258 128.121 129.639 128.121Z" fill="#D7F4DF"/>
<path d="M116.794 149.184H126.428C126.972 149.184 127.516 148.748 127.625 148.204L129.04 140.856C129.149 140.312 128.768 139.877 128.224 139.877H118.59C118.046 139.877 117.502 140.312 117.393 140.856L115.978 148.204C115.869 148.694 116.25 149.184 116.794 149.184Z" fill="#029D53"/>
<path d="M21.0575 132.202L59.1561 132.257C61.1699 132.257 63.1293 130.624 63.5103 128.665L68.6808 101.778C69.0618 99.7641 67.7011 98.1858 65.6873 98.1858L27.5887 98.1313C25.5749 98.1313 23.6155 99.7641 23.2345 101.723L18.064 128.61C17.683 130.57 19.0437 132.202 21.0575 132.202Z" fill="#029D53"/>
<path fill-rule="evenodd" clip-rule="evenodd" d="M38.2224 129.115C38.3857 129.279 38.6034 129.388 38.8211 129.388C39.0388 129.388 39.2021 129.333 39.3654 129.115C39.3815 129.102 39.3968 129.088 39.4113 129.073L35.7669 148.367H33.3032C32.8678 148.367 32.4868 148.748 32.4868 149.184C32.4868 149.619 32.8678 150 33.3032 150H36.2966L36.2966 150H36.4599L36.4629 150H41.3583C41.7937 150 42.1747 149.619 42.1747 149.184C42.1747 148.748 41.7937 148.367 41.3583 148.367H37.4614L42.8278 119.956C42.9367 119.467 42.6101 119.086 42.1747 118.977C41.6849 118.868 41.3039 119.195 41.195 119.63L39.5686 128.24C39.5354 128.143 39.4855 128.051 39.4198 127.973L31.528 119.101C31.2558 118.774 30.7116 118.72 30.385 119.047C30.0584 119.319 30.0584 119.863 30.3306 120.19L38.2224 129.115Z" fill="black"/>
<path fill-rule="evenodd" clip-rule="evenodd" d="M56.6532 117.126H56.8165C57.1975 117.126 57.524 116.854 57.6329 116.473C58.0139 114.459 59.048 113.044 61.1162 111.629L81.1452 100.308C81.9041 99.8748 82.783 99.873 83.4791 100.048L86.6422 105.697L77.7707 110.758C75.3759 112.391 74.2874 114.133 73.9064 116.255L68.4637 145.21C68.0827 147.333 69.4978 149.129 71.6205 149.129L108.794 149.184C110.917 149.184 112.985 147.442 113.42 145.319L118.863 116.364C119.353 114.187 118.917 112.337 116.903 110.214L100.848 99.3287C100.303 98.9477 99.6502 98.7845 98.9971 98.8933H84.9989C83.7773 98.2528 81.8939 98.0373 80.3832 98.8933L60.2453 110.16C60.2453 110.214 60.1909 110.214 60.1909 110.214C57.7961 111.847 56.4899 113.697 56.0001 116.147C55.9456 116.636 56.2178 117.017 56.6532 117.126Z" fill="black"/>
<path d="M55.0744 149.129L92.2478 149.184C94.3704 149.184 96.4386 147.496 96.8741 145.374L102.317 117.017C102.698 114.895 102.317 113.153 100.303 111.031L84.2471 100.363C83.3762 99.7642 82.2333 99.7643 81.308 100.254L61.1702 111.52C58.7754 113.099 57.6869 114.84 57.3059 116.909L51.8632 145.265C51.5367 147.388 52.9517 149.129 55.0744 149.129Z" fill="white"/>
<path fill-rule="evenodd" clip-rule="evenodd" d="M68.7355 124.637H63.7826C63.5105 124.637 63.2928 124.365 63.3472 124.147L64.0548 120.337C64.1092 120.065 64.3813 119.848 64.6535 119.848H69.6063C69.9329 119.848 70.0961 120.065 70.0417 120.337L69.3342 124.147C69.2797 124.419 69.0076 124.637 68.7355 124.637ZM67.1027 133.509H62.1498C61.8233 133.509 61.66 133.291 61.7144 133.019L62.422 129.209C62.4764 128.937 62.7485 128.719 63.0207 128.719H67.9735C68.3 128.719 68.4633 128.937 68.4089 129.209L67.7013 133.019C67.6469 133.291 67.3748 133.509 67.1027 133.509Z" fill="black"/>
<path d="M139.707 149.837H52.5156C52.0802 149.837 51.6992 149.456 51.6992 149.02C51.6992 148.585 52.0802 148.204 52.5156 148.204H139.707C140.143 148.204 140.523 148.585 140.523 149.02C140.523 149.456 140.143 149.837 139.707 149.837Z" fill="black"/>
<path d="M106.399 0.000180722C91.9212 0.0546074 78.6411 12.3006 76.7362 27.4312C75.3211 38.752 79.4031 65.0944 88.4923 72.6597C89.7986 73.7483 94.9147 73.3129 97.2006 73.0952C105.147 72.4421 127.244 42.3985 129.149 27.2679C131.054 12.1918 120.876 -0.0542459 106.399 0.000180722ZM91.2137 56.5495C82.1788 56.5495 80.4372 37.0103 81.6346 28.0299C82.7775 18.9951 87.4038 8.54517 96.4386 8.54517C105.473 8.54517 120.441 18.6141 119.298 27.6489C118.155 36.6837 100.194 56.5495 91.2137 56.5495Z" fill="black"/>
<path d="M99.5407 0.000180722C85.0632 0.0546074 71.7831 12.3006 69.8781 27.4312C67.9732 42.5618 82.3418 73.1496 90.3426 73.0952C98.2344 73.0952 120.386 42.3985 122.291 27.2679C124.196 12.1918 114.018 -0.0542459 99.5407 0.000180722ZM96.5472 49.855C96.4383 50.236 96.0029 50.5081 95.6219 50.5081H89.0363C88.6553 50.5081 88.4376 50.1815 88.5465 49.855L90.1793 44.8477C90.2881 44.4668 90.7235 44.1946 91.1045 44.1946H97.6902C98.0711 44.1946 98.2888 44.5212 98.18 44.8477L96.5472 49.855ZM109.827 28.9552C109.011 29.9348 107.487 31.2411 105.255 32.8194L103.078 34.3434C101.881 35.1598 101.065 36.1395 100.575 37.2824C100.303 37.9356 99.7584 38.6431 99.1052 40.2215C98.9964 40.4392 98.8331 40.6025 98.6154 40.6025H91.7032C91.4855 40.6025 91.3222 40.3848 91.4311 40.167C92.3563 37.1736 93.336 35.2142 93.9891 34.0713C94.6423 32.8739 96.0574 31.5132 98.2344 29.9348L100.466 28.3565C101.173 27.8666 101.827 27.3224 102.316 26.7237C103.187 25.6896 103.732 24.5466 103.84 23.3492C104.004 21.9341 103.786 20.6279 103.078 19.4849C102.425 18.342 100.956 17.7433 98.7787 17.7433C96.6016 17.7433 95.0232 18.4508 93.9347 19.9203C92.8462 21.3354 92.1931 22.8594 92.0298 24.3833H83.9746C84.8999 19.0495 87.2402 15.2941 90.9957 13.117C93.3904 11.7019 96.1662 10.9944 99.3774 10.9944C103.568 10.9944 106.943 11.974 109.501 13.9878C112.004 16.0016 113.038 18.9951 112.549 22.9138C112.113 25.2541 111.242 27.3224 109.827 28.9552Z" fill="#FF3D00"/>
</svg>
