<svg width="200" height="150" viewBox="0 0 200 150" fill="none" xmlns="http://www.w3.org/2000/svg">
<path d="M115.173 43.5794L83 43.2034L81.2034 49.2619C81.1616 49.4708 80.9945 49.5961 80.7856 49.6379L76.4819 50.39C76.273 50.4318 76.1059 50.5989 76.0223 50.8078L74.4764 56.3231C74.4346 56.5321 74.2675 56.6992 74.0585 56.741L69.6296 57.6184C69.4207 57.6602 69.2535 57.8273 69.17 58.0362L68.1254 62.9666C68.0836 63.1755 67.9165 63.3426 67.7076 63.3844L63.1115 64.3872C62.9026 64.429 62.7354 64.5961 62.6936 64.805L61.7326 69.6936C61.6909 69.9025 61.5237 70.1114 61.273 70.1532L57.3455 70.9053C56.9276 70.9889 56.0502 71.2814 56.3009 71.6156L53.1254 88.3705" fill="#FF3000"/>
<path d="M83.0837 54.025L62.6102 82.6462C62.5266 82.9805 68.8358 78.259 69.1701 78.259H108.028C108.279 78.259 108.488 78.0919 108.529 77.8412L115.131 42.4512L83.0837 54.025Z" fill="#FF3000"/>
<path d="M146.635 7.01953H97.791C96.9136 7.01953 96.1615 7.64627 96.0362 8.48193L95.5348 11.156C95.493 11.3649 95.3259 11.4903 95.117 11.4903H90.5209C89.9359 11.4903 89.4345 11.9081 89.3509 12.4513L82.9582 44.4569C82.8746 44.7911 83.1671 45.1254 83.5014 45.1254H131.635C133.139 45.1254 134.476 44.039 134.769 42.5766L135.27 40.0697H141.329L147.304 7.89696C147.387 7.39557 147.053 7.01953 146.635 7.01953Z" fill="#FF3000"/>
<path d="M80.2424 65.1393L109.95 70.6964L110.869 65.8078L80.2424 65.1393Z" fill="black"/>
<path d="M116.51 68.1477L116.008 70.8218C115.925 71.2814 116.259 71.6574 116.719 71.6574C117.387 71.6156 118.098 71.6156 118.766 71.5738C119.1 71.5738 119.393 71.3232 119.435 71.0307L120.605 64.8051C120.73 64.2201 120.27 63.6351 119.644 63.6351H71.4263C70.4235 63.6351 69.546 64.3454 69.3789 65.3482L69.1282 66.6853C69.0864 66.8524 69.2118 67.0195 69.4207 67.0195H115.591C116.176 67.0195 116.635 67.5627 116.51 68.1477Z" fill="#FF3000"/>
<path d="M140.995 40.6546C140.995 40.6546 140.953 40.6546 140.995 40.6546L95.5767 40.4874C95.2424 40.4874 94.95 40.195 94.95 39.8607C94.95 39.5264 95.2424 39.2339 95.5767 39.2339L140.995 39.4011C141.329 39.4011 141.621 39.6936 141.621 40.0278C141.621 40.3621 141.329 40.6546 140.995 40.6546Z" fill="black"/>
<path d="M101.102 25.0073C101.458 23.6216 101.113 22.3354 100.331 22.1343C99.5486 21.9333 98.6258 22.8936 98.2697 24.2793C97.9136 25.6649 98.259 26.9512 99.0412 27.1522C99.8234 27.3532 100.746 26.3929 101.102 25.0073Z" fill="black"/>
<path d="M138.279 80.1393C138.237 80.1393 138.237 80.1393 138.195 80.1393C137.986 80.0975 137.819 79.8468 137.861 79.6379L154.281 4.42897C154.532 3.46797 154.365 2.59053 153.864 1.96379C153.362 1.33705 152.568 0.961004 151.649 0.961004L76.1059 0.835655C74.0586 0.835655 71.9694 2.46518 71.4263 4.51254L55.2981 78.3844C55.2563 78.5933 55.0056 78.7604 54.7967 78.7187C54.5878 78.6769 54.4207 78.4262 54.4625 78.2173L70.5906 4.30362C71.2173 1.92201 73.6407 0 76.0641 0L151.607 0.0835642C152.819 0.0835642 153.822 0.543177 154.49 1.37883C155.159 2.25627 155.368 3.3844 155.034 4.55432L138.613 79.7632C138.613 80.0139 138.446 80.1393 138.279 80.1393Z" fill="black"/>
<path d="M74.2674 22.5209C74.2256 22.5209 74.2256 22.5209 74.1838 22.5209C73.9749 22.4791 73.8078 22.2702 73.8496 22.0195C74.1421 20.5989 75.5209 13.0362 75.5627 13.0362C75.6045 12.8273 75.688 12.7855 75.8134 12.7019C75.9387 12.6602 76.1058 12.7019 76.2312 12.7855C76.3148 12.8691 76.3566 12.9109 76.3566 13.1616L76.273 13.5376V13.5794C76.2312 13.7883 76.1894 14.039 76.1476 14.3315L75.6462 17.0891C75.2702 19.1783 74.8524 21.3927 74.6852 22.1448C74.6435 22.3538 74.4763 22.5209 74.2674 22.5209Z" fill="black"/>
<path d="M77.4431 9.31758C77.3595 9.31758 77.2759 9.2758 77.1924 9.23401C76.9835 9.10866 76.9417 8.85796 77.067 8.64905C78.6548 6.30922 81.1617 5.01395 83.5433 5.34822C83.7523 5.39 83.9194 5.59891 83.9194 5.80782C83.8776 6.01674 83.6687 6.18387 83.4598 6.18387C81.4124 5.89139 79.1979 7.06131 77.7773 9.15044C77.6938 9.27579 77.5684 9.31758 77.4431 9.31758Z" fill="black"/>
<path d="M52.1227 97.7298H133.683C134.351 97.7298 135.02 97.1866 135.145 96.5181L136.858 87.6184C136.983 86.9499 136.524 86.4067 135.855 86.4067H54.2954C53.6269 86.4067 52.9584 86.9499 52.833 87.6184L51.1199 96.5181C51.0363 97.1866 51.4542 97.7298 52.1227 97.7298Z" fill="black"/>
<path d="M59.9778 104.164H119.476C119.978 104.164 120.437 103.788 120.521 103.287L121.774 96.7688C121.858 96.2674 121.524 95.8914 121.064 95.8914H61.5655C61.0641 95.8914 60.6045 96.2674 60.521 96.7688L59.2675 103.287C59.1839 103.788 59.4764 104.164 59.9778 104.164Z" fill="black"/>
<path d="M40.507 92.9666L146.468 93.0084C147.345 93.0084 148.181 92.2981 148.348 91.4624L150.563 79.8886C150.73 79.0112 150.145 78.3426 149.267 78.3426L43.3065 78.3008C42.429 78.3008 41.5934 79.0112 41.4263 79.8468L39.2118 91.4206C39.0446 92.2981 39.6296 92.9666 40.507 92.9666Z" fill="#DDDDDD"/>
<path d="M151.398 90.9192L38.4178 90.1671C38.1671 90.1671 38 89.9582 38 89.7493C38 89.5404 38.2089 89.3315 38.4178 89.3315L151.398 90.0836C151.649 90.0836 151.816 90.2925 151.816 90.5014C151.816 90.7521 151.607 90.9192 151.398 90.9192Z" fill="black"/>
<path d="M136.907 86.1386C137.836 85.2737 137.989 83.929 137.25 83.1352C136.511 82.3414 135.159 82.3991 134.23 83.264C133.301 84.129 133.147 85.4736 133.886 86.2674C134.626 87.0612 135.978 87.0036 136.907 86.1386Z" fill="black"/>
<path d="M119.782 85.8423C120.711 84.9773 120.864 83.6327 120.125 82.8389C119.386 82.0451 118.034 82.1027 117.105 82.9677C116.176 83.8326 116.022 85.1773 116.761 85.9711C117.501 86.7649 118.853 86.7072 119.782 85.8423Z" fill="black"/>
<path d="M102.518 85.8257C103.447 84.9607 103.601 83.6161 102.862 82.8223C102.122 82.0285 100.77 82.0861 99.8413 82.9511C98.9124 83.816 98.7586 85.1607 99.4977 85.9545C100.237 86.7483 101.589 86.6906 102.518 85.8257Z" fill="black"/>
<path d="M85.8587 85.8911C86.7876 85.0262 86.9415 83.6815 86.2023 82.8877C85.4632 82.0939 84.111 82.1516 83.1821 83.0165C82.2532 83.8815 82.0993 85.2261 82.8385 86.0199C83.5776 86.8137 84.9298 86.7561 85.8587 85.8911Z" fill="black"/>
<path d="M69.5696 85.5947C70.4985 84.7298 70.6523 83.3851 69.9132 82.5913C69.1741 81.7975 67.8219 81.8552 66.8929 82.7201C65.964 83.5851 65.8102 84.9297 66.5493 85.7235C67.2885 86.5173 68.6407 86.4597 69.5696 85.5947Z" fill="black"/>
<path d="M53.1415 85.5781C54.0704 84.7132 54.2242 83.3685 53.4851 82.5747C52.746 81.7809 51.3938 81.8386 50.4648 82.7035C49.5359 83.5685 49.3821 84.9131 50.1212 85.7069C50.8603 86.5007 52.2126 86.4431 53.1415 85.5781Z" fill="black"/>
<path d="M107.944 45.1253H114.713L114.379 46.922L107.944 45.1253Z" fill="black"/>
<path d="M159.212 47.6741C159.17 47.6741 159.128 47.6741 159.087 47.6741C158.752 47.5905 158.543 47.2562 158.627 46.922C158.961 45.4178 159.212 43.9554 159.379 42.5348C159.421 42.2005 159.713 41.9498 160.089 41.9916C160.424 42.0334 160.674 42.3259 160.632 42.7019C160.465 44.2061 160.215 45.6685 159.839 47.2562C159.755 47.4652 159.504 47.6741 159.212 47.6741Z" fill="white"/>
<path d="M54.003 50.0558H70.5072C70.7579 50.0558 70.9668 49.8886 71.0086 49.6379L71.5935 46.546C71.6353 46.3371 71.4682 46.1282 71.2593 46.1282H54.7551C54.5044 46.1282 54.2955 46.2953 54.2537 46.546L53.6687 49.6379C53.627 49.8468 53.7523 50.0558 54.003 50.0558Z" fill="#DDDDDD"/>
<path d="M152.359 41.0306H160.632C160.758 41.0306 160.841 40.9471 160.883 40.8217L161.176 39.2757C161.217 39.1504 161.134 39.0668 161.009 39.0668H152.736C152.61 39.0668 152.527 39.1504 152.485 39.2757L152.192 40.8217C152.151 40.9471 152.234 41.0306 152.359 41.0306Z" fill="#DDDDDD"/>
<path d="M122.15 119.833H126.329C126.579 119.833 126.788 119.624 126.83 119.415L127.457 116.24C127.499 115.989 127.331 115.822 127.081 115.822H122.903C122.652 115.822 122.443 116.031 122.401 116.24L121.774 119.415C121.774 119.624 121.9 119.833 122.15 119.833Z" fill="#DDDDDD"/>
<path d="M112.206 103.203H115.215C115.382 103.203 115.549 103.078 115.591 102.911L116.05 100.613C116.092 100.446 115.967 100.32 115.8 100.32H112.791C112.624 100.32 112.457 100.446 112.415 100.613L111.956 102.911C111.914 103.078 112.039 103.203 112.206 103.203Z" fill="#DDDDDD"/>
<path d="M51.8302 59.7493H54.0447C54.17 59.7493 54.2954 59.6657 54.3372 59.5404L54.6714 57.8691C54.7132 57.7437 54.6296 57.6602 54.5043 57.6602H52.2898C52.1645 57.6602 52.0391 57.7437 51.9973 57.8691L51.6631 59.5404C51.6213 59.6657 51.7048 59.7493 51.8302 59.7493Z" fill="#DDDDDD"/>
<path d="M48.3205 120.919H50.535C50.6603 120.919 50.7857 120.836 50.8274 120.71L51.1617 119.039C51.2035 118.914 51.1199 118.83 50.9946 118.83H48.7801C48.6547 118.83 48.5294 118.914 48.4876 119.039L48.1534 120.71C48.1116 120.794 48.1951 120.919 48.3205 120.919Z" fill="#DDDDDD"/>
<path d="M157.415 17.9248H160.423C160.591 17.9248 160.758 17.7994 160.8 17.6323L161.259 15.3342C161.301 15.1671 161.176 15.0417 161.008 15.0417H158C157.833 15.0417 157.666 15.1671 157.624 15.3342L157.164 17.6323C157.123 17.7994 157.248 17.9248 157.415 17.9248Z" fill="#DDDDDD"/>
<path d="M49.2395 150H42.5961C42.2618 150 41.9693 149.708 41.9693 149.373C41.9693 149.039 42.2618 148.747 42.5961 148.747H49.2395C49.5738 148.747 49.8663 149.039 49.8663 149.373C49.8663 149.708 49.5738 150 49.2395 150Z" fill="black"/>
<path d="M135.228 150H55.9666C55.6323 150 55.3398 149.708 55.3398 149.373C55.3398 149.039 55.6323 148.747 55.9666 148.747H135.228C135.563 148.747 135.855 149.039 135.855 149.373C135.855 149.708 135.563 150 135.228 150Z" fill="black"/>
<path d="M135.187 149.373C135.145 149.373 135.145 149.373 135.103 149.373C134.769 149.331 134.518 148.997 134.56 148.663L137.819 124.596C137.861 124.262 138.195 124.011 138.529 124.053C138.864 124.095 139.114 124.429 139.073 124.763L135.813 148.83C135.772 149.123 135.479 149.373 135.187 149.373Z" fill="black"/>
<path d="M136.44 140.139H134.184C133.432 140.139 132.763 139.847 132.304 139.304C131.844 138.76 131.635 138.05 131.719 137.298L132.554 131.031C132.596 130.696 132.93 130.446 133.265 130.487C133.599 130.529 133.85 130.863 133.808 131.198L132.972 137.465C132.93 137.841 133.014 138.217 133.265 138.51C133.474 138.76 133.85 138.928 134.226 138.928H136.482C136.816 138.928 137.109 139.22 137.109 139.554C137.109 139.889 136.774 140.139 136.44 140.139Z" fill="black"/>
<path d="M139.114 137.34H136.816C136.482 137.34 136.189 137.047 136.189 136.713C136.189 136.379 136.482 136.086 136.816 136.086H139.114C140.159 136.086 141.12 135.209 141.245 134.206L142.123 127.855C142.164 127.521 142.499 127.27 142.833 127.312C143.167 127.354 143.418 127.688 143.376 128.022L142.499 134.373C142.248 136.003 140.744 137.34 139.114 137.34Z" fill="black"/>
<path d="M121.524 149.791C121.482 149.791 121.44 149.791 121.44 149.791C121.106 149.749 120.855 149.415 120.939 149.081L123.738 132.242C123.78 131.908 124.114 131.657 124.449 131.741C124.783 131.783 125.034 132.117 124.95 132.451L122.151 149.29C122.109 149.582 121.816 149.791 121.524 149.791Z" fill="black"/>
<path d="M124.156 145.279H122.568C122.234 145.279 121.942 144.986 121.942 144.652C121.942 144.318 122.234 144.025 122.568 144.025H124.114C124.616 144.025 125.117 143.524 125.201 142.939L125.995 138.259C126.036 137.925 126.371 137.674 126.705 137.758C127.039 137.799 127.29 138.134 127.206 138.468L126.412 143.148C126.329 144.318 125.284 145.279 124.156 145.279Z" fill="black"/>
<path d="M123.028 140.766H121.44C120.855 140.766 120.312 140.515 119.936 140.056C119.518 139.554 119.351 138.886 119.476 138.175L120.02 134.791C120.061 134.457 120.396 134.206 120.73 134.29C121.064 134.331 121.315 134.666 121.231 135L120.688 138.384C120.646 138.719 120.688 139.053 120.855 139.262C120.981 139.429 121.189 139.512 121.398 139.512H122.944C123.279 139.512 123.571 139.805 123.571 140.139C123.655 140.473 123.362 140.766 123.028 140.766Z" fill="black"/>
<path d="M45.2285 150C45.1867 150 45.1449 150 45.1449 150C44.8106 149.958 44.56 149.624 44.6435 149.29L47.443 132.451C47.4847 132.117 47.819 131.866 48.1533 131.95C48.4875 131.992 48.7382 132.326 48.6547 132.66L45.8552 149.499C45.7717 149.749 45.521 150 45.2285 150Z" fill="black"/>
<path d="M46.7327 140.975H45.1449C44.56 140.975 44.0168 140.724 43.6407 140.265C43.2229 139.763 43.0558 139.095 43.1811 138.384L43.7243 135C43.7661 134.666 44.1003 134.415 44.4346 134.499C44.7689 134.54 45.0196 134.875 44.936 135.209L44.3928 138.593C44.351 138.928 44.3928 139.262 44.56 139.471C44.6853 139.638 44.8942 139.721 45.1031 139.721H46.6491C46.9834 139.721 47.2758 140.014 47.2758 140.348C47.3594 140.682 47.0669 140.975 46.7327 140.975Z" fill="black"/>
<path d="M47.3595 147.744H45.8971C45.5628 147.744 45.2703 147.451 45.2703 147.117C45.2703 146.783 45.5628 146.49 45.8971 146.49H47.3595C48.3622 146.49 49.365 145.613 49.4904 144.61L50.7856 138.217C50.8692 137.883 51.2035 137.674 51.5377 137.716C51.872 137.799 52.0809 138.134 52.0391 138.468L50.7439 144.819C50.535 146.407 49.0308 147.744 47.3595 147.744Z" fill="black"/>
</svg>
