<svg width="80" height="66" viewBox="0 0 80 66" fill="none" xmlns="http://www.w3.org/2000/svg">
<g clip-path="url(#clip0_1_47536)">
<path d="M76.2326 59.3685L56.3839 2.43204C55.3756 -0.473207 47.8279 -0.220578 46.2434 1.54783L8.67783 59.3685C6.57484 62.3053 7.81359 66.0001 10.896 66.0001H71.5657C74.6481 66.0001 77.2696 62.3053 76.2326 59.3685ZM46.9636 55.1685C45.7249 56.4001 44.2845 57.0001 42.6136 57.0001C40.9428 57.0001 39.704 56.4001 38.9262 55.2001C38.1196 54.0001 37.9179 52.4844 38.2636 50.6212C38.6093 48.7581 39.3871 47.2107 40.6259 46.0107C41.8646 44.7791 43.305 44.1791 44.9759 44.1791C46.6468 44.1791 47.8567 44.7791 48.6345 46.0107C49.4123 47.2423 49.6428 48.7581 49.2971 50.5896C48.9802 52.4212 48.2024 53.9686 46.9636 55.1685ZM51.9474 36.2845C51.2848 39.8528 49.1242 41.6213 45.4368 41.6213C41.7494 41.6213 40.2226 39.8528 40.8852 36.2845L43.7372 20.874C44.3997 17.3056 46.5603 15.5372 50.2478 15.5372C53.9352 15.5372 55.462 17.3056 54.7994 20.874L51.9474 36.2845Z" fill="black"/>
<path d="M72.1994 59.3686L52.3507 2.43211C51.3424 -0.473137 47.5397 -0.473137 45.4656 2.43211L4.64462 59.3686C2.54164 62.3054 3.78038 66.0001 6.86284 66.0001H67.5325C70.6149 66.0001 73.2365 62.3054 72.1994 59.3686ZM42.9304 55.1686C41.6917 56.4002 40.2513 57.0002 38.5804 57.0002C36.9096 57.0002 35.6708 56.4002 34.893 55.2002C34.0864 54.0002 33.8847 52.4844 34.2304 50.6213C34.5761 48.7581 35.3539 47.2108 36.5927 46.0108C37.8314 44.7792 39.2718 44.1792 40.9427 44.1792C42.6136 44.1792 43.8235 44.7792 44.6013 46.0108C45.3791 47.2424 45.6096 48.7581 45.2639 50.5897C44.947 52.4213 44.1692 53.9686 42.9304 55.1686ZM47.9142 36.2845C47.2516 39.8529 45.091 41.6213 41.4036 41.6213C37.7162 41.6213 36.1894 39.8529 36.852 36.2845L39.704 20.8741C40.3665 17.3057 42.5271 15.5373 46.2146 15.5373C49.902 15.5373 51.4288 17.3057 50.7662 20.8741L47.9142 36.2845Z" fill="#FF3D00"/>
<path d="M45.4656 2.46371L4.64465 59.3686C2.59929 62.2423 3.7228 65.8107 6.66121 65.9686L51.3424 0.947927C49.758 -0.315223 47.0788 0.190038 45.4656 2.46371Z" fill="#FF9600"/>
</g>
<defs>
<clipPath id="clip0_1_47536">
<rect width="80" height="65.7708" fill="white" transform="translate(0 0.229248)"/>
</clipPath>
</defs>
</svg>
