<svg width="240" height="180" viewBox="0 0 240 180" fill="none" xmlns="http://www.w3.org/2000/svg">
<g clip-path="url(#clip0_1_31421)">
<path d="M149.615 53.4741C152.062 54.3072 154.301 55.3486 156.332 56.7023C160.706 55.5568 165.079 54.9841 169.297 54.9841C170.338 54.9841 171.328 55.0362 172.369 55.1403C172.629 54.151 172.89 53.1096 173.098 52.0683C177.055 30.6161 161.591 13.1212 138.472 12.9129C115.406 12.7567 93.4855 29.9913 89.5283 51.4435C89.5283 51.5476 89.4762 51.6517 89.4762 51.7559C91.5589 51.4955 93.6417 51.3393 95.6723 51.3393C101.4 51.3914 106.659 52.4848 111.345 54.4634C114.469 53.0576 117.645 51.9641 121.03 51.1831C125.039 50.7145 129.1 50.2459 133.109 49.7773C139.306 49.6211 144.825 50.8186 149.615 53.4741Z" fill="#FF9600"/>
<path d="M145.814 13.5898C125.143 17.1305 107.909 33.5841 104.941 52.4328C107.18 52.9535 109.314 53.6304 111.345 54.4634C114.469 53.0576 117.645 51.9642 121.03 51.1831C125.039 50.7145 129.1 50.2459 133.11 49.7773C136.598 49.6732 139.879 50.0376 142.951 50.8707C144.773 50.4542 146.595 50.0376 148.418 49.6211C154.614 48.7359 160.393 49.3087 165.6 51.2873C168.152 51.7559 170.547 52.5369 172.734 53.5783C172.838 53.1097 172.942 52.589 173.046 52.0683C176.639 32.9592 164.715 16.9743 145.814 13.5898Z" fill="#FF3D00"/>
<path d="M162.32 38.4264C154.301 40.2488 121.498 41.5505 121.498 41.5505L167.266 52.1725L173.671 46.9136C174.243 33.3758 166.954 21.9729 155.082 16.4536C155.499 16.9222 175.857 35.3023 162.32 38.4264Z" fill="black"/>
<path d="M103.378 35.5627C103.222 35.5627 103.066 35.5106 102.91 35.4065C102.545 35.1462 102.493 34.6775 102.754 34.3131C103.535 33.2717 104.368 32.2303 105.201 31.241C105.461 30.9286 105.982 30.8766 106.294 31.1369C106.607 31.3972 106.659 31.9179 106.398 32.2303C105.565 33.2196 104.784 34.2089 104.003 35.1982C103.847 35.4586 103.587 35.5627 103.378 35.5627Z" fill="white"/>
<path d="M110.199 28.0127C109.991 28.0127 109.783 27.9085 109.627 27.7523C109.314 27.4399 109.366 26.9192 109.679 26.6589C112.751 23.8472 116.187 21.4 119.832 19.4214C120.197 19.2131 120.665 19.3693 120.873 19.7338C121.082 20.0983 120.925 20.5669 120.561 20.7752C117.02 22.7538 113.688 25.0969 110.72 27.8044C110.564 27.9606 110.356 28.0127 110.199 28.0127Z" fill="white"/>
<path d="M211.16 56.7024C211.108 56.7024 211.056 56.7024 211.004 56.7024C210.587 56.5982 210.275 56.2337 210.379 55.8172C210.483 55.2444 210.275 54.6717 209.806 54.0469C204.599 47.7466 172.369 42.7481 134.88 42.4877C88.1225 42.1232 55.4757 48.6838 54.3301 54.932C54.226 55.3486 53.8615 55.661 53.445 55.5569C53.0284 55.4527 52.716 55.0882 52.8202 54.6717C54.4864 45.716 95.8806 40.6133 134.932 40.9257C173.462 41.186 205.484 46.2887 211.056 53.0576C211.837 54.0469 212.149 55.0362 211.993 56.0775C211.889 56.442 211.524 56.7024 211.16 56.7024Z" fill="black"/>
<path d="M53.3408 55.9214C51.9349 63.4713 86.0917 69.8757 129.621 70.1881C173.15 70.5005 209.546 64.6688 210.951 57.0669C212.357 49.4649 178.253 42.7481 134.723 42.3836C91.1944 42.0191 54.7466 48.3715 53.3408 55.9214Z" fill="#FF3D00"/>
<path d="M129.531 71.1256C143.593 71.0922 154.986 68.4775 154.979 65.2855C154.971 62.0936 143.565 59.533 129.503 59.5665C115.441 59.5999 104.048 62.2146 104.056 65.4065C104.063 68.5985 115.469 71.159 129.531 71.1256Z" fill="#DDDDDD"/>
<path d="M130.506 69.4591C130.142 69.4591 129.777 69.4591 129.413 69.4591C115.25 69.355 103.639 67.2722 101.244 64.3564C100.671 63.6274 100.619 63.0026 100.723 62.5861C101.504 58.3685 116.812 56.2858 131.547 56.39C145.71 56.4941 157.321 58.5768 159.716 61.4926C160.289 62.2216 160.341 62.8464 160.237 63.263C159.508 67.3764 144.877 69.4591 130.506 69.4591ZM130.454 57.8999C113.532 57.8999 102.65 60.7116 102.285 62.8464C102.285 62.8985 102.233 63.0547 102.493 63.3671C104.264 65.5019 114.313 67.7929 129.465 67.8971C147.012 68.0012 158.363 65.1374 158.779 62.9506C158.779 62.8985 158.831 62.7423 158.571 62.4299C156.801 60.2951 146.751 58.0041 131.599 57.8999C131.183 57.8999 130.818 57.8999 130.454 57.8999Z" fill="black"/>
<path d="M79.6875 179.011L104.576 64.3044H155.186L133.682 179.011H79.6875Z" fill="#DDDDDD"/>
<path d="M97.7551 59.6701C97.7031 59.6701 97.5989 59.6701 97.5468 59.6181L70.3151 52.2244C69.8986 52.1202 69.6382 51.7037 69.7424 51.2871C69.8465 50.8706 70.2631 50.6102 70.6796 50.7144L97.9113 58.1081C98.3279 58.2122 98.5882 58.6288 98.4841 59.0453C98.3799 59.4618 98.0675 59.6701 97.7551 59.6701Z" fill="black"/>
<path d="M133.682 54.4635C133.63 54.4635 133.578 54.4635 133.526 54.4635C133.11 54.3593 132.797 53.9949 132.901 53.5783L134.151 46.7053C134.203 46.2888 134.619 45.9763 135.036 46.0805C135.453 46.1846 135.765 46.5491 135.661 46.9656L134.411 53.8387C134.411 54.2031 134.099 54.4635 133.682 54.4635Z" fill="black"/>
<path d="M165.912 60.1909C165.548 60.1909 165.236 59.9305 165.131 59.5661C165.027 59.1495 165.34 58.733 165.756 58.6288L197.934 52.4848C198.351 52.3806 198.768 52.6931 198.872 53.1096C198.976 53.5261 198.663 53.9427 198.247 54.0468L166.069 60.1909C166.017 60.1909 165.965 60.1909 165.912 60.1909Z" fill="black"/>
<path d="M101.087 151.467C101.035 151.467 100.983 151.467 100.931 151.467C100.515 151.363 100.254 150.946 100.306 150.529L101.243 145.895C101.348 145.479 101.712 145.218 102.181 145.271C102.597 145.375 102.858 145.791 102.806 146.208L101.868 150.842C101.764 151.206 101.452 151.467 101.087 151.467Z" fill="black"/>
<path d="M103.274 140.428C103.222 140.428 103.17 140.428 103.118 140.428C102.702 140.324 102.441 139.907 102.493 139.491C104.055 131.681 105.617 123.818 107.127 116.008C107.231 115.592 107.596 115.331 108.065 115.383C108.481 115.487 108.741 115.852 108.689 116.321C107.127 124.131 105.617 131.993 104.055 139.803C103.951 140.168 103.639 140.428 103.274 140.428Z" fill="black"/>
<path d="M111.189 164.536C111.137 164.536 111.085 164.536 111.032 164.536C110.616 164.432 110.356 164.067 110.408 163.599C111.241 159.225 113.376 148.343 114.209 143.969C114.313 143.552 114.677 143.292 115.146 143.344C115.562 143.448 115.823 143.813 115.771 144.281C114.938 148.655 112.803 159.537 111.97 163.911C111.918 164.275 111.553 164.536 111.189 164.536Z" fill="black"/>
<path d="M116.656 134.44C116.604 134.44 116.552 134.44 116.5 134.44C116.083 134.336 115.823 133.972 115.875 133.503C116.396 130.9 116.864 128.244 117.385 125.641C117.489 125.224 117.854 124.964 118.322 125.016C118.739 125.12 118.999 125.485 118.947 125.953C118.426 128.557 117.958 131.212 117.437 133.815C117.385 134.18 117.02 134.44 116.656 134.44Z" fill="black"/>
<path d="M125.247 155.32C125.195 155.32 125.143 155.32 125.091 155.32C124.674 155.216 124.414 154.851 124.466 154.383C126.965 141.522 129.465 128.557 131.912 115.956C132.016 115.54 132.381 115.279 132.849 115.331C133.266 115.435 133.526 115.8 133.474 116.269C131.027 128.869 128.527 141.834 126.028 154.695C125.924 155.059 125.612 155.32 125.247 155.32Z" fill="black"/>
<path d="M173.462 179.792H76.7715C76.355 179.792 75.9905 179.427 75.9905 179.011C75.9905 178.594 76.355 178.23 76.7715 178.23H173.462C173.879 178.23 174.243 178.594 174.243 179.011C174.243 179.427 173.931 179.792 173.462 179.792Z" fill="black"/>
<path d="M71.5647 179.792H66.8786C66.462 179.792 66.0976 179.427 66.0976 179.011C66.0976 178.594 66.462 178.23 66.8786 178.23H71.5127C71.9292 178.23 72.2937 178.594 72.2937 179.011C72.2937 179.427 71.9813 179.792 71.5647 179.792Z" fill="black"/>
<path d="M80.9371 85.6003H86.2481C86.5605 85.6003 86.8729 85.34 86.925 85.0797L87.706 81.0183C87.758 80.7059 87.5498 80.4456 87.2374 80.4456H81.9264C81.614 80.4456 81.3016 80.7059 81.2495 80.9662L80.4685 85.0276C80.4685 85.34 80.6247 85.6003 80.9371 85.6003Z" fill="black"/>
<path d="M178.877 37.9577H184.188C184.501 37.9577 184.813 37.6974 184.865 37.4371L185.646 33.3757C185.698 33.0633 185.49 32.803 185.178 32.803H179.867C179.554 32.803 179.242 33.0633 179.19 33.3237L178.409 37.385C178.357 37.6974 178.565 37.9577 178.877 37.9577Z" fill="black"/>
<path d="M151.802 127.099H154.458C154.614 127.099 154.77 126.995 154.77 126.838L155.134 124.808C155.187 124.651 155.082 124.547 154.926 124.547H152.271C152.115 124.547 151.958 124.651 151.958 124.808L151.594 126.838C151.542 126.995 151.646 127.099 151.802 127.099Z" fill="black"/>
<path d="M75.2095 166.306H77.8649C78.0211 166.306 78.1773 166.202 78.1773 166.046L78.5418 164.015C78.5939 163.859 78.4898 163.755 78.3336 163.755H75.6781C75.5219 163.755 75.3657 163.859 75.3657 164.015L75.0012 166.046C74.9491 166.202 75.0533 166.306 75.2095 166.306Z" fill="black"/>
<path d="M120.197 8.64333C119.936 8.64333 119.676 8.48713 119.52 8.22679L115.458 1.1455C115.25 0.781023 115.354 0.312409 115.771 0.104136C116.187 -0.104137 116.604 2.35867e-06 116.812 0.416549L120.874 7.49783C121.082 7.86231 120.978 8.33092 120.561 8.5392C120.457 8.59126 120.301 8.64333 120.197 8.64333Z" fill="black"/>
<path d="M110.199 13.6939C110.043 13.6939 109.887 13.6418 109.731 13.5377L102.91 8.48706C102.545 8.22672 102.493 7.7581 102.754 7.39363C103.014 7.02915 103.483 6.97708 103.847 7.23742L110.668 12.288C111.033 12.5484 111.085 13.017 110.824 13.3815C110.668 13.5898 110.408 13.6939 110.199 13.6939Z" fill="black"/>
<path d="M158.467 180C158.363 180 158.31 180 158.206 179.948C157.477 179.792 157.061 179.115 157.217 178.386L159.456 167.66L152.687 179.323C152.323 179.948 151.542 180.156 150.917 179.792C150.292 179.427 150.084 178.646 150.448 178.021L161.278 159.329C161.591 158.756 162.268 158.548 162.892 158.756C163.465 158.964 163.83 159.589 163.726 160.214L159.82 178.907C159.612 179.583 159.039 180 158.467 180Z" fill="black"/>
<path d="M162.268 171.357C161.539 171.357 160.966 170.784 160.966 170.055V160.006C160.966 159.277 161.539 158.704 162.268 158.704C162.997 158.704 163.569 159.277 163.569 160.006V170.055C163.569 170.784 162.997 171.357 162.268 171.357Z" fill="black"/>
<path d="M163.104 156.942C164 156.424 164.401 155.439 163.998 154.742C163.595 154.045 162.542 153.899 161.646 154.417C160.749 154.934 160.349 155.919 160.751 156.617C161.154 157.314 162.207 157.459 163.104 156.942Z" fill="black"/>
<path d="M124.518 92.9419C124.414 92.9419 124.258 92.9419 124.154 92.8898C123.321 92.6815 122.8 91.8485 123.008 91.0154L127.642 71.698C127.851 70.8649 128.684 70.3442 129.517 70.5525C130.35 70.7608 130.871 71.5939 130.662 72.427L126.028 91.7443C125.872 92.4212 125.247 92.9419 124.518 92.9419Z" fill="black"/>
<path d="M124.108 98.7899C125.154 98.186 125.605 97.0101 125.116 96.1634C124.627 95.3167 123.383 95.1198 122.337 95.7237C121.291 96.3276 120.84 97.5035 121.329 98.3502C121.818 99.1969 123.062 99.3938 124.108 98.7899Z" fill="black"/>
</g>
<defs>
<clipPath id="clip0_1_31421">
<rect width="240" height="180" fill="white"/>
</clipPath>
</defs>
</svg>
