<svg width="200" height="150" viewBox="0 0 200 150" fill="none" xmlns="http://www.w3.org/2000/svg">
<path d="M117.278 88.5213H191.053C191.644 88.5213 192.236 88.0565 192.363 87.4227L193.926 79.3523C194.053 78.7607 193.63 78.2537 193.039 78.2537H119.264C118.672 78.2537 118.081 78.7185 117.954 79.3523L116.391 87.4227C116.264 88.0565 116.687 88.5213 117.278 88.5213Z" fill="#D7F4DF"/>
<path d="M25.2501 132.972L60.3628 133.014C61.8417 133.014 63.2783 131.831 63.5741 130.352L67.3769 110.62C67.6726 109.141 66.6586 107.958 65.1797 107.958L30.067 107.916C28.5882 107.916 27.1515 109.099 26.8558 110.577L23.053 130.31C22.7572 131.789 23.729 132.972 25.2501 132.972Z" fill="#D7F4DF"/>
<path d="M53.9826 121.901L137.011 122.028C141.828 122.028 146.433 118.225 147.321 113.535L159.49 50.1549C160.377 45.4647 157.25 41.6197 152.433 41.6197L69.4051 41.4929C64.5883 41.4929 59.9826 45.2957 59.0953 49.9859L46.9263 113.366C46.039 118.098 49.208 121.901 53.9826 121.901Z" fill="#45B874"/>
<path fill-rule="evenodd" clip-rule="evenodd" d="M48.5244 121.368C49.4011 121.713 50.3844 121.901 51.4473 121.901L134.475 122.028C139.292 122.028 143.898 118.225 144.785 113.535L156.954 50.155C157.842 45.4649 154.715 41.6198 149.898 41.6198L141.64 41.6072L48.5244 121.368Z" fill="#029D53"/>
<path d="M114.236 70.8169L106.419 65.6197C106.166 65.4507 105.828 65.3662 105.532 65.4085H97.6729L99.532 68.662L95.2222 71.0704C94.0391 71.831 93.532 72.6761 93.363 73.6902L90.7011 87.5071C90.4898 88.5211 91.2081 89.3662 92.2222 89.3662L110.307 89.4085C111.363 89.4085 112.335 88.5634 112.546 87.5493L115.208 73.7324C115.419 72.7183 115.208 71.831 114.236 70.8169Z" fill="black"/>
<path d="M84.1941 89.3662L102.279 89.4085C103.335 89.4085 104.307 88.5634 104.518 87.5493L107.18 73.7324C107.391 72.7183 107.18 71.831 106.208 70.8169L98.3912 65.6198C97.9687 65.324 97.4194 65.324 96.9546 65.5775L87.1518 71.0705C85.9687 71.831 85.4617 72.6761 85.2926 73.6902L82.6307 87.5071C82.4194 88.5211 83.1377 89.3662 84.1941 89.3662Z" fill="white"/>
<path d="M88.4193 77.4507H90.8277C90.9545 77.4507 91.0813 77.3239 91.1235 77.1971L91.4616 75.338C91.5038 75.2112 91.377 75.0845 91.2503 75.0845H88.8418C88.7151 75.0845 88.5883 75.2112 88.5461 75.338L88.208 77.1971C88.1658 77.3239 88.2503 77.4507 88.4193 77.4507Z" fill="black"/>
<path d="M87.6166 81.7607H90.025C90.1518 81.7607 90.2786 81.634 90.3208 81.5072L90.6588 79.648C90.7011 79.5213 90.5743 79.3945 90.4476 79.3945H88.0391C87.9123 79.3945 87.7856 79.5213 87.7433 79.648L87.4053 81.5072C87.363 81.6762 87.4476 81.7607 87.6166 81.7607Z" fill="black"/>
<path d="M107.602 136.225C107.56 136.225 107.518 136.225 107.476 136.225C107.138 136.183 106.884 135.845 106.969 135.507C112.8 102.042 118.63 68.0283 124.335 34.4367C124.377 34.0987 124.715 33.8452 125.053 33.9297C125.391 33.972 125.645 34.31 125.56 34.648C119.856 68.2395 114.025 102.254 108.194 135.718C108.194 135.972 107.898 136.225 107.602 136.225Z" fill="white"/>
<path d="M60.785 105.972H36.6582C36.3202 105.972 36.0244 105.676 36.0244 105.338C36.0244 105 36.3202 104.704 36.6582 104.704H60.785C68.6864 104.704 75.4469 99.0424 76.799 91.2255C78.3202 82.31 79.4188 76.4368 80.5596 70.2678C82.0385 62.1974 83.6019 53.8312 86.3061 37.8171C86.3483 37.4791 86.6863 37.2256 87.0244 37.3101C87.3624 37.3523 87.6159 37.6904 87.5314 38.0284C84.8272 54.0425 83.2638 62.4087 81.7849 70.5213C80.6441 76.7326 79.5455 82.5635 78.0244 91.479C76.5878 99.8875 69.3202 105.972 60.785 105.972Z" fill="white"/>
<path d="M115.207 90.4648L77.7285 90.0423C77.3905 90.0423 77.0947 89.7465 77.0947 89.4085C77.0947 89.0704 77.3905 88.7747 77.7285 88.7747L114.996 89.1972L160.038 55.0141C160.334 54.8029 160.714 54.8451 160.926 55.1409C161.137 55.4367 161.095 55.8169 160.799 56.0282L115.588 90.338C115.503 90.4225 115.376 90.4648 115.207 90.4648Z" fill="white"/>
<path d="M93.743 129.507C93.7007 129.507 93.6585 129.507 93.6162 129.507C93.2782 129.423 93.0669 129.085 93.1514 128.747L96.574 113.662C97.8416 108 102.785 104.071 108.616 104.071H152.687C153.025 104.071 153.32 104.366 153.32 104.704C153.32 105.042 153.025 105.338 152.687 105.338H108.616C103.419 105.338 98.9824 108.887 97.8416 113.958L94.4191 129.042C94.2923 129.296 94.0388 129.507 93.743 129.507Z" fill="white"/>
<path d="M119.898 60.8875H69.9121C69.5741 60.8875 69.2783 60.5917 69.2783 60.2537C69.2783 59.9156 69.5741 59.6199 69.9121 59.6199H119.898C120.236 59.6199 120.532 59.9156 120.532 60.2537C120.532 60.5917 120.236 60.8875 119.898 60.8875Z" fill="white"/>
<path d="M66.3632 75.7605H46.7998C46.4618 75.7605 46.166 75.4647 46.166 75.1267C46.166 74.7887 46.4618 74.4929 46.7998 74.4929H66.3632C66.7012 74.4929 66.997 74.7887 66.997 75.1267C66.997 75.4647 66.7012 75.7605 66.3632 75.7605Z" fill="white"/>
<path d="M122.814 150H58.8418C58.5038 150 58.208 149.704 58.208 149.366C58.208 149.028 58.5038 148.732 58.8418 148.732H122.814C123.152 148.732 123.447 149.028 123.447 149.366C123.447 149.704 123.152 150 122.814 150Z" fill="black"/>
<path d="M55.3345 150H52.25C51.912 150 51.6162 149.704 51.6162 149.366C51.6162 149.028 51.912 148.732 52.25 148.732H55.3345C55.6725 148.732 55.9683 149.028 55.9683 149.366C55.9683 149.704 55.7148 150 55.3345 150Z" fill="black"/>
<path d="M35.0531 61.9014H42.1094C42.5319 61.9014 42.9122 61.5634 42.9967 61.1831L44.0108 55.8169C44.0953 55.4367 43.7995 55.0986 43.4192 55.0986H36.3629C35.9404 55.0986 35.5601 55.4367 35.4756 55.8169L34.4615 61.1409C34.377 61.5634 34.6305 61.8592 35.0531 61.9014Z" fill="#D7F4DF"/>
<path d="M105.701 0.000146802C95.095 0.0424003 86.5176 9.04239 86.5176 20.1551C86.5176 28.479 92.0105 47.7888 99.4049 53.3663C100.461 54.1691 104.18 53.8311 105.827 53.7043C111.574 53.2395 125.011 31.1832 124.968 20.1128C124.926 9.04239 116.306 -0.0421067 105.701 0.000146802ZM99.8697 41.4931C93.2781 41.4931 90.1514 27.1691 90.1514 20.5353C90.1514 13.9438 92.5598 6.25366 99.1936 6.25366C105.785 6.25366 117.743 13.648 117.743 20.2396C117.701 26.8734 106.461 41.4931 99.8697 41.4931Z" fill="black"/>
<path d="M100.63 0.000148173C90.0247 0.0424017 81.4473 9.04239 81.4473 20.1551C81.4473 31.2677 94.8839 53.7043 100.757 53.6621C106.546 53.6621 119.94 31.141 119.898 20.0706C119.856 8.95789 111.236 -0.0421053 100.63 0.000148173ZM103.166 36.5917C103.123 36.8452 102.828 37.0987 102.574 37.0987H97.7571C97.4613 37.0987 97.2923 36.8874 97.3346 36.5917L98.0529 32.9156C98.0951 32.6621 98.3909 32.4086 98.6444 32.4086H103.461C103.757 32.4086 103.926 32.6198 103.884 32.9156L103.166 36.5917ZM110.94 21.2537C110.433 21.972 109.419 22.9438 107.94 24.0846L106.504 25.2255C105.701 25.8593 105.194 26.5776 104.94 27.3804C104.771 27.8452 104.475 28.3945 104.137 29.5353C104.095 29.7043 103.968 29.7889 103.799 29.7889H98.7289C98.5599 29.7889 98.4332 29.6198 98.4754 29.4931C98.8557 27.2959 99.405 25.8593 99.743 25.0142C100.081 24.1269 101.011 23.1128 102.49 21.972L103.968 20.7889C104.475 20.4086 104.856 20.0283 105.151 19.5635C105.701 18.8029 105.954 18.0001 105.954 17.0706C105.954 16.0142 105.659 15.0846 105.025 14.2396C104.433 13.3945 103.292 12.972 101.687 12.972C100.123 12.972 98.9825 13.479 98.3064 14.5353C97.6304 15.5917 97.3346 16.6903 97.3346 17.8311H91.4191C91.5881 13.9438 92.9402 11.1551 95.5177 9.54943C97.1233 8.4931 99.1092 7.98605 101.475 7.98605C104.56 7.98605 107.137 8.70436 109.166 10.1832C111.194 11.6621 112.25 13.8593 112.25 16.7325C112.25 18.5494 111.828 20.0706 110.94 21.2537Z" fill="#FF3D00"/>
</svg>
