<svg width="44" height="44" viewBox="0 0 44 44" fill="none" xmlns="http://www.w3.org/2000/svg">
<rect width="44" height="44" rx="8" fill="#FF6200"/>
<g clip-path="url(#clip0_25186_437151)">
<path d="M16.5254 13.4306C16.8685 13.4306 17.1299 13.7526 17.0564 14.0993L16.6888 15.7258C16.6316 15.9735 16.4111 16.1551 16.1579 16.1551H13.977C13.6339 16.1551 13.3726 15.8331 13.4461 15.4864L13.8055 13.8599C13.8627 13.6122 14.0832 13.4306 14.3364 13.4306H16.5254ZM13.4134 18.021C13.1602 18.021 12.9397 18.2027 12.8825 18.4586L10.8732 28.3412C10.8732 28.3577 10.865 28.366 10.865 28.3742C10.8241 28.5228 10.7751 28.721 10.7343 28.9522C10.6853 29.1916 10.6199 29.431 10.5301 29.6622C10.4403 29.8934 10.3259 30.0915 10.187 30.2566C10.0482 30.4218 9.86032 30.5043 9.63162 30.5043C9.43558 30.5043 9.23955 30.5043 9.04352 30.4961C9.00268 30.4961 8.96184 30.4961 8.91283 30.4878C8.64329 30.4713 8.41458 30.6612 8.35741 30.9171L8.02252 32.5106C7.95717 32.8325 8.17771 33.1298 8.49626 33.1628C8.56161 33.1711 8.62695 33.1793 8.69229 33.1876C8.96184 33.2206 9.22322 33.2371 9.48459 33.2371C10.2197 33.2371 10.8405 33.1628 11.3306 33.0059C11.8206 32.8491 12.2372 32.6179 12.5803 32.3042C12.9152 31.9904 13.1847 31.5941 13.3889 31.1153C13.5931 30.6364 13.7565 30.075 13.8953 29.4393L16.117 18.6815C16.1905 18.343 15.9292 18.021 15.5861 18.021H13.4134ZM20.0213 22.0253C19.8416 22.339 19.6946 22.661 19.5721 23.0077H24.7996C24.7996 22.1161 24.6281 21.084 23.7378 20.663C22.3819 20.0603 20.7156 20.6712 20.0213 22.0253ZM31.3831 15.379C31.7261 13.8434 33.2699 11.5647 33.7273 10.9042C33.7845 10.8299 33.8988 10.8464 33.9233 10.9372C34.1439 11.6473 34.8055 13.9425 34.5931 15.379C34.4297 16.1634 34.4052 16.4441 34.2255 17.377L33.6211 20.308C33.1637 22.6775 32.2734 27.4578 32.0283 28.1678C31.4321 29.9429 29.6188 30.6447 27.9117 30.6199C25.739 30.5704 22.0388 30.6529 21.3527 30.6364C20.5523 30.6364 19.8253 30.5291 19.1719 30.3062C16.0108 29.3319 15.5208 25.402 16.5254 22.6032C17.7261 18.9209 21.0342 17.1294 24.669 18.2687C26.8416 18.9209 28.0015 20.9354 27.9607 23.2141C27.8872 23.7343 28.1159 25.0883 27.3154 25.1048H19.229C18.9922 26.9129 19.8498 28.2091 21.8346 28.1596C22.0797 28.1596 25.4367 28.1431 28.0342 28.1348C28.4998 28.044 28.8346 27.7385 29.0225 27.2596C29.0879 27.078 29.9618 22.3885 30.3947 20.2584L29.145 20.2915C28.802 20.2997 28.6223 19.8869 28.851 19.6392L31.0318 17.2367C31.2279 16.279 31.2524 16.023 31.3831 15.379ZM34.103 20.3575L35.4916 20.3658C35.8837 20.3658 36.1287 19.9364 35.9327 19.5979L34.6993 17.4348L34.103 20.3575Z" fill="white"/>
</g>
<defs>
<clipPath id="clip0_25186_437151">
<rect width="28" height="22.2963" fill="white" transform="translate(8 10.8516)"/>
</clipPath>
</defs>
</svg>
