<svg width="160" height="120" viewBox="0 0 160 120" fill="none" xmlns="http://www.w3.org/2000/svg">
<path d="M52.523 111.318H134.75C136.326 111.318 137.868 110.016 138.21 108.44L152.737 34.4015C153.046 32.8255 152.018 31.5236 150.407 31.5236H68.1804C66.6044 31.5236 65.0626 32.8255 64.72 34.4015L50.1933 108.44C49.8849 110.016 50.9127 111.318 52.523 111.318Z" fill="black"/>
<path d="M44.2995 34.7098C44.2653 34.7098 44.231 34.7098 44.1967 34.7098C43.9226 34.6413 43.7513 34.3672 43.7856 34.0931C43.7856 34.0931 44.5051 30.4957 45.2246 26.9325C45.6014 25.151 45.944 23.3351 46.2524 21.9989C46.3894 21.3137 46.5265 20.7655 46.595 20.3886C46.7663 19.7034 46.8348 19.2923 47.3488 19.3951C47.8627 19.4978 47.7942 19.9775 47.7256 20.4229C47.7256 20.5257 47.6571 20.6285 47.5886 20.7312C47.1089 22.8212 45.7385 29.6392 44.7792 34.333C44.7449 34.5385 44.5393 34.7098 44.2995 34.7098Z" fill="black"/>
<path d="M122.689 35.4979C122.655 35.4979 122.621 35.4979 122.586 35.4979C122.312 35.4294 122.141 35.1553 122.175 34.8812C122.175 34.8812 122.895 31.2838 123.614 27.7206C123.991 25.939 124.334 24.1232 124.642 22.787C124.779 22.1018 124.916 21.5536 124.985 21.1767C125.156 20.4915 125.224 20.0804 125.738 20.1831C126.252 20.2859 126.184 20.7656 126.115 21.211C126.115 21.3138 126.047 21.4166 125.978 21.5193C125.499 23.6093 124.128 30.4273 123.169 35.1211C123.135 35.3266 122.929 35.4979 122.689 35.4979Z" fill="black"/>
<path d="M25.6962 111.318H107.923C109.499 111.318 111.041 110.016 111.384 108.44L125.91 34.4015C126.219 32.8255 125.191 31.5236 123.581 31.5236H41.3536C39.7776 31.5236 38.2358 32.8255 37.8932 34.4015L23.3665 108.44C23.0924 110.016 24.1202 111.318 25.6962 111.318Z" fill="#DDDDDD"/>
<path d="M126.458 32.6542L38.612 36.9026C38.2009 36.9026 37.7555 37.0054 37.3443 37.211L32.582 61.5022H113.644C114.501 61.5022 115.666 60.9883 116.385 59.7549L123.1 48.5857L127.486 37.6906C127.52 37.6221 129.267 29.3652 126.458 32.6542Z" fill="black"/>
<path d="M25.0923 54.8573H111.122C111.945 54.8573 113.075 54.3434 113.76 53.1786L125.649 33.3755C126.54 32.1079 126.574 31.3541 125.204 31.3541H39.4477C38.2143 31.3541 36.8781 32.3477 36.2614 33.4783L24.5784 52.9387C24.1672 53.8295 24.0987 54.8573 25.0923 54.8573Z" fill="#FF3D00"/>
<path d="M59.7044 31.3541L24.3108 54.1714C24.2758 53.812 24.3937 53.36 24.5881 52.9387L36.2712 33.4783C36.8879 32.3477 38.2241 31.3541 39.4575 31.3541H59.7044Z" fill="#FF9600"/>
<path d="M39.4476 55.2685H108.895C109.752 55.2685 110.917 54.7546 111.636 53.5212L124.073 32.7931C124.998 31.457 125.032 30.6689 123.628 30.6689H54.4198C53.1178 30.6689 51.7474 31.6968 51.0622 32.8959L38.8652 53.2471C38.4883 54.2064 38.4198 55.2685 39.4476 55.2685Z" fill="white"/>
<path d="M47.7044 55.4055H110.3C111.156 55.4055 112.321 54.8916 113.041 53.6582L125.478 32.9301C126.403 31.5939 126.437 30.8059 125.032 30.8059H62.6766C61.3747 30.8059 60.0042 31.8337 59.319 33.0329L47.122 53.3841C46.7451 54.3091 46.6766 55.4055 47.7044 55.4055Z" fill="#FF3D00"/>
<path d="M63.3626 55.337H108.827C109.684 55.337 110.849 54.8231 111.568 53.5897L124.005 32.8616C124.93 31.5254 124.964 30.7374 123.56 30.7374H78.3348C77.0329 30.7374 75.6624 31.7653 74.9772 32.9644L62.7802 53.3156C62.4033 54.2407 62.3348 55.337 63.3626 55.337Z" fill="white"/>
<path d="M71.6195 55.474H111.602C112.459 55.474 113.624 54.96 114.343 53.7266L126.78 32.9986C127.705 31.6624 127.739 30.8744 126.335 30.8744H86.5916C85.2897 30.8744 83.9193 31.9022 83.234 33.1014L71.037 53.4526C70.6602 54.3776 70.5916 55.474 71.6195 55.474Z" fill="#FF3D00"/>
<path d="M89.6751 55.337H111.157C112.013 55.337 113.178 54.8231 113.898 53.5897L126.335 32.8616C127.26 31.5254 127.294 30.7374 125.889 30.7374H104.647C103.345 30.7374 101.975 31.7653 101.29 32.9644L89.0927 53.3156C88.7158 54.2749 88.6473 55.337 89.6751 55.337Z" fill="white"/>
<path d="M97.9314 55.474H112.218C113.075 55.474 114.24 54.96 114.959 53.7266L127.396 32.9986C128.321 31.6624 128.355 30.8744 126.951 30.8744H112.904C111.602 30.8744 110.231 31.9022 109.546 33.1014L97.3489 53.4526C96.9378 54.3776 96.8693 55.474 97.9314 55.474Z" fill="#FF3D00"/>
<path d="M44.2996 26.7955H127.76C128.445 26.7955 129.233 26.4186 129.405 25.4936L132.42 10.076C132.694 9.08244 132.454 8.5 131.323 8.5H48.0684C47.0063 8.5 46.2525 9.25375 46.1155 10.1445L43.1348 25.2538C43.169 26.0075 43.4774 26.7955 44.2996 26.7955Z" fill="black"/>
<path d="M41.2166 26.7955H124.677C125.362 26.7955 126.15 26.4186 126.322 25.4936L129.337 10.076C129.611 9.08244 129.371 8.5 128.24 8.5H44.9854C43.9233 8.5 43.1695 9.25375 43.0325 10.1445L40.0518 25.2538C40.0518 26.0075 40.3601 26.7955 41.2166 26.7955Z" fill="#DDDDDD"/>
<path d="M44.1628 18.1617C44.1285 18.1617 44.0943 18.1617 44.06 18.1617C43.7859 18.0931 43.6146 17.8533 43.6489 17.545L44.2998 14.3244C44.3684 14.0503 44.6082 13.879 44.9165 13.9133C45.1906 13.9818 45.3619 14.2216 45.3277 14.53L44.6767 17.7505C44.6082 17.9904 44.4026 18.1617 44.1628 18.1617Z" fill="white"/>
<path d="M45.1221 12.9198C45.0879 12.9198 45.0879 12.9198 45.0536 12.9198C44.7795 12.8856 44.574 12.6115 44.6082 12.3374C44.7795 11.1382 45.8074 10.2474 47.075 10.2474H53.5504C53.8245 10.2474 54.0643 10.4873 54.0643 10.7614C54.0643 11.0354 53.8245 11.2753 53.5504 11.2753H47.075C46.2528 11.2753 45.7389 11.892 45.6361 12.4744C45.6018 12.7142 45.362 12.9198 45.1221 12.9198Z" fill="white"/>
<path d="M159.452 111.832H18.0901C17.816 111.832 17.5762 111.592 17.5762 111.318C17.5762 111.044 17.816 110.804 18.0901 110.804H159.486C159.76 110.804 160 111.044 160 111.318C160 111.592 159.76 111.832 159.452 111.832Z" fill="black"/>
<path d="M132.146 100.56H25.3538C25.0797 100.56 24.8398 100.32 24.8398 100.046C24.8398 99.7721 25.0797 99.5322 25.3538 99.5322H132.146C132.42 99.5322 132.66 99.7721 132.66 100.046C132.66 100.32 132.42 100.56 132.146 100.56Z" fill="black"/>
<path d="M133.859 92.2003H27.0325C26.7584 92.2003 26.5186 91.9605 26.5186 91.6864C26.5186 91.4123 26.7584 91.1725 27.0325 91.1725H133.825C134.099 91.1725 134.339 91.4123 134.339 91.6864C134.339 91.9605 134.133 92.2003 133.859 92.2003Z" fill="black"/>
<path d="M135.538 83.8063H28.7112C28.4371 83.8063 28.1973 83.5665 28.1973 83.2924C28.1973 83.0183 28.4371 82.7784 28.7112 82.7784H135.504C135.778 82.7784 136.017 83.0183 136.017 83.2924C136.017 83.5665 135.812 83.8063 135.538 83.8063Z" fill="black"/>
<path d="M137.08 76.4058H30.2874C30.0133 76.4058 29.7734 76.1659 29.7734 75.8918C29.7734 75.6178 30.0133 75.3779 30.2874 75.3779H137.08C137.354 75.3779 137.594 75.6178 137.594 75.8918C137.594 76.1659 137.354 76.4058 137.08 76.4058Z" fill="black"/>
<path d="M138.793 68.0462H32.0002C31.7262 68.0462 31.4863 67.8063 31.4863 67.5322C31.4863 67.2581 31.7262 67.0183 32.0002 67.0183H138.793C139.067 67.0183 139.307 67.2581 139.307 67.5322C139.307 67.8063 139.067 68.0462 138.793 68.0462Z" fill="black"/>
<path d="M140.471 59.6521H33.679C33.4049 59.6521 33.165 59.4123 33.165 59.1382C33.165 58.8641 33.4049 58.6243 33.679 58.6243H140.471C140.745 58.6243 140.985 58.8641 140.985 59.1382C140.985 59.4123 140.745 59.6521 140.471 59.6521Z" fill="black"/>
<path d="M6.47538 111.832H0.513919C0.239829 111.832 0 111.592 0 111.318C0 111.044 0.239829 110.804 0.513919 110.804H6.50964C6.78373 110.804 7.02356 111.044 7.02356 111.318C7.02356 111.592 6.78373 111.832 6.47538 111.832Z" fill="black"/>
<path d="M43.8201 91.4122C43.4774 90.7955 43.6487 89.939 44.1969 89.3566L57.5931 75.2409C58.2783 74.5214 58.3468 73.4593 57.7644 72.9112L54.6809 69.9647C54.5438 69.8276 54.3725 69.7249 54.2012 69.6906C54.0642 69.6563 53.9271 69.6221 53.7901 69.6221L50.9464 69.1767L51.3233 71.3351L41.0449 82.1617C40.2226 83.0182 38.9892 83.0182 38.5096 82.1617L31.6916 70.2388C31.5203 69.9647 31.2804 69.7591 31.0063 69.6563H30.9721C30.8693 69.6221 30.7323 69.5878 30.6295 69.5878L27.9228 69.1082L27.8543 71.061L25.2847 72.8769C24.4624 73.4593 24.1541 74.4872 24.5652 75.2067L32.6166 89.3223C32.9592 89.939 32.7879 90.7955 32.2397 91.378L18.8436 105.494C18.1584 106.213 18.0899 107.275 18.6723 107.823L20.2826 109.399L20.0427 110.667L22.4753 111.147V111.112C22.9892 111.181 23.6059 110.975 24.0513 110.496L35.3575 98.5728C36.1798 97.7163 37.4132 97.7163 37.8929 98.5728L43.9228 109.16L43.032 110.701L45.3618 111.078C45.4989 111.147 45.6702 111.147 45.8415 111.147H45.8757C46.2183 111.147 46.561 111.044 46.9036 110.804L51.0834 107.858C51.9057 107.275 52.2141 106.247 51.8029 105.528L43.8201 91.4122Z" fill="black"/>
<path d="M54.8181 72.4316L51.7346 69.4851C51.1521 68.9027 50.09 69.0397 49.4048 69.7592L38.0986 81.6821C37.2763 82.5386 36.0429 82.5386 35.5633 81.6821L28.7453 69.7592C28.3341 69.0397 27.3406 68.9027 26.5183 69.4851L22.3384 72.4316C21.5162 73.014 21.2078 74.0419 21.6189 74.7613L29.6703 88.877C30.0129 89.4937 29.8416 90.3502 29.2935 90.9326L15.8973 105.048C15.2121 105.768 15.1436 106.83 15.726 107.378L18.8095 110.325C19.392 110.907 20.4541 110.77 21.1393 110.05L32.4455 98.1275C33.2678 97.271 34.5012 97.271 34.9808 98.1275L41.7988 110.05C42.21 110.77 43.2035 110.907 44.0258 110.325L48.2057 107.378C49.028 106.796 49.3363 105.768 48.9252 105.048L40.8738 90.9326C40.5312 90.3159 40.7025 89.4594 41.2506 88.877L54.6468 74.7613C55.332 74.0761 55.4005 73.014 54.8181 72.4316Z" fill="#FF3000"/>
<path d="M148.454 56.7742C145.473 55.2324 141.738 55.4722 138.963 57.6992L117.755 76.3716L113.404 98.5386L145.61 71.3009L148.454 56.7742Z" fill="#FF3D00"/>
<path d="M117.721 76.3716L96.2396 87.9862C91.9912 90.2817 90.4152 95.5579 92.7107 99.8063C95.0062 104.055 100.282 105.631 104.531 103.335L113.404 98.5386L117.721 76.3716Z" fill="#FF9600"/>
<path d="M101.037 102.444C98.4672 102.444 96.0003 101.074 94.6984 98.6756C92.8141 95.181 94.116 90.8298 97.6106 88.9454L117.105 78.3244L139.067 59.6521C139.889 58.9668 140.78 58.4529 141.773 58.1446C143.898 57.4936 146.741 57.0825 148.18 58.8641C148.283 59.0011 148.283 59.2409 148.146 59.3437C148.009 59.4465 147.769 59.4465 147.666 59.3095C146.399 57.7334 143.555 58.3159 141.979 58.7955C141.088 59.0696 140.232 59.5493 139.512 60.166L117.551 78.8384C117.516 78.8384 117.516 78.8726 117.482 78.8726L97.9532 89.4936C94.8012 91.2067 93.6363 95.1467 95.3151 98.2988C97.0282 101.451 100.968 102.616 104.12 100.937L113.748 95.4551L145.885 68.3887C146.022 68.2516 146.262 68.2859 146.364 68.4229C146.501 68.56 146.467 68.7998 146.33 68.9026L114.159 96.0033L114.125 96.0375L104.463 101.554C103.367 102.17 102.202 102.444 101.037 102.444Z" fill="black"/>
<path d="M137.045 68.7656L139.478 69.3823C139.683 69.4508 139.82 69.5878 139.923 69.7934C140.026 69.999 140.026 70.2388 139.957 70.5472C139.889 70.8555 139.718 71.0953 139.478 71.3352C139.238 71.5407 138.998 71.6435 138.758 71.575L136.6 71.0268L136.12 73.9048C136.052 74.2474 135.915 74.4872 135.675 74.6928C135.435 74.8983 135.195 74.9669 134.955 74.9669C134.715 74.9326 134.544 74.8298 134.441 74.6243C134.339 74.4187 134.304 74.1789 134.339 73.9048L134.887 70.6499L132.42 69.999C132.214 69.9305 132.077 69.7592 131.975 69.5536C131.872 69.348 131.872 69.1082 131.94 68.7998C132.009 68.4915 132.18 68.2174 132.386 68.0118C132.626 67.8063 132.865 67.7035 133.105 67.8063L135.264 68.3887L135.743 65.4422C135.812 65.0996 135.949 64.8598 136.189 64.6542C136.429 64.4487 136.668 64.3801 136.908 64.3801C137.148 64.4144 137.319 64.5172 137.422 64.7227C137.525 64.9283 137.559 65.1681 137.525 65.4422L137.045 68.7656Z" fill="black"/>
<path d="M125.568 79.181L128.206 80.0375C128.411 80.1403 128.548 80.3116 128.651 80.5515C128.754 80.7913 128.72 81.0654 128.617 81.3737C128.514 81.6821 128.308 81.9904 128.034 82.196C127.76 82.4016 127.486 82.4701 127.246 82.4016L124.917 81.6136L124.129 84.7656C124.026 85.1425 123.854 85.4166 123.58 85.5879C123.306 85.7934 123.032 85.8619 122.758 85.8277C122.484 85.7934 122.313 85.6564 122.244 85.4166C122.141 85.1767 122.141 84.9369 122.176 84.6285L123.066 81.0996L120.428 80.1746C120.223 80.0718 120.086 79.9005 119.983 79.6607C119.88 79.4208 119.914 79.1467 120.017 78.8041C120.12 78.4615 120.326 78.1874 120.6 77.9819C120.874 77.7763 121.148 77.7078 121.422 77.8106L123.752 78.6671L124.505 75.4808C124.608 75.1382 124.78 74.8298 125.054 74.6585C125.328 74.4529 125.602 74.3844 125.876 74.4187C126.15 74.453 126.321 74.6243 126.424 74.8298C126.527 75.0696 126.527 75.3437 126.493 75.6178L125.568 79.181Z" fill="black"/>
<path d="M106.587 91.6178L109.568 92.9197C109.807 93.0568 109.944 93.2624 110.047 93.5364C110.116 93.8105 110.081 94.1189 109.91 94.4958C109.739 94.8726 109.499 95.1467 109.156 95.3866C108.814 95.6264 108.505 95.6607 108.197 95.5236L105.559 94.3587L104.326 97.9219C104.189 98.333 103.949 98.6414 103.606 98.8469C103.263 99.0525 102.955 99.121 102.647 99.0183C102.338 98.9497 102.167 98.7442 102.064 98.4701C101.996 98.196 101.996 97.8876 102.064 97.545L103.469 93.5364L100.488 92.166C100.249 92.029 100.111 91.8234 100.009 91.515C99.9401 91.2409 99.9744 90.8983 100.146 90.5215C100.317 90.1446 100.557 89.8362 100.899 89.5964C101.242 89.3566 101.55 89.3223 101.859 89.4594L104.497 90.6928L105.73 87.0611C105.867 86.6499 106.107 86.3416 106.45 86.136C106.792 85.9304 107.135 85.8619 107.409 85.9647C107.717 86.0332 107.889 86.2388 107.992 86.5129C108.094 86.787 108.06 87.0953 107.992 87.4379L106.587 91.6178Z" fill="black"/>
</svg>
