<svg width="160" height="120" viewBox="0 0 160 120" fill="none" xmlns="http://www.w3.org/2000/svg">
<path d="M32.9136 120H35.3353C35.6693 120 35.9616 119.708 35.9616 119.374C35.9616 119.04 35.6693 118.747 35.3353 118.747H32.9136C32.5796 118.747 32.2873 119.04 32.2873 119.374C32.2873 119.708 32.5796 120 32.9136 120Z" fill="black"/>
<path d="M39.7612 120H100.93C101.306 120 101.598 119.708 101.598 119.374C101.598 119.04 101.306 118.747 100.972 118.747H39.7612C39.4272 118.747 39.1349 119.04 39.1349 119.374C39.1349 119.708 39.4272 120 39.7612 120Z" fill="black"/>
<path d="M101.932 83.9667C105.273 84.1755 107.402 83.0064 110.241 81.4197C111.995 80.4594 113.874 79.8331 115.711 79.165C116.296 74.4051 117.841 69.7704 118.383 65.0105C118.926 60.4176 119.135 55.5742 120.596 51.1483C116.254 46.7642 110.2 44.0502 103.519 44.0502C90.2414 44.0502 79.4689 54.8226 79.4689 68.1003C79.4689 73.5283 81.2643 78.497 84.2706 82.5471C90.3249 81.5032 95.9616 83.5909 101.932 83.9667Z" fill="#FF5527"/>
<path d="M102.016 72.1504C96.0869 74.5303 87.6109 75.0314 80.471 74.8644C81.3061 77.6619 82.6004 80.2088 84.3123 82.5053C90.2831 81.5032 95.9199 83.6326 101.932 83.9667C105.273 84.1754 107.402 83.0063 110.241 81.4197C111.995 80.4594 113.874 79.833 115.711 79.165C116.296 74.4051 117.841 69.7704 118.383 65.0105C118.926 60.4176 119.135 55.5742 120.596 51.1483C117.882 48.3925 114.5 46.3048 110.742 45.1357C111.16 53.737 110.617 68.6848 102.016 72.1504Z" fill="#FF3D00"/>
<path d="M83.018 72.9855C82.5587 72.9855 82.0994 72.6515 82.0159 72.1922C81.9324 71.7329 81.8072 71.3154 81.7237 70.8561C81.5984 70.2715 81.9742 69.7287 82.5587 69.6452C83.1433 69.52 83.6861 69.8958 83.7696 70.4803C83.8531 70.8561 83.9366 71.2736 84.0201 71.6912C84.1454 72.234 83.8113 72.8185 83.2268 72.9438C83.185 72.9855 83.1015 72.9855 83.018 72.9855Z" fill="#FF9600"/>
<path d="M82.35 68.3091C81.8072 68.3091 81.3479 67.8916 81.3061 67.307C81.1809 64.9271 81.4731 62.7141 82.0994 60.7517C82.2665 60.2089 82.851 59.9166 83.4355 60.0836C83.9783 60.2506 84.2706 60.8352 84.1036 61.4197C83.5191 63.1734 83.3103 65.1358 83.3938 67.2653C83.4356 67.8498 82.9763 68.3091 82.3917 68.3509C82.3917 68.3091 82.35 68.3091 82.35 68.3091Z" fill="#FF9600"/>
<path fill-rule="evenodd" clip-rule="evenodd" d="M89.281 67.975C89.3646 68.0167 89.4481 68.0585 89.5316 68.0585C89.6568 68.0585 89.7821 68.0167 89.8656 67.8915L101.39 52.9436C101.515 52.7766 101.473 52.4844 101.306 52.3591C101.139 52.2338 100.847 52.2756 100.722 52.4426L89.1975 67.3904C89.0723 67.5574 89.114 67.8497 89.281 67.975ZM94.4168 55.3237C95.2239 55.3237 95.8782 54.6694 95.8782 53.8623C95.8782 53.0552 95.2239 52.401 94.4168 52.401C93.6097 52.401 92.9554 53.0552 92.9554 53.8623C92.9554 54.6694 93.6097 55.3237 94.4168 55.3237ZM89.4063 61.4197C90.2134 61.4197 90.8677 60.7654 90.8677 59.9583C90.8677 59.1512 90.2134 58.4969 89.4063 58.4969C88.5992 58.4969 87.9449 59.1512 87.9449 59.9583C87.9449 60.7654 88.5992 61.4197 89.4063 61.4197Z" fill="black"/>
<path d="M144.104 0.0417499L112.162 0C110.325 0 108.529 1.46138 108.195 3.25679L102.058 35.2819C101.932 36.0334 102.726 36.5762 103.352 36.2004L109.74 32.6514C111.452 31.7746 113.498 30.9395 114.96 30.9395L138.133 31.023C139.97 31.023 141.765 29.5616 142.099 27.7662L146.776 3.38205C147.193 1.54488 145.983 0.0417499 144.104 0.0417499Z" fill="#D7F4DF"/>
<path d="M114.25 7.8496H130.033C130.283 7.8496 130.45 7.68259 130.45 7.43207C130.45 7.18154 130.283 7.01453 130.033 7.01453H114.25C113.999 7.01453 113.832 7.18154 113.832 7.43207C113.832 7.68259 113.999 7.8496 114.25 7.8496Z" fill="#029D53"/>
<path d="M133.665 7.8496H139.511C139.761 7.8496 139.928 7.68259 139.928 7.43207C139.928 7.18154 139.761 7.01453 139.511 7.01453H133.665C133.415 7.01453 133.248 7.18154 133.248 7.43207C133.248 7.68259 133.415 7.8496 133.665 7.8496Z" fill="#029D53"/>
<path d="M63.5608 27.0981L21.0138 27.0564C19.7612 27.0564 18.5503 28.0585 18.2998 29.3111L16.4209 39.2067L14.1244 50.4802C13.9157 51.5658 15.0848 52.4426 16.0451 51.8581L20.304 49.3111C21.5148 48.6013 22.8927 48.2255 24.2706 48.2255L59.5107 48.2673C60.7633 48.2673 61.9742 47.2652 62.2247 46.0126L65.4397 29.3528C65.6485 28.1002 64.8134 27.0981 63.5608 27.0981Z" fill="#D7F4DF"/>
<path d="M58.2581 33.9874H25.732C25.4814 33.9874 25.3144 33.8204 25.3144 33.5699C25.3144 33.3194 25.4814 33.1523 25.732 33.1523H58.2581C58.5086 33.1523 58.6756 33.3194 58.6756 33.5699C58.6756 33.8204 58.4668 33.9874 58.2581 33.9874Z" fill="#029D53"/>
<path d="M45.0222 40.1253C41.3478 40.1253 37.6318 40.0835 33.8322 40C33.5817 40 33.4146 39.7912 33.4146 39.5825C33.4146 39.3319 33.6234 39.1649 33.8322 39.1649C41.4731 39.3737 48.5712 39.3737 56.1286 39.1649C56.3374 39.1649 56.5462 39.3319 56.5462 39.5825C56.5462 39.833 56.3792 40 56.1286 40C52.3708 40.0835 48.6965 40.1253 45.0222 40.1253Z" fill="#029D53"/>
<path d="M24.0618 39.9583H28.8217C29.0305 39.9583 29.2393 39.7913 29.2393 39.5408C29.2393 39.2902 29.0723 39.1232 28.8217 39.1232H24.0618C23.8113 39.1232 23.6443 39.2902 23.6443 39.5408C23.6443 39.7913 23.8113 39.9583 24.0618 39.9583Z" fill="#029D53"/>
<path d="M137.006 96.1587H74.6255C74.1245 96.1587 73.6234 96.5762 73.4982 97.0773L71.8698 105.512C71.828 105.762 72.0785 106.013 72.3291 105.929L74.7508 105.094C75.2101 104.927 75.7111 104.843 76.2121 104.843H135.294C135.795 104.843 136.296 104.426 136.421 103.925L137.715 97.119C137.841 96.5345 137.507 96.1587 137.006 96.1587Z" fill="#D7F4DF"/>
<path d="M85.5023 100.23C87.6527 100.24 89.803 100.25 91.9533 100.25C92.1621 100.25 92.3708 100.042 92.3708 99.833C92.3708 99.6242 92.2038 99.4154 91.9533 99.4154C87.6527 99.4154 83.352 99.4154 79.0514 99.3737C78.8426 99.3737 78.6339 99.5407 78.6339 99.7912C78.6339 100 78.8009 100.209 79.0514 100.209C81.2017 100.209 83.352 100.219 85.5023 100.23Z" fill="#029D53"/>
<path d="M103.937 100.25H96.2122C95.9616 100.25 95.7946 100.083 95.7946 99.833C95.7946 99.5824 95.9616 99.4154 96.2122 99.4154C104.438 99.4154 113.081 99.4154 122.6 99.3737C122.851 99.3737 123.018 99.5407 123.018 99.7912C123.018 100.042 122.851 100.209 122.6 100.209C116.045 100.25 109.866 100.25 103.937 100.25Z" fill="#029D53"/>
<path d="M126.985 100.25C126.734 100.25 126.567 100.083 126.567 99.833C126.567 99.5824 126.734 99.4154 126.985 99.4154L132.496 99.3737C132.747 99.3737 132.914 99.5407 132.914 99.7912C132.914 100.042 132.747 100.209 132.496 100.209L126.985 100.25Z" fill="#029D53"/>
<path fill-rule="evenodd" clip-rule="evenodd" d="M122.016 12.4426C124.396 12.4426 126.484 13.403 127.903 15.1566C128.78 16.2135 129.306 17.493 129.472 18.8874C129.817 20.0835 129.869 21.3941 129.615 22.7557L119.553 76.3257C119.22 78.0643 118.428 79.666 117.324 81.002C115.4 83.9222 112.264 86.0961 108.989 86.0961L58.1329 85.5116H58.0911C56.7132 85.5116 55.3448 85.6835 53.8671 86.0913C52.4178 86.6507 50.8452 87.3694 49.1976 88.2255L35.5024 96.0334C34.9178 96.4092 34.2915 96.5762 33.6652 96.5762C33.5435 96.5762 33.4205 96.5693 33.297 96.5555L32.8719 96.7851C32.3291 97.1191 31.661 97.1609 31.0765 97.1609C30.4165 97.1609 29.6751 96.6312 29.0937 96.2158L29.0723 96.2005C27.9867 95.4072 25.6067 93.403 25.8573 92.0669L41.7237 20.8769C42.6005 16.0752 47.0682 12.3174 51.8281 12.3174L122.016 12.4426ZM113.624 73.6535L123.102 24.3842C123.352 23.0063 123.102 21.7537 122.35 20.7934C122.251 20.6736 122.147 20.5428 122.038 20.4056C121.271 19.4425 120.252 18.1629 119.01 18.1629H55.0013C51.8698 18.1629 48.0702 21.712 47.4857 24.76L35.0848 89.4364C35.0431 89.687 35.1683 89.854 35.2519 89.8957C35.3354 89.9375 35.5024 90.021 35.7111 89.8957L35.7529 89.854L49.8239 82.2966C53.8322 80.2506 56.755 79.0815 59.9283 79.0815H59.97L106.901 79.2068C110.033 79.2068 113.039 76.7016 113.624 73.6535Z" fill="black"/>
<path d="M125.398 15.0731C123.978 13.3612 121.891 12.4426 119.511 12.4426L49.3228 12.3174C44.5629 12.3174 40.0952 15.9917 39.2184 20.6681L25.7737 90.9813C25.5232 92.2757 26.066 93.57 27.1516 94.3633C27.7362 94.7809 28.4042 94.9479 29.0305 94.9479C29.6151 94.9479 30.1996 94.7809 30.7424 94.4886L45.9408 86.3049C49.8239 84.3007 52.6631 83.1316 55.5441 83.1316H55.5859L106.442 83.2986C111.202 83.2986 115.669 79.6243 116.546 74.9479L126.818 21.3779C127.319 18.998 126.818 16.7433 125.398 15.0731ZM120.596 24.0502L111.118 71.9416C110.534 74.9061 107.527 77.3279 104.396 77.3279L57.4648 77.2026H57.423C54.2497 77.2026 51.327 78.33 47.3186 80.3341L33.2477 87.6828L33.2059 87.7245C32.9971 87.8498 32.8301 87.7663 32.7466 87.7245C32.6631 87.6828 32.5378 87.5157 32.5796 87.307L44.9804 24.4259C45.565 21.4614 48.5712 19.0397 51.7028 19.0397L116.421 19.165C117.841 19.165 119.051 19.666 119.845 20.5846C120.596 21.4614 120.847 22.714 120.596 24.0502Z" fill="#45B874"/>
</svg>
