<svg width="160" height="120" viewBox="0 0 160 120" fill="none" xmlns="http://www.w3.org/2000/svg">
<g clip-path="url(#clip0_516_62725)">
<path d="M104.394 113.607H141.461C141.762 113.607 142.063 113.357 142.113 113.056L142.914 108.999C142.964 108.698 142.764 108.448 142.463 108.448H105.396C105.095 108.448 104.795 108.698 104.745 108.999L103.943 113.056C103.893 113.357 104.093 113.607 104.394 113.607ZM77.9458 105.342H83.7564C84.107 105.342 84.4076 105.092 84.4576 104.741L85.3092 100.333C85.3593 99.9826 85.1589 99.7322 84.8083 99.7322H78.9977C78.6471 99.7322 78.3465 99.9826 78.2964 100.333L77.4449 104.741C77.3948 105.042 77.5951 105.342 77.9458 105.342ZM126.584 76.9908H135.651C136.152 76.9908 136.653 76.59 136.753 76.0891L138.055 69.1765C138.155 68.6756 137.805 68.2248 137.304 68.2248H128.237C127.736 68.2248 127.236 68.6255 127.135 69.1264L125.833 76.039C125.733 76.59 126.083 76.9908 126.584 76.9908Z" fill="#029D53"/>
<path d="M138.059 119.769H131.648C131.247 119.769 130.896 119.418 130.896 119.017C130.896 118.617 131.247 118.266 131.648 118.266H138.059C138.46 118.266 138.811 118.617 138.811 119.017C138.811 119.468 138.46 119.769 138.059 119.769ZM94.4265 118.23C94.4275 118.225 94.429 118.22 94.43 118.216L111.812 22.692C111.862 22.2913 112.262 21.9907 112.663 22.0909C113.064 22.141 113.364 22.5417 113.264 22.9424L95.9252 118.232L119.375 118.266C119.776 118.266 120.127 118.617 120.127 119.017C120.127 119.418 119.776 119.769 119.375 119.769L84.7624 119.719C84.3616 119.719 84.011 119.368 84.011 118.967C84.011 118.567 84.3616 118.216 84.7624 118.216L94.4265 118.23Z" fill="black"/>
<path d="M49.797 46.5853L75.9741 0H137.987V0.050079C138.438 -1.223e-05 138.889 0 139.34 0C154.166 0 162.882 19.0346 159.927 43.379C159.626 45.9837 157.172 48.1376 154.617 48.1376H87.5292C79.0242 62.0009 64.1571 72.9799 53.8338 72.8827C43.2145 72.7825 41.3611 61.0111 49.7263 46.5848L49.797 46.5853Z" fill="#FF3D00"/>
<path d="M152.092 6.01095C148.685 2.15392 144.378 0 139.369 0C138.918 0 138.467 -1.223e-05 138.016 0.050079V0H76.0031L69.1406 6.06102H152.092V6.01095Z" fill="#FF9600"/>
<path d="M88.4318 48.1376C92.389 21.5392 86.8289 0 76.0092 0C65.1895 0 53.2177 21.5392 49.2605 48.1376H88.4318Z" fill="black"/>
<path d="M152.619 17.0824C152.369 17.0824 152.068 16.9321 151.968 16.6817C151.116 15.0287 150.114 13.5259 149.063 12.2236C148.812 11.923 148.862 11.4221 149.163 11.1716C149.463 10.9212 149.964 10.9713 150.215 11.2718C151.317 12.6744 152.369 14.2272 153.27 15.9804C153.471 16.331 153.32 16.7819 152.97 16.9822C152.869 17.0323 152.719 17.0824 152.619 17.0824ZM147.66 8.81734C147.46 8.81734 147.309 8.76725 147.159 8.61698C144.003 5.6616 140.347 4.15886 136.289 4.15886C135.889 4.15886 135.438 4.15887 134.987 4.20896C134.586 4.25905 134.236 3.90841 134.185 3.50768C134.135 3.10695 134.486 2.75631 134.887 2.70622C135.388 2.65613 135.838 2.65613 136.289 2.65613C140.747 2.65613 144.805 4.30914 148.211 7.51498C148.512 7.81553 148.512 8.26634 148.261 8.56688C148.061 8.76725 147.86 8.81734 147.66 8.81734Z" fill="white"/>
<path fill-rule="evenodd" clip-rule="evenodd" d="M89.6787 57.7074C90.2318 57.7074 90.6806 58.1562 90.6806 58.7093C90.6806 59.2623 90.2318 59.7111 89.6787 59.7111C89.1257 59.7111 88.6769 59.2623 88.6769 58.7093C88.6769 58.1562 89.1257 57.7074 89.6787 57.7074ZM66.0577 25.8419C71.3559 20.668 78.036 14.9025 84.4192 11.5233C87.7753 19.9888 88.6769 32.4615 86.4228 46.3868H63.8111C63.7275 46.486 63.6814 46.5371 63.6814 46.5371L2.41987 46.487C1.26778 46.487 0.366132 45.4852 0.516405 44.3331C0.917135 40.7766 2.41987 34.0143 8.58109 34.2147C12.7852 34.3404 13.7505 36.8074 13.6704 39.2298C14.9717 35.6087 18.0508 29.6794 23.9591 28.7046C33.6768 27.1017 29.7697 43.4815 29.7697 43.4815C29.7697 43.4815 32.7751 38.272 34.7287 41.2775C34.7287 41.2775 43.0438 8.21732 60.0248 19.9888C62.7622 21.8862 64.7118 23.8618 66.0577 25.8419ZM34.4782 21.241C35.3353 21.241 36.0311 21.9368 36.0311 22.7939C36.0311 23.6509 35.3353 24.3467 34.4782 24.3467C33.6212 24.3467 32.9254 23.6509 32.9254 22.7939C32.9254 21.9368 33.6212 21.241 34.4782 21.241ZM65.1841 2.40674C68.3083 2.40674 70.8445 4.94285 70.8445 8.06704C70.8445 11.1912 68.3083 13.7274 65.1841 13.7274C62.06 13.7274 59.5238 11.1912 59.5238 8.06704C59.5238 4.94285 62.06 2.40674 65.1841 2.40674Z" fill="#D7F4DF"/>
<path d="M42.3269 40.7776C41.9762 40.7776 41.6757 40.5271 41.5755 40.1765C39.6219 30.4087 47.887 22.6947 48.2376 22.344C48.5382 22.0435 49.0391 22.0936 49.2895 22.3941C49.5901 22.6947 49.54 23.1956 49.2394 23.446C49.1393 23.4961 41.2248 30.9597 43.0281 39.8759C43.1283 40.2767 42.8278 40.6774 42.427 40.7776H42.3269ZM68.6748 32.9133C68.5246 32.9133 68.3743 32.8632 68.224 32.763C67.8734 32.5125 67.8233 32.0617 68.0236 31.7111C73.3834 24.1974 80.847 22.1937 81.1475 22.0936C81.5483 21.9934 81.949 22.2438 82.0492 22.6446C82.1494 23.0453 81.8989 23.446 81.4982 23.5462C81.4481 23.5462 74.235 25.4998 69.2258 32.5626C69.1256 32.8131 68.9253 32.9133 68.6748 32.9133Z" fill="white"/>
</g>
<defs>
<clipPath id="clip0_516_62725">
<rect width="160" height="120" fill="white" transform="translate(0.5)"/>
</clipPath>
</defs>
</svg>
