<svg width="160" height="120" viewBox="0 0 160 120" fill="none" xmlns="http://www.w3.org/2000/svg">
<path d="M112.05 46.0155L149.723 46.0606C151.891 46.0606 154.014 44.3441 154.421 42.2211L159.932 13.4919C160.338 11.3689 158.893 9.60719 156.724 9.60719L119.051 9.56201C116.883 9.56201 114.76 11.2785 114.353 13.4016L108.842 42.1307C108.436 44.2538 109.881 46.0155 112.05 46.0155Z" fill="#D7F4DF"/>
<path d="M34.5356 40.8208H46.1898C46.8674 40.8208 47.4998 40.2788 47.6353 39.6464L49.3518 30.7476C49.4874 30.07 49.0356 29.5731 48.3581 29.5731H36.7038C36.0262 29.5731 35.3938 30.1152 35.2583 30.7476L33.5418 39.6464C33.4514 40.2788 33.9032 40.8208 34.5356 40.8208Z" fill="#D7F4DF"/>
<path d="M134.365 108.669H140.192C140.508 108.669 140.869 108.398 140.914 108.081L141.773 103.654C141.818 103.338 141.592 103.067 141.276 103.067H135.449C135.132 103.067 134.771 103.338 134.726 103.654L133.868 108.081C133.822 108.443 134.003 108.669 134.365 108.669Z" fill="#D7F4DF"/>
<path d="M0.972722 81.1138H79.8423C80.4747 81.1138 81.1071 80.6169 81.2426 79.9393L82.914 71.3116C83.0495 70.6791 82.5978 70.1371 81.9654 70.1371H3.09579C2.46338 70.1371 1.83099 70.634 1.69547 71.3116L0.0241197 79.9393C-0.111395 80.5717 0.34032 81.1138 0.972722 81.1138Z" fill="#D7F4DF"/>
<path d="M73.5178 37.4781C73.4726 37.4781 73.4274 37.4781 73.3823 37.4781C73.0209 37.3877 72.795 37.0264 72.8402 36.665L76.8153 17.0605C78.0349 10.872 83.5459 6.40002 89.8247 6.40002C93.7998 6.40002 97.5491 8.16172 100.079 11.2786C102.608 14.3502 103.602 18.3705 102.834 22.3004L100.034 36.936C99.9432 37.2974 99.5818 37.5232 99.2204 37.4781C98.8591 37.3877 98.6332 37.0715 98.6784 36.665L101.524 21.9842C102.247 18.4608 101.343 14.8471 99.0397 12.0916C96.7812 9.33618 93.3933 7.71 89.8247 7.71C84.1783 7.71 79.2546 11.7303 78.1253 17.2864L74.1502 36.8908C74.105 37.2522 73.834 37.4781 73.5178 37.4781Z" fill="black"/>
<path d="M86.8889 37.4781C86.8437 37.4781 86.7985 37.4781 86.7534 37.4781C86.392 37.3877 86.1661 37.0264 86.2113 36.665L90.1864 17.0605C91.406 10.872 96.917 6.40002 103.196 6.40002C107.171 6.40002 110.92 8.16172 113.45 11.2786C115.979 14.3502 116.973 18.3705 116.205 22.3004L113.405 36.936C113.314 37.2974 112.953 37.5232 112.591 37.4781C112.23 37.3877 112.004 37.0715 112.049 36.665L114.895 21.9842C115.618 18.4608 114.715 14.8471 112.411 12.0916C110.152 9.33618 106.764 7.71 103.196 7.71C97.5494 7.71 92.6257 11.7303 91.4964 17.2864L87.5213 36.8908C87.4761 37.2522 87.2051 37.4781 86.8889 37.4781Z" fill="black"/>
<path d="M113.224 119.6L88.696 119.374C88.2894 119.374 110.424 30.2054 110.424 30.2054C110.559 29.844 111.056 29.7085 111.372 29.9344L118.645 34.1353C118.871 34.2709 119.142 34.2709 119.367 34.1353L127.95 31.2895C128.311 31.0185 128.854 31.2444 128.944 31.6961C128.899 31.6961 113.586 119.6 113.224 119.6Z" fill="black"/>
<path d="M103.376 36.8005C103.151 36.936 102.879 36.8908 102.699 36.7553L98.6333 33.5029C98.4527 33.3223 98.1816 33.3223 97.9558 33.4578L92.0835 36.8456C91.8576 36.9812 91.5866 36.936 91.4059 36.8005L87.1598 33.5029C86.9339 33.3223 86.6629 33.3223 86.437 33.4578L81.423 36.8005C81.1971 36.936 80.9261 36.936 80.7002 36.8005L76.1831 33.4578C75.9572 33.3223 75.6862 33.2771 75.4603 33.4578L70.5818 36.8005C70.3559 36.936 70.0849 36.936 69.859 36.7553L66.1098 33.8191C65.7484 33.5029 55.6752 57.7149 55.5848 58.2118L49.9384 115.986C49.848 116.438 50.1642 116.845 50.5708 116.845H93.8C94.1162 116.845 94.3872 116.619 94.4324 116.302L109.926 33.3223L103.376 36.8005ZM98.3172 76.687C96.6458 86.8958 87.0694 95.117 76.9058 95.117C66.7422 95.0718 59.831 86.8054 61.4571 76.5966C63.1285 66.3879 72.7049 58.1666 82.8685 58.1666C93.0772 58.1666 99.9885 66.4782 98.3172 76.687Z" fill="black"/>
<path d="M103.151 33.2772C102.88 33.4127 102.609 33.3675 102.383 33.232L97.6849 29.7538C97.4591 29.5731 97.1429 29.5731 96.8718 29.7086L90.0961 33.3224C89.8251 33.4579 89.554 33.4127 89.3282 33.2772L84.4045 29.7538C84.1786 29.5731 83.8173 29.5731 83.5914 29.7086L77.8094 33.2772C77.5384 33.4127 77.2222 33.4127 76.9963 33.2772L71.7564 29.7538C71.5306 29.5731 71.1692 29.5731 70.9434 29.7538L65.2969 33.3224C65.0259 33.503 64.7097 33.4579 64.4387 33.2772L60.1022 30.1604C59.6505 29.8442 59.0181 30.07 58.9277 30.6121L41.4915 117.884C41.4011 118.335 41.7625 118.787 42.2142 118.787H92.0837C92.445 118.787 92.7612 118.516 92.8064 118.2L110.694 29.5731L103.151 33.2772ZM97.3687 75.874C95.4715 86.7603 84.4045 95.5688 72.6599 95.5236C60.9153 95.4785 52.9651 86.6248 54.8623 75.7385C56.7595 64.8521 67.8265 56.0437 79.5711 56.0888C91.2706 56.134 99.2659 64.9876 97.3687 75.874Z" fill="#029D53"/>
<path d="M49.5771 77.3647L44.3823 103.429L56.398 86.5345C54.7718 83.4176 54.1394 79.7588 54.8621 75.7837C56.669 65.349 66.8778 56.8568 78.0352 56.1792L96.8717 29.7086L95.11 30.6572L90.0508 33.3224C90.0056 33.3675 89.9605 33.3675 89.9153 33.3675C89.6894 33.4127 89.4636 33.4127 89.2829 33.2772L84.3592 29.7538C84.314 29.7086 84.2237 29.6635 84.1785 29.6635C84.0881 29.6183 84.043 29.6183 83.9526 29.6183C83.8171 29.6183 83.6816 29.6635 83.5461 29.7086L77.7641 33.2772C77.719 33.3224 77.6286 33.3224 77.5834 33.3675C77.3576 33.4127 77.1317 33.3675 76.951 33.2772L74.3311 31.5155L71.7111 29.7538C71.5756 29.6635 71.4401 29.6183 71.3046 29.6183C71.1691 29.6183 71.0336 29.6635 70.898 29.7538L65.2516 33.3224C65.1161 33.4127 64.9806 33.4579 64.8451 33.4579C64.8451 33.4579 64.8451 33.4579 64.7999 33.4579C64.6644 33.4579 64.5289 33.4127 64.4385 33.3224L61.8637 31.4703L60.102 30.2055C59.831 30.0248 59.4696 30.0248 59.2438 30.2055C59.1534 30.2959 59.0631 30.3862 59.0179 30.4766C58.9727 30.5217 58.9727 30.6121 58.9727 30.6572L49.5771 77.3647Z" fill="#45B874"/>
<path d="M50.9328 111.108H44.3377C43.9764 111.108 43.6602 110.792 43.6602 110.43C43.6602 110.069 43.9764 109.753 44.3377 109.753H50.9328C51.2942 109.753 51.6104 110.069 51.6104 110.43C51.6104 110.792 51.3393 111.108 50.9328 111.108Z" fill="black"/>
<path fill-rule="evenodd" clip-rule="evenodd" d="M108.933 93.1747H109.068C109.385 93.1747 109.701 92.9488 109.701 92.6778C112.953 74.9705 116.07 56.9471 118.961 39.1043C119.051 38.7429 118.78 38.3815 118.419 38.3364C118.058 38.246 117.696 38.517 117.651 38.8784C114.76 56.7212 111.643 74.7447 108.391 92.4067C108.3 92.7681 108.571 93.0843 108.933 93.1747ZM106.132 109.346H106.268C106.584 109.346 106.855 109.12 106.945 108.849C107.803 105.145 108.436 101.577 108.842 98.008C108.888 97.6015 108.617 97.2853 108.255 97.2401C107.849 97.1949 107.532 97.4659 107.487 97.8273C107.081 101.351 106.448 104.874 105.635 108.533C105.545 108.894 105.771 109.256 106.132 109.346Z" fill="white"/>
<path d="M97.3687 111.243C85.082 111.243 72.5695 111.243 60.1473 111.243C59.7859 111.243 59.4697 110.927 59.4697 110.566C59.4697 110.204 59.7859 109.888 60.1473 109.888C72.5695 109.888 85.082 109.888 97.3687 109.888C97.7301 109.888 98.0463 110.204 98.0463 110.566C98.0463 110.927 97.7301 111.243 97.3687 111.243Z" fill="black"/>
<path d="M28.3018 119.826H24.2816C23.9202 119.826 23.604 119.51 23.604 119.148C23.604 118.787 23.9202 118.471 24.2816 118.471H28.3018C28.6632 118.471 28.9794 118.787 28.9794 119.148C28.9794 119.51 28.6632 119.826 28.3018 119.826Z" fill="black"/>
<path d="M145.748 119.826H33.5868C33.2254 119.826 32.9092 119.51 32.9092 119.148C32.9092 118.787 33.2254 118.471 33.5868 118.471H145.703C146.064 118.471 146.38 118.787 146.38 119.148C146.38 119.51 146.109 119.826 145.748 119.826Z" fill="black"/>
</svg>
