<svg width="160" height="120" viewBox="0 0 160 120" fill="none" xmlns="http://www.w3.org/2000/svg">
<path d="M127.244 8.95445L62.7052 8.80005C57.61 8.80005 52.7207 12.8144 51.7943 17.8067L36.8175 102.984C36.766 103.138 36.766 103.293 36.766 103.447C36.6631 104.271 36.6631 105.043 36.8175 105.763L32.7516 111.013C33.5236 111.167 43.9713 111.167 44.7948 111.013C45.7212 110.858 46.5961 110.498 47.4196 109.932L75.9836 90.5291C79.1231 88.419 83.2919 88.7278 86.0711 91.2497L101.717 106.844V111.991L109.591 111.888C110.466 111.991 111.29 111.991 112.113 111.888C115.613 111.373 118.752 108.954 119.679 105.094C119.73 104.94 119.73 104.785 119.782 104.631L134.759 18.0126C135.685 12.9688 132.34 8.95445 127.244 8.95445Z" fill="black"/>
<path d="M37.7438 109.881L66.3078 90.4777C69.4473 88.3675 73.6161 88.6763 76.3953 91.1982L94.7174 109.469C99.8641 114.204 108.356 111.836 110.003 105.043C110.055 104.888 110.055 104.734 110.106 104.58L125.083 17.9611C126.061 12.9689 122.715 8.95445 117.62 8.95445L53.0809 8.80005C47.9857 8.80005 43.0964 12.8144 42.17 17.8067L27.1932 102.984C27.1417 103.138 27.1417 103.293 27.1417 103.447C26.2668 109.263 32.906 113.174 37.7438 109.881Z" fill="#029D53"/>
<path d="M53.081 8.80005C47.9858 8.80005 43.0964 12.8144 42.17 17.8067L27.1932 102.984C27.1417 103.138 27.1418 103.293 27.1418 103.447C26.73 106.329 28.1711 108.697 30.2812 110.035L93.7911 8.90298L53.081 8.80005Z" fill="#45B874"/>
<path d="M46.2358 20.7403C46.3387 20.7918 46.4416 20.7918 46.5446 20.7918C46.8019 20.7918 47.1107 20.6374 47.2651 20.3801C49.3238 15.851 54.3161 13.4835 60.3377 14.1526C60.8009 14.204 61.1611 13.8952 61.2126 13.4835C61.264 13.0203 60.9552 12.66 60.5435 12.6086C53.8528 11.8366 48.1915 14.5643 45.8755 19.711C45.6696 20.1227 45.824 20.5859 46.2358 20.7403Z" fill="white"/>
<path d="M43.7654 31.1881H43.9198C44.2801 31.1881 44.6403 30.9307 44.6918 30.6219L45.7726 25.6297C45.8755 25.2179 45.6182 24.8062 45.2065 24.7033C44.7947 24.6003 44.383 24.8577 44.2801 25.2694L43.1993 30.2617C43.0963 30.6734 43.3537 31.0851 43.7654 31.1881Z" fill="white"/>
<path d="M146.493 77.0448C143.045 77.0448 138.361 76.8389 132.031 76.2213C117.105 74.8317 97.4452 71.7952 76.7556 67.6778C56.066 63.5605 36.766 58.877 22.4068 54.4509C-0.495876 47.4 0.121728 44.5178 0.327595 43.437C0.584928 42.2018 2.02599 40.8122 11.2385 40.8637C17.4145 40.9152 26.2668 41.6357 36.766 42.9738C37.1777 43.0253 37.4865 43.437 37.4351 43.8488C37.3836 44.2605 36.9719 44.5693 36.5601 44.5178C8.66519 40.9666 2.07746 42.768 1.87159 43.7458C1.87159 43.7973 1.61426 46.4221 22.9215 53.0098C37.2292 57.3845 56.4777 62.068 77.1159 66.1853C97.754 70.3026 117.363 73.2877 132.237 74.6773C154.419 76.736 155.191 74.1626 155.191 74.1626C155.397 73.2362 150.456 69.3762 125.958 62.5312C125.546 62.4282 125.289 61.965 125.443 61.6048C125.546 61.193 126.009 60.9357 126.369 61.0901C135.685 63.7149 143.353 66.2368 148.5 68.3469C156.22 71.5378 156.941 73.3392 156.683 74.5229C156.477 75.2434 156.169 77.0448 146.493 77.0448Z" fill="black"/>
<path d="M148.037 75.7582C144.177 75.7582 139.288 75.5008 133.42 74.9347C118.392 73.5451 98.7318 70.5086 77.9393 66.3912C57.1468 62.2739 37.7953 57.5389 23.3846 53.1128C16.3337 50.9512 10.7753 48.944 6.96676 47.1427C3.00383 45.2899 -0.547369 43.1797 0.0702313 39.9888C0.739298 36.5405 5.62863 35.9229 12.731 35.9744C19.01 36.0259 27.8622 36.7464 38.4644 38.0845L37.7953 43.1797C18.6497 40.7608 10.3636 40.9152 6.9153 41.3269C9.43717 42.768 15.15 45.2899 27.7078 48.9955C41.6038 53.1128 59.7716 57.4875 78.9172 61.296C98.0113 65.1045 116.488 67.9867 130.95 69.4792C144.023 70.8174 150.199 70.6629 153.081 70.3027C150.199 68.7072 143.302 65.6707 126.936 61.0902L128.325 56.1493C137.692 58.7741 145.412 61.296 150.662 63.5091C156.683 66.031 160.595 68.3984 159.926 71.6923C159.308 74.8832 155.191 75.4494 150.816 75.6552C149.993 75.7067 149.015 75.7582 148.037 75.7582Z" fill="#FF3D00"/>
<path fill-rule="evenodd" clip-rule="evenodd" d="M20.2967 21.049L19.5247 23.6223C19.4733 23.9311 19.7821 24.2399 20.0909 24.2399L22.6127 23.3135C22.7157 23.2621 22.8701 23.2621 22.973 23.365L25.1861 24.8575C25.4949 25.0634 25.8551 24.8575 25.8551 24.4973L25.7007 21.821C25.7007 21.6666 25.7522 21.5637 25.8551 21.4607L27.9653 19.8138C28.2226 19.6079 28.1197 19.1962 27.8109 19.0933L25.2375 18.3727C25.0831 18.3213 24.9802 18.2698 24.9287 18.1154L24.0538 15.5935C23.9509 15.2333 23.5391 15.1818 23.3333 15.4906L21.8922 17.7037C21.7893 17.8581 21.6863 17.9095 21.5319 17.9095L18.8557 17.961C18.4954 17.961 18.341 18.3727 18.5469 18.6301L20.2453 20.6887C20.2967 20.7917 20.3482 20.8946 20.2967 21.049ZM150.919 49.0469L150.044 51.9805C149.89 52.3408 150.25 52.701 150.559 52.5981L153.39 51.5173C153.544 51.4658 153.75 51.4658 153.853 51.5688L156.375 53.3186C156.683 53.5245 157.095 53.3186 157.095 52.9069L156.941 49.8704C156.941 49.716 157.044 49.5616 157.147 49.4586L159.566 47.6058C159.874 47.4 159.771 46.8853 159.411 46.7824L156.478 46.0104C156.323 45.9589 156.22 45.856 156.169 45.7016L155.139 42.8194C155.036 42.4592 154.522 42.4077 154.316 42.7165L152.669 45.2384C152.618 45.3413 152.463 45.4442 152.309 45.4442L149.272 45.4957C148.86 45.4957 148.655 45.9589 148.912 46.2677L150.816 48.6352C150.919 48.7381 150.971 48.8925 150.919 49.0469ZM23.2817 70.9717C24.7314 70.9717 25.9065 69.7965 25.9065 68.3469C25.9065 66.8973 24.7314 65.7221 23.2817 65.7221C21.8321 65.7221 20.6569 66.8973 20.6569 68.3469C20.6569 69.7965 21.8321 70.9717 23.2817 70.9717ZM148.706 29.541C148.706 30.9054 147.6 32.0114 146.236 32.0114C144.871 32.0114 143.765 30.9054 143.765 29.541C143.765 28.1767 144.871 27.0706 146.236 27.0706C147.6 27.0706 148.706 28.1767 148.706 29.541Z" fill="#FF9600"/>
</svg>
