<svg width="240" height="180" viewBox="0 0 240 180" fill="none" xmlns="http://www.w3.org/2000/svg">
<g clip-path="url(#clip0_1_42203)">
<path d="M53.2982 55.2653C57.111 52.107 58.2954 47.2449 55.9434 44.4055C53.5915 41.5662 48.5939 41.8247 44.781 44.9831C40.9681 48.1414 39.7838 53.0035 42.1358 55.8429C44.4877 58.6822 49.4853 58.4237 53.2982 55.2653Z" fill="#D7F4DF"/>
<path d="M158.39 148.29C160.453 146.581 161.098 143.956 159.831 142.426C158.564 140.896 155.864 141.041 153.801 142.75C151.739 144.459 151.094 147.084 152.361 148.614C153.628 150.144 156.327 149.999 158.39 148.29Z" fill="#D7F4DF"/>
<path d="M189.032 167.224C191.639 165.064 192.454 161.744 190.85 159.809C189.247 157.873 185.834 158.055 183.226 160.215C180.619 162.375 179.804 165.695 181.408 167.631C183.011 169.566 186.424 169.384 189.032 167.224Z" fill="#D7F4DF"/>
<path d="M185.752 165.933C185.344 165.933 175.779 165.906 175.779 164.298C175.779 162.69 185.344 162.663 185.752 162.663C186.161 162.663 195.725 162.69 195.725 164.298C195.725 165.906 186.161 165.933 185.752 165.933ZM176.324 164.298C176.678 164.761 180.139 165.388 185.752 165.388C191.365 165.388 194.826 164.761 195.18 164.298C194.826 163.835 191.338 163.208 185.752 163.208C180.166 163.208 176.678 163.862 176.324 164.298Z" fill="#D7F4DF"/>
<path d="M83.4333 38.4908C83.3243 38.4908 83.2426 38.4636 83.1608 38.4091C81.7984 37.5371 86.1582 30.6432 86.3489 30.3434C86.5397 30.0437 90.9267 23.177 92.2619 24.0217C92.5616 24.2125 92.8341 24.703 91.8804 26.9101C91.2537 28.3815 90.2728 30.2072 89.0738 32.0874C88.9103 32.3598 85.0138 38.4908 83.4333 38.4908ZM86.8122 30.6432C84.1145 34.894 83.2153 37.6188 83.4878 37.9458C83.8693 38.0276 85.9675 36.0384 88.6378 31.7876C91.3355 27.5368 92.2347 24.812 91.9622 24.485C91.5807 24.4032 89.4825 26.3924 86.8122 30.6432Z" fill="#D7F4DF"/>
<path d="M233.247 51.9243L92.1801 51.8153C90.4635 51.8153 88.9648 53.0415 88.6378 54.7309L87.6569 59.7991C87.5479 60.3986 86.9211 60.9163 86.3217 60.9163L75.5039 60.8891C74.8772 60.8891 74.4685 60.3986 74.5775 59.7719L75.5312 54.8126C75.8309 53.2595 74.632 51.8153 73.0515 51.8153L23.3772 51.788C18.5269 51.788 13.8401 55.6301 12.9409 60.3986L0.651766 124.515C-0.247441 129.283 2.94066 133.125 7.79093 133.153L58.1738 133.18C59.6997 133.18 61.0076 132.09 61.3074 130.591L62.3701 124.978C62.4791 124.379 63.1058 123.861 63.7052 123.861L74.523 123.888C75.1497 123.888 75.5584 124.379 75.4494 125.005L74.2777 131.163C74.087 132.199 74.8772 133.18 75.9399 133.18L217.606 133.289C222.456 133.289 227.143 129.447 228.042 124.678L240.331 60.5349C241.285 55.7936 238.097 51.9243 233.247 51.9243Z" fill="#029D53"/>
<path d="M75.5039 60.8891C74.8772 60.8891 74.4685 60.3986 74.5775 59.7719L75.5312 54.8126C75.8309 53.2595 74.632 51.8153 73.0515 51.8153L23.3772 51.788C18.5269 51.788 13.8401 55.6301 12.9409 60.3986L0.651766 124.515C-0.247441 129.283 2.94066 133.125 7.79093 133.153L29.7806 133.18L78.1743 60.9163L75.5039 60.8891Z" fill="#45B874"/>
<path d="M89.5916 110.482L113.025 110.782C114.388 110.782 115.696 109.719 115.941 108.384L119.374 90.2632C119.62 88.928 118.748 87.8654 117.385 87.8654L93.9514 87.8109C92.5889 87.8109 91.281 88.8735 91.0357 90.2087L87.6024 108.084C87.3299 109.419 88.2291 110.482 89.5916 110.482Z" fill="#45B874"/>
<path d="M54.5496 79.7181L36.6472 79.5001C36.075 79.5001 35.5572 79.2821 35.203 78.8461C34.876 78.4374 34.7398 77.8924 34.8488 77.3202L37.4647 63.6413C37.6826 62.4969 38.7998 61.5977 39.9443 61.5977L57.8467 61.6249C58.4189 61.6249 58.9366 61.8429 59.2909 62.2789C59.6178 62.6876 59.7541 63.2326 59.6451 63.8048L57.0292 77.6744C56.8112 78.7916 55.694 79.7181 54.5496 79.7181ZM39.9443 62.1427C39.0451 62.1427 38.1459 62.8784 37.9824 63.7503L35.3665 77.4292C35.2848 77.8379 35.3665 78.2194 35.6117 78.4919C35.857 78.7644 36.2112 78.9279 36.6199 78.9279L54.5223 79.1459C55.4215 79.1459 56.2935 78.4101 56.4842 77.5382L59.1001 63.6686C59.1819 63.2599 59.1001 62.8784 58.8549 62.6059C58.6096 62.3334 58.2554 62.1699 57.8467 62.1699L39.9443 62.1427Z" fill="#029D53"/>
<path d="M80.4088 64.6768C80.3816 64.6768 80.3543 64.6768 80.3271 64.6768C80.1091 64.6223 79.9728 64.4316 80.0001 64.1863L80.2998 62.5787C80.3543 62.3607 80.5451 62.2244 80.7903 62.2517C81.0083 62.3062 81.1445 62.4969 81.1173 62.7422L80.8176 64.3498C80.7631 64.5406 80.5996 64.6768 80.4088 64.6768Z" fill="black"/>
<path d="M70.4631 116.558C70.4358 116.558 70.4086 116.558 70.3813 116.558C70.1634 116.504 70.0271 116.313 70.0544 116.068L70.6811 112.825C70.7356 112.607 70.9263 112.471 71.1716 112.498C71.3895 112.553 71.5258 112.743 71.4985 112.989L70.8718 116.231C70.8173 116.422 70.6538 116.558 70.4631 116.558ZM71.7165 110.073C71.6893 110.073 71.662 110.073 71.6348 110.073C71.4168 110.019 71.2806 109.828 71.3078 109.583L71.9345 106.34C71.989 106.122 72.1798 105.986 72.425 106.013C72.643 106.068 72.7792 106.258 72.752 106.504L72.1253 109.746C72.0708 109.937 71.9073 110.073 71.7165 110.073ZM72.9427 103.588C72.9155 103.588 72.8882 103.588 72.861 103.588C72.643 103.533 72.5067 103.343 72.534 103.097L73.1607 99.8549C73.2152 99.6369 73.406 99.5006 73.6512 99.5279C73.8692 99.5824 74.0054 99.7731 73.9782 100.018L73.3515 103.261C73.3242 103.452 73.1335 103.588 72.9427 103.588ZM74.1962 97.1027C74.1689 97.1027 74.1417 97.1027 74.1144 97.1027C73.8964 97.0482 73.7602 96.8575 73.7874 96.6123L74.4141 93.3697C74.4686 93.1517 74.6594 93.0154 74.9046 93.0427C75.1226 93.0972 75.2589 93.2879 75.2316 93.5332L74.6049 96.7758C74.5504 96.9665 74.3869 97.1027 74.1962 97.1027ZM75.4496 90.6175C75.4224 90.6175 75.3951 90.6175 75.3679 90.6175C75.1499 90.563 75.0136 90.3723 75.0409 90.1271L75.6676 86.8845C75.7221 86.6665 75.9128 86.503 76.1581 86.5575C76.3761 86.612 76.5123 86.8027 76.4851 87.048L75.8583 90.2906C75.8038 90.4813 75.6403 90.6175 75.4496 90.6175ZM76.6758 84.1323C76.6485 84.1323 76.6213 84.1323 76.594 84.1323C76.3761 84.0779 76.2398 83.8871 76.2671 83.6419L76.8938 80.3993C76.9483 80.1813 77.139 80.045 77.3843 80.0723C77.6023 80.1268 77.7385 80.3175 77.7112 80.5628L77.0845 83.8054C77.0573 83.9961 76.8665 84.1323 76.6758 84.1323ZM77.9292 77.6472C77.902 77.6472 77.8747 77.6472 77.8475 77.6472C77.6295 77.5927 77.4933 77.4019 77.5205 77.1567L78.1472 73.9141C78.2017 73.6961 78.3925 73.5326 78.6377 73.5871C78.8557 73.6416 78.9919 73.8323 78.9647 74.0776L78.338 77.3202C78.2835 77.5109 78.12 77.6472 77.9292 77.6472ZM79.1827 71.162C79.1554 71.162 79.1282 71.162 79.1009 71.162C78.8829 71.1075 78.7467 70.9167 78.7739 70.6715L79.4007 67.4289C79.4552 67.2109 79.6459 67.0747 79.8911 67.1019C80.1091 67.1564 80.2454 67.3471 80.2181 67.5924L79.5914 70.835C79.5369 71.0257 79.3734 71.162 79.1827 71.162Z" fill="black"/>
<path d="M69.5364 121.408C69.5092 121.408 69.482 121.408 69.4547 121.408C69.2367 121.354 69.1005 121.163 69.1277 120.918L69.4275 119.31C69.482 119.092 69.6727 118.956 69.9179 118.983C70.1359 119.038 70.2722 119.229 70.2449 119.474L69.9452 121.081C69.8907 121.272 69.7272 121.408 69.5364 121.408Z" fill="black"/>
<path d="M216.216 111.463C216.189 111.463 216.162 111.463 216.134 111.463C215.916 111.408 215.78 111.218 215.807 110.972C216.189 108.929 216.598 106.885 216.979 104.841C217.034 104.623 217.224 104.487 217.47 104.514C217.688 104.569 217.824 104.76 217.797 105.005C217.415 107.048 217.006 109.092 216.625 111.136C216.57 111.327 216.407 111.463 216.216 111.463Z" fill="black"/>
<path d="M218.342 100.318C218.314 100.318 218.287 100.318 218.26 100.318C218.042 100.291 217.878 100.073 217.933 99.8548L218.423 97.1299C219.35 91.9254 220.331 86.5574 221.339 81.2712C221.393 81.0532 221.584 80.9169 221.829 80.9442C222.047 80.9987 222.184 81.1894 222.156 81.4347C221.148 86.7209 220.194 92.0889 219.241 97.2934L218.75 100.018C218.696 100.182 218.532 100.318 218.342 100.318Z" fill="black"/>
<path d="M227.579 81.9524C227.552 81.9524 227.524 81.9524 227.497 81.9524C227.279 81.9252 227.116 81.7072 227.17 81.4892L227.661 78.7098C228.587 73.5326 229.568 68.1646 230.549 62.9056C230.604 62.6876 230.794 62.5513 231.04 62.5786C231.258 62.6331 231.421 62.8238 231.367 63.0691C230.386 68.3281 229.405 73.6961 228.478 78.8733L227.988 81.6527C227.933 81.8162 227.77 81.9524 227.579 81.9524Z" fill="black"/>
<path d="M222.592 77.293C222.565 77.293 222.538 77.293 222.511 77.293C222.293 77.2385 222.157 77.0477 222.184 76.8025C223.165 71.7887 224.064 67.3472 224.963 63.1509C225.018 62.9329 225.236 62.7967 225.454 62.8512C225.672 62.9057 225.808 63.1237 225.753 63.3416C224.854 67.5107 223.928 71.9795 222.974 76.966C222.947 77.1567 222.783 77.293 222.592 77.293Z" fill="black"/>
<path d="M9.48033 120.918L19.0991 121C19.9166 121 20.5978 120.428 20.7613 119.665L32.4237 62.9328C32.6145 61.9246 31.8788 61.0254 30.8433 60.9981L21.2245 60.9164C20.4071 60.9164 19.7258 61.4886 19.5624 62.2516L7.89991 119.011C7.70917 119.992 8.47213 120.918 9.48033 120.918Z" fill="white"/>
<path d="M11.5513 118.602L17.982 118.656C18.6632 118.656 19.2354 118.193 19.3716 117.539L29.8079 65.6032C29.9714 64.7585 29.3447 63.9955 28.5 63.9955L22.0693 63.941C21.388 63.941 20.8158 64.4042 20.6796 65.0582L10.2433 116.994C10.0798 117.839 10.7066 118.602 11.5513 118.602Z" fill="white"/>
<path d="M32.6416 70.4807H15.9654V71.2709H32.6416V70.4807Z" fill="black"/>
<path d="M32.7779 71.3799H15.8292V70.3172H32.7779V71.3799ZM16.1016 71.1074H32.5054V70.5897H16.1016V71.1074Z" fill="white"/>
<path d="M33.6227 73.0966H13.6221V75.331H33.6227V73.0966Z" fill="black"/>
<path d="M33.7589 75.44H13.4858V72.9603H33.7589V75.44ZM13.7583 75.1675H33.4864V73.2328H13.7583V75.1675Z" fill="white"/>
<path d="M32.0696 76.203H14.4124V77.402H32.0696V76.203Z" fill="black"/>
<path d="M32.2059 77.5381H14.2762V76.0667H32.2059V77.5381ZM14.5487 77.2657H31.9334V76.3392H14.5487V77.2657Z" fill="white"/>
<path d="M35.857 78.9823H13.1043V81.7344H35.857V78.9823Z" fill="black"/>
<path d="M35.9932 81.8435H12.968V78.8189H35.9932V81.8435ZM13.2405 81.5711H35.7207V79.0914H13.2405V81.5711Z" fill="white"/>
<path d="M32.0694 86.2849H12.8318V88.6283H32.0694V86.2849Z" fill="black"/>
<path d="M32.2056 88.7919H12.6955V86.176H32.2056V88.7919ZM12.968 88.5194H31.9331V86.4485H12.968V88.5194Z" fill="white"/>
<path d="M37.3012 66.2298H11.306V69.0364H37.3012V66.2298Z" fill="black"/>
<path d="M29.5625 98.6832H9.56195V100.918H29.5625V98.6832Z" fill="black"/>
<path d="M29.6987 101.054H9.42566V98.5469H29.6987V101.054ZM9.69815 100.781H29.4262V98.8194H9.69815V100.781Z" fill="white"/>
<path d="M28.0095 101.817H10.3523V103.016H28.0095V101.817Z" fill="black"/>
<path d="M28.1456 103.152H10.216V101.681H28.1456V103.152ZM10.4885 102.879H27.8732V101.953H10.4885V102.879Z" fill="white"/>
<path d="M31.7971 104.569H9.04443V107.321H31.7971V104.569Z" fill="black"/>
<path d="M31.9333 107.457H8.90814V104.433H31.9333V107.457ZM9.18063 107.185H31.6608V104.705H9.18063V107.185Z" fill="white"/>
<path d="M28.0095 111.899H8.77191V114.242H28.0095V111.899Z" fill="black"/>
<path d="M28.1457 114.406H8.63568V111.79H28.1457V114.406ZM8.90817 114.133H27.8733V112.062H8.90817V114.133Z" fill="white"/>
<path d="M33.2139 93.2607H7.21863V94.6777H33.2139V93.2607Z" fill="black"/>
<path d="M33.8135 89.5548H7.81824V90.9718H33.8135V89.5548Z" fill="black"/>
<path d="M29.699 82.4974H14.14V83.1514H29.699V82.4974Z" fill="black"/>
<path d="M29.8352 83.2876H14.0037V82.3611H29.8352V83.2876ZM14.2762 83.0151H29.5627V82.6336H14.2762V83.0151Z" fill="white"/>
<path d="M29.699 84.4593H14.14V85.1133H29.699V84.4593Z" fill="black"/>
<path d="M29.8352 85.2495H14.0037V84.323H29.8352V85.2495ZM14.2762 84.977H29.5627V84.5955H14.2762V84.977Z" fill="white"/>
<path d="M27.0829 96.0945H11.5239V96.7485H27.0829V96.0945Z" fill="black"/>
<path d="M27.2191 96.8847H11.3876V95.9583H27.2191V96.8847ZM11.6601 96.6122H26.9466V96.2307H11.6601V96.6122Z" fill="white"/>
<path d="M23.3772 109.065H7.81824V109.719H23.3772V109.065Z" fill="black"/>
<path d="M23.5134 109.855H7.68195V108.929H23.5134V109.855ZM7.95443 109.583H23.241V109.201H7.95443V109.583Z" fill="white"/>
<path d="M23.3772 115.85H7.81824V116.504H23.3772V115.85Z" fill="black"/>
<path d="M23.5134 116.64H7.68195V115.714H23.5134V116.64ZM7.95443 116.368H23.241V115.986H7.95443V116.368Z" fill="white"/>
<path d="M90.9267 103.152C90.082 98.3833 85.5314 95.1952 80.7629 96.04L34.9033 104.215C30.1348 105.059 26.9467 109.61 27.7914 114.378C28.6361 119.147 33.1867 122.335 37.9552 121.49L83.8148 113.316" fill="white"/>
<path d="M38.0642 118.629C36.5928 118.629 35.2031 118.329 33.9769 117.73C32.2058 116.858 31.0613 115.468 30.7888 113.833C30.1894 110.482 33.3502 107.103 37.8463 106.313L78.91 99.0101C81.0082 98.6286 83.1608 99.0646 84.9592 100.236C86.6759 101.326 87.8204 102.934 88.1201 104.596C88.1473 104.814 88.0111 105.032 87.7931 105.059C87.5751 105.087 87.3571 104.95 87.3299 104.732C87.0846 103.315 86.0219 101.871 84.5233 100.917C82.8883 99.8548 80.9537 99.4733 79.0463 99.8003L37.9825 107.103C33.9497 107.811 31.0613 110.782 31.5791 113.67C31.8243 115.06 32.8052 116.231 34.3312 116.967C35.9116 117.73 37.8735 117.975 39.8354 117.621L84.06 110.073C84.278 110.046 84.496 110.182 84.5233 110.4C84.5505 110.618 84.4143 110.836 84.1963 110.863L39.9716 118.411C39.3449 118.575 38.691 118.629 38.0642 118.629Z" fill="black"/>
<path d="M83.7057 113.452C82.6975 108.711 86.1854 104.16 90.9266 103.152L83.7057 113.452Z" fill="black"/>
<path d="M40.5165 114.624C40.3258 114.624 40.1623 114.487 40.1078 114.297C40.0533 114.079 40.2168 113.861 40.4348 113.806C46.1843 112.716 51.961 111.79 57.8467 110.836C58.0647 110.809 58.2827 110.945 58.3099 111.163C58.3372 111.381 58.2009 111.599 57.9829 111.626C52.0972 112.58 46.3205 113.506 40.5983 114.569C40.571 114.624 40.5438 114.624 40.5165 114.624Z" fill="black"/>
<path d="M63.2691 110.809C63.0784 110.809 62.8876 110.672 62.8604 110.454C62.8331 110.236 62.9694 110.018 63.1874 109.991C66.212 109.501 68.5281 109.119 70.708 108.765C70.926 108.738 71.144 108.874 71.1713 109.092C71.1985 109.31 71.0623 109.528 70.8443 109.555C68.6644 109.937 66.321 110.318 63.2964 110.781C63.3236 110.809 63.2964 110.809 63.2691 110.809Z" fill="black"/>
<path d="M72.0433 108.084C71.8526 108.084 71.6891 107.948 71.6346 107.757C71.6074 107.539 71.7436 107.321 71.9616 107.294C72.6973 107.157 73.433 107.021 74.1415 106.885C74.3595 106.83 74.5775 106.994 74.632 107.212C74.6865 107.43 74.523 107.648 74.305 107.702C73.5693 107.839 72.8336 107.975 72.0978 108.111C72.0978 108.084 72.0706 108.084 72.0433 108.084Z" fill="black"/>
<path d="M125.369 63.3688H97.3846C97.1666 63.3688 96.9758 63.1781 96.9758 62.9601C96.9758 62.7421 97.1666 62.5514 97.3846 62.5514H125.369C125.587 62.5514 125.778 62.7421 125.778 62.9601C125.778 63.1781 125.587 63.3688 125.369 63.3688Z" fill="black"/>
<path d="M123.68 71.5706H95.668C95.45 71.5706 95.2593 71.3798 95.2593 71.1618C95.2593 70.9439 95.45 70.7531 95.668 70.7531H123.652C123.87 70.7531 124.061 70.9439 124.061 71.1618C124.061 71.3798 123.898 71.5706 123.68 71.5706Z" fill="black"/>
<path d="M121.581 80.481H116.786C116.568 80.481 116.377 80.2903 116.377 80.0723C116.377 79.8543 116.568 79.6636 116.786 79.6636H121.581C121.799 79.6636 121.99 79.8543 121.99 80.0723C121.99 80.2903 121.799 80.481 121.581 80.481Z" fill="black"/>
<path d="M112.044 80.4809C105.859 80.3991 99.837 80.3991 93.5971 80.4809C93.3791 80.4809 93.1884 80.2901 93.1884 80.0721C93.1884 79.8542 93.3791 79.6634 93.5971 79.6634C99.837 79.5817 105.859 79.5817 112.044 79.6634C112.262 79.6634 112.453 79.8542 112.453 80.0721C112.453 80.2901 112.262 80.4809 112.044 80.4809Z" fill="black"/>
<path d="M54.3316 84.8953H34.7943V85.4402H54.3316V84.8953Z" fill="#029D53"/>
<path d="M52.4242 89.8H32.8869V90.345H52.4242V89.8Z" fill="#029D53"/>
<path d="M38.9361 70.072C42.2059 70.944 44.4676 73.5871 44.8218 76.9932C46.3477 73.6688 49.3451 71.0802 52.8057 70.0448C49.5086 69.2001 47.2469 66.5297 46.92 63.1236C45.5303 66.5297 42.4784 69.1728 38.9361 70.072Z" fill="white"/>
<path d="M49.4814 75.9849C50.6803 76.3119 51.525 77.2929 51.6613 78.5463C52.2335 77.3201 53.3234 76.3664 54.6041 75.9849C53.4052 75.6852 52.5605 74.7042 52.4242 73.4236C51.9338 74.677 50.7893 75.6579 49.4814 75.9849Z" fill="white"/>
<path d="M127.467 126.068L198.287 126.94C202.374 126.94 206.325 123.697 207.088 119.692L217.442 64.8947C218.205 60.8892 215.508 57.6193 211.42 57.6193L140.601 57.4831C136.514 57.4831 132.563 60.7257 131.8 64.7312L121.445 118.765C120.655 122.798 123.353 126.041 127.467 126.068Z" fill="black"/>
<path d="M217.143 123.834C215.726 116.122 204.772 124.924 204.772 124.924C204.772 124.924 205.208 122.771 203.028 119.201C200.848 115.632 194.744 119.201 194.744 119.201C194.744 119.201 199.758 109.446 190.657 103.343C181.556 97.239 161.882 120.973 161.882 120.973C161.882 120.973 164.471 111.981 154.988 110.318C145.506 108.656 142.236 122.771 142.236 122.771C142.236 122.771 142.645 119.91 142.181 116.94C142.154 117.049 142.1 117.131 142.072 117.24C142.481 120.755 141.773 124.079 140.519 127.294L214.99 127.322C214.99 127.294 217.878 127.785 217.143 123.834Z" fill="#D7F4DF"/>
<path d="M112.099 127.294C111.063 127.294 110.273 126.395 110.437 125.36C110.764 122.935 111.908 119.092 115.696 119.174C121.227 119.338 118.257 125.632 118.257 125.632C118.257 125.632 119.429 116.613 125.805 115.523C132.181 114.433 129.647 125.251 129.647 125.251C129.647 125.251 131.636 121.817 132.917 123.806C132.917 123.806 138.421 101.98 149.62 109.746C160.82 117.512 152.018 127.294 152.018 127.294H112.099Z" fill="#D7F4DF"/>
<path d="M160.602 101.244L156.106 121.463H168.068L172.509 99.882L159.702 100.863" fill="#D7F4DF"/>
<path d="M150.52 105.277C152.009 105.277 153.217 104.07 153.217 102.58C153.217 101.09 152.009 99.882 150.52 99.882C149.03 99.882 147.822 101.09 147.822 102.58C147.822 104.07 149.03 105.277 150.52 105.277Z" fill="white"/>
<path d="M168.422 125.305C171.281 125.305 173.599 122.987 173.599 120.128C173.599 117.269 171.281 114.951 168.422 114.951C165.563 114.951 163.245 117.269 163.245 120.128C163.245 122.987 165.563 125.305 168.422 125.305Z" fill="#D7F4DF"/>
<path d="M179.349 103.043C180.176 103.043 180.847 102.372 180.847 101.544C180.847 100.717 180.176 100.046 179.349 100.046C178.521 100.046 177.85 100.717 177.85 101.544C177.85 102.372 178.521 103.043 179.349 103.043Z" fill="#D7F4DF"/>
<path d="M133.871 114.787C134.427 114.787 134.879 114.336 134.879 113.779C134.879 113.222 134.427 112.771 133.871 112.771C133.314 112.771 132.862 113.222 132.862 113.779C132.862 114.336 133.314 114.787 133.871 114.787Z" fill="#D7F4DF"/>
<path d="M207.251 120.564C207.628 120.564 207.933 120.259 207.933 119.883C207.933 119.506 207.628 119.201 207.251 119.201C206.875 119.201 206.57 119.506 206.57 119.883C206.57 120.259 206.875 120.564 207.251 120.564Z" fill="#D7F4DF"/>
<path d="M177.359 111.844C177.278 111.844 177.196 111.817 177.114 111.762C176.923 111.626 176.896 111.381 177.005 111.19C180.52 106.258 185.398 104.95 185.616 104.896C185.834 104.841 186.052 104.977 186.106 105.195C186.161 105.413 186.024 105.631 185.807 105.686C185.752 105.686 180.984 106.994 177.659 111.681C177.632 111.79 177.496 111.844 177.359 111.844Z" fill="white"/>
<path d="M138.721 121.572C138.503 121.572 138.339 121.409 138.312 121.191C137.794 114.678 143.816 110.291 144.062 110.128C144.252 109.991 144.498 110.046 144.634 110.209C144.77 110.4 144.716 110.645 144.552 110.782C144.498 110.836 138.666 115.087 139.13 121.136C139.157 121.354 138.966 121.545 138.748 121.572H138.721Z" fill="white"/>
<path d="M202.483 127.757H142.563C142.345 127.757 142.154 127.567 142.154 127.349C142.154 127.131 142.345 126.94 142.563 126.94H202.483C202.701 126.94 202.892 127.131 202.892 127.349C202.892 127.567 202.701 127.757 202.483 127.757Z" fill="black"/>
<path d="M133.789 127.757H127.331C127.113 127.757 126.922 127.567 126.922 127.349C126.922 127.131 127.113 126.94 127.331 126.94H133.789C134.007 126.94 134.198 127.131 134.198 127.349C134.198 127.567 134.007 127.757 133.789 127.757Z" fill="black"/>
<path d="M54.6042 129.229C55.1219 127.975 55.4761 126.667 55.6396 125.305C56.7296 117.021 50.9256 110.318 42.642 110.318C34.3584 110.318 26.756 117.021 25.6661 125.305C24.5761 133.589 30.3801 140.292 38.6637 140.292C40.2986 140.292 41.9335 140.019 43.4867 139.529" fill="#FF3D00"/>
<path d="M42.642 110.318C34.3584 110.318 26.756 117.021 25.6661 125.305C25.2846 128.112 25.7206 130.728 26.756 132.962L42.9145 110.318C42.8328 110.318 42.751 110.318 42.642 110.318Z" fill="#FF9600"/>
<path d="M43.4866 139.529C45.4758 134.733 49.6176 130.782 54.6041 129.229L43.4866 139.529Z" fill="black"/>
<path d="M41.443 123.016C35.5028 123.016 31.4155 119.583 31.361 119.528C31.252 119.419 31.2247 119.256 31.3337 119.147C31.4427 119.038 31.6062 119.011 31.7152 119.12C31.797 119.201 40.6528 126.64 51.2525 119.092C51.3888 119.011 51.5522 119.038 51.634 119.147C51.7157 119.283 51.6885 119.447 51.5795 119.528C47.8737 122.144 44.4131 123.016 41.443 123.016Z" fill="black"/>
<path d="M38.2549 119.61C36.729 119.61 35.966 118.193 35.7753 117.43C35.7481 117.294 35.8298 117.131 35.966 117.103C36.1023 117.076 36.2658 117.158 36.293 117.294C36.3203 117.376 36.7835 119.174 38.3639 119.065C39.9716 118.956 40.2168 117.403 40.2168 117.321C40.2441 117.185 40.3803 117.076 40.5166 117.076C40.6528 117.103 40.7618 117.24 40.7618 117.376C40.6801 118.084 40.0533 119.474 38.4184 119.583C38.3639 119.61 38.3094 119.61 38.2549 119.61Z" fill="black"/>
<path d="M44.3586 119.61C44.3041 119.61 44.2224 119.61 44.1679 119.61C43.5684 119.556 43.078 119.338 42.751 118.956C42.206 118.275 42.315 117.376 42.315 117.348C42.3422 117.212 42.4785 117.103 42.6147 117.103C42.751 117.13 42.86 117.267 42.86 117.403C42.86 117.403 42.7782 118.139 43.1597 118.602C43.3777 118.874 43.7319 119.038 44.1679 119.065C45.8028 119.174 46.7838 117.267 46.811 117.239C46.8928 117.103 47.0563 117.049 47.1652 117.13C47.3015 117.212 47.356 117.376 47.2742 117.485C47.2742 117.566 46.2388 119.61 44.3586 119.61Z" fill="black"/>
<path d="M27.9549 129.638C27.7914 129.638 27.6279 129.529 27.5734 129.365C27.3554 128.738 27.192 128.085 27.1102 127.403C27.083 127.185 27.2465 126.967 27.4644 126.94C27.6824 126.913 27.9004 127.076 27.9277 127.294C28.0094 127.921 28.1457 128.548 28.3636 129.12C28.4454 129.338 28.3091 129.556 28.1184 129.638C28.0367 129.638 27.9822 129.638 27.9549 129.638Z" fill="white"/>
<path d="M27.41 125.659C27.1648 125.659 27.0013 125.441 27.0013 125.223C27.083 123.534 27.5463 121.845 28.3365 120.319C28.4455 120.128 28.6907 120.046 28.8814 120.155C29.0722 120.264 29.1539 120.509 29.0449 120.7C28.3092 122.117 27.8732 123.697 27.7915 125.251C27.8187 125.496 27.628 125.659 27.41 125.659Z" fill="white"/>
<path d="M167.168 93.5331C167.891 93.5331 168.476 92.9475 168.476 92.2252C168.476 91.5028 167.891 90.9172 167.168 90.9172C166.446 90.9172 165.861 91.5028 165.861 92.2252C165.861 92.9475 166.446 93.5331 167.168 93.5331Z" fill="#D7F4DF"/>
<path d="M201.802 112.335C199.622 112.335 197.823 110.564 197.823 108.356C197.823 106.149 199.594 104.378 201.802 104.378C204.009 104.378 205.78 106.149 205.78 108.356C205.78 110.564 203.981 112.335 201.802 112.335ZM201.802 105.223C200.058 105.223 198.641 106.64 198.641 108.384C198.641 110.128 200.058 111.544 201.802 111.544C203.545 111.544 204.962 110.128 204.962 108.384C204.962 106.64 203.545 105.223 201.802 105.223Z" fill="white"/>
<path d="M124.933 103.016C123.216 103.016 121.827 101.626 121.827 99.9092C121.827 98.1926 123.216 96.8029 124.933 96.8029C126.65 96.8029 128.039 98.1926 128.039 99.9092C128.039 101.626 126.622 103.016 124.933 103.016ZM124.933 97.6203C123.68 97.6203 122.644 98.6558 122.644 99.9092C122.644 101.163 123.68 102.198 124.933 102.198C126.186 102.198 127.222 101.163 127.222 99.9092C127.222 98.6558 126.186 97.6203 124.933 97.6203Z" fill="white"/>
<path d="M162.236 95.8765C162.507 95.8765 162.727 95.6569 162.727 95.386C162.727 95.1151 162.507 94.8955 162.236 94.8955C161.966 94.8955 161.746 95.1151 161.746 95.386C161.746 95.6569 161.966 95.8765 162.236 95.8765Z" fill="#D7F4DF"/>
<path d="M197.306 96.3125C197.546 96.3125 197.742 96.1173 197.742 95.8765C197.742 95.6357 197.546 95.4405 197.306 95.4405C197.065 95.4405 196.87 95.6357 196.87 95.8765C196.87 96.1173 197.065 96.3125 197.306 96.3125Z" fill="#D7F4DF"/>
<path d="M129.347 110.782C129.588 110.782 129.783 110.586 129.783 110.346C129.783 110.105 129.588 109.91 129.347 109.91C129.107 109.91 128.911 110.105 128.911 110.346C128.911 110.586 129.107 110.782 129.347 110.782Z" fill="#D7F4DF"/>
<path d="M191.774 100.482C192.015 100.482 192.21 100.286 192.21 100.046C192.21 99.8048 192.015 99.6096 191.774 99.6096C191.533 99.6096 191.338 99.8048 191.338 100.046C191.338 100.286 191.533 100.482 191.774 100.482Z" fill="#D7F4DF"/>
<path d="M140.519 99.6912C140.76 99.6912 140.955 99.4961 140.955 99.2553C140.955 99.0145 140.76 98.8193 140.519 98.8193C140.279 98.8193 140.083 99.0145 140.083 99.2553C140.083 99.4961 140.279 99.6912 140.519 99.6912Z" fill="#D7F4DF"/>
<path d="M162.836 102.416C162.645 102.416 162.482 102.28 162.427 102.089C161.773 98.8739 164.498 96.3125 164.607 96.2307C164.771 96.0672 165.043 96.0945 165.179 96.258C165.343 96.4215 165.316 96.6939 165.152 96.8302C165.125 96.8574 162.673 99.1736 163.217 101.926C163.272 102.144 163.108 102.362 162.89 102.416C162.89 102.416 162.863 102.416 162.836 102.416Z" fill="white"/>
<path d="M166.351 110.754C166.324 110.754 166.297 110.754 166.269 110.754C166.051 110.7 165.915 110.482 165.942 110.264C166.269 108.765 166.596 107.294 166.923 105.795C166.978 105.577 167.196 105.441 167.414 105.495C167.632 105.55 167.768 105.768 167.713 105.986C167.386 107.484 167.059 108.956 166.732 110.454C166.705 110.618 166.542 110.754 166.351 110.754Z" fill="white"/>
<path d="M161.092 117.294C161.065 117.294 161.038 117.294 160.983 117.294C160.765 117.239 160.629 117.021 160.683 116.803C161.446 113.643 162.209 110.291 163.163 105.931C163.217 105.713 163.435 105.577 163.653 105.632C163.871 105.686 164.008 105.904 163.953 106.122C162.999 110.482 162.237 113.833 161.474 117.021C161.419 117.158 161.256 117.294 161.092 117.294Z" fill="white"/>
<path d="M187.442 76.5027C187.387 76.5027 187.36 76.5027 187.305 76.4755C187.087 76.3937 186.978 76.1757 187.033 75.9578C187.741 73.7234 188.177 71.4072 188.613 69.1728C188.804 68.1101 188.995 67.1019 189.213 66.121C189.267 65.903 189.485 65.7668 189.703 65.8213C189.921 65.8757 190.057 66.0937 190.003 66.3117C189.785 67.2927 189.594 68.3009 189.403 69.3363C188.967 71.598 188.531 73.9414 187.823 76.2302C187.769 76.3937 187.605 76.5027 187.442 76.5027Z" fill="white"/>
<path d="M159.539 73.7506C159.512 73.7506 159.484 73.7506 159.457 73.7506C159.239 73.6961 159.103 73.4781 159.157 73.2601L159.648 71.0802C159.702 70.8623 159.92 70.726 160.138 70.7805C160.356 70.835 160.493 71.053 160.438 71.271L159.948 73.4509C159.893 73.6416 159.73 73.7506 159.539 73.7506Z" fill="white"/>
<path d="M151.719 88.4649L168.231 71.162L165.125 90.89H152.754C151.501 90.89 150.847 89.3641 151.719 88.4649Z" fill="#FF3D00"/>
<path d="M176.869 49.0632L166.16 59.8809C165.37 61.2161 164.798 62.6875 164.525 64.2134L157.141 102.525C156.978 103.397 157.659 104.215 158.558 104.242L172.836 104.296C173.899 104.296 174.825 103.561 175.043 102.525L183.354 64.1589C183.654 62.6875 183.681 61.1888 183.381 59.7174L179.403 49.5264C179.158 48.2729 177.523 47.9732 176.869 49.0632Z" fill="#FF3D00"/>
<path d="M176.815 49.1449L166.269 59.7992C166.215 59.8537 166.16 59.9354 166.106 60.0172C165.343 61.3251 164.825 62.742 164.525 64.2135L157.141 102.525C156.978 103.397 157.659 104.215 158.558 104.242H161.501C162.019 104.242 162.455 103.888 162.564 103.37L170.656 61.0526C170.684 60.8891 170.765 60.7529 170.847 60.6166L178.668 50.2076C179.431 49.1994 178.068 47.8915 177.142 48.7362C177.06 48.818 177.005 48.8724 176.924 48.9814C176.896 49.0359 176.842 49.0904 176.815 49.1449Z" fill="#FF9600"/>
<path d="M180.848 75.7126L188.368 89.3914C188.859 90.2634 188.232 91.3533 187.224 91.3533L177.223 91.4896C176.951 91.4896 176.733 91.2443 176.787 90.9718L180.03 75.8215C180.112 75.4128 180.657 75.3583 180.848 75.7126Z" fill="black"/>
<path d="M179.458 75.4673L186.978 89.1461C187.469 90.0181 186.842 91.108 185.834 91.108L175.834 91.2443C175.561 91.2443 175.343 90.999 175.398 90.7265L178.64 75.5763C178.722 75.1948 179.24 75.113 179.458 75.4673Z" fill="#FF3D00"/>
<path d="M175.806 91.7346C175.588 91.7346 175.398 91.6529 175.261 91.4622C175.125 91.2987 175.071 91.0807 175.125 90.8627L177.196 81.1349C177.223 80.9987 177.359 80.8897 177.523 80.9169C177.659 80.9442 177.768 81.0804 177.741 81.2439L175.67 90.9717C175.643 91.0262 175.697 91.0807 175.697 91.1079C175.725 91.1352 175.752 91.1624 175.834 91.1624L185.834 91.0262C185.97 91.0262 186.106 91.1352 186.106 91.2987C186.106 91.4622 185.997 91.5712 185.834 91.5712L175.806 91.7346C175.834 91.7346 175.834 91.7346 175.806 91.7346Z" fill="black"/>
<path d="M161.119 90.2087C161.092 90.2087 161.065 90.2087 161.038 90.2087C160.82 90.1543 160.683 89.9635 160.711 89.7183L161.283 86.7482C161.337 86.5302 161.555 86.3939 161.773 86.4212C161.991 86.4757 162.128 86.6664 162.1 86.9117L161.528 89.8818C161.474 90.0725 161.31 90.2087 161.119 90.2087Z" fill="white"/>
<path d="M161.964 85.5765C161.937 85.5765 161.91 85.5765 161.882 85.5765C161.664 85.522 161.528 85.3313 161.555 85.086C161.773 83.9688 161.991 82.8789 162.209 81.7617C162.4 80.808 162.591 79.8543 162.782 78.9006C162.836 78.6826 163.054 78.5463 163.272 78.5736C163.49 78.6281 163.626 78.8188 163.599 79.0641C163.408 80.0178 163.217 80.9715 163.027 81.9252C162.809 83.0424 162.591 84.1323 162.373 85.2495C162.318 85.4403 162.155 85.5765 161.964 85.5765Z" fill="white"/>
<path d="M183.163 63.2598C183.109 63.2598 183.054 63.2598 183 63.2325C178.749 61.5159 174.689 60.6984 170.983 60.8346C170.765 60.8619 170.575 60.6711 170.575 60.4259C170.575 60.2079 170.738 60.0172 170.983 60.0172C174.825 59.8809 178.967 60.7256 183.354 62.4696C183.572 62.5513 183.654 62.7965 183.572 63.0145C183.49 63.1508 183.327 63.2598 183.163 63.2598Z" fill="black"/>
<path d="M166.133 61.5975C165.97 61.5975 165.806 61.4886 165.752 61.3251C165.67 61.1071 165.779 60.8891 165.997 60.8073C166.951 60.4803 167.986 60.2624 169.376 60.0989C169.594 60.0716 169.812 60.2351 169.839 60.4531C169.866 60.6711 169.703 60.8891 169.485 60.9163C168.15 61.0526 167.169 61.2706 166.269 61.5703C166.242 61.5703 166.188 61.5975 166.133 61.5975Z" fill="black"/>
<path d="M175.37 100.999C171.692 100.999 167.986 100.999 164.307 100.999C164.089 100.999 163.899 100.809 163.899 100.591C163.899 100.373 164.089 100.182 164.307 100.182C167.986 100.182 171.692 100.182 175.37 100.182C175.588 100.182 175.779 100.373 175.779 100.591C175.779 100.809 175.616 100.999 175.37 100.999Z" fill="black"/>
<path d="M161.201 100.999H158.694C158.476 100.999 158.285 100.809 158.285 100.591C158.285 100.373 158.476 100.182 158.694 100.182H161.201C161.419 100.182 161.61 100.373 161.61 100.591C161.61 100.809 161.419 100.999 161.201 100.999Z" fill="black"/>
<path d="M42.86 165.851C32.2057 165.851 24.6578 162.963 20.9248 157.295C17.8184 152.554 17.5187 146.178 20.08 138.33L20.5978 138.493C18.0909 146.15 18.3634 152.39 21.388 156.968C25.0938 162.608 32.6144 165.279 42.86 165.279C67.0296 165.279 106.268 150.401 145.669 124.542C172.891 106.694 196.107 86.2849 211.066 67.1563C218.342 57.8645 223.246 49.3629 225.671 41.8968C228.178 34.2399 227.906 27.9999 224.881 23.4221C222.293 19.4711 217.742 16.8825 211.366 15.7653C205.18 14.6753 197.415 14.975 188.286 16.6645C170.002 20.0433 147.113 28.9809 123.843 41.7878L123.571 41.2973C146.868 28.4631 169.812 19.4983 188.177 16.0922C197.36 14.4028 205.18 14.0758 211.448 15.193C217.96 16.3375 222.62 19.0079 225.317 23.0952C231.448 32.4415 226.543 48.1912 211.475 67.456C196.488 86.6391 173.218 107.076 145.942 124.978C118.666 142.88 90.6814 156.096 67.1113 162.2C57.874 164.679 49.7266 165.851 42.86 165.851Z" fill="#D7F4DF"/>
<path d="M169.438 22.6742C170.423 21.8582 170.732 20.6049 170.127 19.8747C169.522 19.1446 168.233 19.2142 167.248 20.0302C166.263 20.8462 165.955 22.0995 166.56 22.8297C167.164 23.5598 168.453 23.4902 169.438 22.6742Z" fill="#D7F4DF"/>
<path d="M60.5183 165.034C61.5034 164.218 61.8117 162.964 61.2069 162.234C60.6021 161.504 59.3132 161.574 58.3282 162.39C57.3431 163.206 57.0348 164.459 57.6396 165.189C58.2443 165.919 59.5332 165.85 60.5183 165.034Z" fill="#D7F4DF"/>
<path d="M213.184 17.5114C215.073 15.9467 215.662 13.5414 214.501 12.1391C213.339 10.7368 210.866 10.8685 208.977 12.4332C207.088 13.998 206.498 16.4033 207.66 17.8056C208.821 19.2079 211.295 19.0762 213.184 17.5114Z" fill="#D7F4DF"/>
<path d="M90.1244 34.1323C92.3032 32.3275 92.9877 29.5586 91.6533 27.9477C90.319 26.3368 87.471 26.4939 85.2922 28.2987C83.1134 30.1034 82.4289 32.8724 83.7633 34.4833C85.0976 36.0942 87.9456 35.937 90.1244 34.1323Z" fill="#D7F4DF"/>
<path d="M223.14 39.7753C223.627 39.3721 223.773 38.7446 223.465 38.3737C223.158 38.0029 222.515 38.0291 222.028 38.4323C221.541 38.8355 221.396 39.463 221.703 39.8338C222.01 40.2047 222.654 40.1785 223.14 39.7753Z" fill="#D7F4DF"/>
<path d="M230.797 49.056C231.284 48.6528 231.429 48.0253 231.122 47.6545C230.815 47.2836 230.171 47.3099 229.685 47.713C229.198 48.1162 229.052 48.7437 229.36 49.1146C229.667 49.4854 230.31 49.4592 230.797 49.056Z" fill="#D7F4DF"/>
<path d="M121.08 143.813C121.567 143.41 121.712 142.783 121.405 142.412C121.098 142.041 120.454 142.067 119.967 142.47C119.481 142.873 119.335 143.501 119.642 143.872C119.95 144.243 120.593 144.216 121.08 143.813Z" fill="#D7F4DF"/>
<path d="M22.8103 148.505C23.297 148.102 23.4426 147.475 23.1354 147.104C22.8282 146.733 22.1846 146.759 21.6978 147.162C21.2111 147.565 21.0655 148.193 21.3727 148.564C21.6799 148.935 22.3235 148.908 22.8103 148.505Z" fill="#D7F4DF"/>
<path d="M202.359 137.734C202.846 137.33 202.992 136.703 202.684 136.332C202.377 135.961 201.734 135.987 201.247 136.391C200.76 136.794 200.615 137.421 200.922 137.792C201.229 138.163 201.873 138.137 202.359 137.734Z" fill="#D7F4DF"/>
<path d="M21.7617 158.13C22.2484 157.727 22.394 157.099 22.0868 156.728C21.7796 156.357 21.136 156.384 20.6492 156.787C20.1625 157.19 20.0169 157.818 20.3241 158.188C20.6313 158.559 21.2749 158.533 21.7617 158.13Z" fill="#D7F4DF"/>
</g>
<defs>
<clipPath id="clip0_1_42203">
<rect width="240" height="180" fill="white" transform="translate(0.5)"/>
</clipPath>
</defs>
</svg>
