<svg width="233" height="149" viewBox="0 0 233 149" fill="none" xmlns="http://www.w3.org/2000/svg">
    <path d="M45.9883 38.9725C48.2061 35.4063 52.108 33.238 56.3075 33.238H176.693C180.892 33.238 184.794 35.4063 187.012 38.9725L226.549 102.547C229.066 106.595 226.155 111.832 221.389 111.832H11.6109C6.84472 111.832 3.93429 106.595 6.45131 102.547L45.9883 38.9725Z" fill="url(#paint0_linear)" fill-opacity="0.2"/>
    <path d="M52.1489 44.1871C53.6673 41.707 56.3661 40.1949 59.274 40.1949H104.419H149.263H164.834H173.232C176.14 40.1949 178.839 41.707 180.358 44.1871L203.462 81.9245L212.452 96.608C213.691 98.6323 212.235 101.232 209.861 101.232H144.281H22.6454C20.2719 101.232 18.8151 98.6323 20.0545 96.608L38.9588 65.731L52.1489 44.1871Z" fill="#FFDF64"/>
    <path d="M173.232 40.1949H164.834L187.806 79.66C188.622 81.0621 190.122 81.9245 191.745 81.9245H203.462L180.358 44.1871C178.839 41.707 176.14 40.1949 173.232 40.1949Z" fill="#95DBAD"/>
    <path d="M52.1489 44.1871L38.9588 65.731H79.5063H85.9518C86.5729 65.731 87.1315 65.3528 87.3622 64.7761L90.3353 57.3434C90.5659 56.7667 91.1245 56.3885 91.7456 56.3885H97.7324C98.3798 56.3885 98.956 55.9782 99.1678 55.3664L104.419 40.1949H59.274C56.3661 40.1949 53.6673 41.707 52.1489 44.1871Z" fill="#EFDD9E"/>
    <path d="M149.263 40.1949L159.964 60.138C161.322 62.6678 159.489 65.731 156.618 65.731H132.793C131.726 65.731 130.992 66.8017 131.376 67.7969L137.429 83.4816L144.281 101.232H22.6454C20.2719 101.232 18.8151 98.6323 20.0545 96.608L38.9588 65.731H79.5063H85.9518C86.5729 65.731 87.1315 65.3528 87.3622 64.7761L90.3353 57.3434C90.5659 56.7667 91.1245 56.3885 91.7456 56.3885H97.7324C98.3798 56.3885 98.956 55.9782 99.1678 55.3664L104.419 40.1949H149.263Z" fill="#BFDA84"/>
    <path fill-rule="evenodd" clip-rule="evenodd" d="M59.7789 59.5955C56.7861 62.5338 55.2116 65.6829 55.2116 68.9156C55.2116 72.1482 56.7861 75.2973 59.7789 78.2356C62.7744 81.1764 67.148 83.8598 72.6139 86.1296C83.5423 90.6676 98.6923 93.4923 115.466 93.4923C132.239 93.4923 147.389 90.6676 158.318 86.1296C163.784 83.8598 168.157 81.1764 171.153 78.2356C174.146 75.2973 175.72 72.1482 175.72 68.9156C175.72 65.6829 174.146 62.5338 171.153 59.5955C168.157 56.6547 163.784 53.9713 158.318 51.7016C147.389 47.1635 132.239 44.3388 115.466 44.3388C98.6923 44.3388 83.5423 47.1635 72.6139 51.7016C67.148 53.9713 62.7744 56.6547 59.7789 59.5955ZM72.0313 50.2987C83.1856 45.6669 98.5424 42.8198 115.466 42.8198C132.389 42.8198 147.746 45.6669 158.9 50.2987C164.476 52.6139 169.037 55.3901 172.217 58.5116C175.399 61.6357 177.239 65.1518 177.239 68.9156C177.239 72.6793 175.399 76.1954 172.217 79.3195C169.037 82.441 164.476 85.2172 158.9 87.5324C147.746 92.1642 132.389 95.0113 115.466 95.0113C98.5424 95.0113 83.1856 92.1642 72.0313 87.5324C66.4559 85.2172 61.8942 82.441 58.7147 79.3195C55.5327 76.1954 53.6926 72.6793 53.6926 68.9156C53.6926 65.1518 55.5327 61.6357 58.7147 58.5116C61.8942 55.3901 66.4559 52.6139 72.0313 50.2987Z" fill="white" fill-opacity="0.2"/>
    <path fill-rule="evenodd" clip-rule="evenodd" d="M78.1041 61.8641C76.1233 63.8154 75.1076 65.8798 75.1076 67.9747C75.1076 70.0696 76.1233 72.134 78.1041 74.0853C80.0875 76.0392 82.9966 77.8338 86.6525 79.3571C93.9612 82.4024 104.111 84.3038 115.361 84.3038C126.611 84.3038 136.76 82.4024 144.069 79.3571C147.725 77.8338 150.634 76.0392 152.617 74.0853C154.598 72.134 155.614 70.0696 155.614 67.9747C155.614 65.8798 154.598 63.8154 152.617 61.8641C150.634 59.9102 147.725 58.1156 144.069 56.5923C136.76 53.547 126.611 51.6456 115.361 51.6456C104.111 51.6456 93.9612 53.547 86.6525 56.5923C82.9966 58.1156 80.0875 59.9102 78.1041 61.8641ZM86.0683 55.1901C93.6033 52.0506 103.96 50.1266 115.361 50.1266C126.761 50.1266 137.118 52.0506 144.653 55.1901C148.419 56.7593 151.516 58.647 153.683 60.782C155.853 62.9196 157.133 65.3507 157.133 67.9747C157.133 70.5987 155.853 73.0298 153.683 75.1674C151.516 77.3024 148.419 79.1901 144.653 80.7592C137.118 83.8988 126.761 85.8228 115.361 85.8228C103.96 85.8228 93.6033 83.8988 86.0683 80.7592C82.3025 79.1901 79.2053 77.3024 77.0381 75.1674C74.8681 73.0298 73.5886 70.5987 73.5886 67.9747C73.5886 65.3507 74.8681 62.9196 77.0381 60.782C79.2053 58.647 82.3025 56.7593 86.0683 55.1901Z" fill="white" fill-opacity="0.3"/>
    <path fill-rule="evenodd" clip-rule="evenodd" d="M92.3619 63.5129C91.1972 64.6468 90.6772 65.7692 90.6772 66.8354C90.6772 67.9017 91.1972 69.0241 92.3619 70.158C93.5303 71.2953 95.2801 72.3721 97.5351 73.3006C102.04 75.1554 108.341 76.3291 115.361 76.3291C122.38 76.3291 128.682 75.1554 133.186 73.3006C135.441 72.3721 137.191 71.2953 138.36 70.158C139.524 69.0241 140.044 67.9017 140.044 66.8354C140.044 65.7692 139.524 64.6468 138.36 63.5129C137.191 62.3755 135.441 61.2988 133.186 60.3703C128.682 58.5155 122.38 57.3418 115.361 57.3418C108.341 57.3418 102.04 58.5155 97.5351 60.3703C95.2801 61.2988 93.5303 62.3755 92.3619 63.5129ZM96.6675 58.2634C101.509 56.2699 108.119 55.0633 115.361 55.0633C122.603 55.0633 129.213 56.2699 134.054 58.2634C136.472 59.2591 138.504 60.4735 139.949 61.8803C141.398 63.2907 142.323 64.9655 142.323 66.8354C142.323 68.7054 141.398 70.3802 139.949 71.7906C138.504 73.1974 136.472 74.4118 134.054 75.4075C129.213 77.401 122.603 78.6076 115.361 78.6076C108.119 78.6076 101.509 77.401 96.6675 75.4075C94.2495 74.4118 92.2177 73.1974 90.7726 71.7906C89.3239 70.3802 88.3987 68.7054 88.3987 66.8354C88.3987 64.9655 89.3239 63.2907 90.7726 61.8803C92.2177 60.4735 94.2495 59.2591 96.6675 58.2634Z" fill="white" fill-opacity="0.6"/>
    <path opacity="0.2" d="M127.875 66.8473C127.875 69.4174 122.32 71.5009 115.466 71.5009C108.612 71.5009 103.056 69.4174 103.056 66.8473C103.056 64.2772 108.612 62.1937 115.466 62.1937C122.32 62.1937 127.875 64.2772 127.875 66.8473Z" fill="black" fill-opacity="0.4"/>
    <g filter="url(#filter0_i)">
        <path d="M133.07 23.0764C133.07 34.5009 121.858 52.2244 117.414 58.801C116.546 60.0849 114.714 60.0849 113.847 58.801C109.403 52.2244 98.1912 34.5009 98.1912 23.0764C98.1912 13.2678 105.999 5.31647 115.63 5.31647C125.262 5.31647 133.07 13.2678 133.07 23.0764Z" fill="white"/>
        <path d="M133.07 23.0764C133.07 34.5009 121.858 52.2244 117.414 58.801C116.546 60.0849 114.714 60.0849 113.847 58.801C109.403 52.2244 98.1912 34.5009 98.1912 23.0764C98.1912 13.2678 105.999 5.31647 115.63 5.31647C125.262 5.31647 133.07 13.2678 133.07 23.0764Z" fill="#FF6200" fill-opacity="0.9"/>
        <path d="M121.437 22.7848C121.437 26.1405 118.716 28.8608 115.361 28.8608C112.005 28.8608 109.285 26.1405 109.285 22.7848C109.285 19.4292 112.005 16.7089 115.361 16.7089C118.716 16.7089 121.437 19.4292 121.437 22.7848Z" fill="white"/>
    </g>
    <path d="M60.9451 41.1418C60.1418 42.6593 61.2418 44.4863 62.9588 44.4863H64.3451H67.4475L70.0329 35.6962H65.1999C64.3559 35.6962 63.5811 36.1627 63.1862 36.9086L60.9451 41.1418Z" fill="#09721D"/>
    <path d="M87.9653 44.4863C89.6823 44.4863 90.7824 42.6593 89.979 41.1418L87.7379 36.9086C87.343 36.1627 86.5682 35.6962 85.7242 35.6962H81.4083L83.4766 44.4863H87.096H87.9653Z" fill="#009934"/>
    <path d="M75.7206 35.6962V44.4863H83.4766L81.4083 35.6962H75.7206Z" fill="#09721D"/>
    <path d="M70.0329 35.6962L67.4475 44.4863H75.7206V35.6962H70.0329Z" fill="#009934"/>
    <path d="M64.0264 44.4406H67.1334H75.4188H83.1863H86.8112V56.9023C86.8112 57.9895 85.7896 59.6304 84.5293 59.6304H66.3083C65.048 59.6304 64.0264 57.9895 64.0264 56.9023V44.4406Z" fill="url(#paint1_linear)"/>
    <path d="M68.5834 49.757V59.6304H75.4188V49.757C75.4188 48.9181 74.7387 48.238 73.8998 48.238H70.1023C69.2634 48.238 68.5834 48.9181 68.5834 49.757Z" fill="url(#paint2_linear)"/>
    <path opacity="0.5" d="M82.0471 48.238H78.6639C78.1301 48.238 77.6973 48.6708 77.6973 49.2047V52.5879C77.6973 53.1217 78.1301 53.5545 78.6639 53.5545H82.0471C82.581 53.5545 83.0137 53.1217 83.0137 52.5879V49.2047C83.0137 48.6708 82.581 48.238 82.0471 48.238Z" fill="white"/>
    <path d="M61.7479 58.8709C61.7479 58.4515 62.0209 58.1115 62.3576 58.1115H87.7205C88.0572 58.1115 88.3302 58.4515 88.3302 58.8709C88.3302 59.2904 88.0572 59.6304 87.7205 59.6304H62.3576C62.0209 59.6304 61.7479 59.2904 61.7479 58.8709Z" fill="#007500" fill-opacity="0.25"/>
    <path d="M146.768 61.6481C145.965 63.1656 147.065 64.9926 148.782 64.9926H150.168H153.27L155.856 56.2025H151.023C150.179 56.2025 149.404 56.669 149.009 57.4149L146.768 61.6481Z" fill="#09721D"/>
    <path d="M173.788 64.9926C175.505 64.9926 176.605 63.1656 175.802 61.6481L173.561 57.4149C173.166 56.669 172.391 56.2025 171.547 56.2025H167.231L169.299 64.9926H172.919H173.788Z" fill="#009934"/>
    <path d="M161.543 56.2025V64.9926H169.299L167.231 56.2025H161.543Z" fill="#09721D"/>
    <path d="M155.856 56.2025L153.27 64.9926H161.543V56.2025H155.856Z" fill="#009934"/>
    <path d="M149.849 64.9468H152.956H161.242H169.009H172.634V77.4085C172.634 78.4958 171.612 80.1367 170.352 80.1367H152.131C150.871 80.1367 149.849 78.4958 149.849 77.4085V64.9468Z" fill="url(#paint3_linear)"/>
    <path d="M154.406 70.2633V80.1367H161.242V70.2633C161.242 69.4244 160.562 68.7443 159.723 68.7443H155.925C155.086 68.7443 154.406 69.4244 154.406 70.2633Z" fill="url(#paint4_linear)"/>
    <path opacity="0.5" d="M167.87 68.7443H164.487C163.953 68.7443 163.52 69.1771 163.52 69.711V73.0942C163.52 73.628 163.953 74.0608 164.487 74.0608H167.87C168.404 74.0608 168.837 73.628 168.837 73.0942V69.711C168.837 69.1771 168.404 68.7443 167.87 68.7443Z" fill="white"/>
    <path d="M147.571 79.3772C147.571 78.9578 147.844 78.6177 148.18 78.6177H173.543C173.88 78.6177 174.153 78.9578 174.153 79.3772C174.153 79.7967 173.88 80.1367 173.543 80.1367H148.18C147.844 80.1367 147.571 79.7967 147.571 79.3772Z" fill="#007500" fill-opacity="0.25"/>
    <path d="M128.209 124.987H126.486C126.141 124.987 125.854 125.274 125.854 125.619V140.9C125.854 141.245 126.141 141.532 126.486 141.532H128.209C128.554 141.532 128.841 141.245 128.841 140.9V125.619C128.841 125.217 128.554 124.987 128.209 124.987Z" fill="#FF6200"/>
    <path d="M78.518 129.238H76.7946C76.4499 129.238 76.1627 129.525 76.1627 129.87V140.842C76.1627 141.187 76.4499 141.474 76.7946 141.474H78.518C78.8627 141.474 79.1499 141.187 79.1499 140.842V129.87C79.1499 129.525 78.8627 129.238 78.518 129.238Z" fill="#FF6200"/>
    <path d="M78.518 124.987H76.7946C76.4499 124.987 76.1627 125.274 76.1627 125.619V127.17C76.1627 127.515 76.4499 127.802 76.7946 127.802H78.518C78.8627 127.802 79.1499 127.515 79.1499 127.17V125.619C79.1499 125.217 78.8627 124.987 78.518 124.987Z" fill="#FF7301"/>
    <path d="M97.5328 129.238H95.8094C95.4647 129.238 95.1775 129.525 95.1775 129.87V140.842C95.1775 141.187 95.4647 141.474 95.8094 141.474H97.5328C97.8775 141.474 98.1647 141.187 98.1647 140.842V129.87C98.1647 129.525 97.8775 129.238 97.5328 129.238Z" fill="#FF6200"/>
    <path d="M97.5328 124.987H95.8094C95.4647 124.987 95.1775 125.274 95.1775 125.619V127.17C95.1775 127.515 95.4647 127.802 95.8094 127.802H97.5328C97.8775 127.802 98.1647 127.515 98.1647 127.17V125.619C98.1647 125.217 97.8775 124.987 97.5328 124.987Z" fill="#FF7301"/>
    <path d="M106.437 135.385L110.746 130.043C110.975 129.755 110.746 129.296 110.401 129.296H107.931C107.758 129.296 107.586 129.353 107.471 129.525L103.105 134.868V125.619C103.105 125.274 102.818 124.987 102.473 124.987H100.75C100.405 124.987 100.118 125.274 100.118 125.619V140.9C100.118 141.245 100.405 141.532 100.75 141.532H102.473C102.818 141.532 103.105 141.245 103.105 140.9V135.787L107.471 141.245C107.586 141.417 107.758 141.474 107.931 141.474H110.401C110.803 141.474 110.975 141.015 110.746 140.728L106.437 135.385Z" fill="#FF6200"/>
    <path d="M73.5776 124.987H71.6819C71.3372 124.987 71.05 125.274 71.05 125.619V129.296H66.4542C63.984 129.296 61.9734 131.306 61.9734 133.777V136.994C61.9734 139.464 63.984 141.474 66.4542 141.474H69.4989C69.8436 141.474 70.1883 141.302 70.418 141.015L71.05 140.211V140.843C71.05 141.187 71.3372 141.474 71.6819 141.474H73.5776C73.9223 141.474 74.2095 141.187 74.2095 140.843V125.562C74.2095 125.217 73.9223 124.987 73.5776 124.987ZM71.05 138.315H66.5691C65.7648 138.315 65.1329 137.683 65.1329 136.879V133.834C65.1329 133.03 65.7648 132.398 66.5691 132.398H71.05V138.315Z" fill="#FF6200"/>
    <path d="M92.5924 129.238H90.6967C90.352 129.238 90.0648 129.525 90.0648 129.87V130.502L89.4328 129.698C89.2031 129.411 88.8584 129.238 88.5137 129.238H85.469C82.9988 129.238 80.9882 131.249 80.9882 133.719V136.936C80.9882 139.406 82.9988 141.417 85.469 141.417H90.0648V141.647C90.0648 142.451 89.4328 143.083 88.6286 143.083H84.435C84.0328 143.083 83.8605 143.485 84.0903 143.83L85.469 145.611C85.6988 145.898 86.0435 146.07 86.3882 146.07H88.7435C91.2137 146.07 93.2243 144.059 93.2243 141.589V141.532V129.87C93.1669 129.525 92.8797 129.238 92.5924 129.238ZM90.0648 138.487H85.5839C84.7797 138.487 84.1477 137.855 84.1477 137.051V133.834C84.1477 133.03 84.7797 132.398 85.5839 132.398H90.0648V138.487Z" fill="#FF6200"/>
    <path d="M142.112 129.238H135.161C132.69 129.238 130.68 131.249 130.68 133.719V136.936C130.68 139.406 132.69 141.417 135.161 141.417H138.263C138.607 141.417 138.952 141.245 139.182 140.957L139.756 140.153V140.785C139.756 141.13 140.043 141.417 140.388 141.417H142.112C142.456 141.417 142.743 141.13 142.743 140.785V129.813C142.743 129.525 142.456 129.238 142.112 129.238ZM139.756 138.487H135.103C134.299 138.487 133.667 137.855 133.667 137.051V133.834C133.667 133.03 134.299 132.398 135.103 132.398H139.756V138.487Z" fill="#FF6200"/>
    <path d="M123.097 129.238H116.146C113.675 129.238 111.665 131.249 111.665 133.719V136.936C111.665 139.406 113.675 141.417 116.146 141.417H119.248C119.593 141.417 119.937 141.245 120.167 140.957L120.741 140.153V140.785C120.741 141.13 121.029 141.417 121.373 141.417H123.097C123.441 141.417 123.729 141.13 123.729 140.785V129.813C123.729 129.525 123.441 129.238 123.097 129.238ZM120.741 138.487H116.088C115.284 138.487 114.652 137.855 114.652 137.051V133.834C114.652 133.03 115.284 132.398 116.088 132.398H120.741V138.487Z" fill="#FF6200"/>
    <path d="M151.992 129.123L149.809 140.67C149.407 142.738 148.948 144.002 148.144 144.921C147.397 145.783 146.133 146.185 144.869 146.185C144.352 146.185 143.72 146.128 143.203 146.013L143.605 143.37C143.835 143.428 144.065 143.428 144.409 143.428C145.214 143.428 145.903 143.025 146.305 140.9L148.488 129.181H151.992V129.123ZM148.718 126.711C148.718 125.504 149.637 124.7 150.729 124.7C151.763 124.7 152.509 125.389 152.509 126.423C152.509 127.687 151.533 128.377 150.441 128.377C149.465 128.434 148.718 127.745 148.718 126.711Z" fill="#029D53"/>
    <path d="M161.356 140.383C159.978 141.072 158.254 141.302 156.875 141.302C153.486 141.302 151.705 139.349 151.705 136.247C151.705 132.628 154.348 128.836 158.656 128.836C161.069 128.836 162.792 130.215 162.792 132.398C162.792 135.443 159.805 136.534 155.037 136.419C155.037 136.764 155.152 137.281 155.439 137.625C155.899 138.2 156.703 138.545 157.737 138.545C159.001 138.545 160.15 138.257 161.069 137.798L161.356 140.383ZM158.197 131.479C156.588 131.479 155.612 132.857 155.382 133.949C158.082 133.949 159.461 133.604 159.461 132.513C159.518 131.881 159.001 131.479 158.197 131.479Z" fill="#029D53"/>
    <path d="M169.112 125.792L168.48 129.123H171.007L170.49 131.823H167.963L167.158 135.845C167.044 136.304 166.986 136.936 166.986 137.338C166.986 137.913 167.216 138.315 168.02 138.315C168.307 138.315 168.652 138.315 168.997 138.257L168.595 141.015C168.135 141.187 167.273 141.302 166.526 141.302C164.401 141.302 163.424 140.211 163.424 138.717C163.424 138.085 163.482 137.396 163.654 136.477L164.573 131.709H163.022L163.539 129.009H165.09L165.55 126.481L169.112 125.792Z" fill="#029D53"/>
    <defs>
        <filter id="filter0_i" x="98.1912" y="5.31647" width="34.8784" height="54.4474" filterUnits="userSpaceOnUse" color-interpolation-filters="sRGB">
            <feFlood flood-opacity="0" result="BackgroundImageFix"/>
            <feBlend mode="normal" in="SourceGraphic" in2="BackgroundImageFix" result="shape"/>
            <feColorMatrix in="SourceAlpha" type="matrix" values="0 0 0 0 0 0 0 0 0 0 0 0 0 0 0 0 0 0 127 0" result="hardAlpha"/>
            <feOffset dx="-6"/>
            <feComposite in2="hardAlpha" operator="arithmetic" k2="-1" k3="1"/>
            <feColorMatrix type="matrix" values="0 0 0 0 0.890196 0 0 0 0 0.203922 0 0 0 0 0.309804 0 0 0 0.4 0"/>
            <feBlend mode="normal" in2="shape" result="effect1_innerShadow"/>
        </filter>
        <linearGradient id="paint0_linear" x1="116.5" y1="38.5484" x2="116.5" y2="111.832" gradientUnits="userSpaceOnUse">
            <stop stop-color="white"/>
            <stop offset="1" stop-color="#5CE359"/>
        </linearGradient>
        <linearGradient id="paint1_linear" x1="75.4188" y1="44.4406" x2="75.4188" y2="59.6304" gradientUnits="userSpaceOnUse">
            <stop stop-color="#38C964"/>
            <stop offset="1" stop-color="#1EC952"/>
        </linearGradient>
        <linearGradient id="paint2_linear" x1="72.0011" y1="48.238" x2="72.0011" y2="59.6304" gradientUnits="userSpaceOnUse">
            <stop stop-color="#009500"/>
            <stop offset="1" stop-color="#03750B"/>
        </linearGradient>
        <linearGradient id="paint3_linear" x1="161.242" y1="64.9468" x2="161.242" y2="80.1367" gradientUnits="userSpaceOnUse">
            <stop stop-color="#38C964"/>
            <stop offset="1" stop-color="#1EC952"/>
        </linearGradient>
        <linearGradient id="paint4_linear" x1="157.824" y1="68.7443" x2="157.824" y2="80.1367" gradientUnits="userSpaceOnUse">
            <stop stop-color="#009500"/>
            <stop offset="1" stop-color="#03750B"/>
        </linearGradient>
    </defs>
</svg>
