<svg width="201" height="123" viewBox="0 0 201 123" fill="none" xmlns="http://www.w3.org/2000/svg">
<path d="M54.7938 113.039L167.222 112.937C173.71 112.937 179.892 107.798 181.012 101.437L193.911 26.6633C195.03 20.3028 190.679 15.1381 184.192 15.1381L71.7636 14.9346C65.2759 14.9346 59.0935 20.0739 57.974 26.4344L45.0749 101.514C43.93 107.874 48.2806 113.013 54.7938 113.039Z" fill="black"/>
<path d="M51.4862 113.039L163.914 112.937C170.402 112.937 176.584 107.798 177.704 101.437L190.603 26.6633C191.722 20.3028 187.372 15.1381 180.884 15.1381L68.456 14.9346C61.9683 14.9346 55.7859 20.0739 54.6664 26.4344L41.7673 101.514C40.6224 107.874 44.973 113.013 51.4862 113.039Z" fill="#029D53"/>
<path fill-rule="evenodd" clip-rule="evenodd" d="M169.028 84.3402H129.415C128.361 84.3402 127.507 83.4859 127.507 82.4321C127.507 81.3783 128.361 80.5239 129.415 80.5239H169.028C170.082 80.5239 170.937 81.3783 170.937 82.4321C170.937 83.4859 170.082 84.3402 169.028 84.3402ZM166.204 96.5524H104.991C103.937 96.5524 103.083 95.698 103.083 94.6442C103.083 93.5904 103.937 92.7361 104.991 92.7361H166.204C167.258 92.7361 168.113 93.5904 168.113 94.6442C168.113 95.698 167.258 96.5524 166.204 96.5524Z" fill="#45B874"/>
<path fill-rule="evenodd" clip-rule="evenodd" d="M12.4071 91.1329H0.88163C0.67097 91.1329 0.5 90.9622 0.5 90.7513C0.5 90.5403 0.67097 90.3696 0.88163 90.3696H12.4071C12.6178 90.3696 12.7887 90.5403 12.7887 90.7513C12.7887 90.9622 12.6178 91.1329 12.4071 91.1329ZM12.4071 98.4602H4.18909C3.97843 98.4602 3.80746 98.2895 3.80746 98.0786C3.80746 97.8676 3.97843 97.6969 4.18909 97.6969H12.4071C12.6178 97.6969 12.7887 97.8676 12.7887 98.0786C12.7887 98.2895 12.6178 98.4602 12.4071 98.4602Z" fill="black"/>
<path fill-rule="evenodd" clip-rule="evenodd" d="M189.204 10.8128C188.975 10.8128 188.822 10.6348 188.873 10.4312L189.433 7.50539C189.484 7.30185 189.687 7.12376 189.916 7.12376H193.758C193.987 7.12376 194.14 7.27641 194.089 7.50539L193.529 10.4312C193.478 10.6348 193.275 10.8128 193.046 10.8128H189.204ZM174.982 8.44674C174.498 8.44674 174.142 8.03967 174.244 7.55627L175.516 0.89047C175.618 0.38163 176.101 0 176.61 0L185.337 0.0254416C185.846 0.0254416 186.176 0.432513 186.075 0.915911L184.802 7.58171C184.701 8.09055 184.217 8.47218 183.708 8.47218L174.982 8.44674Z" fill="#45B874"/>
<path d="M16.3251 122.147H41.1311C41.3346 122.147 41.5381 121.969 41.5636 121.766L42.0979 119.043C42.1233 118.84 41.9961 118.662 41.7926 118.662H16.9866C16.7831 118.662 16.5796 118.84 16.5541 119.043L16.0198 121.766C15.9944 121.995 16.1216 122.147 16.3251 122.147Z" fill="#029D53"/>
<path fill-rule="evenodd" clip-rule="evenodd" d="M59.3231 33.6853C59.3012 33.6853 59.2788 33.6833 59.2564 33.6795C59.0491 33.6429 58.9101 33.4452 58.9468 33.2376L59.3536 30.9223C59.3902 30.715 59.5872 30.5763 59.7955 30.6125C60.0031 30.6491 60.142 30.847 60.1054 31.0546L59.6986 33.3696C59.666 33.5548 59.505 33.6853 59.3231 33.6853ZM60.1372 28.9531C60.1151 28.9531 60.0927 28.9511 60.07 28.9473C59.8627 28.9104 59.7243 28.7125 59.7609 28.5048C60.5794 23.8841 65.0849 20.1245 69.8047 20.1245C70.0153 20.1245 70.1863 20.2955 70.1863 20.5061C70.1863 20.7171 70.0153 20.8878 69.8047 20.8878C65.4378 20.8878 61.2694 24.3644 60.5125 28.6379C60.4799 28.8229 60.3189 28.9531 60.1372 28.9531Z" fill="white"/>
<path d="M40.3052 64.5043V113.155H59.2495C70.3814 106.566 75.6342 93.0718 71.0854 80.9169C66.4547 68.5432 53.2516 61.7912 40.3052 64.5043Z" fill="black"/>
<path d="M34.9225 63.687C49.0827 58.3876 64.5068 64.6323 69.3729 77.6347C74.2386 90.6373 66.7036 105.474 52.543 110.773C38.3828 116.072 22.9588 109.828 18.0926 96.8252C13.227 83.8228 20.7619 68.9863 34.9225 63.687Z" fill="#FF3D00"/>
<path d="M34.9227 63.687C22.6306 68.2869 15.3331 80.0734 16.8034 91.6086C31.9015 96.0446 56.4436 98.0518 55.4188 63.7137C49.2295 61.2703 41.9223 61.0675 34.9227 63.687Z" fill="#FF5527"/>
<path fill-rule="evenodd" clip-rule="evenodd" d="M30.2762 76.5738C31.2598 76.5738 32.0572 77.3712 32.0572 78.3547C32.0572 79.3383 31.2598 80.1357 30.2762 80.1357C29.2927 80.1357 28.4953 79.3383 28.4953 78.3547C28.4953 77.3712 29.2927 76.5738 30.2762 76.5738ZM37.7816 70.4932C38.7652 70.4932 39.5626 71.2905 39.5626 72.2741C39.5626 73.2577 38.7652 74.055 37.7816 74.055C36.798 74.055 36.0007 73.2577 36.0007 72.2741C36.0007 71.2905 36.798 70.4932 37.7816 70.4932ZM28.419 88.099C28.3172 88.0736 28.2409 87.9972 28.1391 87.9464C27.961 87.7428 27.9865 87.3866 28.19 87.234L45.6941 72.1469C45.8976 71.9688 46.2538 71.9942 46.4065 72.1978C46.5591 72.4013 46.5591 72.7575 46.3556 72.9102L28.8515 87.9973C28.7497 88.1245 28.5716 88.1499 28.419 88.099Z" fill="black"/>
<path fill-rule="evenodd" clip-rule="evenodd" d="M19.3869 92.4244C18.8271 92.3227 18.3692 91.7884 18.3692 91.2287C18.3946 90.6689 18.3438 90.1346 18.3438 89.5495C18.3438 88.8117 18.9289 88.2519 19.6413 88.3028C20.3791 88.3028 20.9388 88.888 20.8879 89.6004V91.1269C20.9134 91.8138 20.3537 92.4244 19.6158 92.4244C19.5904 92.4499 19.4886 92.4244 19.3869 92.4244ZM19.7431 86.6491C19.0816 86.5219 18.6491 85.9113 18.7254 85.1989C19.1579 82.324 20.0484 79.7289 21.295 77.5409C21.6258 76.9302 22.4145 76.7267 23.0505 77.0575C23.6611 77.3882 23.8647 78.1769 23.5339 78.813C22.389 80.772 21.6767 83.0872 21.2441 85.6569C21.1424 86.3692 20.4809 86.8017 19.7685 86.7C19.7939 86.6491 19.7431 86.6491 19.7431 86.6491Z" fill="#FF9600"/>
<path fill-rule="evenodd" clip-rule="evenodd" d="M184.701 113.547H19.0733C18.7924 113.547 18.5645 113.32 18.5645 113.039C18.5645 112.758 18.7924 112.53 19.0733 112.53H184.701C184.982 112.53 185.21 112.758 185.21 113.039C185.21 113.32 184.982 113.547 184.701 113.547ZM199.991 113.547H191.773C191.492 113.547 191.264 113.32 191.264 113.039C191.264 112.758 191.492 112.53 191.773 112.53H199.991C200.272 112.53 200.5 112.758 200.5 113.039C200.5 113.32 200.272 113.547 199.991 113.547Z" fill="black"/>
<path fill-rule="evenodd" clip-rule="evenodd" d="M54.3398 47.9833H49.6292C49.4183 47.9833 49.2476 47.8125 49.2476 47.6016C49.2476 47.3907 49.4183 47.22 49.6292 47.22H54.3683C54.595 43.9922 56.1602 40.7656 58.7089 38.4405C61.5498 35.849 65.59 34.3967 69.8093 34.4481C76.2738 34.5211 83.266 40.4825 86.5473 46.3407L92.4198 12.1691C92.4557 11.9612 92.6547 11.8226 92.8607 11.8574C93.0683 11.8933 93.208 12.0905 93.1721 12.2981L87.3785 46.0118C87.8298 45.3139 88.2944 44.5682 88.775 43.7973C90.657 40.7794 92.7898 37.3587 95.0943 35.3081C98.7272 32.0502 102.925 30.1901 106.913 30.0724C111.621 29.9339 116.147 32.4822 117.905 36.2721C119.468 39.5943 118.877 43.8779 116.619 47.22H192.715C192.925 47.22 193.096 47.3907 193.096 47.6016C193.096 47.8125 192.925 47.9833 192.715 47.9833H116.061C115.582 48.5898 115.044 49.1567 114.451 49.6711C111.077 52.5936 106.211 54.0257 100.745 53.7072C97.7588 53.5324 94.8302 51.97 91.998 50.4593C90.3247 49.5668 88.7351 48.7188 87.1493 48.143C85.5815 54.0161 88.0949 60.6837 93.1617 64.0453C94.1649 64.7175 95.2709 65.2752 96.3407 65.8145C97.8062 66.5534 99.3215 67.3171 100.623 68.3944C103.012 70.4155 104.498 73.4868 104.603 76.6136C104.707 79.7173 103.408 82.8691 101.127 85.0441C100.549 85.5853 99.9105 86.0712 99.2932 86.5414C98.14 87.4199 97.0505 88.2495 96.327 89.3983C94.8389 91.7598 95.54 95.2522 97.8273 96.8721C97.9993 96.994 98.04 97.2321 97.9181 97.4041C97.8438 97.5092 97.726 97.5651 97.6064 97.5651C97.5301 97.5651 97.453 97.5425 97.3861 97.4949C94.7844 95.6522 93.9876 91.6786 95.681 88.9912C96.4781 87.726 97.6744 86.8151 98.8307 85.9343C99.4329 85.4756 100.055 85.0016 100.602 84.4892C102.726 82.4643 103.937 79.5288 103.84 76.6391C103.742 73.7245 102.357 70.8612 100.134 68.9798C98.9012 67.9601 97.4248 67.2159 95.9972 66.4961C94.9068 65.9463 93.7789 65.3777 92.7384 64.6803C89.0332 62.2221 86.6254 58.083 86.055 53.7118L75.3806 115.825C75.3485 116.011 75.1872 116.142 75.0048 116.142C74.9832 116.142 74.9615 116.141 74.9396 116.137C74.732 116.101 74.5926 115.904 74.6282 115.696L86.1588 48.6023C80.2565 51.3235 76.8371 56.9368 77.7818 62.5185C77.8968 63.2187 78.0731 63.9278 78.2435 64.6134C78.4865 65.5909 78.7376 66.6017 78.829 67.6372C79.0501 69.7837 78.4662 71.6458 77.2259 72.7401C75.9647 73.8888 74.0092 74.2628 71.4172 73.8484C71.0526 73.7901 70.6865 73.7234 70.3207 73.6565C68.7608 73.3723 67.2875 73.1039 65.8388 73.4365C64.8023 73.6746 63.8057 74.3933 63.3002 75.2673C63.0577 75.6868 62.8158 76.3409 63.0399 77.0744C63.1015 77.2762 62.988 77.4894 62.7865 77.5509C62.5853 77.612 62.3716 77.4993 62.31 77.2975C62.0688 76.5091 62.183 75.6751 62.6397 74.8854C63.2552 73.8204 64.4156 72.9803 65.6678 72.6925C67.2707 72.3246 68.8906 72.6203 70.4575 72.9057C70.8183 72.9714 71.1786 73.0373 71.5381 73.0948C73.8897 73.4711 75.6312 73.1602 76.7165 72.1717C78.2163 70.8482 78.1619 68.6106 78.0693 67.71C77.9825 66.7282 77.7385 65.7466 77.5027 64.7976C77.3287 64.0972 77.1488 63.3729 77.0289 62.6442C76.2504 58.044 78.2451 53.4314 82.0863 50.2575C80.7051 51.1129 79.3778 52.0718 78.0718 53.0157C77.0976 53.7194 76.0906 54.4471 75.0783 55.1197C71.3424 57.6024 67.9014 58.8495 64.8069 58.8495C63.7014 58.8495 62.64 58.6905 61.6246 58.3715C57.864 57.1691 54.8998 53.4495 54.4148 49.3253C54.3627 48.8809 54.3377 48.4328 54.3398 47.9833ZM86.156 47.22C83.1165 41.3971 76.1761 35.2834 69.8001 35.2114C69.7271 35.2104 69.6541 35.2099 69.5813 35.2099C65.6378 35.2099 61.8734 36.5865 59.2231 39.0043C56.8316 41.1862 55.358 44.2028 55.1325 47.22H86.156ZM115.686 47.22C118.048 44.0408 118.733 39.8235 117.214 36.5952C115.579 33.0725 111.357 30.7038 106.935 30.8354C103.127 30.9478 99.1027 32.7384 95.6026 35.8772C93.3792 37.8558 91.2772 41.2269 89.4228 44.2013C88.7539 45.2742 88.115 46.2988 87.4973 47.22H115.686ZM88.7796 47.9833C89.9792 48.5173 91.1813 49.1584 92.3572 49.7858C95.1169 51.2582 97.9705 52.7801 100.79 52.945C106.052 53.2543 110.728 51.8853 113.951 49.0941C114.351 48.7475 114.724 48.3756 115.069 47.9833H88.7796ZM55.1025 47.9833C55.1007 48.4031 55.1236 48.8213 55.1725 49.2363C55.6241 53.0729 58.3721 56.5302 61.8556 57.6438C65.479 58.7829 69.7861 57.7199 74.656 54.484C75.6556 53.8197 76.6565 53.0963 77.6245 52.3969C79.8606 50.7814 82.1573 49.1218 84.7048 47.9833H55.1025Z" fill="black"/>
</svg>
