<svg width="105" height="36" viewBox="0 0 105 36" fill="none" xmlns="http://www.w3.org/2000/svg">
<path d="M-8 -1.625C-3.36695 -1.625 0.388888 2.12462 0.388888 6.75C0.388888 2.12462 4.14472 -1.625 8.77778 -1.625C4.14472 -1.625 0.388888 -5.37462 0.388888 -10C0.388888 -5.37462 -3.36694 -1.625 -8 -1.625Z" fill="white"/>
<path d="M5.47306 5.48106C9.40414 5.48106 12.5909 2.29957 12.5909 -1.625C12.5909 2.29957 15.7777 5.48106 19.7088 5.48106C15.7777 5.48106 12.5909 8.66255 12.5909 12.5871C12.5909 8.66255 9.40414 5.48106 5.47306 5.48106Z" fill="white"/>
<path d="M37.2107 14.4521C37.2107 17.3255 39.5439 19.6548 42.422 19.6548C39.5439 19.6548 37.2107 21.9841 37.2107 24.8574C37.2107 21.9841 34.8775 19.6548 31.9994 19.6548C34.8775 19.6548 37.2107 17.3255 37.2107 14.4521Z" fill="white"/>
<path d="M6.34356 10.7914C6.34356 13.3844 8.4491 15.4865 11.0464 15.4865C8.4491 15.4865 6.34356 17.5885 6.34356 20.1816C6.34356 17.5885 4.238 15.4865 1.64068 15.4865C4.238 15.4865 6.34356 13.3844 6.34356 10.7914Z" fill="white"/>
<path d="M28.4597 23.227C28.4597 25.82 30.5653 27.9221 33.1626 27.9221C30.5653 27.9221 28.4597 30.0241 28.4597 32.6172C28.4597 30.0241 26.3542 27.9221 23.7568 27.9221C26.3542 27.9221 28.4597 25.82 28.4597 23.227Z" fill="white"/>
<path d="M12.6988 26.78C12.6988 29.373 14.8043 31.4751 17.4016 31.4751C14.8043 31.4751 12.6988 33.5772 12.6988 36.1702C12.6988 33.5772 10.5932 31.4751 7.9959 31.4751C10.5932 31.4751 12.6988 29.373 12.6988 26.78Z" fill="white"/>
<path d="M36.8486 -4.94346C36.8486 -2.35044 38.9542 -0.248385 41.5515 -0.248385C38.9542 -0.248385 36.8486 1.85369 36.8486 4.44671C36.8486 1.85369 34.7431 -0.248364 32.1457 -0.248364C34.7431 -0.248364 36.8486 -2.35044 36.8486 -4.94346Z" fill="white"/>
<path d="M38.266 9.92235C32.8608 9.92235 28.479 14.2969 28.479 19.6932C28.479 14.2969 24.0971 9.92235 18.6919 9.92235C24.0971 9.92235 28.479 5.54779 28.479 0.151515C28.479 5.5478 32.8608 9.92235 38.266 9.92235Z" fill="white"/>
<path d="M10.8114 20.0259C14.6446 20.0232 17.7514 16.9215 17.7542 13.0947C17.757 16.9215 20.8638 20.0232 24.6969 20.0259C20.8638 20.0287 17.757 23.1304 17.7542 26.9572C17.7514 23.1304 14.6446 20.0287 10.8114 20.0259Z" fill="white"/>
<path d="M14.6246 38.2987C18.4577 38.2959 21.5646 35.1942 21.5673 31.3674C21.5701 35.1942 24.6769 38.2959 28.5101 38.2987C24.6769 38.3014 21.5701 41.4031 21.5673 45.2299C21.5646 41.4031 18.4577 38.3014 14.6246 38.2987Z" fill="white"/>
<path d="M50.8301 36.1702C50.8301 38.7632 52.9356 40.8652 55.533 40.8652C52.9356 40.8652 50.8301 42.9673 50.8301 45.5603C50.8301 42.9673 48.7245 40.8653 46.1272 40.8653C48.7245 40.8653 50.8301 38.7632 50.8301 36.1702Z" fill="white"/>
<path d="M35.0691 39.7232C35.0691 42.3162 37.1747 44.4183 39.772 44.4183C37.1747 44.4183 35.0691 46.5204 35.0691 49.1134C35.0691 46.5204 32.9636 44.4183 30.3663 44.4183C32.9636 44.4183 35.0691 42.3162 35.0691 39.7232Z" fill="white"/>
<path d="M33.1818 32.9691C37.015 32.9664 40.1218 29.8647 40.1246 26.0379C40.1273 29.8647 43.2342 32.9664 47.0673 32.9691C43.2342 32.9719 40.1273 36.0736 40.1246 39.9004C40.1218 36.0736 37.015 32.9719 33.1818 32.9691Z" fill="white"/>
<path d="M40.0455 8.26678C43.5495 8.26105 46.389 5.42627 46.3947 1.92803C46.4005 5.42981 49.2457 8.26678 52.7546 8.26678C49.2421 8.26678 46.3947 11.1095 46.3947 14.6162C46.3947 11.113 43.553 8.27253 40.0455 8.26678Z" fill="white"/>
<path d="M50.2138 -0.869581C53.7178 -0.875308 56.5573 -3.71009 56.5631 -7.20833C56.5688 -3.70656 59.414 -0.86959 62.923 -0.86959C59.4105 -0.86959 56.5631 1.97313 56.5631 5.47979C56.5631 1.97668 53.7214 -0.863835 50.2138 -0.869581Z" fill="white"/>
<path d="M60.5979 27.9029C60.5979 30.7762 62.9311 33.1055 65.8092 33.1055C62.9311 33.1055 60.5979 35.4349 60.5979 38.3082C60.5979 35.4349 58.2647 33.1055 55.3866 33.1055C58.2647 33.1055 60.5979 30.7762 60.5979 27.9029Z" fill="white"/>
<path d="M60.2358 8.5073C60.2358 11.1003 62.3414 13.2024 64.9387 13.2024C62.3414 13.2024 60.2358 15.3044 60.2358 17.8975C60.2358 15.3044 58.1303 13.2024 55.5329 13.2024C58.1303 13.2024 60.2358 11.1003 60.2358 8.5073Z" fill="white"/>
<path d="M61.6532 23.3731C56.248 23.3731 51.8662 27.7477 51.8662 33.1439C51.8662 27.7477 47.4843 23.3731 42.0791 23.3731C47.4844 23.3731 51.8662 18.9986 51.8662 13.6023C51.8662 18.9986 56.248 23.3731 61.6532 23.3731Z" fill="white"/>
<path d="M62.9242 23.4941C66.4283 23.4883 69.2678 20.6535 69.2735 17.1553C69.2793 20.6571 72.1245 23.494 75.6334 23.494C72.1209 23.494 69.2735 26.3368 69.2735 29.8434C69.2735 26.3403 66.4318 23.4998 62.9242 23.4941Z" fill="white"/>
<path d="M89.3235 18.2589C89.3235 21.1323 91.6567 23.4616 94.5348 23.4616C91.6567 23.4616 89.3235 25.7909 89.3235 28.6643C89.3235 25.7909 86.9903 23.4616 84.1122 23.4616C86.9903 23.4616 89.3235 21.1323 89.3235 18.2589Z" fill="white"/>
<path d="M88.9614 -1.13664C88.9614 1.45638 91.0669 3.55843 93.6643 3.55843C91.0669 3.55843 88.9614 5.66051 88.9614 8.25353C88.9614 5.66051 86.8558 3.55845 84.2585 3.55845C86.8558 3.55845 88.9614 1.45638 88.9614 -1.13664Z" fill="white"/>
<path d="M90.3788 13.7292C84.9736 13.7292 80.5917 18.1037 80.5917 23.5C80.5917 18.1037 76.2099 13.7292 70.8047 13.7292C76.2099 13.7292 80.5917 9.35461 80.5917 3.95833C80.5917 9.35462 84.9736 13.7292 90.3788 13.7292Z" fill="white"/>
<path d="M92.1582 11.0584C95.6623 11.0527 98.5018 8.21794 98.5075 4.7197C98.5133 8.22147 101.358 11.0584 104.867 11.0584C101.355 11.0584 98.5075 13.9012 98.5075 17.4078C98.5075 13.9047 95.6658 11.0642 92.1582 11.0584Z" fill="white"/>
<path d="M79.0473 28.5565C79.0473 31.1496 81.1528 33.2516 83.7501 33.2516C81.1528 33.2516 79.0473 35.3537 79.0473 37.9467C79.0473 35.3537 76.9417 33.2516 74.3444 33.2516C76.9417 33.2516 79.0473 31.1496 79.0473 28.5565Z" fill="white"/>
<path d="M70.4042 -0.629066C70.4042 1.96395 72.5097 4.06601 75.107 4.06601C72.5097 4.06601 70.4042 6.16809 70.4042 8.7611C70.4042 6.16809 68.2986 4.06603 65.7013 4.06603C68.2986 4.06603 70.4042 1.96395 70.4042 -0.629066Z" fill="white"/>
<path d="M80.4647 43.4223C75.0594 43.4223 70.6776 47.7969 70.6776 53.1932C70.6776 47.7969 66.2958 43.4223 60.8906 43.4223C66.2958 43.4223 70.6776 39.0478 70.6776 33.6515C70.6776 39.0478 75.0594 43.4223 80.4647 43.4223Z" fill="white"/>
<path d="M82.2441 39.2289C85.7481 39.2232 88.5876 36.3884 88.5934 32.8902C88.5991 36.3919 91.4444 39.2289 94.9533 39.2289C91.4408 39.2289 88.5934 42.0716 88.5934 45.5783C88.5934 42.0752 85.7517 39.2346 82.2441 39.2289Z" fill="white"/>
<path d="M-8 26.4135C-3.16192 26.4073 0.758911 22.4929 0.765132 17.6629C0.771371 22.4968 4.69842 26.4135 9.54179 26.4135C4.69458 26.4135 0.765124 30.3364 0.765123 35.1756C0.765123 30.3403 -3.15808 26.4197 -8 26.4135Z" fill="white"/>
<path d="M16.404 -2.38636C19.6331 -2.38636 22.2508 -4.99973 22.2508 -8.22348C22.2508 -4.99973 24.8685 -2.38636 28.0976 -2.38636C24.8685 -2.38636 22.2508 0.227004 22.2508 3.45076C22.2508 0.227004 19.6331 -2.38636 16.404 -2.38636Z" fill="white"/>
</svg>
