<svg width="107" height="15" viewBox="0 0 107 15" fill="none" xmlns="http://www.w3.org/2000/svg">
<path fill-rule="evenodd" clip-rule="evenodd" d="M54.7491 0.882078L52.905 3.41356H53.818C55.9123 3.41356 57.4702 5.07371 57.4702 7.30545V7.69464C57.4703 9.92639 55.9123 11.5865 53.818 11.5865H24.4692C24.3494 11.5865 24.2371 11.5239 24.1689 11.4189L23.9211 11.0375C23.4501 11.3838 22.879 11.5865 22.2635 11.5865H20.8163C20.6965 11.5865 20.5842 11.5239 20.516 11.4189L20.1433 10.8453C19.6334 11.3076 18.9725 11.5865 18.2505 11.5865H17.8929L17.8905 11.5865H16.8034C15.1895 11.5865 13.8811 10.1926 13.8811 8.47302V1.85681C13.8811 1.64186 14.0446 1.46762 14.2464 1.46762H15.3422C15.544 1.46762 15.7075 1.64186 15.7075 1.85681V8.47302C15.7075 9.11638 16.1959 9.6382 16.7993 9.64058H18.2505C18.8558 9.64058 19.3464 9.11784 19.3464 8.47301V6.13788C19.3464 5.92294 19.51 5.74869 19.7117 5.74869H20.8076C21.0093 5.74869 21.1729 5.92293 21.1729 6.13788V8.47301C21.1729 8.8859 21.0974 9.28002 20.9604 9.64058H22.2635C22.8687 9.64058 23.3593 9.11784 23.3593 8.47301V6.13788C23.3593 5.92294 23.5229 5.74869 23.7246 5.74869H24.8205C25.0223 5.74869 25.1858 5.92293 25.1858 6.13788V8.47301C25.1858 8.8859 25.1104 9.28002 24.9734 9.64058H25.1911C25.7964 9.64058 26.287 9.11784 26.287 8.47301V6.13788C26.287 5.92294 26.4506 5.74869 26.6523 5.74869H27.7482C27.9499 5.74869 28.1135 5.92293 28.1135 6.13788V8.47301C28.1135 8.88591 28.038 9.28003 27.9011 9.64059H34.625C35.6702 9.64059 36.4511 8.80846 36.4511 7.69464V7.30545C36.4511 6.19163 35.6702 5.35951 34.625 5.35951H30.425C30.0963 5.35951 30.0329 5.04565 30.2423 4.77572L33.3182 0.589864C33.4606 0.40633 33.6725 0.300049 33.896 0.300049H35.299C35.5813 0.300049 35.736 0.650319 35.5561 0.882078L33.7119 3.41356H34.625C36.7192 3.41356 38.2772 5.07371 38.2772 7.30545V7.69464C38.2772 8.41506 38.1149 9.07591 37.8246 9.64059H39.2536V7.30545C39.2536 5.58591 40.562 4.19194 42.176 4.19194C43.2576 4.19194 44.2021 4.81807 44.7073 5.7487H46.3768C47.8899 5.7487 49.1165 7.05554 49.1165 8.66762C49.1165 9.00878 49.0616 9.33626 48.9606 9.64059H53.818C54.8633 9.64059 55.6442 8.80846 55.6441 7.69464V7.30545C55.6441 6.19163 54.8633 5.35951 53.818 5.35951H49.618C49.2893 5.35951 49.2259 5.04565 49.4354 4.77572L52.5112 0.589864C52.6537 0.40633 52.8656 0.300049 53.089 0.300049H54.4921C54.7743 0.300049 54.929 0.650319 54.7491 0.882078ZM46.3768 9.64059C46.8812 9.64059 47.29 9.20497 47.29 8.66762C47.29 8.13026 46.8812 7.69464 46.3768 7.69464H45.0983V9.64059H46.3768ZM43.2718 7.30545C43.2718 6.66062 42.7812 6.13789 42.176 6.13789C41.5707 6.13789 41.0801 6.66062 41.0801 7.30545V9.64059H43.2718V7.30545Z" fill="#FF6200"/>
<path d="M8.76533 11.6007C8.76533 13.2106 7.44177 14.6449 5.93092 14.6985L5.84356 14.7H2.91744C1.30416 14.7 0.0429976 13.3948 0.00106179 11.699L0 11.6007V8.11403C0 7.90475 0.131657 7.75009 0.320642 7.72907L0.365239 7.72662H1.4609C1.65827 7.72662 1.80401 7.86633 1.82382 8.06674L1.82612 8.11403L1.82235 11.5941C1.82235 12.2172 2.27857 12.7255 2.85383 12.761L2.91822 12.763H5.84356C6.32359 12.763 6.89665 12.1733 6.93697 11.6577L6.93923 11.6007H5.47834C5.28077 11.6007 5.1352 11.4613 5.11542 11.2607L5.11312 11.2133V10.028C5.11312 9.8185 5.24457 9.66403 5.4337 9.64303L5.47834 9.64059H9.84722C10.4525 9.64059 10.9431 9.11785 10.9431 8.47302V6.13789C10.9431 5.92294 11.1066 5.7487 11.3084 5.7487H12.4043C12.606 5.7487 12.7696 5.92294 12.7696 6.13789V8.47302C12.7696 10.1926 11.4612 11.5865 9.84722 11.5865H8.76266L8.76533 11.6007Z" fill="#FF6200"/>
<path d="M22.6788 3.86108C22.4746 3.86108 22.3066 3.69714 22.2851 3.4868L22.2827 3.44106L22.2828 1.49845C22.2828 1.28192 22.4373 1.10369 22.6357 1.08089L22.6789 1.07843H23.7884C23.9927 1.07843 24.1608 1.24222 24.1823 1.45268L24.1846 1.49845L24.185 2.04673L25.461 2.04664C25.6652 2.04664 25.8332 2.21043 25.8547 2.42089L25.857 2.46666V3.44106C25.857 3.65743 25.7026 3.8358 25.5042 3.85862L25.461 3.86108H22.6788Z" fill="#FF6200"/>
<path d="M103.378 3.80275C103.576 3.80275 103.722 3.94226 103.741 4.14283L103.744 4.19016V5.3524C103.744 5.56197 103.612 5.71639 103.423 5.73738L103.378 5.73981H100.457C100.259 5.73981 100.114 5.60037 100.094 5.39975L100.092 5.3524V4.19016C100.092 3.98066 100.223 3.82619 100.412 3.80519L100.457 3.80275H103.378Z" fill="#FF6200"/>
<path d="M81.0917 13.0942C81.072 12.8936 80.9264 12.7541 80.7288 12.7541H77.807L77.7624 12.7565C77.5733 12.7775 77.4418 12.932 77.4418 13.1415V14.3038L77.4441 14.3511C77.4639 14.5517 77.6095 14.6912 77.807 14.6912H80.7288L80.7735 14.6887C80.9626 14.6677 81.094 14.5133 81.094 14.3038V13.1415L81.0917 13.0942Z" fill="#FF6200"/>
<path d="M88.5829 0.689238C88.7804 0.689238 88.926 0.828747 88.9458 1.02932L88.9481 1.07665V2.23889C88.9481 2.44846 88.8166 2.60287 88.6275 2.62386L88.5829 2.6263H87.3046C87.1071 2.6263 86.9615 2.48686 86.9417 2.28624L86.9394 2.23889V1.07665C86.9394 0.867151 87.0709 0.712678 87.26 0.691679L87.3046 0.689238H88.5829Z" fill="#FF6200"/>
<path d="M95.1558 1.02932C95.136 0.828747 94.9904 0.689238 94.7929 0.689238H93.5146L93.47 0.691679C93.2809 0.712678 93.1494 0.867151 93.1494 1.07665V2.23889L93.1517 2.28624C93.1715 2.48686 93.3171 2.6263 93.5146 2.6263H94.7929L94.8375 2.62386C95.0266 2.60287 95.1581 2.44846 95.1581 2.23889V1.07665L95.1558 1.02932Z" fill="#FF6200"/>
<path d="M75.0671 0.689238C75.2646 0.689238 75.4102 0.828747 75.43 1.02932L75.4323 1.07665V2.23889C75.4323 2.44846 75.3008 2.60287 75.1117 2.62386L75.0671 2.6263H73.7888C73.5913 2.6263 73.4457 2.48686 73.4259 2.28624L73.4236 2.23889V1.07665C73.4236 0.867151 73.5551 0.712678 73.7442 0.691679L73.7888 0.689238H75.0671Z" fill="#FF6200"/>
<path d="M12.5999 2.97526C12.5801 2.77469 12.4345 2.63518 12.237 2.63518H10.9587L10.9141 2.63762C10.725 2.65862 10.5935 2.8131 10.5935 3.0226V4.18483L10.5958 4.23218C10.6156 4.4328 10.7612 4.57225 10.9587 4.57225H12.237L12.2816 4.56981C12.4707 4.54882 12.6022 4.39441 12.6022 4.18483V3.0226L12.5999 2.97526Z" fill="#FF6200"/>
<path fill-rule="evenodd" clip-rule="evenodd" d="M90.7452 9.64059C90.8822 9.28003 90.9576 8.88591 90.9576 8.47302V7.30545C90.9576 5.58591 89.6492 4.19194 88.0353 4.19194C86.4213 4.19194 85.1129 5.58591 85.1129 7.30545V8.47302C85.1129 8.88591 85.1884 9.28003 85.3254 9.64059H82.6947C82.8317 9.28003 82.9071 8.88591 82.9071 8.47302V6.13789C82.9071 5.92294 82.7436 5.7487 82.5419 5.7487H81.446C81.2442 5.7487 81.0807 5.92294 81.0807 6.13789V8.47302C81.0807 9.11785 80.59 9.64059 79.9848 9.64059H77.2294C77.3664 9.28003 77.4418 8.88591 77.4418 8.47302V7.30545C77.4418 5.58591 76.1334 4.19194 74.5195 4.19194C72.9055 4.19194 71.5972 5.58591 71.5972 7.30545V8.47302C71.5972 8.88591 71.6726 9.28003 71.8096 9.64059H63.1954C62.5902 9.64059 62.0996 9.11785 62.0996 8.47302V6.13789C62.0996 5.92294 61.936 5.7487 61.7343 5.7487H60.6384C60.4367 5.7487 60.2731 5.92294 60.2731 6.13789V8.47302C60.2731 10.1926 61.5815 11.5865 63.1954 11.5865H74.5195C75.2373 11.5865 75.8947 11.3108 76.4034 10.8533L76.7709 11.4189C76.8391 11.5239 76.9514 11.5865 77.0712 11.5865H79.9848C80.7068 11.5865 81.3676 11.3076 81.8776 10.8453L82.2503 11.4189C82.3185 11.5239 82.4307 11.5865 82.5506 11.5865H98.2616C98.4579 11.5865 98.6036 11.4469 98.6243 11.2469V10.196L99.419 11.4189C99.4872 11.5239 99.5994 11.5865 99.7193 11.5865H103.729C105.343 11.5865 106.651 10.1926 106.651 8.47302V6.13789C106.651 5.92294 106.488 5.7487 106.286 5.7487H105.19C104.988 5.7487 104.825 5.92294 104.825 6.13789V8.47302C104.825 9.11785 104.334 9.64059 103.729 9.64059H98.6243V6.5907C98.563 5.00652 97.3933 3.80275 95.8877 3.80275H93.5137C93.2927 3.80275 92.9166 3.80925 92.7833 3.99735L92.0529 5.16491C91.9123 5.36308 92.0024 5.7487 92.2355 5.7487H95.8877C96.3855 5.7487 96.8007 6.1912 96.8007 6.72167V9.64059H90.7452ZM89.1312 8.47302V7.30545C89.1312 6.66062 88.6405 6.13789 88.0353 6.13789C87.43 6.13789 86.9394 6.66062 86.9394 7.30545V8.47302C86.9394 9.11785 87.43 9.64059 88.0353 9.64059C88.6405 9.64059 89.1312 9.11785 89.1312 8.47302ZM75.6154 7.30545V8.47302C75.6154 9.11785 75.1247 9.64059 74.5195 9.64059C73.9143 9.64059 73.4236 9.11785 73.4236 8.47302V7.30545C73.4236 6.66062 73.9143 6.13789 74.5195 6.13789C75.1247 6.13789 75.6154 6.66062 75.6154 7.30545Z" fill="#FF6200"/>
</svg>
