<svg width="65" height="13" viewBox="0 0 65 13" fill="none" xmlns="http://www.w3.org/2000/svg">
<path d="M4.95584 5.588V7.316C4.95584 7.564 5.01984 7.74 5.14784 7.844C5.27584 7.94 5.47984 7.988 5.75984 7.988H5.95184L6.02384 8.756L5.95184 9.5H5.75984C5.44784 9.5 5.17584 9.42 4.94384 9.26C4.89584 10.3 4.58384 11.104 4.00784 11.672C3.43184 12.24 2.62784 12.524 1.59584 12.524H0.839844V11.012H1.59584C2.10784 11.012 2.50784 10.948 2.79584 10.82C3.09184 10.692 3.30384 10.48 3.43184 10.184C3.56784 9.896 3.63584 9.492 3.63584 8.972V5.588H4.95584ZM11.5666 2.624L8.24263 4.1L9.62263 5.828C9.65463 5.86 9.67063 5.876 9.67063 5.876C10.1826 6.524 10.5546 6.98 10.7866 7.244C11.0186 7.508 11.2386 7.7 11.4466 7.82C11.6626 7.932 11.9186 7.988 12.2146 7.988H12.4186V9.5H12.2146C11.7746 9.5 11.3946 9.416 11.0746 9.248C10.7626 9.08 10.4186 8.792 10.0426 8.384C9.88263 8.728 9.63863 9 9.31063 9.2C8.99063 9.4 8.59863 9.5 8.13463 9.5H5.83062V7.988H8.15863C8.40663 7.988 8.59863 7.94 8.73463 7.844C8.87063 7.748 8.93863 7.624 8.93863 7.472C8.93863 7.272 8.84263 7.064 8.65063 6.848L6.80263 4.664L7.13863 2.96L11.0266 1.244L11.5666 2.624ZM7.33063 1.58L10.3666 0.248L10.5826 0.775999L7.25863 2.24L7.33063 1.58ZM12.2994 7.988H13.7154C14.4274 7.988 14.7834 7.752 14.7834 7.28C14.7834 6.928 14.6714 6.22 14.4474 5.156L15.7074 4.832C15.9794 6.008 16.1154 6.836 16.1154 7.316C16.1154 7.7 16.0274 8.06 15.8514 8.396C15.6834 8.724 15.4234 8.992 15.0714 9.2C14.7274 9.4 14.3034 9.5 13.7994 9.5H12.2994V7.988ZM11.6874 11.096H13.0434V12.44H11.6874V11.096ZM13.9074 11.096H15.2634V12.44H13.9074V11.096ZM22.0468 6.104C22.3348 6.552 22.4788 7.028 22.4788 7.532C22.4788 7.948 22.3788 8.296 22.1788 8.576C21.9388 8.912 21.6468 9.152 21.3028 9.296C20.9668 9.432 20.5748 9.5 20.1268 9.5H19.4788C19.0068 9.5 18.5868 9.428 18.2188 9.284C17.8508 9.132 17.5508 8.964 17.3188 8.78L17.9548 7.556C17.9788 7.564 18.0588 7.608 18.1948 7.688C18.3308 7.768 18.5148 7.84 18.7468 7.904C18.9868 7.96 19.2348 7.988 19.4908 7.988H20.0908C20.3708 7.988 20.5868 7.968 20.7388 7.928C20.8988 7.88 21.0148 7.796 21.0868 7.676C21.1428 7.588 21.1708 7.508 21.1708 7.436C21.1708 7.292 21.0908 7.104 20.9308 6.872C20.4108 6.064 19.8028 5.144 19.1068 4.112L20.2228 3.272L22.0468 6.104ZM28.1816 6.452C27.7336 7.444 27.5096 8.272 27.5096 8.936C27.5096 9.592 27.6696 10.1 27.9896 10.46C28.3176 10.828 28.8216 11.012 29.5016 11.012H30.6176C31.0816 11.012 31.4456 10.972 31.7096 10.892C31.9816 10.812 32.1776 10.688 32.2976 10.52C32.4176 10.36 32.4896 10.144 32.5136 9.872V9.8C32.5136 9.744 32.5016 9.704 32.4776 9.68C32.4536 9.664 32.4056 9.644 32.3336 9.62L29.6696 8.912C29.5576 8.504 29.5016 8.12 29.5016 7.76C29.5016 7.304 29.5776 6.876 29.7296 6.476C29.8816 6.068 30.0816 5.72 30.3296 5.432C30.6496 5.064 31.0216 4.788 31.4456 4.604C31.8776 4.412 32.3296 4.316 32.8016 4.316C33.0256 4.316 33.2496 4.336 33.4736 4.376C33.7056 4.408 33.8936 4.456 34.0376 4.52L33.7256 5.9C33.4856 5.82 33.2096 5.78 32.8976 5.78C32.2656 5.78 31.7456 5.984 31.3376 6.392C30.9616 6.784 30.7896 7.204 30.8216 7.652L31.6376 7.88C31.8136 7.928 32.0176 7.984 32.2496 8.048C32.4816 8.112 32.6976 8.176 32.8976 8.24C33.2576 8.352 33.5056 8.512 33.6416 8.72C33.7856 8.928 33.8576 9.224 33.8576 9.608C33.8576 10.52 33.5776 11.232 33.0176 11.744C32.4656 12.264 31.6656 12.524 30.6176 12.524H29.5016C28.8216 12.524 28.2296 12.364 27.7256 12.044C27.2296 11.724 26.8496 11.292 26.5856 10.748C26.3296 10.204 26.2016 9.604 26.2016 8.948C26.2016 8.484 26.2816 7.976 26.4416 7.424C26.6016 6.864 26.7976 6.336 27.0296 5.84L28.1816 6.452ZM37.9585 9.5C36.4065 9.5 35.6305 8.62 35.6305 6.86L35.6185 1.568H36.9385L36.9505 6.86C36.9505 7.204 36.9705 7.452 37.0105 7.604C37.0585 7.748 37.1505 7.848 37.2865 7.904C37.4225 7.96 37.6465 7.988 37.9585 7.988H38.3065L38.3665 8.768L38.3065 9.5H37.9585ZM44.4861 3.104L46.3701 5.972C46.6581 6.412 46.8021 6.888 46.8021 7.4C46.8021 7.888 46.6701 8.296 46.4061 8.624C46.1581 8.944 45.7941 9.18 45.3141 9.332C44.8421 9.476 44.2061 9.548 43.4061 9.548C42.6701 9.548 41.9661 9.428 41.2941 9.188C40.6221 9.396 39.9061 9.5 39.1461 9.5H38.1861V7.988H39.2541H39.4581C39.0741 7.524 38.8821 7.016 38.8821 6.464C38.8821 5.992 38.9901 5.556 39.2061 5.156C39.4301 4.756 39.7301 4.44 40.1061 4.208C40.4901 3.968 40.9061 3.848 41.3541 3.848C41.7941 3.848 42.1981 3.968 42.5661 4.208C42.9421 4.44 43.2381 4.756 43.4541 5.156C43.6781 5.548 43.7901 5.98 43.7901 6.452C43.7901 7.044 43.5901 7.572 43.1901 8.036H43.3221C44.4421 8.036 45.1061 7.924 45.3141 7.7C45.4021 7.612 45.4461 7.5 45.4461 7.364C45.4461 7.188 45.3701 6.984 45.2181 6.752L43.3701 3.932L44.4861 3.104ZM40.2141 6.5C40.2141 6.764 40.3061 7 40.4901 7.208C40.6821 7.408 40.9501 7.576 41.2941 7.712C41.6701 7.584 41.9581 7.416 42.1581 7.208C42.3581 7 42.4581 6.76 42.4581 6.488C42.4581 6.144 42.3541 5.864 42.1461 5.648C41.9381 5.424 41.6701 5.312 41.3421 5.312C41.0061 5.312 40.7341 5.424 40.5261 5.648C40.3181 5.864 40.2141 6.148 40.2141 6.5ZM50.2957 5.588V8.972C50.2957 10.1 50.0077 10.972 49.4317 11.588C48.8557 12.212 48.0237 12.524 46.9357 12.524H46.1797V11.012H46.9357C47.4477 11.012 47.8477 10.948 48.1357 10.82C48.4317 10.692 48.6437 10.48 48.7717 10.184C48.9077 9.896 48.9757 9.492 48.9757 8.972V5.588H50.2957ZM51.7692 1.568H53.0892L53.1012 9.5H51.7812L51.7692 1.568ZM57.0457 5.588V8.972C57.0457 10.1 56.7577 10.972 56.1817 11.588C55.6057 12.212 54.7737 12.524 53.6857 12.524H52.9297V11.012H53.6857C54.1977 11.012 54.5977 10.948 54.8857 10.82C55.1817 10.692 55.3937 10.48 55.5217 10.184C55.6577 9.896 55.7257 9.492 55.7257 8.972V5.588H57.0457ZM55.6417 2.624H57.1057V4.064H55.6417V2.624ZM60.7632 9.5C59.2112 9.5 58.4352 8.62 58.4352 6.86L58.4232 1.568H59.7432L59.7552 6.86C59.7552 7.204 59.7752 7.452 59.8152 7.604C59.8632 7.748 59.9552 7.848 60.0912 7.904C60.2272 7.96 60.4512 7.988 60.7632 7.988H61.1112L61.1712 8.768L61.1112 9.5H60.7632ZM60.9908 7.988H62.1908C62.8148 7.988 63.1268 7.756 63.1268 7.292C63.1268 7.084 63.0908 6.772 63.0188 6.356C62.9548 5.94 62.8788 5.54 62.7908 5.156L64.0628 4.832C64.1588 5.256 64.2468 5.708 64.3268 6.188C64.4148 6.66 64.4588 7.036 64.4588 7.316C64.4588 7.692 64.3748 8.048 64.2068 8.384C64.0468 8.72 63.7988 8.992 63.4628 9.2C63.1348 9.4 62.7388 9.5 62.2748 9.5H60.9908V7.988ZM60.9308 11.084H62.3948V12.524H60.9308V11.084Z" fill="#323938"/>
</svg>
