<svg width="152" height="46" viewBox="0 0 152 46" fill="none" xmlns="http://www.w3.org/2000/svg">
<path d="M0 4C0 1.79086 1.79086 0 4 0H148C150.209 0 152 1.79086 152 4V41.037C152 43.2462 150.209 45.037 148 45.037H4C1.79086 45.037 0 43.2462 0 41.037V4Z" fill="#3A3C3B"/>
<path fill-rule="evenodd" clip-rule="evenodd" d="M11.7811 8.32926C11.4534 8.67492 11.2598 9.21311 11.2598 9.91119V9.91119V34.811C11.2598 35.5091 11.4534 36.0462 11.7811 36.393V36.393L11.8633 36.4752L25.8135 22.5261V22.3617V22.1962L11.8633 8.24707L11.7811 8.32926Z" fill="url(#paint0_linear_24933_17508)"/>
<path fill-rule="evenodd" clip-rule="evenodd" d="M11.7811 8.32926C11.4534 8.67492 11.2598 9.21311 11.2598 9.91119V9.91119V34.811C11.2598 35.5091 11.4534 36.0462 11.7811 36.393V36.393L11.8633 36.4752L25.8135 22.5261V22.3617V22.1962L11.8633 8.24707L11.7811 8.32926Z" fill="url(#paint1_linear_24933_17508)"/>
<path fill-rule="evenodd" clip-rule="evenodd" d="M25.8145 22.1965V22.362V22.5264L30.4634 27.1776L30.5704 27.119L36.0784 23.9867C37.6524 23.0938 37.6524 21.6301 36.0784 20.7361L30.5704 17.6061L30.4645 17.5464L25.8145 22.1965Z" fill="#FFD200"/>
<path fill-rule="evenodd" clip-rule="evenodd" d="M25.8145 22.1965V22.362V22.5264L30.4634 27.1776L30.5704 27.119L36.0784 23.9867C37.6524 23.0938 37.6524 21.6301 36.0784 20.7361L30.5704 17.6061L30.4645 17.5464L25.8145 22.1965Z" fill="url(#paint2_linear_24933_17508)"/>
<path fill-rule="evenodd" clip-rule="evenodd" d="M11.7812 36.3931C12.0515 36.6802 12.4151 36.8356 12.8374 36.8412V36.8412H12.8847C13.2596 36.8356 13.6784 36.714 14.1209 36.4629V36.4629L30.5696 27.1177L25.8137 22.3618L11.7812 36.3931Z" fill="url(#paint3_linear_24933_17508)"/>
<path fill-rule="evenodd" clip-rule="evenodd" d="M11.7812 8.32947L25.8137 22.3619L30.5696 17.6048L14.1209 8.25966C13.6683 8.00295 13.2393 7.88135 12.8588 7.88135V7.88135C12.4275 7.88135 12.056 8.03785 11.7812 8.32947" fill="#00F076"/>
<path fill-rule="evenodd" clip-rule="evenodd" d="M11.7812 8.32947L25.8137 22.3619L30.5696 17.6048L14.1209 8.25966C13.6683 8.00295 13.2393 7.88135 12.8588 7.88135V7.88135C12.4275 7.88135 12.056 8.03785 11.7812 8.32947" fill="url(#paint4_linear_24933_17508)"/>
<path fill-rule="evenodd" clip-rule="evenodd" d="M119.23 34.0416H121.33V19.9664H119.23V34.0416ZM138.152 25.0365L135.745 31.139H135.672L133.173 25.0365H130.91L134.659 33.5654L132.522 38.31H134.713L140.49 25.0365H138.152ZM126.237 32.4428C125.55 32.4428 124.591 32.0983 124.591 31.2471C124.591 30.1617 125.785 29.744 126.818 29.744C127.74 29.744 128.175 29.9444 128.736 30.2146C128.574 31.5196 127.452 32.4428 126.237 32.4428V32.4428ZM126.491 24.728C124.97 24.728 123.395 25.399 122.743 26.883L124.607 27.6621C125.007 26.883 125.749 26.6297 126.527 26.6297C127.614 26.6297 128.719 27.2816 128.736 28.4402V28.5854C128.356 28.3681 127.542 28.0427 126.545 28.0427C124.535 28.0427 122.488 29.1472 122.488 31.2111C122.488 33.0947 124.137 34.3085 125.984 34.3085C127.396 34.3085 128.175 33.6746 128.664 32.9315H128.736V34.018H130.765V28.6214C130.765 26.123 128.899 24.728 126.491 24.728V24.728ZM113.508 26.7501H110.519V21.9255H113.508C115.078 21.9255 115.969 23.2249 115.969 24.3373C115.969 25.4283 115.078 26.7501 113.508 26.7501V26.7501ZM113.453 19.9653H108.419V34.0416H110.519V28.7092H113.453C115.781 28.7092 118.071 27.0237 118.071 24.3373C118.071 21.6519 115.781 19.9653 113.453 19.9653V19.9653ZM86.0017 32.4451C84.5504 32.4451 83.3355 31.2302 83.3355 29.5616C83.3355 27.8738 84.5504 26.6409 86.0017 26.6409C87.435 26.6409 88.5598 27.8738 88.5598 29.5616C88.5598 31.2302 87.435 32.4451 86.0017 32.4451V32.4451ZM88.4145 25.8246H88.3414C87.8696 25.2628 86.9632 24.7539 85.8204 24.7539C83.4256 24.7539 81.2311 26.8594 81.2311 29.5616C81.2311 32.2458 83.4256 34.3321 85.8204 34.3321C86.9632 34.3321 87.8696 33.8243 88.3414 33.2434H88.4145V33.9324C88.4145 35.7654 87.435 36.7439 85.8564 36.7439C84.5695 36.7439 83.7712 35.8195 83.4447 35.0392L81.6128 35.8015C82.1375 37.0704 83.5348 38.6309 85.8564 38.6309C88.3245 38.6309 90.4097 37.1796 90.4097 33.6419V25.0444H88.4145V25.8246ZM91.861 34.0416H93.9642V19.9664H91.861V34.0416ZM97.0661 29.3983C97.0121 27.5473 98.5006 26.6049 99.5702 26.6049C100.405 26.6049 101.112 27.0226 101.348 27.6205L97.0661 29.3983ZM103.597 27.8018C103.198 26.7321 101.982 24.7539 99.497 24.7539C97.0301 24.7539 94.9809 26.695 94.9809 29.5436C94.9809 32.2278 97.0121 34.3321 99.7323 34.3321C101.928 34.3321 103.198 32.99 103.724 32.2098L102.091 31.121C101.547 31.9193 100.804 32.4451 99.7323 32.4451C98.6627 32.4451 97.9005 31.9553 97.4118 30.9938L103.814 28.3456L103.597 27.8018ZM52.5831 26.2243V28.2555H57.4448C57.2996 29.3983 56.919 30.2326 56.338 30.8125C55.6298 31.5207 54.5242 32.301 52.5831 32.301C49.5904 32.301 47.2507 29.8881 47.2507 26.8954C47.2507 23.9027 49.5904 21.4887 52.5831 21.4887C54.1976 21.4887 55.3765 22.1237 56.2468 22.9411L57.6801 21.5078C56.4653 20.347 54.8507 19.4575 52.5831 19.4575C48.4836 19.4575 45.0371 22.7959 45.0371 26.8954C45.0371 30.9938 48.4836 34.3321 52.5831 34.3321C54.7955 34.3321 56.4653 33.6059 57.7702 32.2458C59.1134 30.9037 59.53 29.0178 59.53 27.4933C59.53 27.0226 59.494 26.5869 59.4219 26.2243H52.5831ZM65.0572 32.4451C63.6059 32.4451 62.3539 31.2482 62.3539 29.5436C62.3539 27.8198 63.6059 26.6409 65.0572 26.6409C66.5085 26.6409 67.7594 27.8198 67.7594 29.5436C67.7594 31.2482 66.5085 32.4451 65.0572 32.4451V32.4451ZM65.0572 24.7539C62.409 24.7539 60.2506 26.7682 60.2506 29.5436C60.2506 32.301 62.409 34.3321 65.0572 34.3321C67.7054 34.3321 69.8638 32.301 69.8638 29.5436C69.8638 26.7682 67.7054 24.7539 65.0572 24.7539V24.7539ZM75.5429 32.4451C74.0916 32.4451 72.8407 31.2482 72.8407 29.5436C72.8407 27.8198 74.0916 26.6409 75.5429 26.6409C76.9943 26.6409 78.2452 27.8198 78.2452 29.5436C78.2452 31.2482 76.9943 32.4451 75.5429 32.4451V32.4451ZM75.5429 24.7539C72.8948 24.7539 70.7364 26.7682 70.7364 29.5436C70.7364 32.301 72.8948 34.3321 75.5429 34.3321C78.1923 34.3321 80.3507 32.301 80.3507 29.5436C80.3507 26.7682 78.1923 24.7539 75.5429 24.7539V24.7539Z" fill="white"/>
<path fill-rule="evenodd" clip-rule="evenodd" d="M108.744 7.76318H107.592V14.637H108.744V7.76318ZM127.891 14.637H127.409C127.194 14.637 126.992 14.6081 126.802 14.5503C126.612 14.4925 126.445 14.3954 126.3 14.2592C126.156 14.123 126.04 13.9455 125.953 13.7266C125.867 13.5078 125.823 13.2333 125.823 12.903V7.76318H126.975V12.6306C126.975 12.87 127.029 13.0578 127.136 13.1941C127.243 13.3303 127.413 13.3984 127.644 13.3984H127.892C127.859 13.3984 127.83 13.4335 127.805 13.5037C127.78 13.5739 127.768 13.7535 127.768 14.0425L127.769 14.1663C127.772 14.359 127.784 14.4828 127.805 14.5379C127.83 14.6038 127.858 14.6368 127.891 14.637ZM127.892 13.3984L130.48 13.3984C130.984 13.3984 131.236 13.1549 131.236 12.6677V11.3425H132.375V12.7544C132.375 13.3737 132.218 13.8422 131.904 14.1601C131.591 14.478 131.145 14.637 130.567 14.637L127.892 14.637V13.3984ZM139.905 11.8255C140.112 12.0567 140.262 12.2879 140.357 12.5191C140.452 12.7503 140.5 12.9732 140.5 13.1879C140.5 13.5925 140.355 13.9351 140.066 14.2159C139.777 14.4966 139.352 14.637 138.791 14.637H135.793L135.731 13.3984H138.605C138.976 13.3984 139.162 13.2581 139.162 12.9773C139.162 12.8651 139.12 12.7554 139.035 12.6484L137.044 10.3888L137.948 9.54665L139.905 11.8255ZM131.805 16.1232H131.954C132.268 16.1232 132.536 16.0757 132.759 15.9808C132.982 15.8858 133.166 15.7619 133.31 15.6092C133.455 15.4564 133.56 15.2789 133.626 15.0766C133.692 14.8743 133.725 14.6659 133.725 14.4512V11.3425H134.865V14.4512C134.865 14.8558 134.794 15.2356 134.654 15.5906C134.514 15.9457 134.324 16.2532 134.084 16.5133C133.845 16.7734 133.558 16.9798 133.223 17.1326C132.889 17.2853 132.532 17.3617 132.152 17.3617H131.867L131.805 16.1232ZM130.938 17.0149H129.787V15.9126H130.938V17.0149ZM128.152 17.0149H129.316V15.9126H128.152V17.0149ZM119.668 14.0425L119.669 14.1663C119.672 14.359 119.684 14.4828 119.705 14.5379C119.73 14.6039 119.759 14.637 119.792 14.637H119.519C119.247 14.637 118.991 14.5915 118.751 14.5007C118.512 14.4099 118.306 14.22 118.132 13.931C117.95 14.22 117.75 14.4099 117.531 14.5007C117.313 14.5915 117.079 14.637 116.832 14.637H113.042C112.728 14.637 112.462 14.5895 112.243 14.4945C112.024 14.3996 111.847 14.2737 111.71 14.1168C111.574 13.9599 111.473 13.7762 111.407 13.5656C111.341 13.3551 111.308 13.1342 111.308 12.903V11.293H112.447V12.6058C112.447 12.8535 112.503 13.0475 112.615 13.1879C112.726 13.3283 112.951 13.3984 113.29 13.3984H116.832C117.335 13.3984 117.587 13.1549 117.587 12.6677V11.3425H118.739V12.6677C118.739 12.9319 118.822 13.1198 118.987 13.2312C119.152 13.3427 119.346 13.3984 119.569 13.3984H119.792C119.759 13.3984 119.73 13.4335 119.705 13.5037C119.68 13.5739 119.668 13.7535 119.668 14.0425ZM119.792 13.3984H120.807C120.931 13.3984 121.039 13.4005 121.129 13.4046L121.261 13.4124L121.383 13.4232C121.462 13.4315 121.538 13.4418 121.612 13.4542C121.687 13.4666 121.769 13.4851 121.86 13.5099C121.596 13.3943 121.385 13.2767 121.228 13.1569C121.072 13.0372 120.952 12.9051 120.869 12.7606C120.787 12.6161 120.733 12.4592 120.708 12.29C120.683 12.1207 120.671 11.9329 120.671 11.7264C120.671 11.52 120.71 11.3095 120.789 11.0948C120.867 10.8801 120.985 10.6861 121.142 10.5127C121.299 10.3393 121.493 10.1969 121.724 10.0854C121.955 9.97394 122.227 9.9182 122.541 9.9182C122.83 9.9182 123.094 9.95536 123.334 10.0297C123.573 10.104 123.78 10.2278 123.953 10.4012C124.127 10.5746 124.261 10.8037 124.356 11.0886C124.451 11.3735 124.498 11.7223 124.498 12.1352V12.7049C124.498 13.3076 124.325 13.7803 123.978 14.123C123.631 14.4656 123.082 14.637 122.331 14.637H119.792V13.3984ZM122.516 11.1567C122.244 11.1567 122.044 11.2414 121.916 11.4106C121.788 11.5799 121.724 11.7595 121.724 11.9494C121.724 12.0485 121.736 12.1455 121.761 12.2404C121.786 12.3354 121.848 12.4324 121.947 12.5315C122.046 12.6306 122.194 12.7358 122.393 12.8473C122.591 12.9588 122.859 13.0847 123.198 13.225C123.264 13.1507 123.313 13.0496 123.346 12.9216C123.379 12.7936 123.396 12.6636 123.396 12.5315V12.2342C123.396 11.9205 123.334 11.6625 123.21 11.4602C123.086 11.2579 122.855 11.1567 122.516 11.1567ZM121.91 8.98932H123.173V7.84988H121.91V8.98932ZM115.234 10.426H116.411V9.32372H115.234V10.426ZM114.801 10.426H113.624V9.32372H114.801V10.426ZM106.453 14.4512C106.453 14.8558 106.383 15.2356 106.242 15.5906C106.102 15.9457 105.912 16.2532 105.673 16.5133C105.433 16.7734 105.146 16.9798 104.812 17.1326C104.477 17.2853 104.12 17.3617 103.741 17.3617H103.035L102.973 16.1232H103.456C103.786 16.1232 104.069 16.0757 104.304 15.9808C104.539 15.8858 104.731 15.7619 104.88 15.6092C105.029 15.4564 105.138 15.2789 105.208 15.0766C105.278 14.8743 105.313 14.6659 105.313 14.4512V11.3425H106.453V14.4512ZM105.202 10.0297H106.465V8.89024H105.202V10.0297Z" fill="white"/>
<path d="M4 1H148V-1H4V1ZM151 4V41.037H153V4H151ZM148 44.037H4V46.037H148V44.037ZM1 41.037V4H-1V41.037H1ZM4 44.037C2.34315 44.037 1 42.6939 1 41.037H-1C-1 43.7984 1.23858 46.037 4 46.037V44.037ZM151 41.037C151 42.6939 149.657 44.037 148 44.037V46.037C150.761 46.037 153 43.7984 153 41.037H151ZM148 1C149.657 1 151 2.34315 151 4H153C153 1.23858 150.761 -1 148 -1V1ZM4 -1C1.23858 -1 -1 1.23858 -1 4H1C1 2.34315 2.34315 1 4 1V-1Z" fill="#595B5A"/>
<defs>
<linearGradient id="paint0_linear_24933_17508" x1="11.2598" y1="8.24707" x2="11.2598" y2="36.4752" gradientUnits="userSpaceOnUse">
<stop stop-color="white"/>
<stop offset="1"/>
</linearGradient>
<linearGradient id="paint1_linear_24933_17508" x1="10.5841" y1="3.11503" x2="-5.65828" y2="21.6484" gradientUnits="userSpaceOnUse">
<stop stop-color="#00C3FF"/>
<stop offset="1" stop-color="#06E1FF"/>
</linearGradient>
<linearGradient id="paint2_linear_24933_17508" x1="25.8145" y1="27.1776" x2="37.2589" y2="27.1776" gradientUnits="userSpaceOnUse">
<stop stop-color="#FEBD00"/>
<stop offset="1" stop-color="#FFDB00"/>
</linearGradient>
<linearGradient id="paint3_linear_24933_17508" x1="11.36" y1="15.0717" x2="-6.57187" y2="45.2644" gradientUnits="userSpaceOnUse">
<stop stop-color="#FF3A44"/>
<stop offset="1" stop-color="#C31162"/>
</linearGradient>
<linearGradient id="paint4_linear_24933_17508" x1="4.6976" y1="13.7362" x2="13.3703" y2="29.3749" gradientUnits="userSpaceOnUse">
<stop stop-color="#04E975"/>
<stop offset="1" stop-color="#00F076"/>
</linearGradient>
</defs>
</svg>
