<svg width="152" height="46" viewBox="0 0 152 46" fill="none" xmlns="http://www.w3.org/2000/svg">
<path d="M0 4C0 1.79086 1.79086 0 4 0H148C150.209 0 152 1.79086 152 4V41.037C152 43.2462 150.209 45.037 148 45.037H4C1.79086 45.037 0 43.2462 0 41.037V4Z" fill="white"/>
<path fill-rule="evenodd" clip-rule="evenodd" d="M11.7806 8.32951C11.4529 8.67517 11.2593 9.21336 11.2593 9.91143V34.8113C11.2593 35.5094 11.4529 36.0464 11.7806 36.3932L11.8628 36.4754L25.813 22.5263V22.3619V22.1964L11.8628 8.24731L11.7806 8.32951Z" fill="url(#paint0_linear_228_11428)"/>
<path fill-rule="evenodd" clip-rule="evenodd" d="M11.7806 8.32951C11.4529 8.67517 11.2593 9.21336 11.2593 9.91143V34.8113C11.2593 35.5094 11.4529 36.0464 11.7806 36.3932L11.8628 36.4754L25.813 22.5263V22.3619V22.1964L11.8628 8.24731L11.7806 8.32951Z" fill="url(#paint1_linear_228_11428)"/>
<path fill-rule="evenodd" clip-rule="evenodd" d="M25.813 22.1965V22.362V22.5264L30.4619 27.1776L30.5689 27.119L36.0769 23.9867C37.651 23.0938 37.651 21.6301 36.0769 20.7361L30.5689 17.6061L30.4631 17.5464L25.813 22.1965Z" fill="#FFD200"/>
<path fill-rule="evenodd" clip-rule="evenodd" d="M25.813 22.1965V22.362V22.5264L30.4619 27.1776L30.5689 27.119L36.0769 23.9867C37.651 23.0938 37.651 21.6301 36.0769 20.7361L30.5689 17.6061L30.4631 17.5464L25.813 22.1965Z" fill="url(#paint2_linear_228_11428)"/>
<path fill-rule="evenodd" clip-rule="evenodd" d="M11.7808 36.3932C12.051 36.6803 12.4147 36.8357 12.8369 36.8413H12.8842C13.2591 36.8357 13.6779 36.7141 14.1204 36.463L30.5691 27.1178L25.8132 22.3619L11.7808 36.3932Z" fill="url(#paint3_linear_228_11428)"/>
<path fill-rule="evenodd" clip-rule="evenodd" d="M11.7808 8.32959L25.8132 22.362L30.5691 17.605L14.1204 8.25978C13.6678 8.00307 13.2388 7.88147 12.8583 7.88147C12.427 7.88147 12.0555 8.03797 11.7808 8.32959Z" fill="#00F076"/>
<path fill-rule="evenodd" clip-rule="evenodd" d="M11.7808 8.32959L25.8132 22.362L30.5691 17.605L14.1204 8.25978C13.6678 8.00307 13.2388 7.88147 12.8583 7.88147C12.427 7.88147 12.0555 8.03797 11.7808 8.32959Z" fill="url(#paint4_linear_228_11428)"/>
<path fill-rule="evenodd" clip-rule="evenodd" d="M119.23 34.0418H121.33V19.9666H119.23V34.0418ZM138.152 25.0366L135.745 31.1391H135.672L133.173 25.0366H130.91L134.659 33.5655L132.522 38.3101H134.713L140.49 25.0366H138.152ZM126.237 32.4429C125.55 32.4429 124.591 32.0984 124.591 31.2472C124.591 30.1618 125.785 29.7441 126.818 29.7441C127.74 29.7441 128.175 29.9445 128.736 30.2147C128.574 31.5197 127.452 32.4429 126.237 32.4429ZM126.491 24.7281C124.97 24.7281 123.395 25.3991 122.743 26.8831L124.607 27.6623C125.007 26.8831 125.749 26.6298 126.527 26.6298C127.614 26.6298 128.719 27.2817 128.736 28.4403V28.5855C128.356 28.3682 127.542 28.0428 126.545 28.0428C124.535 28.0428 122.488 29.1474 122.488 31.2112C122.488 33.0949 124.137 34.3086 125.984 34.3086C127.396 34.3086 128.175 33.6747 128.664 32.9316H128.736V34.0181H130.765V28.6215C130.765 26.1231 128.899 24.7281 126.491 24.7281ZM113.508 26.7503H110.519V21.9257H113.508C115.078 21.9257 115.969 23.225 115.969 24.3374C115.969 25.4284 115.078 26.7503 113.508 26.7503ZM113.453 19.9654H108.419V34.0418H110.519V28.7094H113.453C115.781 28.7094 118.071 27.0239 118.071 24.3374C118.071 21.6521 115.781 19.9654 113.453 19.9654ZM86.0017 32.4452C84.5504 32.4452 83.3355 31.2303 83.3355 29.5617C83.3355 27.8739 84.5504 26.641 86.0017 26.641C87.435 26.641 88.5598 27.8739 88.5598 29.5617C88.5598 31.2303 87.435 32.4452 86.0017 32.4452ZM88.4145 25.8248H88.3414C87.8696 25.2629 86.9632 24.754 85.8204 24.754C83.4256 24.754 81.2311 26.8595 81.2311 29.5617C81.2311 32.2459 83.4256 34.3322 85.8204 34.3322C86.9632 34.3322 87.8696 33.8245 88.3414 33.2435H88.4145V33.9325C88.4145 35.7655 87.435 36.744 85.8564 36.744C84.5695 36.744 83.7712 35.8196 83.4447 35.0393L81.6128 35.8016C82.1375 37.0705 83.5348 38.631 85.8564 38.631C88.3245 38.631 90.4097 37.1797 90.4097 33.6421V25.0445H88.4145V25.8248ZM91.861 34.0418H93.9642V19.9666H91.861V34.0418ZM97.0661 29.3984C97.0121 27.5474 98.5006 26.605 99.5702 26.605C100.405 26.605 101.112 27.0227 101.348 27.6206L97.0661 29.3984ZM103.597 27.8019C103.198 26.7322 101.982 24.754 99.497 24.754C97.0301 24.754 94.9809 26.6951 94.9809 29.5437C94.9809 32.2279 97.0121 34.3322 99.7323 34.3322C101.928 34.3322 103.198 32.9901 103.724 32.2099L102.091 31.1211C101.547 31.9194 100.804 32.4452 99.7323 32.4452C98.6627 32.4452 97.9005 31.9554 97.4118 30.9939L103.814 28.3457L103.597 27.8019ZM52.5831 26.2245V28.2556H57.4448C57.2996 29.3984 56.919 30.2327 56.338 30.8126C55.6298 31.5208 54.5242 32.3011 52.5831 32.3011C49.5904 32.3011 47.2507 29.8882 47.2507 26.8955C47.2507 23.9028 49.5904 21.4888 52.5831 21.4888C54.1976 21.4888 55.3765 22.1238 56.2468 22.9413L57.6801 21.508C56.4653 20.3471 54.8507 19.4576 52.5831 19.4576C48.4836 19.4576 45.0371 22.796 45.0371 26.8955C45.0371 30.9939 48.4836 34.3322 52.5831 34.3322C54.7955 34.3322 56.4653 33.606 57.7702 32.2459C59.1134 30.9038 59.53 29.0179 59.53 27.4934C59.53 27.0227 59.494 26.587 59.4219 26.2245H52.5831ZM65.0572 32.4452C63.6059 32.4452 62.3539 31.2483 62.3539 29.5437C62.3539 27.8199 63.6059 26.641 65.0572 26.641C66.5085 26.641 67.7594 27.8199 67.7594 29.5437C67.7594 31.2483 66.5085 32.4452 65.0572 32.4452ZM65.0572 24.754C62.409 24.754 60.2506 26.7683 60.2506 29.5437C60.2506 32.3011 62.409 34.3322 65.0572 34.3322C67.7054 34.3322 69.8638 32.3011 69.8638 29.5437C69.8638 26.7683 67.7054 24.754 65.0572 24.754ZM75.5429 32.4452C74.0916 32.4452 72.8407 31.2483 72.8407 29.5437C72.8407 27.8199 74.0916 26.641 75.5429 26.641C76.9943 26.641 78.2452 27.8199 78.2452 29.5437C78.2452 31.2483 76.9943 32.4452 75.5429 32.4452ZM75.5429 24.754C72.8948 24.754 70.7364 26.7683 70.7364 29.5437C70.7364 32.3011 72.8948 34.3322 75.5429 34.3322C78.1923 34.3322 80.3507 32.3011 80.3507 29.5437C80.3507 26.7683 78.1923 24.754 75.5429 24.754Z" fill="black"/>
<path fill-rule="evenodd" clip-rule="evenodd" d="M108.743 7.76331H107.591V14.6371H108.743V7.76331ZM127.89 14.6371H127.408C127.193 14.6371 126.991 14.6082 126.801 14.5504C126.611 14.4926 126.444 14.3956 126.299 14.2593C126.155 14.1231 126.039 13.9456 125.952 13.7268C125.866 13.508 125.822 13.2334 125.822 12.9032V7.76331H126.974V12.6307C126.974 12.8701 127.028 13.058 127.135 13.1942C127.243 13.3304 127.412 13.3986 127.643 13.3986H127.891C127.858 13.3986 127.829 13.4337 127.804 13.5038C127.779 13.574 127.767 13.7536 127.767 14.0426L127.768 14.1664C127.771 14.3591 127.783 14.483 127.804 14.538C127.829 14.6039 127.858 14.6369 127.89 14.6371ZM127.891 13.3986L130.479 13.3986C130.983 13.3986 131.235 13.155 131.235 12.6678V11.3426H132.374V12.7545C132.374 13.3738 132.217 13.8424 131.903 14.1603C131.59 14.4781 131.144 14.6371 130.566 14.6371L127.891 14.6371V13.3986ZM139.904 11.8256C140.111 12.0568 140.261 12.288 140.356 12.5192C140.451 12.7504 140.499 12.9733 140.499 13.188C140.499 13.5926 140.354 13.9353 140.065 14.216C139.776 14.4967 139.351 14.6371 138.79 14.6371H135.792L135.73 13.3986H138.604C138.975 13.3986 139.161 13.2582 139.161 12.9775C139.161 12.8652 139.119 12.7555 139.034 12.6485L137.043 10.389L137.947 9.54677L139.904 11.8256ZM131.804 16.1233H131.953C132.267 16.1233 132.535 16.0758 132.758 15.9809C132.981 15.8859 133.165 15.7621 133.309 15.6093C133.454 15.4566 133.559 15.279 133.625 15.0768C133.691 14.8745 133.724 14.666 133.724 14.4513V11.3426H134.864V14.4513C134.864 14.8559 134.793 15.2357 134.653 15.5907C134.513 15.9458 134.323 16.2533 134.083 16.5134C133.844 16.7735 133.557 16.9799 133.222 17.1327C132.888 17.2854 132.531 17.3618 132.151 17.3618H131.866L131.804 16.1233ZM130.937 17.015H129.786V15.9128H130.937V17.015ZM128.151 17.015H129.315V15.9128H128.151V17.015ZM119.667 14.0426L119.668 14.1664C119.671 14.3591 119.683 14.483 119.704 14.538C119.729 14.6041 119.758 14.6371 119.791 14.6371H119.518C119.246 14.6371 118.99 14.5917 118.75 14.5008C118.511 14.41 118.305 14.2201 118.131 13.9311C117.949 14.2201 117.749 14.41 117.53 14.5008C117.312 14.5917 117.078 14.6371 116.831 14.6371H113.041C112.727 14.6371 112.461 14.5896 112.242 14.4947C112.023 14.3997 111.846 14.2738 111.709 14.1169C111.573 13.96 111.472 13.7763 111.406 13.5658C111.34 13.3552 111.307 13.1343 111.307 12.9032V11.2931H112.446V12.6059C112.446 12.8536 112.502 13.0476 112.614 13.188C112.725 13.3284 112.95 13.3986 113.289 13.3986H116.831C117.334 13.3986 117.586 13.155 117.586 12.6678V11.3426H118.738V12.6678C118.738 12.9321 118.821 13.1199 118.986 13.2314C119.151 13.3428 119.345 13.3986 119.568 13.3986H119.791C119.758 13.3986 119.729 13.4337 119.704 13.5038C119.679 13.574 119.667 13.7536 119.667 14.0426ZM119.791 13.3986H120.806C120.93 13.3986 121.038 13.4006 121.128 13.4048L121.26 13.4125L121.382 13.4233C121.461 13.4316 121.537 13.4419 121.611 13.4543C121.686 13.4667 121.768 13.4853 121.859 13.51C121.595 13.3944 121.384 13.2768 121.227 13.1571C121.071 13.0373 120.951 12.9052 120.868 12.7607C120.786 12.6162 120.732 12.4594 120.707 12.2901C120.682 12.1208 120.67 11.933 120.67 11.7266C120.67 11.5201 120.709 11.3096 120.788 11.0949C120.866 10.8802 120.984 10.6862 121.141 10.5128C121.298 10.3394 121.492 10.197 121.723 10.0855C121.954 9.97406 122.227 9.91833 122.54 9.91833C122.829 9.91833 123.093 9.95548 123.333 10.0298C123.572 10.1041 123.779 10.228 123.952 10.4013C124.126 10.5747 124.26 10.8039 124.355 11.0887C124.45 11.3736 124.497 11.7224 124.497 12.1353V12.705C124.497 13.3077 124.324 13.7804 123.977 14.1231C123.63 14.4658 123.081 14.6371 122.33 14.6371H119.791V13.3986ZM122.516 11.1568C122.243 11.1568 122.043 11.2415 121.915 11.4107C121.787 11.58 121.723 11.7596 121.723 11.9495C121.723 12.0486 121.735 12.1456 121.76 12.2405C121.785 12.3355 121.847 12.4325 121.946 12.5316C122.045 12.6307 122.193 12.736 122.392 12.8474C122.59 12.9589 122.858 13.0848 123.197 13.2252C123.263 13.1509 123.312 13.0497 123.345 12.9217C123.378 12.7938 123.395 12.6637 123.395 12.5316V12.2344C123.395 11.9206 123.333 11.6626 123.209 11.4603C123.085 11.258 122.854 11.1568 122.516 11.1568ZM121.909 8.98944H123.172V7.85H121.909V8.98944ZM115.233 10.4261H116.41V9.32384H115.233V10.4261ZM114.8 10.4261H113.623V9.32384H114.8V10.4261ZM106.452 14.4513C106.452 14.8559 106.382 15.2357 106.241 15.5907C106.101 15.9458 105.911 16.2533 105.672 16.5134C105.432 16.7735 105.145 16.9799 104.811 17.1327C104.476 17.2854 104.119 17.3618 103.74 17.3618H103.034L102.972 16.1233H103.455C103.785 16.1233 104.068 16.0758 104.303 15.9809C104.538 15.8859 104.73 15.7621 104.879 15.6093C105.028 15.4566 105.137 15.279 105.207 15.0768C105.277 14.8745 105.312 14.666 105.312 14.4513V11.3426H106.452V14.4513ZM105.201 10.0298H106.464V8.89036H105.201V10.0298Z" fill="black"/>
<path d="M4 1H148V-1H4V1ZM151 4V41.037H153V4H151ZM148 44.037H4V46.037H148V44.037ZM1 41.037V4H-1V41.037H1ZM4 44.037C2.34315 44.037 1 42.6939 1 41.037H-1C-1 43.7984 1.23858 46.037 4 46.037V44.037ZM151 41.037C151 42.6939 149.657 44.037 148 44.037V46.037C150.761 46.037 153 43.7984 153 41.037H151ZM148 1C149.657 1 151 2.34315 151 4H153C153 1.23858 150.761 -1 148 -1V1ZM4 -1C1.23858 -1 -1 1.23858 -1 4H1C1 2.34315 2.34315 1 4 1V-1Z" fill="#E0E0E0"/>
<defs>
<linearGradient id="paint0_linear_228_11428" x1="11.2593" y1="8.24731" x2="11.2593" y2="36.4754" gradientUnits="userSpaceOnUse">
<stop stop-color="white"/>
<stop offset="1"/>
</linearGradient>
<linearGradient id="paint1_linear_228_11428" x1="10.5836" y1="3.11527" x2="-5.65876" y2="21.6487" gradientUnits="userSpaceOnUse">
<stop stop-color="#00C3FF"/>
<stop offset="1" stop-color="#06E1FF"/>
</linearGradient>
<linearGradient id="paint2_linear_228_11428" x1="25.813" y1="27.1776" x2="37.2575" y2="27.1776" gradientUnits="userSpaceOnUse">
<stop stop-color="#FEBD00"/>
<stop offset="1" stop-color="#FFDB00"/>
</linearGradient>
<linearGradient id="paint3_linear_228_11428" x1="11.3596" y1="15.0718" x2="-6.57236" y2="45.2645" gradientUnits="userSpaceOnUse">
<stop stop-color="#FF3A44"/>
<stop offset="1" stop-color="#C31162"/>
</linearGradient>
<linearGradient id="paint4_linear_228_11428" x1="4.69711" y1="13.7364" x2="13.3698" y2="29.375" gradientUnits="userSpaceOnUse">
<stop stop-color="#04E975"/>
<stop offset="1" stop-color="#00F076"/>
</linearGradient>
</defs>
</svg>
