<svg width="85" height="46" viewBox="0 0 85 46" fill="none" xmlns="http://www.w3.org/2000/svg">
<rect x="0.5" y="0.518555" width="84" height="44" rx="3.5" fill="#3A3C3B"/>
<path d="M14.9558 21.6066V23.3346C14.9558 23.5826 15.0198 23.7586 15.1478 23.8626C15.2758 23.9586 15.4798 24.0066 15.7598 24.0066H15.9518L16.0238 24.7746L15.9518 25.5186H15.7598C15.4478 25.5186 15.1758 25.4386 14.9438 25.2786C14.8958 26.3186 14.5838 27.1226 14.0078 27.6906C13.4318 28.2586 12.6278 28.5426 11.5958 28.5426H10.8398V27.0306H11.5958C12.1078 27.0306 12.5078 26.9666 12.7958 26.8386C13.0918 26.7106 13.3038 26.4986 13.4318 26.2026C13.5678 25.9146 13.6358 25.5106 13.6358 24.9906V21.6066H14.9558ZM21.5666 18.6426L18.2426 20.1186L19.6226 21.8466C19.6546 21.8786 19.6706 21.8946 19.6706 21.8946C20.1826 22.5426 20.5546 22.9986 20.7866 23.2626C21.0186 23.5266 21.2386 23.7186 21.4466 23.8386C21.6626 23.9506 21.9186 24.0066 22.2146 24.0066H22.4186V25.5186H22.2146C21.7746 25.5186 21.3946 25.4346 21.0746 25.2666C20.7626 25.0986 20.4186 24.8106 20.0426 24.4026C19.8826 24.7466 19.6386 25.0186 19.3106 25.2186C18.9906 25.4186 18.5986 25.5186 18.1346 25.5186H15.8306V24.0066H18.1586C18.4066 24.0066 18.5986 23.9586 18.7346 23.8626C18.8706 23.7666 18.9386 23.6426 18.9386 23.4906C18.9386 23.2906 18.8426 23.0826 18.6506 22.8666L16.8026 20.6826L17.1386 18.9786L21.0266 17.2626L21.5666 18.6426ZM17.3306 17.5986L20.3666 16.2666L20.5826 16.7946L17.2586 18.2586L17.3306 17.5986ZM22.2994 24.0066H23.7154C24.4274 24.0066 24.7834 23.7706 24.7834 23.2986C24.7834 22.9466 24.6714 22.2386 24.4474 21.1746L25.7074 20.8506C25.9794 22.0266 26.1154 22.8546 26.1154 23.3346C26.1154 23.7186 26.0274 24.0786 25.8514 24.4146C25.6834 24.7426 25.4234 25.0106 25.0714 25.2186C24.7274 25.4186 24.3034 25.5186 23.7994 25.5186H22.2994V24.0066ZM21.6874 27.1146H23.0434V28.4586H21.6874V27.1146ZM23.9074 27.1146H25.2634V28.4586H23.9074V27.1146ZM32.0468 22.1226C32.3348 22.5706 32.4788 23.0466 32.4788 23.5506C32.4788 23.9666 32.3788 24.3146 32.1788 24.5946C31.9388 24.9306 31.6468 25.1706 31.3028 25.3146C30.9668 25.4506 30.5748 25.5186 30.1268 25.5186H29.4788C29.0068 25.5186 28.5868 25.4466 28.2188 25.3026C27.8508 25.1506 27.5508 24.9826 27.3188 24.7986L27.9548 23.5746C27.9788 23.5826 28.0588 23.6266 28.1948 23.7066C28.3308 23.7866 28.5148 23.8586 28.7468 23.9226C28.9868 23.9786 29.2348 24.0066 29.4908 24.0066H30.0908C30.3708 24.0066 30.5868 23.9866 30.7388 23.9466C30.8988 23.8986 31.0148 23.8146 31.0868 23.6946C31.1428 23.6066 31.1708 23.5266 31.1708 23.4546C31.1708 23.3106 31.0908 23.1226 30.9308 22.8906C30.4108 22.0826 29.8028 21.1626 29.1068 20.1306L30.2228 19.2906L32.0468 22.1226ZM38.1816 22.4706C37.7336 23.4626 37.5096 24.2906 37.5096 24.9546C37.5096 25.6106 37.6696 26.1186 37.9896 26.4786C38.3176 26.8466 38.8216 27.0306 39.5016 27.0306H40.6176C41.0816 27.0306 41.4456 26.9906 41.7096 26.9106C41.9816 26.8306 42.1776 26.7066 42.2976 26.5386C42.4176 26.3786 42.4896 26.1626 42.5136 25.8906V25.8186C42.5136 25.7626 42.5016 25.7226 42.4776 25.6986C42.4536 25.6826 42.4056 25.6626 42.3336 25.6386L39.6696 24.9306C39.5576 24.5226 39.5016 24.1386 39.5016 23.7786C39.5016 23.3226 39.5776 22.8946 39.7296 22.4946C39.8816 22.0866 40.0816 21.7386 40.3296 21.4506C40.6496 21.0826 41.0216 20.8066 41.4456 20.6226C41.8776 20.4306 42.3296 20.3346 42.8016 20.3346C43.0256 20.3346 43.2496 20.3546 43.4736 20.3946C43.7056 20.4266 43.8936 20.4746 44.0376 20.5386L43.7256 21.9186C43.4856 21.8386 43.2096 21.7986 42.8976 21.7986C42.2656 21.7986 41.7456 22.0026 41.3376 22.4106C40.9616 22.8026 40.7896 23.2226 40.8216 23.6706L41.6376 23.8986C41.8136 23.9466 42.0176 24.0026 42.2496 24.0666C42.4816 24.1306 42.6976 24.1946 42.8976 24.2586C43.2576 24.3706 43.5056 24.5306 43.6416 24.7386C43.7856 24.9466 43.8576 25.2426 43.8576 25.6266C43.8576 26.5386 43.5776 27.2506 43.0176 27.7626C42.4656 28.2826 41.6656 28.5426 40.6176 28.5426H39.5016C38.8216 28.5426 38.2296 28.3826 37.7256 28.0626C37.2296 27.7426 36.8496 27.3106 36.5856 26.7666C36.3296 26.2226 36.2016 25.6226 36.2016 24.9666C36.2016 24.5026 36.2816 23.9946 36.4416 23.4426C36.6016 22.8826 36.7976 22.3546 37.0296 21.8586L38.1816 22.4706ZM47.9585 25.5186C46.4065 25.5186 45.6305 24.6386 45.6305 22.8786L45.6185 17.5866H46.9385L46.9505 22.8786C46.9505 23.2226 46.9705 23.4706 47.0105 23.6226C47.0585 23.7666 47.1505 23.8666 47.2865 23.9226C47.4225 23.9786 47.6465 24.0066 47.9585 24.0066H48.3065L48.3665 24.7866L48.3065 25.5186H47.9585ZM54.4861 19.1226L56.3701 21.9906C56.6581 22.4306 56.8021 22.9066 56.8021 23.4186C56.8021 23.9066 56.6701 24.3146 56.4061 24.6426C56.1581 24.9626 55.7941 25.1986 55.3141 25.3506C54.8421 25.4946 54.2061 25.5666 53.4061 25.5666C52.6701 25.5666 51.9661 25.4466 51.2941 25.2066C50.6221 25.4146 49.9061 25.5186 49.1461 25.5186H48.1861V24.0066H49.2541H49.4581C49.0741 23.5426 48.8821 23.0346 48.8821 22.4826C48.8821 22.0106 48.9901 21.5746 49.2061 21.1746C49.4301 20.7746 49.7301 20.4586 50.1061 20.2266C50.4901 19.9866 50.9061 19.8666 51.3541 19.8666C51.7941 19.8666 52.1981 19.9866 52.5661 20.2266C52.9421 20.4586 53.2381 20.7746 53.4541 21.1746C53.6781 21.5666 53.7901 21.9986 53.7901 22.4706C53.7901 23.0626 53.5901 23.5906 53.1901 24.0546H53.3221C54.4421 24.0546 55.1061 23.9426 55.3141 23.7186C55.4021 23.6306 55.4461 23.5186 55.4461 23.3826C55.4461 23.2066 55.3701 23.0026 55.2181 22.7706L53.3701 19.9506L54.4861 19.1226ZM50.2141 22.5186C50.2141 22.7826 50.3061 23.0186 50.4901 23.2266C50.6821 23.4266 50.9501 23.5946 51.2941 23.7306C51.6701 23.6026 51.9581 23.4346 52.1581 23.2266C52.3581 23.0186 52.4581 22.7786 52.4581 22.5066C52.4581 22.1626 52.3541 21.8826 52.1461 21.6666C51.9381 21.4426 51.6701 21.3306 51.3421 21.3306C51.0061 21.3306 50.7341 21.4426 50.5261 21.6666C50.3181 21.8826 50.2141 22.1666 50.2141 22.5186ZM60.2957 21.6066V24.9906C60.2957 26.1186 60.0077 26.9906 59.4317 27.6066C58.8557 28.2306 58.0237 28.5426 56.9357 28.5426H56.1797V27.0306H56.9357C57.4477 27.0306 57.8477 26.9666 58.1357 26.8386C58.4317 26.7106 58.6437 26.4986 58.7717 26.2026C58.9077 25.9146 58.9757 25.5106 58.9757 24.9906V21.6066H60.2957ZM61.7692 17.5866H63.0892L63.1012 25.5186H61.7812L61.7692 17.5866ZM67.0457 21.6066V24.9906C67.0457 26.1186 66.7577 26.9906 66.1817 27.6066C65.6057 28.2306 64.7737 28.5426 63.6857 28.5426H62.9297V27.0306H63.6857C64.1977 27.0306 64.5977 26.9666 64.8857 26.8386C65.1817 26.7106 65.3937 26.4986 65.5217 26.2026C65.6577 25.9146 65.7257 25.5106 65.7257 24.9906V21.6066H67.0457ZM65.6417 18.6426H67.1057V20.0826H65.6417V18.6426ZM70.7632 25.5186C69.2112 25.5186 68.4352 24.6386 68.4352 22.8786L68.4232 17.5866H69.7432L69.7552 22.8786C69.7552 23.2226 69.7752 23.4706 69.8152 23.6226C69.8632 23.7666 69.9552 23.8666 70.0912 23.9226C70.2272 23.9786 70.4512 24.0066 70.7632 24.0066H71.1112L71.1712 24.7866L71.1112 25.5186H70.7632ZM70.9908 24.0066H72.1908C72.8148 24.0066 73.1268 23.7746 73.1268 23.3106C73.1268 23.1026 73.0908 22.7906 73.0188 22.3746C72.9548 21.9586 72.8788 21.5586 72.7908 21.1746L74.0628 20.8506C74.1588 21.2746 74.2468 21.7266 74.3268 22.2066C74.4148 22.6786 74.4588 23.0546 74.4588 23.3346C74.4588 23.7106 74.3748 24.0666 74.2068 24.4026C74.0468 24.7386 73.7988 25.0106 73.4628 25.2186C73.1348 25.4186 72.7388 25.5186 72.2748 25.5186H70.9908V24.0066ZM70.9308 27.1026H72.3948V28.5426H70.9308V27.1026Z" fill="#F7FAF9"/>
<rect x="0.5" y="0.518555" width="84" height="44" rx="3.5" stroke="#595B5A"/>
</svg>
