<svg width="85" height="45" viewBox="0 0 85 45" fill="none" xmlns="http://www.w3.org/2000/svg">
<rect x="0.5" y="0.5" width="84" height="44" rx="3.5" fill="white"/>
<path d="M14.9558 21.588V23.316C14.9558 23.564 15.0198 23.74 15.1478 23.844C15.2758 23.94 15.4798 23.988 15.7598 23.988H15.9518L16.0238 24.756L15.9518 25.5H15.7598C15.4478 25.5 15.1758 25.42 14.9438 25.26C14.8958 26.3 14.5838 27.104 14.0078 27.672C13.4318 28.24 12.6278 28.524 11.5958 28.524H10.8398V27.012H11.5958C12.1078 27.012 12.5078 26.948 12.7958 26.82C13.0918 26.692 13.3038 26.48 13.4318 26.184C13.5678 25.896 13.6358 25.492 13.6358 24.972V21.588H14.9558ZM21.5666 18.624L18.2426 20.1L19.6226 21.828C19.6546 21.86 19.6706 21.876 19.6706 21.876C20.1826 22.524 20.5546 22.98 20.7866 23.244C21.0186 23.508 21.2386 23.7 21.4466 23.82C21.6626 23.932 21.9186 23.988 22.2146 23.988H22.4186V25.5H22.2146C21.7746 25.5 21.3946 25.416 21.0746 25.248C20.7626 25.08 20.4186 24.792 20.0426 24.384C19.8826 24.728 19.6386 25 19.3106 25.2C18.9906 25.4 18.5986 25.5 18.1346 25.5H15.8306V23.988H18.1586C18.4066 23.988 18.5986 23.94 18.7346 23.844C18.8706 23.748 18.9386 23.624 18.9386 23.472C18.9386 23.272 18.8426 23.064 18.6506 22.848L16.8026 20.664L17.1386 18.96L21.0266 17.244L21.5666 18.624ZM17.3306 17.58L20.3666 16.248L20.5826 16.776L17.2586 18.24L17.3306 17.58ZM22.2994 23.988H23.7154C24.4274 23.988 24.7834 23.752 24.7834 23.28C24.7834 22.928 24.6714 22.22 24.4474 21.156L25.7074 20.832C25.9794 22.008 26.1154 22.836 26.1154 23.316C26.1154 23.7 26.0274 24.06 25.8514 24.396C25.6834 24.724 25.4234 24.992 25.0714 25.2C24.7274 25.4 24.3034 25.5 23.7994 25.5H22.2994V23.988ZM21.6874 27.096H23.0434V28.44H21.6874V27.096ZM23.9074 27.096H25.2634V28.44H23.9074V27.096ZM32.0468 22.104C32.3348 22.552 32.4788 23.028 32.4788 23.532C32.4788 23.948 32.3788 24.296 32.1788 24.576C31.9388 24.912 31.6468 25.152 31.3028 25.296C30.9668 25.432 30.5748 25.5 30.1268 25.5H29.4788C29.0068 25.5 28.5868 25.428 28.2188 25.284C27.8508 25.132 27.5508 24.964 27.3188 24.78L27.9548 23.556C27.9788 23.564 28.0588 23.608 28.1948 23.688C28.3308 23.768 28.5148 23.84 28.7468 23.904C28.9868 23.96 29.2348 23.988 29.4908 23.988H30.0908C30.3708 23.988 30.5868 23.968 30.7388 23.928C30.8988 23.88 31.0148 23.796 31.0868 23.676C31.1428 23.588 31.1708 23.508 31.1708 23.436C31.1708 23.292 31.0908 23.104 30.9308 22.872C30.4108 22.064 29.8028 21.144 29.1068 20.112L30.2228 19.272L32.0468 22.104ZM38.1816 22.452C37.7336 23.444 37.5096 24.272 37.5096 24.936C37.5096 25.592 37.6696 26.1 37.9896 26.46C38.3176 26.828 38.8216 27.012 39.5016 27.012H40.6176C41.0816 27.012 41.4456 26.972 41.7096 26.892C41.9816 26.812 42.1776 26.688 42.2976 26.52C42.4176 26.36 42.4896 26.144 42.5136 25.872V25.8C42.5136 25.744 42.5016 25.704 42.4776 25.68C42.4536 25.664 42.4056 25.644 42.3336 25.62L39.6696 24.912C39.5576 24.504 39.5016 24.12 39.5016 23.76C39.5016 23.304 39.5776 22.876 39.7296 22.476C39.8816 22.068 40.0816 21.72 40.3296 21.432C40.6496 21.064 41.0216 20.788 41.4456 20.604C41.8776 20.412 42.3296 20.316 42.8016 20.316C43.0256 20.316 43.2496 20.336 43.4736 20.376C43.7056 20.408 43.8936 20.456 44.0376 20.52L43.7256 21.9C43.4856 21.82 43.2096 21.78 42.8976 21.78C42.2656 21.78 41.7456 21.984 41.3376 22.392C40.9616 22.784 40.7896 23.204 40.8216 23.652L41.6376 23.88C41.8136 23.928 42.0176 23.984 42.2496 24.048C42.4816 24.112 42.6976 24.176 42.8976 24.24C43.2576 24.352 43.5056 24.512 43.6416 24.72C43.7856 24.928 43.8576 25.224 43.8576 25.608C43.8576 26.52 43.5776 27.232 43.0176 27.744C42.4656 28.264 41.6656 28.524 40.6176 28.524H39.5016C38.8216 28.524 38.2296 28.364 37.7256 28.044C37.2296 27.724 36.8496 27.292 36.5856 26.748C36.3296 26.204 36.2016 25.604 36.2016 24.948C36.2016 24.484 36.2816 23.976 36.4416 23.424C36.6016 22.864 36.7976 22.336 37.0296 21.84L38.1816 22.452ZM47.9585 25.5C46.4065 25.5 45.6305 24.62 45.6305 22.86L45.6185 17.568H46.9385L46.9505 22.86C46.9505 23.204 46.9705 23.452 47.0105 23.604C47.0585 23.748 47.1505 23.848 47.2865 23.904C47.4225 23.96 47.6465 23.988 47.9585 23.988H48.3065L48.3665 24.768L48.3065 25.5H47.9585ZM54.4861 19.104L56.3701 21.972C56.6581 22.412 56.8021 22.888 56.8021 23.4C56.8021 23.888 56.6701 24.296 56.4061 24.624C56.1581 24.944 55.7941 25.18 55.3141 25.332C54.8421 25.476 54.2061 25.548 53.4061 25.548C52.6701 25.548 51.9661 25.428 51.2941 25.188C50.6221 25.396 49.9061 25.5 49.1461 25.5H48.1861V23.988H49.2541H49.4581C49.0741 23.524 48.8821 23.016 48.8821 22.464C48.8821 21.992 48.9901 21.556 49.2061 21.156C49.4301 20.756 49.7301 20.44 50.1061 20.208C50.4901 19.968 50.9061 19.848 51.3541 19.848C51.7941 19.848 52.1981 19.968 52.5661 20.208C52.9421 20.44 53.2381 20.756 53.4541 21.156C53.6781 21.548 53.7901 21.98 53.7901 22.452C53.7901 23.044 53.5901 23.572 53.1901 24.036H53.3221C54.4421 24.036 55.1061 23.924 55.3141 23.7C55.4021 23.612 55.4461 23.5 55.4461 23.364C55.4461 23.188 55.3701 22.984 55.2181 22.752L53.3701 19.932L54.4861 19.104ZM50.2141 22.5C50.2141 22.764 50.3061 23 50.4901 23.208C50.6821 23.408 50.9501 23.576 51.2941 23.712C51.6701 23.584 51.9581 23.416 52.1581 23.208C52.3581 23 52.4581 22.76 52.4581 22.488C52.4581 22.144 52.3541 21.864 52.1461 21.648C51.9381 21.424 51.6701 21.312 51.3421 21.312C51.0061 21.312 50.7341 21.424 50.5261 21.648C50.3181 21.864 50.2141 22.148 50.2141 22.5ZM60.2957 21.588V24.972C60.2957 26.1 60.0077 26.972 59.4317 27.588C58.8557 28.212 58.0237 28.524 56.9357 28.524H56.1797V27.012H56.9357C57.4477 27.012 57.8477 26.948 58.1357 26.82C58.4317 26.692 58.6437 26.48 58.7717 26.184C58.9077 25.896 58.9757 25.492 58.9757 24.972V21.588H60.2957ZM61.7692 17.568H63.0892L63.1012 25.5H61.7812L61.7692 17.568ZM67.0457 21.588V24.972C67.0457 26.1 66.7577 26.972 66.1817 27.588C65.6057 28.212 64.7737 28.524 63.6857 28.524H62.9297V27.012H63.6857C64.1977 27.012 64.5977 26.948 64.8857 26.82C65.1817 26.692 65.3937 26.48 65.5217 26.184C65.6577 25.896 65.7257 25.492 65.7257 24.972V21.588H67.0457ZM65.6417 18.624H67.1057V20.064H65.6417V18.624ZM70.7632 25.5C69.2112 25.5 68.4352 24.62 68.4352 22.86L68.4232 17.568H69.7432L69.7552 22.86C69.7552 23.204 69.7752 23.452 69.8152 23.604C69.8632 23.748 69.9552 23.848 70.0912 23.904C70.2272 23.96 70.4512 23.988 70.7632 23.988H71.1112L71.1712 24.768L71.1112 25.5H70.7632ZM70.9908 23.988H72.1908C72.8148 23.988 73.1268 23.756 73.1268 23.292C73.1268 23.084 73.0908 22.772 73.0188 22.356C72.9548 21.94 72.8788 21.54 72.7908 21.156L74.0628 20.832C74.1588 21.256 74.2468 21.708 74.3268 22.188C74.4148 22.66 74.4588 23.036 74.4588 23.316C74.4588 23.692 74.3748 24.048 74.2068 24.384C74.0468 24.72 73.7988 24.992 73.4628 25.2C73.1348 25.4 72.7388 25.5 72.2748 25.5H70.9908V23.988ZM70.9308 27.084H72.3948V28.524H70.9308V27.084Z" fill="#323938"/>
<rect x="0.5" y="0.5" width="84" height="44" rx="3.5" stroke="#DEE1E0"/>
</svg>
