<svg width="152" height="45" viewBox="0 0 152 45" fill="none" xmlns="http://www.w3.org/2000/svg">
<rect x="0.5" y="0.5" width="150.875" height="44" rx="3.5" fill="white"/>
<path fill-rule="evenodd" clip-rule="evenodd" d="M26.7862 9.5625L26.1224 10.2375L26.7862 10.9125L27.4612 10.2375L26.7862 9.5625ZM27.0674 15.0637C27.1756 14.7677 27.2364 14.4563 27.2474 14.1412V11.8125H26.3362V14.0625C26.3364 14.2787 26.3099 14.494 26.2574 14.7037C26.2094 14.8603 26.1245 15.003 26.0099 15.12C25.8909 15.2353 25.7434 15.3168 25.5824 15.3562C25.3837 15.4047 25.1795 15.4274 24.9749 15.4237H24.5137V16.3462H24.9749C25.293 16.3489 25.6091 16.2956 25.9087 16.1887C26.17 16.0943 26.4079 15.9446 26.6062 15.75C26.8038 15.554 26.9606 15.3208 27.0674 15.0637Z" fill="black"/>
<path d="M29.1712 14.3661H28.2487V9.06738H29.1712V14.3661Z" fill="black"/>
<path fill-rule="evenodd" clip-rule="evenodd" d="M33.03 8.37012C32.7194 8.37012 32.4675 8.62196 32.4675 8.93262C32.4752 9.07234 32.5404 9.20265 32.6475 9.29262C32.8818 9.48919 33.2233 9.48919 33.4575 9.29262C33.5481 9.19504 33.5966 9.0657 33.5925 8.93262C33.5925 8.62196 33.3407 8.37012 33.03 8.37012ZM32.5238 14.3101H33.48V10.0351H32.5238V14.3101Z" fill="black"/>
<path fill-rule="evenodd" clip-rule="evenodd" d="M38.8238 13.0726C39.0254 12.604 39.1251 12.0978 39.1163 11.5876V11.2501C39.1304 10.7311 39.0265 10.2157 38.8125 9.74263C38.6342 9.34654 38.3451 9.01051 37.98 8.77513C37.2086 8.3243 36.254 8.3243 35.4825 8.77513C35.1138 9.01922 34.8213 9.36235 34.6388 9.76513C34.4371 10.2338 34.3374 10.74 34.3463 11.2501V11.6214C34.337 12.1255 34.4408 12.6252 34.65 13.0839C34.8261 13.4848 35.1205 13.8224 35.4938 14.0514C36.2652 14.5022 37.2198 14.5022 37.9913 14.0514C38.3612 13.8166 38.6514 13.4754 38.8238 13.0726ZM37.755 9.78763C38.0193 10.2279 38.1448 10.7375 38.115 11.2501V11.5764C38.1478 12.0928 38.0222 12.607 37.755 13.0501C37.5332 13.3888 37.1465 13.5821 36.7425 13.5564C36.3313 13.574 35.9401 13.3784 35.7075 13.0389C35.4386 12.6002 35.3092 12.0902 35.3363 11.5764V11.2501C35.3096 10.7348 35.4433 10.2239 35.7188 9.78763C35.9406 9.44901 36.3273 9.25567 36.7313 9.28138C37.1368 9.26299 37.5234 9.45417 37.755 9.78763Z" fill="black"/>
<path d="M43.0199 12.8364C43.0327 12.6086 42.9315 12.3894 42.7499 12.2514C42.4591 12.0556 42.1351 11.9145 41.7936 11.8351C41.3998 11.7268 41.0217 11.568 40.6686 11.3626C40.1894 11.1134 39.8867 10.6203 39.8811 10.0801C39.8793 9.63708 40.0881 9.21953 40.4436 8.95513C40.8666 8.63635 41.3885 8.477 41.9174 8.50513C42.2863 8.49563 42.6523 8.57268 42.9861 8.73013C43.2875 8.86692 43.5446 9.08511 43.7286 9.36013C43.8986 9.62946 43.9884 9.94164 43.9874 10.2601H42.9974C43.0102 9.99438 42.9077 9.73602 42.7161 9.55138C42.486 9.37159 42.1974 9.28342 41.9061 9.30388C41.6395 9.28749 41.3749 9.35859 41.1524 9.50638C40.9738 9.64684 40.8734 9.86438 40.8824 10.0914C40.8791 10.3071 40.9904 10.5083 41.1749 10.6201C41.4693 10.8093 41.7921 10.9498 42.1311 11.0364C42.5247 11.135 42.9031 11.2864 43.2561 11.4864C43.4993 11.6302 43.704 11.831 43.8524 12.0714C43.9814 12.3096 44.0472 12.5768 44.0436 12.8476C44.0536 13.2899 43.848 13.7095 43.4924 13.9726C43.0533 14.2729 42.5272 14.4192 41.9961 14.3889C41.61 14.3886 41.2277 14.3121 40.8711 14.1639C40.5469 14.0241 40.2641 13.8033 40.0499 13.5226C39.8581 13.2455 39.7596 12.9145 39.7686 12.5776H40.7699C40.7519 12.8642 40.8683 13.1429 41.0849 13.3314C41.3554 13.5269 41.6855 13.6223 42.0186 13.6014C42.2979 13.623 42.5761 13.5475 42.8061 13.3876C42.9569 13.2456 43.0355 13.043 43.0199 12.8364Z" fill="black"/>
<path fill-rule="evenodd" clip-rule="evenodd" d="M50.8837 14.3663H50.9849V13.4101H50.8837H50.6024C50.4915 13.3987 50.3842 13.3642 50.2874 13.3088C50.1758 13.2543 50.0763 13.1777 49.9949 13.0838C49.8985 12.9754 49.8325 12.8435 49.8037 12.7013L49.1287 10.0913L48.2399 10.3051L48.3187 10.6538C48.0927 10.7359 47.8711 10.8298 47.6549 10.9351C47.4445 11.0373 47.248 11.1658 47.0699 11.3176C46.9107 11.4711 46.7776 11.6497 46.6762 11.8463C46.5701 12.0634 46.5162 12.3022 46.5187 12.5438C46.5161 12.7564 46.5583 12.9672 46.6424 13.1626C46.7141 13.3366 46.8214 13.4937 46.9574 13.6238C47.0886 13.753 47.2458 13.8527 47.4187 13.9163C47.5944 13.9845 47.7814 14.0188 47.9699 14.0176H48.3074C48.4195 13.9957 48.5289 13.9618 48.6337 13.9163C48.7424 13.8699 48.8445 13.8093 48.9374 13.7363C49.0262 13.6719 49.1024 13.5919 49.1624 13.5001C49.2315 13.654 49.3266 13.7948 49.4437 13.9163C49.5636 14.03 49.7002 14.1249 49.8487 14.1976C50.003 14.272 50.1653 14.3287 50.3324 14.3663C50.5158 14.3835 50.7003 14.3835 50.8837 14.3663ZM48.7349 12.3301C48.7465 12.4008 48.7465 12.473 48.7349 12.5438H48.7237C48.7035 12.6938 48.6271 12.8306 48.5099 12.9263C48.3695 13.0119 48.2121 13.0656 48.0487 13.0838C47.9708 13.1005 47.8903 13.1005 47.8124 13.0838C47.7354 13.0639 47.6629 13.0295 47.5987 12.9826C47.5292 12.9398 47.4743 12.877 47.4412 12.8026C47.3954 12.7324 47.3719 12.6501 47.3737 12.5663C47.3726 12.3332 47.4861 12.1145 47.6774 11.9813C47.9478 11.7903 48.2482 11.6458 48.5662 11.5538C48.6126 11.6119 48.6141 11.667 48.6155 11.7191C48.6168 11.7679 48.6181 11.814 48.6562 11.8576C48.7349 11.9476 48.7349 12.0376 48.7349 12.1163C48.7404 12.1875 48.7404 12.2589 48.7349 12.3301Z" fill="black"/>
<path fill-rule="evenodd" clip-rule="evenodd" d="M52.5036 9.01123L51.8511 9.67498L52.5148 10.35L53.1898 9.68623L52.5036 9.01123ZM55.6986 12.9825L55.8223 12.9037L55.6986 12.15H55.5298L55.2036 12.0262L54.7648 11.8687L54.2698 11.6887L53.7523 11.5087L53.2686 11.3625L52.8748 11.25L52.5823 11.1487C52.4321 11.1435 52.2826 11.1704 52.1436 11.2275C52.0175 11.2797 51.9028 11.3562 51.8061 11.4525C51.7077 11.5524 51.6243 11.6661 51.5586 11.79C51.4908 11.9238 51.4344 12.063 51.3898 12.2062L52.2336 12.465C52.252 12.3999 52.2826 12.3388 52.3236 12.285C52.347 12.2393 52.3773 12.1976 52.4136 12.1612C52.4481 12.1282 52.4908 12.1049 52.5373 12.0937H52.6836C52.7545 12.0843 52.8264 12.0843 52.8973 12.0937L53.2236 12.1612L53.5948 12.2625L53.9998 12.375L54.4386 12.5775L54.8098 12.69C54.6056 12.7963 54.3953 12.8902 54.1798 12.9712C53.936 13.0776 53.6839 13.1642 53.4261 13.23C53.1642 13.3109 52.8974 13.3748 52.6273 13.4212C52.3719 13.4736 52.1118 13.4999 51.8511 13.5H50.7261V14.3325H51.8511C52.1039 14.3329 52.3561 14.3103 52.6048 14.265C52.8523 14.22 53.0998 14.1637 53.3361 14.0962C53.5689 14.0255 53.798 13.9429 54.0223 13.8487L54.6298 13.5787C54.7517 13.8145 54.9392 14.0099 55.1698 14.1412C55.4126 14.2689 55.6831 14.3346 55.9573 14.3325H56.6323V13.4212H55.8561H55.6986L55.5411 13.3312C55.4947 13.2814 55.4567 13.2244 55.4286 13.1625L55.6986 12.9825Z" fill="black"/>
<path d="M58.0275 13.4998C58.0635 13.4848 58.104 13.4848 58.14 13.4998C58.1531 13.5323 58.1531 13.5686 58.14 13.601V14.231C58.158 14.2664 58.158 14.3082 58.14 14.3435C58.104 14.3585 58.0635 14.3585 58.0275 14.3435H56.4975C56.4567 14.352 56.4144 14.3393 56.3849 14.3099C56.3555 14.2804 56.3428 14.2381 56.3513 14.1973V13.5673C56.3416 13.5342 56.3416 13.4991 56.3513 13.466C56.3873 13.451 56.4278 13.451 56.4638 13.466L58.0275 13.4998Z" fill="black"/>
<path d="M59.5573 13.5002C59.594 13.4889 59.6332 13.4889 59.6698 13.5002C59.6795 13.5333 59.6795 13.5684 59.6698 13.6015V14.2315C59.6848 14.2675 59.6848 14.308 59.6698 14.344C59.6332 14.3552 59.594 14.3552 59.5573 14.344H58.0161C57.9753 14.3524 57.933 14.3397 57.9035 14.3103C57.874 14.2808 57.8614 14.2385 57.8698 14.1977V13.5677C57.8601 13.5346 57.8601 13.4995 57.8698 13.4665C57.9058 13.4515 57.9463 13.4515 57.9823 13.4665L59.5573 13.5002Z" fill="black"/>
<path d="M59.4336 13.5H59.9061C60.0219 13.5139 60.139 13.5139 60.2548 13.5C60.3317 13.4742 60.4039 13.4362 60.4686 13.3875C60.5152 13.3357 60.5498 13.2742 60.5698 13.2075C60.576 13.1326 60.576 13.0573 60.5698 12.9825V11.8575H61.4811V12.915C61.4693 13.0715 61.5222 13.226 61.6273 13.3425C61.7572 13.4475 61.9219 13.4997 62.0886 13.4887H62.2236C62.282 13.4764 62.3362 13.4493 62.3811 13.41C62.436 13.3652 62.4786 13.3071 62.5048 13.2412C62.5442 13.1528 62.5634 13.0567 62.5611 12.96V11.835H63.4723V12.8925C63.4559 13.0529 63.5092 13.2127 63.6186 13.3312C63.7548 13.4583 63.9396 13.5199 64.1248 13.5C64.1843 13.5118 64.2454 13.5118 64.3048 13.5C64.3648 13.4855 64.4194 13.4542 64.4623 13.41C64.5087 13.3602 64.5467 13.3032 64.5748 13.2412C64.5889 13.1593 64.5889 13.0756 64.5748 12.9937V11.8687H65.4861V12.9937C65.4777 13.1506 65.5395 13.3032 65.6548 13.41C65.8072 13.5015 65.9837 13.5447 66.1611 13.5337H66.5211V14.445H66.1611C65.9409 14.4508 65.7211 14.4243 65.5086 14.3662C65.3285 14.315 65.1629 14.2226 65.0248 14.0962C64.8983 14.2122 64.7488 14.3004 64.5861 14.355C64.4211 14.4183 64.2453 14.4488 64.0686 14.445C63.8669 14.4503 63.6657 14.4237 63.4723 14.3662C63.3001 14.3123 63.1424 14.22 63.0111 14.0962C62.8824 14.2035 62.7383 14.2907 62.5836 14.355C62.4285 14.4119 62.265 14.4423 62.0998 14.445C61.8935 14.4534 61.6874 14.4229 61.4923 14.355C61.3253 14.3 61.1692 14.2162 61.0311 14.1075C60.7048 14.3434 60.3084 14.4623 59.9061 14.445H59.4336L59.4336 13.5Z" fill="black"/>
<path fill-rule="evenodd" clip-rule="evenodd" d="M67.5787 9.10107L66.915 9.76482L67.5787 10.4398L68.2537 9.77607L67.5787 9.10107ZM68.4787 11.3623V11.2498L67.7587 11.5986C67.7622 11.651 67.7622 11.7036 67.7587 11.7561C67.815 11.8236 67.815 11.9023 67.815 11.9811V12.2398V12.5098V12.7573C67.82 12.8247 67.82 12.8924 67.815 12.9598C67.8353 13.0601 67.8353 13.1633 67.815 13.2636C67.7753 13.3271 67.726 13.384 67.6687 13.4323C67.6168 13.4644 67.5597 13.4872 67.5 13.4998H66.375V14.3323H67.1287C67.3018 14.3362 67.4739 14.3056 67.635 14.2423C67.8035 14.1855 67.9599 14.0978 68.0962 13.9836C68.2323 13.8511 68.3429 13.6947 68.4225 13.5223C68.5066 13.3152 68.5486 13.0934 68.5462 12.8698V12.5773V12.2511L68.4787 11.9023C68.4861 11.8012 68.4861 11.6997 68.4787 11.5986V11.3623Z" fill="black"/>
<path fill-rule="evenodd" clip-rule="evenodd" d="M74.16 11.5198L73.5412 10.901L74.1487 10.2598L74.7787 10.901L74.16 11.5198ZM78.5362 11.8235V12.9485C78.5234 13.023 78.5234 13.0991 78.5362 13.1735C78.5594 13.2288 78.5938 13.2787 78.6375 13.3198C78.6727 13.3624 78.7196 13.3937 78.7725 13.4098C78.813 13.4378 78.859 13.457 78.9075 13.466H79.0312H79.3462V14.3773H78.8512L78.5587 14.321L78.2887 14.2198C78.2014 14.1767 78.1216 14.1197 78.0525 14.051C77.7319 14.2983 77.3313 14.4185 76.9275 14.3885H72.765C72.5887 14.3869 72.4139 14.3565 72.2475 14.2985C72.0863 14.2421 71.9401 14.1498 71.82 14.0285C71.7658 13.9773 71.7168 13.9207 71.6737 13.8598C71.5505 13.7014 71.4657 13.5165 71.4262 13.3198C71.4084 13.1929 71.4084 13.0641 71.4262 12.9373C71.4109 12.8027 71.4109 12.6668 71.4262 12.5323C71.4262 12.3973 71.4262 12.2623 71.505 12.1273C71.5429 12.0623 71.5443 12.0052 71.5456 11.9534C71.547 11.8975 71.5483 11.8477 71.595 11.801C71.6635 11.7325 71.6277 11.677 71.6067 11.6445C71.6001 11.6343 71.595 11.6264 71.595 11.621L72.0337 11.7673L72.4725 11.9023C72.4725 11.9698 72.4725 12.0485 72.3937 12.1385L72.3262 12.4198V12.7123C72.3223 12.7872 72.3223 12.8623 72.3262 12.9373C72.3059 13.0337 72.3059 13.1333 72.3262 13.2298C72.3512 13.2932 72.3942 13.348 72.45 13.3873C72.4892 13.4282 72.5404 13.4558 72.5962 13.466H72.7537H76.9612C77.0768 13.4841 77.1944 13.4841 77.31 13.466C77.3913 13.4518 77.466 13.4125 77.5237 13.3535C77.5844 13.2773 77.6127 13.1804 77.6025 13.0835V11.8235H78.5362ZM75.0825 10.8898L75.7012 11.5198L76.3312 10.8898L75.69 10.2598L75.0825 10.8898Z" fill="black"/>
<path d="M80.8424 13.4998C80.8784 13.4848 80.9189 13.4848 80.9549 13.4998C80.9681 13.5323 80.9681 13.5686 80.9549 13.601V14.231C80.973 14.2664 80.973 14.3082 80.9549 14.3435C80.9189 14.3585 80.8784 14.3585 80.8424 14.3435H79.3125C79.2717 14.352 79.2293 14.3393 79.1999 14.3099C79.1704 14.2804 79.1578 14.2381 79.1662 14.1973V13.5673C79.1565 13.5342 79.1565 13.4991 79.1662 13.466C79.2022 13.451 79.2427 13.451 79.2787 13.466L80.8424 13.4998Z" fill="black"/>
<path d="M82.3725 13.5002C82.4092 13.4889 82.4484 13.4889 82.485 13.5002C82.4947 13.5333 82.4947 13.5684 82.485 13.6015V14.2315C82.5 14.2675 82.5 14.308 82.485 14.344C82.4484 14.3552 82.4092 14.3552 82.3725 14.344H80.8313C80.7904 14.3524 80.7481 14.3397 80.7187 14.3103C80.6892 14.2808 80.6766 14.2385 80.685 14.1977V13.5677C80.6753 13.5346 80.6753 13.4995 80.685 13.4665C80.721 13.4515 80.7615 13.4515 80.7975 13.4665L82.3725 13.5002Z" fill="black"/>
<path fill-rule="evenodd" clip-rule="evenodd" d="M83.5538 8.84248L84.2063 8.16748L84.8925 8.85373L84.2175 9.51748L83.5538 8.84248ZM82.26 14.3662V13.5H83.7675C83.9398 13.5132 84.1128 13.5132 84.285 13.5C84.4002 13.481 84.5132 13.4509 84.6225 13.41C84.6926 13.3795 84.7572 13.3377 84.8138 13.2862C84.8545 13.2469 84.8887 13.2014 84.915 13.1512C84.6235 13.1847 84.3291 13.1847 84.0375 13.1512C83.8027 13.1245 83.5764 13.0478 83.3738 12.9262C83.196 12.8177 83.0519 12.6619 82.9575 12.4762C82.853 12.2711 82.8026 12.0426 82.8113 11.8125C82.8072 11.6117 82.8456 11.4124 82.9238 11.2275C82.9932 11.0265 83.1044 10.8425 83.25 10.6875C83.3869 10.5464 83.5516 10.4353 83.7338 10.3612C83.9261 10.2823 84.1337 10.2477 84.3413 10.26C84.5215 10.2677 84.6997 10.3018 84.87 10.3612C85.0129 10.4235 85.1457 10.5069 85.2638 10.6087C85.3718 10.7098 85.463 10.8275 85.5338 10.9575C85.6099 11.0926 85.6703 11.2361 85.7138 11.385C85.7583 11.5438 85.7921 11.7054 85.815 11.8687C85.8262 12.0373 85.8262 12.2064 85.815 12.375V12.6562C85.8029 12.948 85.7341 13.2345 85.6125 13.5C85.5025 13.7101 85.3445 13.8912 85.1513 14.0287C84.9546 14.1549 84.7377 14.2462 84.51 14.2987C84.2614 14.3445 84.0091 14.3671 83.7563 14.3662H82.26ZM84.1163 11.1712C84.2021 11.1596 84.2892 11.1596 84.375 11.1712C84.4952 11.1616 84.6158 11.185 84.7238 11.2387C84.8033 11.3096 84.865 11.3982 84.9038 11.4975C84.9456 11.6065 84.9758 11.7196 84.9938 11.835V12.1725C84.6776 12.2631 84.3424 12.2631 84.0263 12.1725C83.823 12.1119 83.685 11.9233 83.6888 11.7112C83.6834 11.625 83.7029 11.5391 83.745 11.4637C83.7781 11.3925 83.8283 11.3306 83.8913 11.2837C83.9561 11.2287 84.0333 11.1901 84.1163 11.1712Z" fill="black"/>
<path d="M88.4923 14.3661C88.2602 14.3852 88.0269 14.3852 87.7948 14.3661C87.6274 14.341 87.4644 14.2917 87.3111 14.2199C87.1884 14.1628 87.0806 14.0781 86.9961 13.9724C86.9127 13.8639 86.848 13.7422 86.8048 13.6124C86.7648 13.4651 86.7385 13.3145 86.7261 13.1624C86.7261 12.9824 86.7261 12.8024 86.7261 12.5886V9.06738H87.6486V12.5436C87.6349 12.7008 87.6349 12.8589 87.6486 13.0161C87.6525 13.1181 87.6879 13.2163 87.7498 13.2974C87.8223 13.3627 87.9122 13.4057 88.0086 13.4211C88.1695 13.4353 88.3314 13.4353 88.4923 13.4211V14.3661Z" fill="black"/>
<path fill-rule="evenodd" clip-rule="evenodd" d="M91.125 11.25C91.1315 11.2872 91.1315 11.3253 91.125 11.3625V11.5988V11.9025V12.2513V12.5775V12.87C91.1273 13.0936 91.0853 13.3153 91.0012 13.5225C90.9216 13.6949 90.811 13.8512 90.675 13.9838C90.5387 14.098 90.3822 14.1857 90.2137 14.2425C90.0524 14.3049 89.8804 14.3355 89.7075 14.3325H88.335V13.5H90.0787C90.1384 13.4874 90.1955 13.4646 90.2475 13.4325C90.3017 13.3812 90.3507 13.3247 90.3937 13.2638C90.4329 13.1674 90.4521 13.064 90.45 12.96C90.455 12.8926 90.455 12.8249 90.45 12.7575V12.51C90.4554 12.4201 90.4554 12.3299 90.45 12.24V11.9813V11.7563V11.5988L91.125 11.25ZM89.145 16.335L88.47 15.75L89.0775 15.12L89.7075 15.75L89.145 16.335ZM90 15.75L90.6862 16.335L91.2375 15.75L90.6075 15.12L90 15.75Z" fill="black"/>
<path d="M94.3312 14.1412C94.3165 14.4569 94.252 14.7683 94.1399 15.0638C94.0369 15.3201 93.884 15.5534 93.6899 15.75C93.4875 15.9449 93.2459 16.0944 92.9812 16.1888C92.6818 16.2965 92.3656 16.3499 92.0474 16.3463H91.5974V15.4237H92.0474C92.2556 15.4267 92.4635 15.404 92.6662 15.3563C92.8248 15.3193 92.9694 15.2373 93.0824 15.12C93.197 15.003 93.2819 14.8603 93.3299 14.7037C93.3766 14.4934 93.3918 14.2773 93.3749 14.0625V11.8125H94.2974L94.3312 14.1412Z" fill="black"/>
<path d="M96.3787 14.3773H96.0975H95.8275L95.535 14.3098L95.2312 14.2198L94.7925 14.0848L95.0512 13.2073C95.2689 13.2829 95.4905 13.3468 95.715 13.3986C95.9288 13.4551 96.1471 13.4927 96.3675 13.5111C96.5425 13.5402 96.7212 13.5402 96.8962 13.5111C97.0242 13.4955 97.135 13.4145 97.1887 13.2973C97.2056 13.2578 97.2056 13.2131 97.1887 13.1736C97.1718 13.1134 97.1452 13.0564 97.11 13.0048L95.7375 11.0136L96.5025 10.5073L96.7612 10.8898V10.9686L96.8737 11.1373L97.065 11.4186L97.3575 11.8573L97.875 12.3748C97.9935 12.5513 98.074 12.7505 98.1112 12.9598C98.1466 13.263 98.0573 13.5675 97.8637 13.8036C97.7951 13.8925 97.7113 13.9687 97.6162 14.0286C97.4252 14.1531 97.2109 14.2373 96.9862 14.2761C96.7871 14.3275 96.5838 14.3614 96.3787 14.3773Z" fill="black"/>
<path d="M43.5712 32.0736L42.0862 29.1036C41.8179 28.5663 41.2692 28.2267 40.6687 28.2261H25.0875C24.8668 28.2269 24.662 28.3412 24.5455 28.5287C24.4289 28.7161 24.4169 28.9502 24.5137 29.1486L25.515 31.0948C26.055 32.136 27.1321 32.7875 28.305 32.7823H43.1212C43.2919 32.7835 43.4511 32.6968 43.5426 32.5527C43.6341 32.4086 43.6449 32.2275 43.5712 32.0736Z" fill="black"/>
<path d="M35.3475 34.335H33.0188C32.7932 34.3349 32.6086 34.5145 32.6025 34.74V36.99C32.6086 37.2154 32.7932 37.395 33.0188 37.395H35.3475C35.5731 37.395 35.7577 37.2154 35.7638 36.99V34.74C35.7577 34.5145 35.5731 34.3349 35.3475 34.335Z" fill="black"/>
<path d="M97.3237 28.2265H80.3587C80.2647 28.229 80.1756 28.1844 80.1213 28.1075C80.0671 28.0306 80.0548 27.9317 80.0887 27.844C80.3523 27.096 80.4854 26.3083 80.4825 25.5152V23.1865C80.4825 22.8944 80.2458 22.6577 79.9537 22.6577H76.3537C76.0617 22.6577 75.825 22.8944 75.825 23.1865V25.549C75.8126 27.0313 74.6074 28.2265 73.125 28.2265H71.5612C71.47 28.2276 71.3839 28.1844 71.3302 28.1107C71.2766 28.0369 71.262 27.9416 71.2912 27.8552C71.5422 27.1315 71.6715 26.3712 71.6737 25.6052V23.2427C71.6738 23.1005 71.6165 22.9643 71.5149 22.8648C71.4133 22.7653 71.2759 22.7109 71.1337 22.714H67.5C67.2061 22.7139 66.9661 22.9489 66.96 23.2427V25.5715C66.957 26.2885 66.6678 26.9747 66.1566 27.4774C65.6453 27.9802 64.9545 28.258 64.2375 28.249H53.7975C53.197 28.2496 52.6483 28.5892 52.38 29.1265L50.895 32.0965C50.8213 32.2504 50.8321 32.4315 50.9236 32.5756C51.015 32.7196 51.1743 32.8064 51.345 32.8052H64.26C66.4712 32.813 68.5722 31.8408 69.9975 30.1502L71.0325 32.2202C71.2034 32.56 71.5521 32.7736 71.9325 32.7715H73.0575C75.3981 32.7821 77.6071 31.6901 79.02 29.824L80.0775 32.209C80.2371 32.57 80.594 32.8035 80.9887 32.8052H94.1062C95.2834 32.8047 96.3629 32.1501 96.9075 31.1065L97.875 29.149C97.9768 28.9547 97.9703 28.7215 97.8578 28.5333C97.7453 28.345 97.543 28.2288 97.3237 28.2265Z" fill="black"/>
<path d="M78.0524 34.335H71.7749C71.5493 34.3349 71.3647 34.5145 71.3586 34.74V36.99C71.3647 37.2154 71.5493 37.395 71.7749 37.395H78.0524C78.278 37.395 78.4625 37.2154 78.4686 36.99V34.74C78.4625 34.5145 78.278 34.3349 78.0524 34.335Z" fill="black"/>
<path d="M43.5038 34.335H37.2263C37.0007 34.3349 36.8162 34.5145 36.8101 34.74V36.99C36.8162 37.2154 37.0007 37.395 37.2263 37.395H43.5038C43.7294 37.395 43.914 37.2154 43.9201 36.99V34.74C43.914 34.5145 43.7294 34.3349 43.5038 34.335Z" fill="black"/>
<path d="M62.5162 34.3351H60.1987C60.0894 34.3321 59.9834 34.3734 59.905 34.4497C59.8266 34.526 59.7824 34.6307 59.7825 34.7401V36.9901C59.7824 37.0995 59.8266 37.2043 59.905 37.2805C59.9834 37.3568 60.0894 37.3982 60.1987 37.3951H62.5162C62.6256 37.3982 62.7315 37.3568 62.8099 37.2805C62.8883 37.2043 62.9325 37.0995 62.9325 36.9901V34.7401C62.9325 34.6307 62.8883 34.526 62.8099 34.4497C62.7315 34.3734 62.6256 34.3321 62.5162 34.3351Z" fill="black"/>
<path d="M49.1737 18.2813H45.3149C45.0956 18.2812 44.916 18.4557 44.9099 18.675V32.3438C44.916 32.5879 45.1157 32.7826 45.3599 32.7825H49.1287C49.371 32.7825 49.5674 32.5861 49.5674 32.3438V18.675C49.5674 18.4575 49.3911 18.2813 49.1737 18.2813Z" fill="black"/>
<path d="M120.375 20.059C123.028 22.4465 123.744 26.3198 122.119 29.4977C126.315 22.489 124.729 16.9765 124.729 16.9765C115.616 12.409 110.498 16.3015 110.498 16.3015C114.141 16.2898 117.66 17.6284 120.375 20.059Z" fill="black"/>
<path d="M110.059 21.5665C112.416 18.895 116.29 18.1713 119.452 19.8115C112.477 15.5927 106.999 17.179 106.999 17.179C102.499 26.3477 106.324 31.489 106.324 31.489C106.309 27.8351 107.638 24.3034 110.059 21.5665Z" fill="black"/>
<path d="M111.679 31.7815C109.027 29.3985 108.307 25.5315 109.924 22.354C105.75 29.3515 107.325 34.8753 107.325 34.8753C116.438 39.4428 121.545 35.5503 121.545 35.5503C117.903 35.5582 114.388 34.2154 111.679 31.7815Z" fill="black"/>
<path d="M125.775 20.3291C125.789 23.9848 124.455 27.5175 122.029 30.2516C119.675 32.9213 115.806 33.645 112.646 32.0066C119.61 36.2254 125.1 34.6279 125.1 34.6279C129.645 25.4704 125.775 20.3291 125.775 20.3291Z" fill="black"/>
<path d="M122.535 6.96387C116.021 7.08762 115.594 12.7801 115.594 12.7801C122.141 13.3314 122.535 6.96387 122.535 6.96387Z" fill="black"/>
<rect x="0.5" y="0.5" width="150.875" height="44" rx="3.5" stroke="#E0E0E0"/>
</svg>
