<svg width="30" height="18" viewBox="0 0 30 18" fill="none" xmlns="http://www.w3.org/2000/svg">
<rect width="30" height="18" rx="9" fill="#ECFFF2"/>
<path d="M9.86136 12.0682H9.49318C9.09015 12.0682 8.7053 11.8909 8.33864 11.5364C8.23864 11.6545 8.11894 11.753 7.97955 11.8318C7.84318 11.9076 7.69621 11.9682 7.53864 12.0136C7.38106 12.0591 7.22045 12.0909 7.05682 12.1091C6.89621 12.1273 6.74167 12.1364 6.59318 12.1364C6.47803 12.1364 6.36136 12.1288 6.24318 12.1136C6.125 12.1015 5.99015 12.0788 5.83864 12.0455C5.69015 12.0152 5.51894 11.9742 5.325 11.9227C5.13106 11.8682 4.89924 11.8 4.62955 11.7182L4.95682 10.6318C5.14167 10.7045 5.33258 10.7697 5.52955 10.8273C5.72652 10.8818 5.91894 10.9273 6.10682 10.9636C6.2947 10.997 6.475 11.0182 6.64773 11.0273C6.71742 11.0333 6.78409 11.0364 6.84773 11.0364C6.94167 11.0364 7.04318 11.0288 7.15227 11.0136C7.26136 10.9985 7.36288 10.9667 7.45682 10.9182C7.55379 10.8667 7.61894 10.7985 7.65227 10.7136C7.66742 10.6773 7.675 10.6439 7.675 10.6136C7.675 10.5864 7.66591 10.553 7.64773 10.5136C7.63258 10.4742 7.60682 10.4273 7.57045 10.3727C7.53409 10.3152 7.48712 10.2409 7.42955 10.15L5.81591 7.88182L6.77045 7.26818L8.39318 9.72727C8.48106 9.86061 8.57348 9.99848 8.67045 10.1409C8.76742 10.2833 8.86439 10.4136 8.96136 10.5318C9.05833 10.647 9.15227 10.7424 9.24318 10.8182C9.33409 10.8939 9.41742 10.9318 9.49318 10.9318H9.86136V12.0682ZM13.052 8.25C13.058 8.27121 13.0702 8.32121 13.0884 8.4C13.1096 8.47879 13.1323 8.57576 13.1565 8.69091C13.1808 8.80303 13.205 8.92879 13.2293 9.06818C13.2565 9.20758 13.2808 9.34848 13.302 9.49091C13.3262 9.6303 13.3444 9.76667 13.3565 9.9C13.3717 10.0333 13.3793 10.15 13.3793 10.25C13.3793 10.5621 13.3277 10.8333 13.2247 11.0636C13.1217 11.2909 12.9868 11.4788 12.8202 11.6273C12.6535 11.7758 12.4656 11.8864 12.2565 11.9591C12.0505 12.0318 11.8429 12.0682 11.6338 12.0682H9.67472V10.9364H11.6656C11.702 10.9364 11.7535 10.9318 11.8202 10.9227C11.8899 10.9106 11.958 10.8818 12.0247 10.8364C12.0944 10.7909 12.155 10.7227 12.2065 10.6318C12.258 10.5379 12.2838 10.4106 12.2838 10.25C12.2838 10.1833 12.2777 10.103 12.2656 10.0091C12.2565 9.91212 12.2429 9.80909 12.2247 9.7C12.2065 9.59091 12.1853 9.4803 12.1611 9.36818C12.1399 9.25303 12.1187 9.14545 12.0974 9.04545C12.0762 8.94242 12.055 8.85 12.0338 8.76818C12.0126 8.68333 11.9959 8.61818 11.9838 8.57273L13.052 8.25ZM12.5247 14.5409L11.7611 13.7682L12.5156 12.9864L13.2974 13.7682L12.5247 14.5409ZM10.6202 14.5455L9.85653 13.7727L10.6065 12.9909L11.3884 13.7727L10.6202 14.5455ZM19.1973 12.0682H18.8291C18.4261 12.0682 18.0412 11.8909 17.6746 11.5364C17.5746 11.6545 17.4549 11.753 17.3155 11.8318C17.1791 11.9076 17.0321 11.9682 16.8746 12.0136C16.717 12.0591 16.5564 12.0909 16.3928 12.1091C16.2321 12.1273 16.0776 12.1364 15.9291 12.1364C15.814 12.1364 15.6973 12.1288 15.5791 12.1136C15.4609 12.1015 15.3261 12.0788 15.1746 12.0455C15.0261 12.0152 14.8549 11.9742 14.6609 11.9227C14.467 11.8682 14.2352 11.8 13.9655 11.7182L14.2928 10.6318C14.4776 10.7045 14.6685 10.7697 14.8655 10.8273C15.0625 10.8818 15.2549 10.9273 15.4428 10.9636C15.6306 10.997 15.8109 11.0182 15.9837 11.0273C16.0534 11.0333 16.12 11.0364 16.1837 11.0364C16.2776 11.0364 16.3791 11.0288 16.4882 11.0136C16.5973 10.9985 16.6988 10.9667 16.7928 10.9182C16.8897 10.8667 16.9549 10.7985 16.9882 10.7136C17.0034 10.6773 17.0109 10.6439 17.0109 10.6136C17.0109 10.5864 17.0018 10.553 16.9837 10.5136C16.9685 10.4742 16.9428 10.4273 16.9064 10.3727C16.87 10.3152 16.8231 10.2409 16.7655 10.15L15.1518 7.88182L16.1064 7.26818L17.7291 9.72727C17.817 9.86061 17.9094 9.99848 18.0064 10.1409C18.1034 10.2833 18.2003 10.4136 18.2973 10.5318C18.3943 10.647 18.4882 10.7424 18.5791 10.8182C18.67 10.8939 18.7534 10.9318 18.8291 10.9318H19.1973V12.0682ZM25.2879 10.2591C25.2697 10.2712 25.191 10.3242 25.0516 10.4182C24.9122 10.5121 24.7273 10.6273 24.497 10.7636C24.2667 10.897 23.997 11.0394 23.6879 11.1909C23.3788 11.3424 23.0455 11.4833 22.6879 11.6136C22.3304 11.7439 21.9561 11.853 21.5652 11.9409C21.1743 12.0258 20.7819 12.0682 20.3879 12.0682H19.0107V10.9364H20.3879C20.6849 10.9364 21.0016 10.9061 21.3379 10.8455C21.6743 10.7848 22.0061 10.7076 22.3334 10.6136C22.6607 10.5167 22.9713 10.4091 23.2652 10.2909C23.5622 10.1727 23.8197 10.0561 24.0379 9.94091C23.8985 9.89848 23.747 9.85303 23.5834 9.80455C23.4228 9.75303 23.2576 9.70303 23.0879 9.65455C22.9182 9.60303 22.75 9.55455 22.5834 9.50909C22.4167 9.46061 22.2607 9.41818 22.1152 9.38182C21.9697 9.34545 21.8394 9.31667 21.7243 9.29545C21.6091 9.27424 21.5182 9.26364 21.4516 9.26364C21.3819 9.26364 21.3197 9.27273 21.2652 9.29091C21.2137 9.30606 21.1667 9.33333 21.1243 9.37273C21.0819 9.40909 21.0425 9.45758 21.0061 9.51818C20.9697 9.57879 20.9319 9.65152 20.8925 9.73636L19.8516 9.42273C19.9091 9.24091 19.9788 9.07121 20.0607 8.91364C20.1455 8.75303 20.247 8.61364 20.3652 8.49545C20.4864 8.37727 20.6258 8.28485 20.7834 8.21818C20.941 8.14848 21.1213 8.11364 21.3243 8.11364C21.4031 8.11364 21.5152 8.1303 21.6607 8.16364C21.8061 8.19697 21.9713 8.24091 22.1561 8.29545C22.341 8.35 22.5379 8.41212 22.747 8.48182C22.9591 8.55152 23.1713 8.62424 23.3834 8.7C23.5955 8.77576 23.8016 8.85 24.0016 8.92273C24.2016 8.99545 24.3819 9.06212 24.5425 9.12273C24.7031 9.1803 24.8379 9.22879 24.947 9.26818C25.0561 9.30758 25.1258 9.33182 25.1561 9.34091L25.2879 10.2591ZM21.3379 13.6273L22.1561 12.8L22.9925 13.6364L22.1652 14.4636L21.3379 13.6273Z" fill="#029D53"/>
</svg>
