<svg width="120" height="120" viewBox="0 0 120 120" fill="none" xmlns="http://www.w3.org/2000/svg">
    <rect width="120" height="120" fill="white"/>
    <path fill-rule="evenodd" clip-rule="evenodd" d="M33.0987 34.315C31.3428 33.628 31.426 31.1153 33.2235 30.5459L59.5998 22.1907C59.9916 22.0666 60.4122 22.0662 60.8043 22.1897L87.3448 30.545C89.147 31.1124 89.23 33.6319 87.4691 34.3167L60.929 44.6378C60.4613 44.8197 59.9425 44.8192 59.4753 44.6363L33.0987 34.315ZM22 38.9791C22 37.5775 23.4044 36.6106 24.7137 37.1108L56.5021 49.2546C57.2767 49.5506 57.7884 50.2938 57.7884 51.123V95.095C57.7884 96.4966 56.384 97.4635 55.0746 96.9633L23.2863 84.8194C22.5117 84.5235 22 83.7803 22 82.9511V38.9791ZM98.8028 82.9511C98.8028 83.7803 98.2911 84.5235 97.5165 84.8194L65.7282 96.9633C64.4188 97.4635 63.0144 96.4966 63.0144 95.095V51.1229C63.0144 50.2938 63.5261 49.5506 64.3007 49.2546L96.089 37.1108C97.3984 36.6106 98.8028 37.5775 98.8028 38.9791V82.9511Z" fill="#029D53" fill-opacity="0.1"/>
</svg>
