<svg width="37" height="20" viewBox="0 0 37 20" fill="none" xmlns="http://www.w3.org/2000/svg">
<path d="M9.25742 3.285C9.27076 3.32833 9.28409 3.37667 9.29742 3.43C9.33409 3.57667 9.36909 3.72667 9.40242 3.88C9.49909 4.33 9.54742 4.705 9.54742 5.005C9.54742 5.665 9.42076 6.18833 9.16742 6.575C8.84409 7.085 8.37576 7.34 7.76242 7.34C7.27242 7.34 6.84742 7.17833 6.48742 6.855L6.42742 6.8C6.13409 7.11 5.75742 7.29333 5.29742 7.35C5.19742 7.36333 5.11409 7.37 5.04742 7.37C4.97409 7.37 4.89409 7.365 4.80742 7.355C4.83742 7.80167 4.85576 8.27833 4.86242 8.785C4.86576 8.97833 4.86742 9.19 4.86742 9.42C4.86742 9.50667 4.86576 9.60667 4.86242 9.72V10C4.85909 10.09 4.85742 10.19 4.85742 10.3V10.57H3.21742V10.285C3.21742 10.175 3.21909 10.075 3.22242 9.985V9.84L3.22742 9.69V9.38C3.22742 9.14 3.22576 8.91833 3.22242 8.715C3.21576 8.17833 3.19242 7.675 3.15242 7.205C3.04909 5.955 2.82576 4.79 2.48242 3.71L4.04742 3.215C4.33076 4.31167 4.51076 4.96333 4.58742 5.17C4.72409 5.53667 4.88909 5.72167 5.08242 5.725C5.11909 5.725 5.15076 5.72167 5.17742 5.715C5.21742 5.705 5.25242 5.68833 5.28242 5.665C5.36576 5.59833 5.42242 5.48 5.45242 5.31C5.48242 5.15 5.49742 4.97167 5.49742 4.775C5.49742 4.68167 5.49409 4.585 5.48742 4.485C5.48076 4.36833 5.46909 4.22333 5.45242 4.05L5.42742 3.825L5.40242 3.595L6.98242 3.365C7.00242 3.58167 7.02909 3.80167 7.06242 4.025C7.10576 4.32167 7.15409 4.58333 7.20742 4.81C7.35076 5.42667 7.51576 5.73667 7.70242 5.74H7.70742C7.85076 5.74 7.92409 5.58167 7.92742 5.265C7.92742 4.94167 7.85242 4.39833 7.70242 3.635L9.23242 3.205C9.23909 3.22167 9.24742 3.24833 9.25742 3.285ZM12.8438 8.435C13.0605 8.435 13.2438 8.35833 13.3938 8.205C13.5472 8.05167 13.6238 7.86833 13.6238 7.655C13.6238 7.43833 13.5472 7.255 13.3938 7.105C13.2438 6.95167 13.0605 6.875 12.8438 6.875C12.6305 6.875 12.4472 6.95167 12.2938 7.105C12.1405 7.255 12.0638 7.43833 12.0638 7.655C12.0638 7.86833 12.1405 8.05167 12.2938 8.205C12.4472 8.35833 12.6305 8.435 12.8438 8.435ZM12.8438 5.235C13.5038 5.235 14.0738 5.47167 14.5538 5.945C15.0272 6.425 15.2638 6.995 15.2638 7.655C15.2638 8.32167 15.0272 8.89167 14.5538 9.365C14.0805 9.83833 13.5105 10.075 12.8438 10.075C12.1705 10.075 11.6005 9.83833 11.1338 9.365C10.6605 8.89833 10.4238 8.32833 10.4238 7.655C10.4238 6.98833 10.6605 6.41833 11.1338 5.945C11.6072 5.47167 12.1772 5.235 12.8438 5.235Z" fill="#FF6200"/>
<path d="M2.05854 16.1827C2.17309 16.0894 2.23036 15.9664 2.23036 15.8136V15.7977C2.22824 15.7341 2.21551 15.6492 2.19218 15.5432C2.18581 15.5114 2.17521 15.4626 2.16036 15.3968L2.14127 15.3141L2.12218 15.2282C1.7849 15.3448 1.56218 15.4573 1.454 15.5655C1.3543 15.6652 1.30445 15.7744 1.30445 15.8932V15.9155C1.31081 16.0406 1.36596 16.1424 1.4699 16.2209C1.53566 16.2697 1.62051 16.2941 1.72445 16.2941C1.85384 16.2941 1.96521 16.257 2.05854 16.1827ZM3.14672 15.0436C3.16369 15.1158 3.1849 15.208 3.21036 15.3205L3.24218 15.4509L3.27081 15.575C3.31536 15.7659 3.35778 15.9377 3.39809 16.0905C3.44475 16.2623 3.52854 16.3736 3.64945 16.4245C3.72157 16.4564 3.81384 16.4786 3.92627 16.4914C4.00263 16.4998 4.10445 16.5041 4.23172 16.5041V17.5477C4.04081 17.5477 3.87642 17.5382 3.73854 17.5191C3.54763 17.4936 3.37581 17.447 3.22309 17.3791C3.01945 17.2858 2.84975 17.1585 2.71399 16.9973L2.67581 16.9527C2.56763 17.0482 2.4446 17.1245 2.30672 17.1818C2.13066 17.2518 1.944 17.2868 1.74672 17.2868L1.7149 17.2836H1.6799C1.43809 17.273 1.21854 17.2147 1.02127 17.1086C0.652177 16.9156 0.425207 16.6123 0.340359 16.1986C0.317025 16.0883 0.305359 15.9791 0.305359 15.8709C0.305359 15.7288 0.32551 15.5898 0.365813 15.4541C0.444298 15.2144 0.581116 15.0012 0.776268 14.8145C0.99051 14.6088 1.36278 14.4211 1.89309 14.2514L1.83263 13.9714L2.85081 13.7391C2.97172 14.2694 3.07036 14.7042 3.14672 15.0436ZM5.9065 16.415C6.11862 16.3577 6.26923 16.2718 6.35832 16.1573C6.42196 16.0745 6.45377 15.9717 6.45377 15.8486C6.45377 15.7002 6.41135 15.5739 6.3265 15.47C6.22681 15.347 6.08681 15.2855 5.9065 15.2855C5.7262 15.2855 5.5862 15.347 5.4865 15.47C5.40165 15.5739 5.35923 15.7002 5.35923 15.8486C5.35923 15.9717 5.39211 16.0745 5.45787 16.1573C5.54484 16.2718 5.69438 16.3577 5.9065 16.415ZM5.9065 14.2418C6.36681 14.2418 6.74544 14.3998 7.04241 14.7159C7.3309 15.0214 7.47514 15.3989 7.47514 15.8486C7.47514 16.0905 7.43059 16.3089 7.3415 16.5041H7.72014V17.5477H7.25877C6.7412 17.5477 6.29044 17.4894 5.9065 17.3727C5.54377 17.4894 5.09196 17.5477 4.55105 17.5477H4.08968V16.5041H4.46832C4.37923 16.3089 4.33468 16.0905 4.33468 15.8486C4.33468 15.3989 4.47893 15.0214 4.76741 14.7159C5.0665 14.3998 5.4462 14.2418 5.9065 14.2418ZM6.55877 13.8727L5.93514 13.2427L6.55241 12.6064L7.18877 13.2427L6.55877 13.8727ZM5.22559 13.8759L4.60196 13.2459L5.21605 12.6095L5.85241 13.2459L5.22559 13.8759ZM10.1606 16.2145C10.1606 16.3164 10.185 16.3885 10.2338 16.4309C10.2889 16.4797 10.3865 16.5041 10.5265 16.5041H10.991V17.5477H10.5265C10.3886 17.5477 10.2582 17.5329 10.1351 17.5032C10.0376 17.4798 9.94635 17.447 9.8615 17.4045C9.76393 17.3579 9.69074 17.3112 9.64196 17.2645C9.59317 17.3112 9.51468 17.3579 9.4065 17.4045C9.19226 17.5 8.93771 17.5477 8.64287 17.5477H7.57377V16.5041H8.71605C8.86877 16.5041 8.9759 16.4786 9.03741 16.4277C9.09256 16.3832 9.12014 16.3121 9.12014 16.2145V15.3491H10.1606V16.2145ZM9.74377 19.3868L9.12014 18.7568L9.73741 18.1205L10.3738 18.7568L9.74377 19.3868ZM8.40105 19.39L7.77741 18.76L8.3915 18.1236L9.02787 18.76L8.40105 19.39ZM13.2495 15.4032L13.2432 15.33C13.2368 15.277 13.2304 15.2292 13.2241 15.1868C13.2071 15.0744 13.1827 14.98 13.1509 14.9036C13.0703 14.7021 12.9271 14.5918 12.7213 14.5727L12.6895 14.5695H12.6609C12.523 14.5695 12.4138 14.6109 12.3332 14.6936C12.261 14.77 12.225 14.8665 12.225 14.9832V15.0118C12.2335 15.2176 12.3374 15.3512 12.5368 15.4127C12.6619 15.4509 12.9016 15.47 13.2559 15.47L13.2495 15.4032ZM12.7182 13.58C13.2972 13.58 13.7172 13.8335 13.9782 14.3405C14.1733 14.7159 14.2709 15.2027 14.2709 15.8009C14.2709 16.4436 14.0248 16.9156 13.5327 17.2168C13.17 17.4374 12.7235 17.5477 12.1932 17.5477H10.8568V16.5041H12.1932C12.5474 16.5041 12.8094 16.4808 12.9791 16.4341C12.4933 16.4341 12.0966 16.3302 11.7891 16.1223C11.4242 15.8741 11.2418 15.5092 11.2418 15.0277C11.2418 14.8856 11.2619 14.7414 11.3022 14.595C11.351 14.4168 11.4263 14.2588 11.5282 14.1209C11.7891 13.7603 12.1857 13.58 12.7182 13.58ZM13.1827 13.2491L12.5591 12.6191L13.1763 11.9827L13.8127 12.6191L13.1827 13.2491ZM11.8495 13.2523L11.2259 12.6223L11.84 11.9859L12.4763 12.6223L11.8495 13.2523ZM16.4036 13.8886L16.4609 13.9714C16.4736 13.9905 16.4853 14.0064 16.4959 14.0191C16.5108 14.0403 16.5246 14.0615 16.5373 14.0827C16.5733 14.1336 16.6115 14.1867 16.6518 14.2418C16.7558 14.3924 16.8714 14.5589 16.9986 14.7414C17.1641 14.9747 17.3444 15.2303 17.5396 15.5082C17.6923 15.7288 17.7792 15.9589 17.8005 16.1986C17.8047 16.2411 17.8068 16.2835 17.8068 16.3259C17.8068 16.5253 17.7612 16.7141 17.67 16.8923C17.5576 17.1065 17.3964 17.273 17.1864 17.3918C16.9742 17.5127 16.7367 17.5732 16.4736 17.5732C16.1682 17.5732 15.7705 17.5095 15.2805 17.3823C15.1341 17.3441 14.9867 17.3017 14.8382 17.255C14.7915 17.2423 14.747 17.2285 14.7046 17.2136C14.6897 17.2094 14.677 17.2062 14.6664 17.2041L14.6568 17.1977H14.6505L14.9846 16.2082C15.0652 16.2358 15.1596 16.2655 15.2677 16.2973C15.4014 16.3355 15.5329 16.3705 15.6623 16.4023C16.0102 16.4871 16.2806 16.5295 16.4736 16.5295C16.6115 16.5295 16.7017 16.4903 16.7441 16.4118C16.7589 16.3821 16.7664 16.3503 16.7664 16.3164C16.7664 16.2548 16.7399 16.1859 16.6868 16.1095C16.4917 15.8317 16.3114 15.575 16.1459 15.3395C16.0208 15.1614 15.9041 14.9948 15.7959 14.84C15.6262 14.6003 15.5414 14.4794 15.5414 14.4773L16.4036 13.8886Z" fill="#FF6200"/>
<path fill-rule="evenodd" clip-rule="evenodd" d="M21.6225 2.55566C21.6225 2.55566 19.1868 6.63235 21.0522 9.80861L22.9989 13.1234C21.2858 14.1421 20.6824 16.3237 21.6578 18.0498L22.1329 18.8169C23.1506 17.0838 24.6335 16.6509 25.02 16.5648L25.2898 17.0242C25.2898 17.0242 27.0665 16.9715 29.3331 15.685C31.5997 14.3986 32.5345 12.9122 32.5345 12.9122L32.2684 12.4591C32.5586 12.1511 33.6743 11.1256 35.6665 11.1203L35.2331 10.3265C34.2088 8.61739 31.9928 8.04233 30.2446 9.01304L28.2969 5.69662C26.4654 2.57804 21.6225 2.55566 21.6225 2.55566ZM23.0483 9.07663C22.4689 8.08997 22.8063 6.83282 23.8024 6.26748C24.7984 5.70214 26.0746 6.04342 26.654 7.03008C27.2335 8.01674 26.896 9.27389 25.9 9.83923C24.9039 10.4046 23.6278 10.0633 23.0483 9.07663ZM30.8365 15.3336C30.821 15.3057 30.6462 15.4476 30.421 15.6306L30.4209 15.6306C30.1709 15.8337 29.8587 16.0873 29.6324 16.2157C29.4169 16.3381 29.0601 16.466 28.7632 16.5724C28.4677 16.6783 28.2316 16.763 28.2532 16.7997C29.2307 18.4638 30.8101 18.3058 30.8101 18.3058C30.8101 18.3058 31.8097 17.0609 30.8365 15.3336Z" fill="url(#paint0_linear_19069_6118)"/>
<defs>
<linearGradient id="paint0_linear_19069_6118" x1="21.8532" y1="2.42449" x2="29.4049" y2="15.7295" gradientUnits="userSpaceOnUse">
<stop stop-color="#FF3D00"/>
<stop offset="1" stop-color="#FF9600"/>
</linearGradient>
</defs>
</svg>
