<svg width="94" height="105" viewBox="0 0 94 105" fill="none" xmlns="http://www.w3.org/2000/svg">
<path d="M81.8003 19.3999H51.8003C45.1729 19.3999 39.8003 24.7725 39.8003 31.3999V92.5999C39.8003 99.2273 45.1729 104.6 51.8003 104.6H81.8003C88.4277 104.6 93.8003 99.2273 93.8003 92.5999V31.3999C93.8003 24.7725 88.4277 19.3999 81.8003 19.3999Z" fill="#262625" fill-opacity="0.1"/>
<path d="M77.6003 16.3999H48.8003C42.1729 16.3999 36.8003 21.7725 36.8003 28.3999V88.3999C36.8003 95.0273 42.1729 100.4 48.8003 100.4H77.6003C84.2277 100.4 89.6003 95.0273 89.6003 88.3999V28.3999C89.6003 21.7725 84.2277 16.3999 77.6003 16.3999Z" fill="white" stroke="#212121"/>
<path opacity="0.1" fill-rule="evenodd" clip-rule="evenodd" d="M79.4006 24.1999C82.0526 24.1999 84.2006 26.3479 84.2006 28.9999V88.9999C84.2006 91.6519 82.0526 93.7999 79.4006 93.7999C76.7486 93.7999 74.6006 91.6519 74.6006 88.9999V28.9999C74.6006 26.3479 76.7486 24.1999 79.4006 24.1999Z" fill="#262625"/>
<path fill-rule="evenodd" clip-rule="evenodd" d="M49.4004 15.7999H77.0004V19.3999C77.0004 22.7131 74.3136 25.3999 71.0004 25.3999H55.4004C52.0872 25.3999 49.4004 22.7131 49.4004 19.3999V15.7999Z" fill="#212121"/>
<path d="M77.0006 42.1999H72.2006C70.2124 42.1999 68.6006 43.8117 68.6006 45.7999V50.5999C68.6006 52.5881 70.2124 54.1999 72.2006 54.1999H77.0006C78.9888 54.1999 80.6006 52.5881 80.6006 50.5999V45.7999C80.6006 43.8117 78.9888 42.1999 77.0006 42.1999Z" fill="#A4F7DD" stroke="#212121"/>
<path d="M77.0006 62.5999H72.2006C70.2124 62.5999 68.6006 64.2117 68.6006 66.1999V70.9999C68.6006 72.9881 70.2124 74.5999 72.2006 74.5999H77.0006C78.9888 74.5999 80.6006 72.9881 80.6006 70.9999V66.1999C80.6006 64.2117 78.9888 62.5999 77.0006 62.5999Z" stroke="#212121"/>
<path d="M63.8003 49.3999H45.8003" stroke="#212121" stroke-linecap="round"/>
<path d="M83.6005 40.9999L74.6005 49.9999L71.0005 46.3999" stroke="#212121" stroke-linecap="round" stroke-linejoin="round"/>
<path d="M63.8003 69.7999H45.8003" stroke="#212121" stroke-linecap="round"/>
<path d="M63.2005 93.7999C65.5201 93.7999 67.4005 91.9195 67.4005 89.5999C67.4005 87.2803 65.5201 85.3999 63.2005 85.3999C60.8809 85.3999 59.0005 87.2803 59.0005 89.5999C59.0005 91.9195 60.8809 93.7999 63.2005 93.7999Z" fill="#212121"/>
<path fill-rule="evenodd" clip-rule="evenodd" d="M61.4006 4.99991H27.8006C23.8238 4.99991 20.6006 8.22311 20.6006 12.1999V27.7999C20.6006 31.7767 23.8238 34.9999 27.8006 34.9999H37.6286C38.4614 34.9999 39.2678 35.2879 39.9122 35.8159L50.8502 44.7919C51.3626 45.2119 52.1186 45.1363 52.5386 44.6239C52.715 44.4103 52.811 44.1403 52.811 43.8631V38.5999C52.811 36.6115 54.4226 34.9999 56.411 34.9999H61.4006C65.3774 34.9999 68.6006 31.7767 68.6006 27.7999V12.1999C68.6006 8.22311 65.3774 4.99991 61.4006 4.99991Z" fill="#262625" fill-opacity="0.1"/>
<path fill-rule="evenodd" clip-rule="evenodd" d="M57.8005 1.3999H26.6005C22.6237 1.3999 19.4005 4.6231 19.4005 8.5999V24.1999C19.4005 28.1767 22.6237 31.3999 26.6005 31.3999H35.4613C36.3253 31.3999 37.1605 31.7107 37.8133 32.2759L48.0157 41.0863C48.5173 41.5183 49.2757 41.4643 49.7077 40.9627C49.8973 40.7443 50.0005 40.4659 50.0005 40.1779V34.9999C50.0005 33.0115 51.6121 31.3999 53.6005 31.3999H57.8005C61.7773 31.3999 65.0005 28.1767 65.0005 24.1999V8.5999C65.0005 4.6231 61.7773 1.3999 57.8005 1.3999Z" fill="#A4F7DD" stroke="#212121"/>
<path d="M55.4005 20.5999H37.4005M55.4005 13.3999H29.0005H55.4005Z" stroke="#212121" stroke-linecap="round"/>
<path opacity="0.56" d="M35.0005 4.99991H27.8005C25.1485 4.99991 23.0005 7.14791 23.0005 9.79991V15.7999" stroke="white" stroke-linecap="round"/>
<path d="M12.1608 28.9999H3.20039C2.20679 28.9999 1.40039 29.8063 1.40039 30.7999C1.40039 31.7935 2.20679 32.5999 3.20039 32.5999H12.1608C13.1544 32.5999 13.9608 31.7935 13.9608 30.7999C13.9608 29.8063 13.1544 28.9999 12.1608 28.9999ZM10.5372 44.0887L16.8732 37.7527C17.5764 37.0495 17.5764 35.9095 16.8732 35.2075C16.17 34.5043 15.03 34.5043 14.328 35.2075L7.99199 41.5435C7.28879 42.2455 7.28879 43.3855 7.99199 44.0875C8.69519 44.7919 9.83399 44.7919 10.5372 44.0875V44.0887Z" fill="white" stroke="#212121"/>
<path d="M19.4805 38.7199V47.6803C19.4805 48.6739 20.2869 49.4803 21.2805 49.4803C22.2753 49.4803 23.0805 48.6739 23.0805 47.6803V38.7199C23.0805 37.7263 22.2753 36.9199 21.2805 36.9199C20.2869 36.9199 19.4805 37.7263 19.4805 38.7199Z" fill="white" stroke="#212121"/>
</svg>
