<svg width="134" height="134" viewBox="0 0 134 134" fill="none" xmlns="http://www.w3.org/2000/svg">
<circle cx="67" cy="67" r="67" fill="#FF9600" fill-opacity="0.1"/>
<path d="M59.3328 51.6666H66.9995V47.8333C66.9995 45.7162 68.7157 44 70.8328 44H86.1662C88.2833 44 89.9995 45.7162 89.9995 47.8333V55.5C89.9995 56.7065 89.4314 57.8427 88.4662 58.5666L79.2662 65.4666C76.3704 67.6385 74.6662 71.0469 74.6662 74.6666V86.1666H82.3328V74.6666C82.3328 73.4601 82.9009 72.3239 83.8662 71.6L93.0662 64.7C95.9619 62.5282 97.6662 59.1197 97.6662 55.5V47.8333C97.6662 41.482 92.5174 36.3333 86.1662 36.3333H70.8328C64.4816 36.3333 59.3328 41.482 59.3328 47.8333V51.6666Z" fill="#029D53"/>
<path d="M43.9995 40.1666H51.6662V86.1666H43.9995V40.1666Z" fill="#029D53"/>
<path d="M51.6662 90H43.9995V97.6666H51.6662V90Z" fill="#029D53"/>
<path d="M82.3328 90H74.6662V97.6666H82.3328V90Z" fill="#029D53"/>
</svg>
