<svg width="120" height="120" viewBox="0 0 120 120" fill="none" xmlns="http://www.w3.org/2000/svg">
<path fill-rule="evenodd" clip-rule="evenodd" d="M106.633 46.738C107.873 45.556 108.311 43.823 107.776 42.211C107.24 40.599 105.843 39.449 104.127 39.205L88.8733 37.038C88.5559 36.9941 88.2537 36.8741 87.9925 36.6884C87.7314 36.5026 87.5189 36.2565 87.3733 35.971L80.5533 22.461C79.7873 20.943 78.2333 20 76.5013 20C74.7703 20 73.2163 20.943 72.4503 22.461L65.6293 35.973C65.3393 36.549 64.7763 36.947 64.1273 37.039L48.8733 39.206C47.1583 39.449 45.7603 40.601 45.2243 42.212C44.6893 43.824 45.1273 45.558 46.3673 46.739L57.4043 57.255C57.8743 57.704 58.0903 58.35 57.9793 58.981L55.3763 73.831C55.2593 74.4634 55.2871 75.114 55.4577 75.7341C55.6283 76.3542 55.9373 76.9275 56.3613 77.411C57.7063 78.975 67.6233 65.465 69.5003 64.5L75.5003 68L68.5073 75.105L75.5723 71.475C75.8608 71.3314 76.1786 71.2567 76.5008 71.2567C76.823 71.2567 77.1409 71.3314 77.4293 71.475L91.0723 78.485C91.9859 78.9585 93.0325 79.1101 94.0429 78.9152C95.0533 78.7203 95.9684 78.1904 96.6403 77.411C97.0647 76.9277 97.3739 76.3544 97.5447 75.7343C97.7154 75.1142 97.7434 74.4634 97.6263 73.831L95.0213 58.981C94.9673 58.6682 94.9916 58.3469 95.0919 58.0457C95.1922 57.7446 95.3655 57.4729 95.5963 57.255L106.633 46.738Z" fill="#262625" fill-opacity="0.1"/>
<path d="M103.633 44.738C104.873 43.556 105.311 41.823 104.776 40.211C104.24 38.599 102.843 37.449 101.127 37.205L85.8733 35.038C85.5559 34.9941 85.2537 34.8741 84.9925 34.6884C84.7314 34.5026 84.5189 34.2565 84.3733 33.971L77.5533 20.461C76.7873 18.943 75.2333 18 73.5013 18C71.7703 18 70.2163 18.943 69.4503 20.461L62.6293 33.973C62.3393 34.549 61.7763 34.947 61.1273 35.039L45.8733 37.206C44.1583 37.449 42.7603 38.601 42.2243 40.212C41.6893 41.824 42.1273 43.558 43.3673 44.739L54.4043 55.255C54.8743 55.704 55.0903 56.35 54.9793 56.981L52.3763 71.831C52.2593 72.4634 52.2871 73.114 52.4577 73.7341C52.6283 74.3542 52.9373 74.9275 53.3613 75.411C54.7063 76.974 57.0533 77.451 58.9313 76.486L72.5723 69.474C72.8608 69.3304 73.1786 69.2557 73.5008 69.2557C73.823 69.2557 74.1409 69.3304 74.4293 69.474L88.0723 76.486C88.9859 76.9595 90.0325 77.1111 91.0429 76.9162C92.0533 76.7213 92.9684 76.1914 93.6403 75.412C94.0648 74.9286 94.3741 74.3551 94.5449 73.7348C94.7157 73.1145 94.7435 72.4636 94.6263 71.831L92.0213 56.981C91.9673 56.6682 91.9916 56.3469 92.0919 56.0457C92.1922 55.7446 92.3655 55.4729 92.5963 55.255L103.633 44.738Z" fill="#FFCA27" stroke="#212121"/>
<path opacity="0.442" d="M97.1145 40.2519L83.4125 38.3049C83.1271 38.2658 82.8553 38.1583 82.6205 37.9915C82.3856 37.8247 82.1945 37.6035 82.0635 37.3469L75.9375 25.2109" stroke="white" stroke-linecap="round"/>
<path fill-rule="evenodd" clip-rule="evenodd" d="M47.4593 52.6559L53.6803 46.4769C59.7073 40.4929 69.4393 40.5099 75.4443 46.5149L75.4823 46.5529C81.4403 52.5529 81.4063 62.2459 75.4073 68.2029C75.0603 68.4759 74.7573 68.7419 74.4993 68.9999C72.7398 70.7608 70.9911 72.5325 69.2533 74.3149L69.2653 74.3269L51.4393 92.1549C50.9234 92.6721 50.3099 93.0817 49.6344 93.3598C48.9589 93.6379 48.2348 93.779 47.5043 93.7749C46.7565 93.7932 46.0129 93.6592 45.3185 93.381C44.6242 93.1029 43.9937 92.6864 43.4653 92.1569L25.6363 74.3269L25.6573 74.3069L19.5193 68.2069C13.5203 62.2449 13.4893 52.5489 19.4523 46.5489L19.4863 46.5149C25.4913 40.5099 35.2223 40.4949 41.2463 46.4809L47.4593 52.6559Z" fill="#262625" fill-opacity="0.1"/>
<path fill-rule="evenodd" clip-rule="evenodd" d="M44.038 50.5929L50.26 44.4139C56.286 38.4299 66.018 38.4469 72.024 44.4519L72.0619 44.4899C78.0189 50.4899 77.9859 60.1829 71.986 66.1399L65.832 72.2519L65.845 72.2649L48.0169 90.0919C47.5012 90.609 46.8878 91.0185 46.2125 91.2966C45.5372 91.5747 44.8133 91.7159 44.083 91.7119C43.335 91.7303 42.5911 91.5964 41.8966 91.3183C41.2021 91.0401 40.5714 90.6235 40.0429 90.0939L22.215 72.2639L22.235 72.2439L16.098 66.1439C10.098 60.1829 10.0679 50.4859 16.0299 44.4859L16.064 44.4519C22.069 38.4469 31.7999 38.4319 37.8239 44.4179L44.038 50.5929Z" fill="#EF5661" stroke="#212121"/>
<path opacity="0.442" d="M18.937 63.5558C14.507 59.1458 14.484 51.9738 18.887 47.5368L18.912 47.5118C23.347 43.0708 30.533 43.0598 34.982 47.4868" stroke="white" stroke-linecap="round"/>
<path fill-rule="evenodd" clip-rule="evenodd" d="M65.9835 41.793H68.4635C69.4564 41.7928 70.4267 42.0895 71.2497 42.645C72.0728 43.2004 72.711 43.9891 73.0825 44.91L74.1695 47.604L73.8755 47.718C73.2292 47.9693 72.6423 48.3522 72.152 48.8425C71.6617 49.3328 71.2788 49.9197 71.0275 50.566L70.0925 52.97C69.9606 53.3086 69.7289 53.5992 69.4281 53.8031C69.1273 54.007 68.7716 54.1146 68.4082 54.1117C68.0448 54.1087 67.6908 53.9954 67.3933 53.7867C67.0959 53.5779 66.8689 53.2837 66.7425 52.943L65.8895 50.642C65.6422 49.9741 65.2551 49.3667 64.7541 48.8606C64.2531 48.3544 63.6498 47.9611 62.9845 47.707L60.5665 46.784C60.2258 46.6539 59.933 46.4229 59.7274 46.1217C59.5218 45.8206 59.4131 45.4637 59.4161 45.0991C59.419 44.7344 59.5334 44.3794 59.7438 44.0816C59.9543 43.7838 60.2507 43.5575 60.5935 43.433L64.2745 42.094C64.8223 41.8951 65.4007 41.7936 65.9835 41.794V41.793Z" fill="#262625" fill-opacity="0.1"/>
<path fill-rule="evenodd" clip-rule="evenodd" d="M65.5752 38.4282C65.3004 39.1835 64.8635 39.8694 64.295 40.4376C63.7266 41.0059 63.0406 41.4426 62.2852 41.7172L60.2542 42.4562C60.029 42.538 59.8342 42.6867 59.6959 42.8824C59.5576 43.078 59.4825 43.3113 59.4805 43.5509C59.4785 43.7905 59.5499 44.025 59.685 44.2229C59.82 44.4208 60.0124 44.5727 60.2362 44.6582L62.3682 45.4722C63.1001 45.7516 63.7638 46.1841 64.315 46.7408C64.8662 47.2975 65.2921 47.9655 65.5642 48.7002L66.3132 50.7222C66.3967 50.9459 66.5462 51.139 66.7419 51.276C66.9375 51.413 67.1702 51.4874 67.409 51.4893C67.6478 51.4913 67.8816 51.4207 68.0795 51.2869C68.2774 51.1532 68.43 50.9625 68.5172 50.7402L69.3432 48.6172C69.6196 47.9065 70.0408 47.2611 70.58 46.7219C71.1191 46.1828 71.7645 45.7616 72.4752 45.4852L74.5982 44.6592C74.8206 44.5721 75.0113 44.4195 75.1452 44.2217C75.279 44.0239 75.3497 43.7901 75.3479 43.5513C75.346 43.3125 75.2717 43.0798 75.1348 42.8841C74.998 42.6884 74.8049 42.5388 74.5812 42.4552L72.5592 41.7052C71.8246 41.4332 71.1567 41.0074 70.6 40.4564C70.0433 39.9054 69.6107 39.2419 69.3312 38.5102L68.5172 36.3782C68.4319 36.154 68.28 35.9613 68.082 35.826C67.884 35.6907 67.6493 35.6192 67.4094 35.6211C67.1696 35.6231 66.9361 35.6984 66.7403 35.8369C66.5445 35.9755 66.3958 36.1706 66.3142 36.3962L65.5742 38.4282H65.5752Z" fill="white" stroke="#212121"/>
<path opacity="0.109" d="M67.203 39.0869L66.589 40.6939C66.3921 41.2096 66.0872 41.6774 65.6949 42.0657C65.3025 42.4541 64.8317 42.7542 64.314 42.9459L62.791 43.5099" stroke="#212121" stroke-linecap="round"/>
<path fill-rule="evenodd" clip-rule="evenodd" d="M18.5526 90.603C18.2787 91.405 17.8232 92.1328 17.2216 92.7297C16.6201 93.3266 15.8887 93.7764 15.0846 94.044L14.2976 94.306C14.1726 94.3473 14.0637 94.4267 13.9862 94.533C13.9087 94.6394 13.8664 94.7673 13.8653 94.8989C13.8642 95.0305 13.9043 95.1592 13.98 95.2668C14.0558 95.3744 14.1633 95.4556 14.2876 95.499L15.1676 95.809C15.9485 96.0828 16.6575 96.5293 17.2419 97.1153C17.8262 97.7012 18.2709 98.4114 18.5426 99.193L18.8366 100.038C18.8829 100.17 18.9689 100.285 19.0828 100.366C19.1967 100.448 19.333 100.492 19.4731 100.493C19.6131 100.494 19.7501 100.452 19.8653 100.372C19.9805 100.293 20.0683 100.179 20.1166 100.048L20.4586 99.11C20.7359 98.3517 21.1767 97.6637 21.7498 97.0949C22.3229 96.5261 23.0142 96.0905 23.7746 95.819L24.6656 95.5C24.7892 95.4556 24.8958 95.374 24.9709 95.2663C25.046 95.1586 25.0857 95.0302 25.0846 94.899C25.0835 94.7677 25.0417 94.64 24.9648 94.5336C24.8879 94.4272 24.7799 94.3473 24.6556 94.305L23.8586 94.035C23.0748 93.7692 22.3611 93.3299 21.7706 92.7498C21.1802 92.1698 20.7283 91.464 20.4486 90.685L20.1156 89.758C20.0682 89.6259 19.9809 89.5117 19.8658 89.4314C19.7507 89.3511 19.6134 89.3085 19.4731 89.3096C19.3327 89.3107 19.1961 89.3554 19.0823 89.4375C18.9684 89.5197 18.8829 89.6351 18.8376 89.768L18.5526 90.603Z" fill="white" stroke="#212121"/>
</svg>
