<svg width="77" height="52" viewBox="0 0 77 52" fill="none" xmlns="http://www.w3.org/2000/svg">
<circle cx="68" cy="11.2601" r="3" fill="#0084FF"/>
<circle cx="60" cy="2.26013" r="2" fill="#BFE0FF"/>
<circle cx="2" cy="49.7399" r="2" fill="#BFE0FF"/>
<g filter="url(#filter0_i)">
<path d="M62.0812 19.5126C59.8996 8.51576 50.1783 0.260132 38.5 0.260132C29.2279 0.260132 21.175 5.48763 17.1646 13.1376C7.5075 14.1576 0 22.2858 0 32.1351C0 42.6858 8.63042 51.2601 19.25 51.2601H60.9583C69.8133 51.2601 77 44.1201 77 35.3226C77 26.9076 70.4229 20.0864 62.0812 19.5126Z" fill="#0085FF" fill-opacity="0.25"/>
</g>
<path d="M62.0812 19.5126C59.8996 8.51576 50.1783 0.260132 38.5 0.260132C29.2279 0.260132 21.175 5.48763 17.1646 13.1376C7.5075 14.1576 0 22.2858 0 32.1351C0 42.6858 8.63042 51.2601 19.25 51.2601H60.9583C69.8133 51.2601 77 44.1201 77 35.3226C77 26.9076 70.4229 20.0864 62.0812 19.5126ZM60.9583 44.8851H19.25C12.1596 44.8851 6.41667 39.1795 6.41667 32.1351C6.41667 25.0908 12.1596 19.3851 19.25 19.3851H21.5279C23.6454 12.022 30.415 6.63513 38.5 6.63513C48.2533 6.63513 56.1458 14.4764 56.1458 24.1664V25.7601H60.9583C66.2842 25.7601 70.5833 30.0314 70.5833 35.3226C70.5833 40.6139 66.2842 44.8851 60.9583 44.8851Z" fill="#0085FF"/>
<defs>
<filter id="filter0_i" x="0" y="0.260132" width="77" height="51" filterUnits="userSpaceOnUse" color-interpolation-filters="sRGB">
<feFlood flood-opacity="0" result="BackgroundImageFix"/>
<feBlend mode="normal" in="SourceGraphic" in2="BackgroundImageFix" result="shape"/>
<feColorMatrix in="SourceAlpha" type="matrix" values="0 0 0 0 0 0 0 0 0 0 0 0 0 0 0 0 0 0 127 0" result="hardAlpha"/>
<feOffset dx="-11" dy="10"/>
<feComposite in2="hardAlpha" operator="arithmetic" k2="-1" k3="1"/>
<feColorMatrix type="matrix" values="0 0 0 0 0 0 0 0 0 0.517647 0 0 0 0 1 0 0 0 0.36 0"/>
<feBlend mode="normal" in2="shape" result="effect1_innerShadow"/>
</filter>
</defs>
</svg>
