<svg width="70" height="70" viewBox="0 0 70 70" fill="none" xmlns="http://www.w3.org/2000/svg">
<g filter="url(#filter0_i)">
<circle cx="35" cy="35" r="26" fill="#FF8E09" fill-opacity="0.25"/>
</g>
<circle cx="63" cy="59" r="3" fill="#FF8E09"/>
<circle cx="68" cy="48" r="2" fill="#FF8E09" fill-opacity="0.25"/>
<circle cx="9" cy="11" r="2" fill="#FF8E09" fill-opacity="0.25"/>
<path fill-rule="evenodd" clip-rule="evenodd" d="M44.0767 6.51674C46.0795 7.1909 47.4402 8.04657 49.603 9.93181L51.1665 11.3128L51.4848 11.5741L51.8979 11.8796L53.8044 13.1054C56.2444 14.6799 57.4329 15.7318 58.653 17.4647C59.7659 19.0467 60.3429 20.3816 60.9714 22.8356L61.6303 25.5791L61.7849 26.1201L61.9252 26.5339L62.7591 28.6301C63.8053 31.2961 64.1667 32.8791 64.1667 35.0007C64.1667 37.1224 63.8053 38.7054 62.7591 41.3714L62.04 43.1623L61.8098 43.8035L61.6306 44.4216L60.9714 47.166C60.3427 49.6203 59.7653 50.9556 58.6506 52.5403C57.4389 54.2601 56.2528 55.3143 53.8516 56.8675L51.8945 58.1249L51.486 58.4265L50.9734 58.8545L49.6008 60.0706C47.4372 61.9556 46.0766 62.8106 44.0643 63.4889C42.0582 64.1595 40.5468 64.2836 37.5775 64.0694L35.574 63.9184L35 63.9016L34.7487 63.9052L34.1306 63.936L32.4209 64.0694C29.4514 64.2834 27.939 64.1586 25.9176 63.4839C23.9178 62.8098 22.5586 61.9549 20.3959 60.0706L18.6623 58.5484L18.2439 58.2251L17.9424 58.0153L16.1384 56.8621C13.7422 55.3115 12.5548 54.2552 11.347 52.5368C10.1309 50.8081 9.55395 49.3745 8.85108 46.4555L8.4252 44.6447L8.24835 43.9899L8.0748 43.4676L7.24083 41.3714C6.1947 38.7054 5.83331 37.1224 5.83331 35.0007C5.83331 32.8791 6.1947 31.2961 7.24083 28.6301L8.07363 26.5374L8.31341 25.7854L8.42484 25.358L8.85106 23.5461L9.19551 22.2022C9.76388 20.1412 10.3331 18.9059 11.3455 17.4668C12.5547 15.7464 13.7372 14.6944 16.1372 13.1416L17.7477 12.1163L18.1934 11.8132L18.6611 11.4541L19.0234 11.147L20.3959 9.93092C22.5592 8.0462 23.9193 7.19119 25.927 6.51441C27.9371 5.84044 29.4509 5.71576 32.4225 5.93122L34.4632 6.0849L35.1284 6.09889L35.9308 6.061L37.5761 5.9312C40.5489 5.71565 42.0634 5.84072 44.0767 6.51674ZM38.4438 11.7178L35.8489 11.9098C35.5419 11.9255 35.2649 11.9332 35 11.9332L34.1973 11.9122L33.744 11.8857L32.1017 11.7563L30.9786 11.6859C29.4791 11.618 28.7408 11.7234 27.7859 12.0436L27.4717 12.1555C26.4508 12.5409 25.6613 13.0709 24.1517 14.395L22.5461 15.81L22.096 16.1766L21.6821 16.4893L21.014 16.95L18.9097 18.2975C17.4032 19.2952 16.7744 19.8872 16.1173 20.8221C15.4474 21.7743 15.1066 22.5606 14.6325 24.4587L14.068 26.8366L13.9217 27.3905L13.7745 27.8865L13.5019 28.6775L12.4958 31.2124C11.8459 32.9245 11.6666 33.819 11.6666 35.0007L11.6723 35.3477C11.7072 36.3695 11.9109 37.2481 12.4958 38.789L13.5718 41.515L13.7785 42.1278L13.9943 42.8776L14.6326 45.5429C15.1067 47.4411 15.4476 48.2275 16.1187 49.1814C16.8404 50.2081 17.5336 50.8256 19.3899 52.0183L21.0197 53.0563C21.3633 53.2825 21.6165 53.4607 21.8831 53.6612L22.0967 53.8253L22.7999 54.4083L24.1517 55.6065C25.8117 57.0625 26.6001 57.5581 27.7727 57.9534C28.9518 58.3469 29.796 58.4177 32.1019 58.2442L32.9934 58.1723L34.6124 58.0734L35 58.0682C35.2649 58.0682 35.5419 58.0759 35.8489 58.0915L36.3344 58.1208L37.8963 58.2442C40.2014 58.4177 41.045 58.3475 42.208 57.9588C43.3949 57.5587 44.1842 57.0632 45.845 55.6065L46.974 54.6026L47.5926 54.073L48.1191 53.6571L48.6614 53.2684L48.9778 53.0564L51.0808 51.7105C52.5898 50.7113 53.2223 50.1168 53.8806 49.1823C54.6113 48.1436 54.9499 47.3043 55.4961 45.0087L55.7608 43.8696C55.8549 43.4676 55.9319 43.1536 56.0047 42.8784L56.2241 42.1192L56.4981 41.3239L57.5041 38.789C58.1541 37.0769 58.3333 36.1824 58.3333 35.0007C58.3333 33.819 58.1541 32.9245 57.5041 31.2124L56.4282 28.4864L56.1479 27.6335L55.93 26.8329L55.4961 24.9927L55.2103 23.8568C54.8929 22.6819 54.6162 21.9901 54.2173 21.3313L53.8826 20.8219C53.2242 19.8868 52.5961 19.2959 51.0844 18.2951L49.2613 17.1306C48.962 16.9378 48.7297 16.7829 48.5193 16.6353L47.9003 16.1763L47.4495 15.8089L45.4142 14.021C44.1928 12.9797 43.4647 12.5143 42.5646 12.1702L41.9306 11.9542C40.9895 11.6708 40.1725 11.6069 38.4438 11.7178ZM46.6666 45.2083C46.6666 42.792 44.7079 40.8333 42.2916 40.8333C39.8754 40.8333 37.9166 42.792 37.9166 45.2083C37.9166 47.6245 39.8754 49.5833 42.2916 49.5833C44.7079 49.5833 46.6666 47.6245 46.6666 45.2083ZM41.4166 21.5833L46.0833 25.0833L28.5833 48.4167L23.9166 44.9167L41.4166 21.5833ZM32.0833 24.7916C32.0833 22.3753 30.1246 20.4166 27.7083 20.4166C25.2921 20.4166 23.3333 22.3753 23.3333 24.7916C23.3333 27.2078 25.2921 29.1666 27.7083 29.1666C30.1246 29.1666 32.0833 27.2078 32.0833 24.7916Z" fill="#FF8E09"/>
<defs>
<filter id="filter0_i" x="9" y="9" width="52" height="52" filterUnits="userSpaceOnUse" color-interpolation-filters="sRGB">
<feFlood flood-opacity="0" result="BackgroundImageFix"/>
<feBlend mode="normal" in="SourceGraphic" in2="BackgroundImageFix" result="shape"/>
<feColorMatrix in="SourceAlpha" type="matrix" values="0 0 0 0 0 0 0 0 0 0 0 0 0 0 0 0 0 0 127 0" result="hardAlpha"/>
<feOffset dx="-11"/>
<feComposite in2="hardAlpha" operator="arithmetic" k2="-1" k3="1"/>
<feColorMatrix type="matrix" values="0 0 0 0 1 0 0 0 0 0.756927 0 0 0 0 0.470833 0 0 0 1 0"/>
<feBlend mode="normal" in2="shape" result="effect1_innerShadow"/>
</filter>
</defs>
</svg>
