<svg width="104" height="32" viewBox="0 0 104 32" fill="none" xmlns="http://www.w3.org/2000/svg">
<path d="M5.35322 8.804V9.5H1.28922V3.9H5.24122V4.596H2.08922V6.316H4.89722V6.996H2.08922V8.804H5.35322ZM11.4646 3.9V9.5H10.8086L7.44859 5.324V9.5H6.64859V3.9H7.30459L10.6646 8.076V3.9H11.4646ZM13.1408 3.9H15.5008C16.0928 3.9 16.6181 4.01733 17.0768 4.252C17.5354 4.48667 17.8901 4.81733 18.1408 5.244C18.3968 5.66533 18.5248 6.15067 18.5248 6.7C18.5248 7.24933 18.3968 7.73733 18.1408 8.164C17.8901 8.58533 17.5354 8.91333 17.0768 9.148C16.6181 9.38267 16.0928 9.5 15.5008 9.5H13.1408V3.9ZM15.4528 8.804C15.9061 8.804 16.3034 8.716 16.6448 8.54C16.9914 8.364 17.2581 8.11867 17.4448 7.804C17.6314 7.484 17.7248 7.116 17.7248 6.7C17.7248 6.284 17.6314 5.91867 17.4448 5.604C17.2581 5.284 16.9914 5.036 16.6448 4.86C16.3034 4.684 15.9061 4.596 15.4528 4.596H13.9408V8.804H15.4528ZM22.2782 9.564C21.7128 9.564 21.2035 9.44133 20.7502 9.196C20.2968 8.94533 19.9395 8.60133 19.6782 8.164C19.4222 7.72667 19.2942 7.23867 19.2942 6.7C19.2942 6.16133 19.4222 5.67333 19.6782 5.236C19.9395 4.79867 20.2968 4.45733 20.7502 4.212C21.2035 3.96133 21.7128 3.836 22.2782 3.836C22.8382 3.836 23.3448 3.96133 23.7982 4.212C24.2515 4.45733 24.6062 4.79867 24.8622 5.236C25.1182 5.668 25.2462 6.156 25.2462 6.7C25.2462 7.244 25.1182 7.73467 24.8622 8.172C24.6062 8.604 24.2515 8.94533 23.7982 9.196C23.3448 9.44133 22.8382 9.564 22.2782 9.564ZM22.2782 8.852C22.6888 8.852 23.0568 8.75867 23.3822 8.572C23.7128 8.38533 23.9715 8.12933 24.1582 7.804C24.3502 7.47333 24.4462 7.10533 24.4462 6.7C24.4462 6.29467 24.3502 5.92933 24.1582 5.604C23.9715 5.27333 23.7128 5.01467 23.3822 4.828C23.0568 4.64133 22.6888 4.548 22.2782 4.548C21.8675 4.548 21.4942 4.64133 21.1582 4.828C20.8275 5.01467 20.5662 5.27333 20.3742 5.604C20.1875 5.92933 20.0942 6.29467 20.0942 6.7C20.0942 7.10533 20.1875 7.47333 20.3742 7.804C20.5662 8.12933 20.8275 8.38533 21.1582 8.572C21.4942 8.75867 21.8675 8.852 22.2782 8.852ZM30.2129 9.5L29.0049 7.78C28.8556 7.79067 28.7382 7.796 28.6529 7.796H27.2689V9.5H26.4689V3.9H28.6529C29.3782 3.9 29.9489 4.07333 30.3649 4.42C30.7809 4.76667 30.9889 5.244 30.9889 5.852C30.9889 6.284 30.8822 6.652 30.6689 6.956C30.4556 7.26 30.1516 7.48133 29.7569 7.62L31.0849 9.5H30.2129ZM28.6289 7.116C29.1356 7.116 29.5222 7.00667 29.7889 6.788C30.0556 6.56933 30.1889 6.25733 30.1889 5.852C30.1889 5.44667 30.0556 5.13733 29.7889 4.924C29.5222 4.70533 29.1356 4.596 28.6289 4.596H27.2689V7.116H28.6289ZM33.9134 9.564C33.4921 9.564 33.0841 9.5 32.6894 9.372C32.3001 9.23867 31.9934 9.068 31.7694 8.86L32.0654 8.236C32.2787 8.428 32.5507 8.58533 32.8814 8.708C33.2174 8.82533 33.5614 8.884 33.9134 8.884C34.3774 8.884 34.7241 8.80667 34.9534 8.652C35.1827 8.492 35.2974 8.28133 35.2974 8.02C35.2974 7.828 35.2334 7.67333 35.1054 7.556C34.9827 7.43333 34.8281 7.34 34.6414 7.276C34.4601 7.212 34.2014 7.14 33.8654 7.06C33.4441 6.95867 33.1027 6.85733 32.8414 6.756C32.5854 6.65467 32.3641 6.5 32.1774 6.292C31.9961 6.07867 31.9054 5.79333 31.9054 5.436C31.9054 5.13733 31.9827 4.868 32.1374 4.628C32.2974 4.388 32.5374 4.196 32.8574 4.052C33.1774 3.908 33.5747 3.836 34.0494 3.836C34.3801 3.836 34.7054 3.87867 35.0254 3.964C35.3454 4.04933 35.6201 4.172 35.8494 4.332L35.5854 4.972C35.3507 4.82267 35.1001 4.71067 34.8334 4.636C34.5667 4.556 34.3054 4.516 34.0494 4.516C33.5961 4.516 33.2547 4.59867 33.0254 4.764C32.8014 4.92933 32.6894 5.14267 32.6894 5.404C32.6894 5.596 32.7534 5.75333 32.8814 5.876C33.0094 5.99333 33.1667 6.08667 33.3534 6.156C33.5454 6.22 33.8041 6.28933 34.1294 6.364C34.5507 6.46533 34.8894 6.56667 35.1454 6.668C35.4014 6.76933 35.6201 6.924 35.8014 7.132C35.9881 7.34 36.0814 7.62 36.0814 7.972C36.0814 8.26533 36.0014 8.53467 35.8414 8.78C35.6814 9.02 35.4387 9.212 35.1134 9.356C34.7881 9.49467 34.3881 9.564 33.9134 9.564ZM41.3142 8.804V9.5H37.2502V3.9H41.2022V4.596H38.0502V6.316H40.8582V6.996H38.0502V8.804H41.3142ZM42.6095 3.9H44.9695C45.5615 3.9 46.0869 4.01733 46.5455 4.252C47.0042 4.48667 47.3589 4.81733 47.6095 5.244C47.8655 5.66533 47.9935 6.15067 47.9935 6.7C47.9935 7.24933 47.8655 7.73733 47.6095 8.164C47.3589 8.58533 47.0042 8.91333 46.5455 9.148C46.0869 9.38267 45.5615 9.5 44.9695 9.5H42.6095V3.9ZM44.9215 8.804C45.3749 8.804 45.7722 8.716 46.1135 8.54C46.4602 8.364 46.7269 8.11867 46.9135 7.804C47.1002 7.484 47.1935 7.116 47.1935 6.7C47.1935 6.284 47.1002 5.91867 46.9135 5.604C46.7269 5.284 46.4602 5.036 46.1135 4.86C45.7722 4.684 45.3749 4.596 44.9215 4.596H43.4095V8.804H44.9215ZM55.1353 6.596C55.4607 6.68667 55.7167 6.852 55.9033 7.092C56.09 7.32667 56.1833 7.62533 56.1833 7.988C56.1833 8.47333 55.9993 8.84667 55.6313 9.108C55.2687 9.36933 54.738 9.5 54.0393 9.5H51.3673V3.9H53.8793C54.5193 3.9 55.0127 4.028 55.3593 4.284C55.7113 4.54 55.8873 4.89467 55.8873 5.348C55.8873 5.64133 55.818 5.89467 55.6793 6.108C55.546 6.32133 55.3647 6.484 55.1353 6.596ZM52.1673 4.548V6.34H53.8073C54.218 6.34 54.5327 6.26533 54.7513 6.116C54.9753 5.96133 55.0873 5.73733 55.0873 5.444C55.0873 5.15067 54.9753 4.92933 54.7513 4.78C54.5327 4.62533 54.218 4.548 53.8073 4.548H52.1673ZM54.0073 8.852C54.4607 8.852 54.802 8.77733 55.0313 8.628C55.2607 8.47867 55.3753 8.244 55.3753 7.924C55.3753 7.3 54.9193 6.988 54.0073 6.988H52.1673V8.852H54.0073ZM59.4488 7.564V9.5H58.6568V7.548L56.4328 3.9H57.2888L59.0808 6.852L60.8808 3.9H61.6728L59.4488 7.564ZM64.633 3.9H66.993C67.585 3.9 68.1103 4.01733 68.569 4.252C69.0276 4.48667 69.3823 4.81733 69.633 5.244C69.889 5.66533 70.017 6.15067 70.017 6.7C70.017 7.24933 69.889 7.73733 69.633 8.164C69.3823 8.58533 69.0276 8.91333 68.569 9.148C68.1103 9.38267 67.585 9.5 66.993 9.5H64.633V3.9ZM66.945 8.804C67.3983 8.804 67.7956 8.716 68.137 8.54C68.4836 8.364 68.7503 8.11867 68.937 7.804C69.1236 7.484 69.217 7.116 69.217 6.7C69.217 6.284 69.1236 5.91867 68.937 5.604C68.7503 5.284 68.4836 5.036 68.137 4.86C67.7956 4.684 67.3983 4.596 66.945 4.596H65.433V8.804H66.945ZM71.2423 3.9H72.0423V9.5H71.2423V3.9ZM77.5989 6.668H78.3669V8.852C78.0896 9.08133 77.7669 9.25733 77.3989 9.38C77.0309 9.50267 76.6469 9.564 76.2469 9.564C75.6816 9.564 75.1722 9.44133 74.7189 9.196C74.2656 8.94533 73.9082 8.604 73.6469 8.172C73.3909 7.73467 73.2629 7.244 73.2629 6.7C73.2629 6.156 73.3909 5.66533 73.6469 5.228C73.9082 4.79067 74.2656 4.44933 74.7189 4.204C75.1776 3.95867 75.6922 3.836 76.2629 3.836C76.7109 3.836 77.1162 3.91067 77.4789 4.06C77.8469 4.204 78.1589 4.41733 78.4149 4.7L77.9189 5.196C77.4709 4.764 76.9296 4.548 76.2949 4.548C75.8682 4.548 75.4842 4.64133 75.1429 4.828C74.8069 5.00933 74.5429 5.26533 74.3509 5.596C74.1589 5.92133 74.0629 6.28933 74.0629 6.7C74.0629 7.10533 74.1589 7.47333 74.3509 7.804C74.5429 8.12933 74.8069 8.38533 75.1429 8.572C75.4842 8.75867 75.8656 8.852 76.2869 8.852C76.7882 8.852 77.2256 8.732 77.5989 8.492V6.668ZM79.8986 3.9H80.6986V9.5H79.8986V3.9ZM84.1992 7.012L83.1752 8.052V9.5H82.3752V3.9H83.1752V7.028L86.2152 3.9H87.1272L84.7352 6.42L87.2792 9.5H86.3432L84.1992 7.012ZM91.4666 8.1H88.4906L87.8746 9.5H87.0506L89.5866 3.9H90.3786L92.9226 9.5H92.0826L91.4666 8.1ZM91.1866 7.46L89.9786 4.716L88.7706 7.46H91.1866ZM93.758 3.9H94.558V8.804H97.59V9.5H93.758V3.9ZM102.099 8.1H99.1234L98.5074 9.5H97.6834L100.219 3.9H101.011L103.555 9.5H102.715L102.099 8.1ZM101.819 7.46L100.611 4.716L99.4034 7.46H101.819Z" fill="#81858B"/>
<path fill-rule="evenodd" clip-rule="evenodd" d="M61.2361 26.0122H64.4332V21.622H61.2361C60.6844 21.622 60.1704 22.1527 60.1704 22.7195V24.9146C60.1704 25.4815 60.6844 26.0122 61.2361 26.0122ZM74.0244 26.0122H77.2215V21.622H74.0244C73.4728 21.622 72.9587 22.1527 72.9587 22.7195V24.9146C72.9587 25.4815 73.4728 26.0122 74.0244 26.0122ZM66.5646 19.9756V27.6585C66.5646 27.9007 66.2675 28.2073 66.0317 28.2073L64.9662 28.2189C64.7302 28.2189 64.4332 27.9007 64.4332 27.6585V27.2927L63.9496 27.8907C63.8023 28.097 63.4389 28.2073 63.1898 28.2073H61.2361C59.5217 28.2073 58.039 26.6761 58.039 24.9146V22.7195C58.039 20.958 59.5217 19.4268 61.2361 19.4268H66.0317C66.2672 19.4268 66.5646 19.7337 66.5646 19.9756ZM79.3529 19.9756V27.6585C79.3529 27.9007 79.0559 28.2073 78.8201 28.2073L77.7546 28.2189C77.5186 28.2189 77.2215 27.9007 77.2215 27.6585V27.2927L76.738 27.8907C76.5907 28.097 76.2272 28.2073 75.9782 28.2073H74.0244C72.3101 28.2073 70.8273 26.6761 70.8273 24.9146V22.7195C70.8273 20.958 72.3101 19.4268 74.0244 19.4268H78.8201C79.0556 19.4268 79.3529 19.7337 79.3529 19.9756ZM43.8296 21.622H40.6325C40.0808 21.622 39.5668 22.1527 39.5668 22.7195V24.9146C39.5668 25.4816 40.0808 26.0122 40.6325 26.0122H43.8296V21.622ZM45.961 19.9756V28.2073V28.3902C45.961 30.1517 44.4783 31.5 42.7639 31.5H41.1165C40.8714 31.5 40.6404 31.3819 40.4925 31.1809L39.5548 29.9058C39.399 29.6941 39.4862 29.3049 39.7445 29.3049H42.7639C43.3156 29.3049 43.8296 28.9571 43.8296 28.3902V28.2073H40.6325C38.9183 28.2073 37.4354 26.6761 37.4354 24.9146V22.7195C37.4354 20.9581 38.9183 19.4268 40.6325 19.4268H42.5863C42.8308 19.4268 43.0973 19.6294 43.2699 19.7927L43.8296 20.3415V19.9756C43.8296 19.7338 44.1272 19.4268 44.3625 19.4268H45.4282C45.6639 19.4268 45.961 19.7333 45.961 19.9756ZM26.7785 24.9146C26.7785 25.4815 27.2925 26.0122 27.8442 26.0122H31.0413V21.622H27.8442C27.2925 21.622 26.7785 22.1527 26.7785 22.7195V24.9146ZM32.6398 16.5C32.8757 16.5 33.1727 16.8066 33.1727 17.0488V27.6585C33.1727 27.9007 32.8757 28.2073 32.6398 28.2073H31.5741C31.3383 28.2073 31.0413 27.9008 31.0413 27.6585V27.2927L30.4825 27.9085C30.3311 28.0816 30.0392 28.2073 29.7979 28.2073H27.8442C26.1298 28.2073 24.6471 26.6761 24.6471 24.9146V22.7363C24.6471 20.9748 26.1298 19.4268 27.8442 19.4268H31.0413V17.0488C31.0413 16.8066 31.3383 16.5 31.5741 16.5H32.6398ZM54.6642 23.8171L57.6306 19.95C57.7956 19.7393 57.6497 19.4261 57.3865 19.4261H55.6899C55.5616 19.4261 55.4402 19.4854 55.359 19.5876L52.3552 23.4512V17.0488C52.3552 16.8066 52.0581 16.5 51.8224 16.5H50.7567C50.5209 16.5 50.2238 16.8066 50.2238 17.0488V27.6585C50.2238 27.9007 50.5209 28.2073 50.7567 28.2073H51.8224C52.0582 28.2073 52.3552 27.9007 52.3552 27.6585V24.1829L55.3606 28.0551C55.4416 28.1585 55.5639 28.2189 55.6932 28.2189H57.388C57.6512 28.2189 57.7973 27.9055 57.6322 27.6948L54.6642 23.8171ZM47.5596 16.5C47.3239 16.5 47.0267 16.8066 47.0267 17.0488V18.1463C47.0267 18.3885 47.3239 18.6951 47.5596 18.6951H48.6253C48.861 18.6951 49.1581 18.3885 49.1581 18.1463V17.0488C49.1581 16.8066 48.861 16.5 48.6253 16.5H47.5596ZM47.5596 19.4268C47.3239 19.4268 47.0267 19.7335 47.0267 19.9756V27.6585C47.0267 27.9007 47.4075 28.2188 47.6431 28.2188L48.6253 28.2073C48.861 28.2073 49.1581 27.9007 49.1581 27.6585V19.9756C49.1581 19.7335 48.861 19.4268 48.6253 19.4268H47.5596ZM34.7712 16.5C34.5355 16.5 34.2384 16.8066 34.2384 17.0488V18.1463C34.2384 18.3885 34.5355 18.6951 34.7712 18.6951H35.8369C36.0726 18.6951 36.3697 18.3885 36.3697 18.1463V17.0488C36.3697 16.8066 36.0726 16.5 35.8369 16.5H34.7712ZM34.7712 19.4268C34.5355 19.4268 34.2384 19.7335 34.2384 19.9756V27.6585C34.2384 27.9007 34.5355 28.2073 34.7712 28.2073H35.8369C36.0726 28.2073 36.3697 27.9007 36.3697 27.6585V19.9756C36.3697 19.7335 36.0726 19.4268 35.8369 19.4268H34.7712ZM69.7617 17.0488V27.6585C69.7617 27.9007 69.4646 28.2073 69.2288 28.2073H68.1631C67.9273 28.2073 67.6302 27.9007 67.6302 27.6585V17.0488C67.6302 16.8066 67.9273 16.5 68.1631 16.5H69.2288C69.4646 16.5 69.7617 16.8066 69.7617 17.0488Z" fill="#EF4056"/>
</svg>
