<svg width="73" height="20" viewBox="0 0 73 20" fill="none" xmlns="http://www.w3.org/2000/svg">
    <path fill-rule="evenodd" clip-rule="evenodd" d="M48.706 12.5882H52.9413V6.94114H48.706C47.9752 6.94114 47.2942 7.62381 47.2942 8.3529V11.1764C47.2942 11.9056 47.9752 12.5882 48.706 12.5882ZM65.6471 12.5882H69.8824V6.94114H65.6471C64.9163 6.94114 64.2354 7.62381 64.2354 8.3529V11.1764C64.2354 11.9056 64.9163 12.5882 65.6471 12.5882ZM55.7648 4.82349V14.7058C55.7648 15.0173 55.3713 15.4117 55.0589 15.4117L53.6474 15.4266C53.3348 15.4266 52.9412 15.0174 52.9412 14.7058V14.2353L52.3007 15.0044C52.1056 15.2698 51.6241 15.4117 51.2942 15.4117H48.706C46.4349 15.4117 44.4707 13.4422 44.4707 11.1764V8.3529C44.4707 6.08717 46.4349 4.11761 48.706 4.11761H55.0589C55.3708 4.11761 55.7648 4.51238 55.7648 4.82349ZM72.706 4.82349V14.7058C72.706 15.0173 72.3125 15.4117 72.0001 15.4117L70.5885 15.4266C70.2759 15.4266 69.8824 15.0174 69.8824 14.7058V14.2353L69.2419 15.0044C69.0467 15.2698 68.5652 15.4117 68.2354 15.4117H65.6471C63.3761 15.4117 61.4118 13.4422 61.4118 11.1764V8.3529C61.4118 6.08717 63.3761 4.11761 65.6471 4.11761H72.0001C72.312 4.11761 72.706 4.51238 72.706 4.82349ZM25.6471 6.94114H21.4118C20.6809 6.94114 20.0001 7.62381 20.0001 8.3529V11.1764C20.0001 11.9057 20.6809 12.5882 21.4118 12.5882H25.6471V6.94114ZM28.4706 4.82349V15.4117V15.647C28.4706 17.9128 26.5064 19.647 24.2354 19.647H22.053C21.7282 19.647 21.4222 19.4951 21.2264 19.2366L19.9841 17.5964C19.7778 17.3241 19.8932 16.8235 20.2354 16.8235H24.2354C24.9662 16.8235 25.6471 16.3761 25.6471 15.647V15.4117H21.4118C19.1409 15.4117 17.1765 13.4422 17.1765 11.1764V8.3529C17.1765 6.08728 19.1409 4.11761 21.4118 4.11761H24.0001C24.324 4.11761 24.677 4.37816 24.9056 4.5882L25.6471 5.29408V4.82349C25.6471 4.51248 26.0414 4.11761 26.353 4.11761H27.7648C28.077 4.11761 28.4706 4.51184 28.4706 4.82349ZM3.05889 11.1764C3.05889 11.9055 3.73985 12.5882 4.47065 12.5882H8.70594V6.94114H4.47065C3.73985 6.94114 3.05889 7.62381 3.05889 8.3529V11.1764ZM10.8236 0.352905C11.1361 0.352905 11.5295 0.747245 11.5295 1.05879V14.7058C11.5295 15.0173 11.1361 15.4117 10.8236 15.4117H9.41183C9.09945 15.4117 8.70595 15.0175 8.70595 14.7058V14.2353L7.96576 15.0273C7.76523 15.25 7.37852 15.4117 7.05889 15.4117H4.47065C2.19961 15.4117 0.235352 13.4422 0.235352 11.1764V8.37445C0.235352 6.10872 2.19961 4.11761 4.47065 4.11761H8.70595V1.05879C8.70595 0.747245 9.09945 0.352905 9.41183 0.352905H10.8236ZM40.0001 9.76467L43.9297 4.7906C44.1483 4.5195 43.955 4.11664 43.6063 4.11664H41.3588C41.1888 4.11664 41.0279 4.19295 40.9204 4.3244L36.9412 9.29408V1.05879C36.9412 0.747245 36.5476 0.352905 36.2354 0.352905H34.8236C34.5112 0.352905 34.1177 0.747245 34.1177 1.05879V14.7058C34.1177 15.0174 34.5112 15.4117 34.8236 15.4117H36.2354C36.5477 15.4117 36.9412 15.0174 36.9412 14.7058V10.2353L40.9225 15.2159C41.0299 15.349 41.1918 15.4266 41.3631 15.4266H43.6084C43.957 15.4266 44.1505 15.0235 43.9318 14.7525L40.0001 9.76467ZM30.5883 0.352905C30.2761 0.352905 29.8824 0.747245 29.8824 1.05879V2.47055C29.8824 2.78209 30.2761 3.17643 30.5883 3.17643H32.0001C32.3123 3.17643 32.706 2.78209 32.706 2.47055V1.05879C32.706 0.747245 32.3123 0.352905 32.0001 0.352905H30.5883ZM30.5883 4.11761C30.2761 4.11761 29.8824 4.51206 29.8824 4.82349V14.7058C29.8824 15.0173 30.3868 15.4265 30.699 15.4265L32.0001 15.4117C32.3123 15.4117 32.706 15.0173 32.706 14.7058V4.82349C32.706 4.51206 32.3123 4.11761 32.0001 4.11761H30.5883ZM13.6471 0.352905C13.3348 0.352905 12.9412 0.747245 12.9412 1.05879V2.47055C12.9412 2.78209 13.3348 3.17643 13.6471 3.17643H15.0589C15.3712 3.17643 15.7648 2.78209 15.7648 2.47055V1.05879C15.7648 0.747245 15.3712 0.352905 15.0589 0.352905H13.6471ZM13.6471 4.11761C13.3348 4.11761 12.9412 4.51206 12.9412 4.82349V14.7058C12.9412 15.0173 13.3348 15.4117 13.6471 15.4117H15.0589C15.3712 15.4117 15.7648 15.0173 15.7648 14.7058V4.82349C15.7648 4.51206 15.3712 4.11761 15.0589 4.11761H13.6471ZM60.0001 1.05879V14.7058C60.0001 15.0173 59.6066 15.4117 59.2942 15.4117H57.8824C57.57 15.4117 57.1765 15.0173 57.1765 14.7058V1.05879C57.1765 0.747245 57.57 0.352905 57.8824 0.352905H59.2942C59.6066 0.352905 60.0001 0.747245 60.0001 1.05879Z" fill="#EF4056"/>
</svg>
