<svg width="50" height="29" viewBox="0 0 50 29" fill="none" xmlns="http://www.w3.org/2000/svg">
    <rect width="49.2" height="24" rx="12" fill="#fff"/>
    <path d="M7.50388 12.9539C7.12424 13.7525 6.93443 14.4545 6.93443 15.0599C6.93443 15.1188 6.93606 15.181 6.93934 15.2465C6.94588 15.3283 6.95734 15.4085 6.9737 15.487C7.0097 15.6932 7.07188 15.8765 7.16024 16.0368C7.41224 16.4885 7.83443 16.7143 8.42679 16.7143H9.7817C10.4592 16.7143 10.9353 16.6243 11.2102 16.4443C11.3477 16.3526 11.4181 16.2626 11.4213 16.1743C10.9566 15.9026 10.3168 15.6899 9.50188 15.5361V14.0634H13.9888V15.6736H12.8057C12.8777 15.7881 12.9137 15.9501 12.9137 16.1596C12.9137 16.2348 12.9104 16.3101 12.9039 16.3854C12.8908 16.4901 12.8712 16.5916 12.845 16.6897C12.773 16.9614 12.6486 17.2019 12.4719 17.4114C11.9581 18.0168 11.0613 18.3196 9.7817 18.3196H8.42679C7.33697 18.3196 6.51552 17.9383 5.96243 17.1757C5.5337 16.5834 5.31934 15.8781 5.31934 15.0599C5.31934 14.4577 5.44206 13.8097 5.68752 13.1159C5.81188 12.769 5.93461 12.4826 6.0557 12.2568L7.50388 12.9539Z" fill="#9A9A9A"/>
    <path d="M17.1951 14.0634C17.362 14.0634 17.4863 14.029 17.5682 13.9603C17.6794 13.8686 17.7351 13.7066 17.7351 13.4743V12.2814H19.3453V13.4743C19.3453 13.687 19.3747 13.831 19.4336 13.9063C19.5089 14.011 19.6627 14.0634 19.8951 14.0634C20.062 14.0634 20.1863 14.029 20.2682 13.9603C20.3762 13.8686 20.4302 13.7066 20.4302 13.4743V12.2814H22.0403V13.4743C22.0403 13.6772 22.078 13.8212 22.1533 13.9063C22.2416 14.011 22.4036 14.0634 22.6393 14.0634H23.2676V15.6736H22.6393C21.9651 15.6736 21.4954 15.5246 21.2303 15.2268C20.8409 15.5246 20.3958 15.6736 19.8951 15.6736C19.2536 15.6736 18.8003 15.5246 18.5353 15.2268C18.1458 15.5246 17.7073 15.6736 17.2196 15.6736C16.7025 15.6736 16.2493 15.5246 15.8598 15.2268C15.5947 15.5246 15.1251 15.6736 14.4509 15.6736H13.744V14.0634H14.4509C14.6865 14.0634 14.8485 14.011 14.9369 13.9063C15.0122 13.8212 15.0498 13.6772 15.0498 13.4743V12.2814H16.66V13.4743C16.66 13.7066 16.7156 13.8686 16.8269 13.9603C16.9054 14.029 17.0282 14.0634 17.1951 14.0634ZM18.442 10.249L17.47 11.2308L16.498 10.2588L17.47 9.27701L18.442 10.249ZM20.5725 10.2343L19.6103 11.2063L18.6138 10.2441L19.5956 9.26228L20.5725 10.2343ZM19.3943 8.96774L18.5402 9.82192L17.6958 8.97755L18.55 8.12337L19.3943 8.96774Z" fill="#9A9A9A"/>
    <path d="M27.2863 13.1797C27.3125 13.3368 27.3256 13.4874 27.3256 13.6314C27.3256 14.0765 27.198 14.4757 26.9427 14.8292C26.5336 15.3921 25.8676 15.6736 24.9447 15.6736H23.0252V14.0634H24.9103C25.2049 14.0634 25.4127 14.0241 25.5338 13.9456C25.6581 13.8703 25.7203 13.7508 25.7203 13.5872C25.7203 13.5381 25.7138 13.4841 25.7007 13.4252C25.668 13.2583 25.6352 13.0881 25.6025 12.9146C25.5894 12.8492 25.5763 12.7788 25.5632 12.7036L25.5436 12.6103L25.5289 12.517C25.4798 12.2486 25.4421 12.0572 25.416 11.9426L26.9525 11.4763C27.0507 11.9377 27.162 12.5056 27.2863 13.1797ZM26.1425 18.4816L25.1803 17.5096L26.1327 16.5277L27.1145 17.5096L26.1425 18.4816ZM24.0709 18.4865L23.1087 17.5145L24.0561 16.5326L25.038 17.5145L24.0709 18.4865Z" fill="#9A9A9A"/>
    <path d="M30.7569 15.6736H30.3151C29.9518 15.6736 29.6262 15.6097 29.3382 15.4821C29.1189 15.3872 28.9275 15.2579 28.7638 15.0943C28.6002 14.9306 28.4709 14.7392 28.376 14.5199C28.2484 14.2319 28.1846 13.9063 28.1846 13.543V8.59465H29.7898V13.543C29.7898 13.7426 29.8275 13.8801 29.9028 13.9554C29.9748 14.0274 30.1122 14.0634 30.3151 14.0634H30.7569V15.6736Z" fill="#9A9A9A"/>
    <path d="M34.4941 14.2646C34.5366 14.1468 34.5579 14.0192 34.5579 13.8817C34.5579 13.8457 34.5562 13.8097 34.553 13.7737C34.5366 13.5217 34.463 13.3041 34.3321 13.1208C34.1979 12.9343 34.0424 12.841 33.8657 12.841C33.6235 12.841 33.4239 12.985 33.2668 13.273C33.2111 13.3712 33.1604 13.4923 33.1146 13.6363C33.0982 13.6821 33.0802 13.7377 33.0606 13.8032L33.041 13.8768L33.0213 13.9406C33.2111 14.1043 33.4533 14.2401 33.7479 14.3481C33.9901 14.4332 34.1831 14.4757 34.3271 14.4757C34.3861 14.4757 34.4417 14.4054 34.4941 14.2646ZM33.8657 11.2308C34.625 11.2308 35.2042 11.5483 35.6035 12.1832C35.7573 12.4286 35.8735 12.7068 35.9521 13.0177C36.0175 13.2828 36.0502 13.5348 36.0502 13.7737C36.0502 14.569 35.8506 15.1646 35.4513 15.5606C35.3008 15.7145 35.1241 15.8323 34.9212 15.9141C34.7575 15.9796 34.5922 16.0172 34.4253 16.027C34.3926 16.0303 34.3468 16.0319 34.2879 16.0319C33.8788 16.0319 33.4435 15.9305 32.9821 15.7276C32.825 15.6621 32.6564 15.5786 32.4764 15.4772L32.3684 15.4183L32.2702 15.3643C32.195 15.3185 32.141 15.2874 32.1082 15.271C31.8399 15.5394 31.3932 15.6736 30.7681 15.6736H30.503V14.0634H30.7042C31.0348 14.0634 31.2524 13.9946 31.3571 13.8572C31.403 13.795 31.4946 13.5496 31.6321 13.1208C31.6419 13.0914 31.6517 13.0636 31.6615 13.0374C31.6713 13.0014 31.6844 12.9654 31.7008 12.9294C31.7335 12.8377 31.7712 12.7494 31.8137 12.6643C31.925 12.4254 32.0559 12.2143 32.2064 12.031C32.6417 11.4976 33.1948 11.2308 33.8657 11.2308Z" fill="#9A9A9A"/>
    <path d="M39.4267 14.9274C39.4267 15.9485 39.1698 16.7503 38.656 17.3328C38.0833 17.9841 37.2455 18.3097 36.1426 18.3097H35.6566V16.6996H36.1426C36.7447 16.6996 37.1735 16.5637 37.4287 16.2921C37.6873 16.0205 37.8166 15.5656 37.8166 14.9274V12.2814H39.4267V14.9274ZM37.6153 10.2048L38.6364 9.17392L39.6771 10.2146L38.6413 11.2456L37.6153 10.2048Z" fill="#9A9A9A"/>
    <path d="M43.1239 15.6736H41.5138V9.31628H43.1239V15.6736ZM44.4248 8.60937H42.0194C41.8263 8.60937 41.6627 8.61592 41.5285 8.62901C41.3976 8.63883 41.2847 8.66828 41.1898 8.71737C41.0981 8.76319 41.0212 8.83192 40.959 8.92355C40.9001 9.01192 40.8461 9.13465 40.797 9.29174L39.8839 9.02174C39.969 8.72719 40.0852 8.48665 40.2325 8.3001C40.3797 8.11355 40.5565 7.96792 40.7627 7.86319C40.9394 7.7781 41.1308 7.72246 41.337 7.69628C41.5432 7.66683 41.7707 7.6521 42.0194 7.6521H44.4248V8.60937Z" fill="#9A9A9A"/>
    <path d="M29.3822 23.0912L24.291 28.1823L19.1998 23.0912H29.3822Z" fill="#EFEFEF"/>
</svg>
