<svg width="24" height="24" viewBox="0 0 24 24" fill="none" xmlns="http://www.w3.org/2000/svg">
    <path fill-rule="evenodd" clip-rule="evenodd" d="M1.2409 0C0.555581 0 0 0.555339 0 1.24059L0.00605368 22.7637C0.0083499 23.4472 0.563201 24 1.24685 24H15.1347C20.0309 24 24 20.0318 24 15.1369V8.8631C24 3.96814 20.0309 0 15.1347 0H1.2409Z" fill="url(#paint0_linear)"/>
    <path fill-rule="evenodd" clip-rule="evenodd" d="M11.9968 15.8544C9.36724 15.8544 6.88303 14.6749 5.21774 12.667C4.96877 12.3667 5.03294 11.9164 5.35245 11.6928L6.46793 10.9126C6.75249 10.7133 7.13847 10.7682 7.36511 11.0315C8.51993 12.3733 10.2102 13.1585 11.9968 13.1585C13.7836 13.1585 15.4738 12.3733 16.6285 11.0315C16.8551 10.7682 17.2411 10.7133 17.5258 10.9126L18.6412 11.6928C18.9608 11.9164 19.0249 12.3667 18.7759 12.667C17.1107 14.6749 14.6264 15.8544 11.9968 15.8544Z" fill="white"/>
    <defs>
        <linearGradient id="paint0_linear" x1="12" y1="-12" x2="-12" y2="12" gradientUnits="userSpaceOnUse">
            <stop stop-color="#D22C4E"/>
            <stop offset="0.41677" stop-color="#EE384E"/>
            <stop offset="1" stop-color="#EF5662"/>
        </linearGradient>
    </defs>
</svg>
