<svg width="160" height="120" viewBox="0 0 160 120" fill="none" xmlns="http://www.w3.org/2000/svg">
<path d="M90.6742 22.22H93.5863C93.6691 22.22 93.7657 22.151 93.7795 22.0682L96.4707 9.71626C96.4983 9.63346 96.4431 9.56445 96.3603 9.56445H93.4482C93.3654 9.56445 93.2688 9.63346 93.255 9.71626L90.5638 22.0682C90.5362 22.151 90.5914 22.22 90.6742 22.22Z" fill="#D7F4DF"/>
<path d="M94.7274 45.6998C100.787 42.324 103.54 35.7117 100.876 30.9308C98.2126 26.1499 91.1412 25.0108 85.0818 28.3866C79.0225 31.7624 76.2696 38.3747 78.9331 43.1557C81.5967 47.9366 88.668 49.0756 94.7274 45.6998Z" fill="#D7F4DF"/>
<path d="M92.4272 26.4429C92.0822 26.4429 91.7234 26.4567 91.3784 26.4705C91.3646 26.5257 91.3508 26.5671 91.337 26.6223C91.0471 27.7402 91.7924 28.7338 92.9931 28.8581C94.1938 28.9823 95.4083 28.1818 95.6981 27.0639C95.7119 27.0225 95.7119 26.9673 95.7257 26.9259C94.7182 26.6361 93.6141 26.4567 92.4272 26.4429Z" fill="black"/>
<path d="M93.4101 27.4552C94.5617 26.913 95.1214 25.6796 94.6604 24.7004C94.1993 23.7212 92.892 23.367 91.7404 23.9093C90.5888 24.4515 90.029 25.6849 90.4901 26.6641C90.9512 27.6433 92.2585 27.9975 93.4101 27.4552Z" fill="#029D53"/>
<path d="M91.13 26.277C91.0334 26.277 90.9506 26.1942 90.9506 26.1114C90.923 24.469 92.2203 24.2068 92.2341 24.193C92.3307 24.1792 92.4273 24.2344 92.4411 24.331C92.4549 24.4276 92.3997 24.5104 92.3031 24.538C92.2617 24.5518 91.268 24.7589 91.2956 26.0976C91.3095 26.1942 91.2267 26.277 91.13 26.277Z" fill="white"/>
<path d="M108.036 87.1675H109.679C109.817 87.1675 109.969 87.057 109.996 86.919L114.026 66.3003C114.054 66.1623 113.971 66.0381 113.819 66.0381H112.177C112.039 66.0381 111.887 66.1485 111.859 66.2865L107.829 86.9052C107.802 87.0432 107.885 87.1675 108.036 87.1675Z" fill="#D7F4DF"/>
<path d="M91.7922 5.45141H92.22C92.2614 5.45141 92.289 5.42381 92.3028 5.3824L93.3379 0.0690052C93.3517 0.0276021 93.3241 0 93.2827 0H92.8549C92.8135 0 92.7859 0.0276021 92.7721 0.0690052L91.737 5.3824C91.7232 5.42381 91.7508 5.45141 91.7922 5.45141Z" fill="#D7F4DF"/>
<path d="M57.2625 88.561H58.9048C59.0429 88.561 59.1947 88.4506 59.2223 88.3126L63.2522 67.6939C63.2798 67.5558 63.197 67.4316 63.0452 67.4316H61.4028C61.2648 67.4316 61.113 67.542 61.0854 67.6801L57.0555 88.2988C57.0279 88.4506 57.1245 88.561 57.2625 88.561Z" fill="#D7F4DF"/>
<path d="M113.46 79.7838C113.446 79.7838 113.446 79.7838 113.432 79.7838C113.363 79.77 113.322 79.7148 113.336 79.6458L115.254 69.1984C115.268 69.1294 115.323 69.088 115.392 69.1018C115.461 69.1156 115.502 69.1708 115.489 69.2398L113.57 79.6872C113.57 79.7424 113.515 79.7838 113.46 79.7838Z" fill="#D7F4DF"/>
<path d="M60.4784 92.0943C60.4646 92.0943 60.4646 92.0943 60.4508 92.0943C60.3818 92.0805 60.3404 92.0253 60.3542 91.9563L62.2726 81.5089C62.2864 81.4399 62.3416 81.3985 62.4106 81.4123C62.4796 81.4261 62.521 81.4813 62.5072 81.5503L60.5888 91.9977C60.5888 92.0529 60.5336 92.0943 60.4784 92.0943Z" fill="#D7F4DF"/>
<path d="M113.86 82.4887C113.846 82.4887 113.846 82.4887 113.832 82.4887C113.763 82.4749 113.736 82.4197 113.75 82.3507C113.805 82.1299 113.846 81.8953 113.888 81.6744C113.901 81.6054 113.957 81.564 114.026 81.5778C114.095 81.5916 114.122 81.6468 114.122 81.7159C114.081 81.9367 114.026 82.1713 113.984 82.3921C113.97 82.4611 113.915 82.4887 113.86 82.4887Z" fill="#D7F4DF"/>
<path d="M115.751 81.2052C115.737 81.2052 115.737 81.2052 115.723 81.2052C115.654 81.1914 115.613 81.1362 115.627 81.0672C115.861 79.8941 116.055 78.6934 116.248 77.5203L116.262 77.3961C116.275 77.3271 116.331 77.2857 116.4 77.2995C116.469 77.3133 116.51 77.3685 116.496 77.4375L116.482 77.5617C116.289 78.7348 116.096 79.9355 115.861 81.1086C115.847 81.1638 115.806 81.2052 115.751 81.2052Z" fill="#D7F4DF"/>
<path d="M61.2233 62.1733L60.2158 66.8105H60.2434C60.3676 67.0589 61.1129 67.2659 62.0652 67.2935C63.0174 67.3349 63.8455 67.1831 64.0663 66.9485H64.0939L65.1014 62.3114L61.2233 62.1733Z" fill="#FF3D00"/>
<path d="M65.1176 62.3011C65.1248 62.0192 64.2596 61.7684 63.1852 61.741C62.1109 61.7137 61.2341 61.92 61.2269 62.2019C61.2197 62.4839 62.0848 62.7346 63.1592 62.762C64.2336 62.7894 65.1104 62.583 65.1176 62.3011Z" fill="black"/>
<path d="M118.595 65.7481C118.553 65.7481 118.498 65.7205 118.484 65.6653L117.877 63.9677C117.849 63.9125 117.891 63.8435 117.946 63.8159C118.001 63.7883 118.07 63.8297 118.098 63.8849L118.705 65.5824C118.733 65.6377 118.691 65.7067 118.636 65.7343C118.622 65.7481 118.608 65.7481 118.595 65.7481Z" fill="#001331"/>
<path d="M117.448 65.3753C117.379 65.3753 117.324 65.3201 117.338 65.2511L117.366 63.94C117.366 63.871 117.421 63.8296 117.476 63.8296C117.545 63.8296 117.586 63.8848 117.586 63.9538L117.559 65.2649C117.573 65.3201 117.517 65.3753 117.448 65.3753Z" fill="#001331"/>
<path d="M116.179 65.4582C116.165 65.4582 116.137 65.4582 116.124 65.4444C116.068 65.4168 116.055 65.3478 116.082 65.2788L117.007 63.6641C117.034 63.6089 117.103 63.5951 117.172 63.6227C117.228 63.6503 117.241 63.7193 117.214 63.7883L116.289 65.403C116.262 65.4444 116.22 65.4582 116.179 65.4582Z" fill="#001331"/>
<path d="M118.787 57.8265L118.856 56.7638C118.856 56.7638 121.009 49.7115 120.029 49.463C119.049 49.2008 117.642 57.6057 117.642 57.6057L118.207 58.4199L118.787 57.8265Z" fill="#029D53"/>
<path d="M118.429 57.4952C118.429 57.4952 119.478 46.5096 118.194 46.62C116.911 46.7304 117.642 57.5918 117.642 57.5918L118.429 57.4952Z" fill="#45B874"/>
<path d="M118.857 56.7638C118.857 56.7638 118.18 56.9846 117.601 56.5981C117.601 56.5981 113.06 59.6896 113.461 61.6493C113.875 63.6091 116.083 64.7546 117.808 64.7684C119.533 64.7822 121.893 63.7471 121.921 61.8563C121.962 60.0346 118.857 56.7638 118.857 56.7638Z" fill="white"/>
<path d="M118.857 56.7638C118.857 56.7638 118.18 56.9846 117.601 56.5981C117.601 56.5981 113.06 59.6896 113.461 61.6493C113.875 63.6091 116.083 64.7546 117.808 64.7684C119.533 64.7822 121.893 63.7471 121.921 61.8563C121.962 60.0346 118.857 56.7638 118.857 56.7638Z" fill="#F3F3F3"/>
<path d="M114.55 56.7358C114.55 56.7358 117.186 56.3218 116.883 55.7698C116.579 55.2177 115.213 55.963 115.213 55.963C115.213 55.963 117.159 54.1826 116.4 53.7962C115.64 53.396 114.661 55.6732 114.661 55.6732C114.661 55.6732 115.378 54.1964 114.633 54.0998C113.888 53.9894 114.095 56.6668 114.095 56.6668L114.55 56.7358Z" fill="#029D53"/>
<path d="M115.502 58.2544C115.502 58.2544 116.634 62.1877 114.647 63.554C114.647 63.554 113.474 62.6569 113.239 61.194C113.059 60.0347 115.502 58.2544 115.502 58.2544Z" fill="black"/>
<path d="M114.592 56.3358C114.757 56.4324 114.868 56.5843 114.909 56.7637C115.158 57.785 115.917 61.2904 114.702 62.0495C113.267 62.9465 110.755 62.4083 109.692 60.5176C108.63 58.6268 109.416 57.1639 111.335 56.8051C112.522 56.5843 113.322 56.3772 113.764 56.2392C114.054 56.1564 114.343 56.184 114.592 56.3358Z" fill="#F3F3F3"/>
<path d="M111.542 62.5738C111.528 62.5738 111.528 62.5738 111.515 62.5738C111.446 62.56 111.418 62.5048 111.418 62.4358L111.653 61.3041C111.666 61.2351 111.722 61.2075 111.791 61.2075C111.86 61.2213 111.887 61.2765 111.887 61.3455L111.653 62.4772C111.639 62.5324 111.597 62.5738 111.542 62.5738Z" fill="#001331"/>
<path d="M110.755 62.4358C110.741 62.4358 110.714 62.4358 110.7 62.422C110.645 62.3944 110.631 62.3254 110.658 62.2564L111.348 61.0557C111.376 61.0005 111.445 60.9867 111.514 61.0143C111.569 61.0419 111.583 61.1109 111.555 61.1799L110.865 62.3806C110.838 62.422 110.796 62.4358 110.755 62.4358Z" fill="#001331"/>
<path d="M110.092 61.6078C110.051 61.6078 110.01 61.5802 109.982 61.5388C109.954 61.4836 109.968 61.4146 110.037 61.387L111.072 60.8488C111.128 60.8212 111.197 60.835 111.224 60.904C111.252 60.9592 111.238 61.0282 111.169 61.0558L110.134 61.594C110.134 61.594 110.12 61.6078 110.092 61.6078Z" fill="#001331"/>
<path d="M77.936 54.1969L82.6836 54.2383C84.1603 54.2383 85.5818 53.079 85.8578 51.6299L89.5841 32.1704C89.8601 30.7213 88.894 29.5482 87.4173 29.5482L82.6697 29.5068C81.193 29.5068 79.7715 30.6661 79.4955 32.1152L75.7692 51.5747C75.4932 53.0238 76.4731 54.1969 77.936 54.1969Z" fill="black"/>
<path d="M74.955 54.0865L79.7026 54.1279C81.1793 54.1279 82.6008 52.9686 82.8768 51.5195L86.6031 32.0601C86.8791 30.611 85.9131 29.4379 84.4363 29.4379L79.6888 29.3965C78.2121 29.3965 76.7906 30.5558 76.5145 32.0049L72.7883 51.4643C72.5122 52.9134 73.4783 54.0865 74.955 54.0865Z" fill="#FF5C36"/>
<path d="M76.626 49.5456L79.1378 49.5732C79.9107 49.5732 80.6559 48.9522 80.8077 48.1931L82.7813 37.939C82.9331 37.1799 82.4224 36.5589 81.6358 36.5589L79.124 36.5312C78.3511 36.5312 77.6059 37.1523 77.4541 37.9114L75.4805 48.1655C75.3425 48.9246 75.8531 49.5456 76.626 49.5456Z" fill="white"/>
<path d="M106.242 39.3192H108.589C108.727 39.3192 108.851 39.2088 108.878 39.0845L109.223 37.2904C109.251 37.1524 109.154 37.0558 109.03 37.042H106.684C106.546 37.042 106.422 37.1524 106.394 37.2766L106.049 39.0707C106.022 39.2087 106.104 39.3192 106.242 39.3192Z" fill="#D7F4DF"/>
<path d="M77.3292 30.6659L77.1084 31.6458C77.0808 31.7562 77.205 31.8528 77.3016 31.8114L79.4408 30.8591C79.9238 30.6383 80.1722 30.1 80.0342 29.5894L79.979 29.41H79.6892C78.6541 29.3962 77.9365 29.824 77.3292 30.6659Z" fill="black"/>
<path d="M109.844 77.3548L107.746 77.9206L110.672 71.3789L110.934 72.0552L110.727 76.3059C110.686 76.8027 110.327 77.2305 109.844 77.3548Z" fill="black"/>
<path d="M110.162 71.241L104.448 72.1381C103.965 72.2209 103.73 72.7729 104.006 73.1732L107.194 77.6447C107.484 78.0587 108.119 78.0035 108.326 77.5481L110.852 72.1933C111.086 71.6964 110.686 71.172 110.162 71.241Z" fill="#FF3D00"/>
<path d="M78.5435 28.8855L78.7229 30.2932L74.7344 27.8228L75.2036 27.7124L77.95 28.223C78.2536 28.292 78.5021 28.5543 78.5435 28.8855Z" fill="black"/>
<path d="M74.5967 28.1266L74.6657 31.9081C74.6657 32.2255 75.0107 32.4325 75.3005 32.2807L78.4886 30.6108C78.7784 30.459 78.806 30.045 78.5162 29.8655L75.2591 27.754C74.9831 27.5746 74.5967 27.7816 74.5967 28.1266Z" fill="#029D53"/>
<path d="M95.5875 113.072H100.597C101.039 113.072 101.412 112.755 101.494 112.327L104.696 94.2336C104.793 93.6815 104.365 93.1709 103.799 93.1709H98.7893C98.3477 93.1709 97.9751 93.4883 97.8923 93.9161L94.6904 112.009C94.5938 112.548 95.0216 113.072 95.5875 113.072Z" fill="#FF9600"/>
<path d="M108.119 104.363C107.843 104.695 107.622 105.026 107.511 105.329C107.097 106.461 105.924 112.975 105.441 115.749C105.317 116.453 105.773 117.005 106.476 117.005H118.276C118.939 117.005 119.574 116.467 119.712 115.804L121.713 105.605C121.713 105.605 121.74 105.274 121.644 104.777C117.145 104.501 112.632 104.391 108.119 104.363Z" fill="#029D53"/>
<path d="M116.58 104.543C113.764 104.432 110.949 104.391 108.133 104.377C107.857 104.708 107.636 105.039 107.526 105.343C107.112 106.475 105.939 112.989 105.456 115.763C105.332 116.467 105.787 117.019 106.491 117.019H114.565L116.58 104.543Z" fill="#45B874"/>
<path d="M121.119 108.697H113.184C112.866 108.697 112.604 108.904 112.521 109.207L112.011 111.25C111.9 111.678 112.231 112.092 112.673 112.092H120.443L121.119 108.697Z" fill="white"/>
<path d="M119.96 102.169H110.672L111.196 99.478H120.484L119.96 102.169Z" fill="black"/>
<path d="M107.416 115.239C107.402 115.239 107.388 115.239 107.388 115.239C107.292 115.225 107.236 115.128 107.25 115.032L107.706 112.727C107.719 112.63 107.816 112.575 107.913 112.589C108.009 112.603 108.064 112.699 108.051 112.796L107.595 115.101C107.568 115.184 107.499 115.239 107.416 115.239Z" fill="white"/>
<path d="M108.299 110.698C108.285 110.698 108.271 110.698 108.271 110.698C108.174 110.684 108.119 110.588 108.133 110.491L109.168 105.191C109.182 105.095 109.278 105.04 109.375 105.053C109.472 105.067 109.527 105.164 109.513 105.26L108.478 110.56C108.464 110.643 108.381 110.698 108.299 110.698Z" fill="white"/>
<path d="M118.291 117.185H106.491C106.104 117.185 105.759 117.033 105.539 116.757C105.304 116.481 105.221 116.108 105.29 115.722C105.773 112.961 106.96 106.42 107.374 105.274C107.912 103.798 110.617 101.962 110.742 101.879C110.824 101.824 110.935 101.852 110.99 101.921C111.045 102.003 111.018 102.114 110.949 102.169C110.921 102.183 108.216 104.018 107.719 105.399C107.319 106.516 106.146 113.044 105.649 115.791C105.594 116.081 105.663 116.343 105.828 116.55C105.994 116.743 106.229 116.853 106.518 116.853H118.318C118.898 116.853 119.464 116.384 119.574 115.791L121.575 105.606C121.589 105.454 121.686 103.646 119.74 102.335C119.547 102.197 119.395 102.1 119.271 102.017L111.018 101.921C110.921 101.921 110.838 101.838 110.838 101.741C110.838 101.645 110.921 101.562 111.018 101.562L118.939 101.658C118.939 101.631 118.953 101.603 118.981 101.576C119.077 101.41 119.243 101.493 119.574 101.686C119.629 101.727 119.671 101.783 119.657 101.852C119.726 101.907 119.823 101.962 119.919 102.031C122.086 103.494 121.92 105.55 121.907 105.633V105.647L119.905 115.846C119.754 116.591 119.022 117.185 118.291 117.185Z" fill="black"/>
<path d="M103.04 31.7011L100.432 31.6873C100.39 31.6873 100.363 31.6735 100.349 31.6459C100.335 31.6183 100.321 31.5907 100.321 31.5493L102.805 17.8173C102.819 17.7621 102.874 17.7207 102.916 17.7207L105.524 17.7345C105.566 17.7345 105.593 17.7483 105.607 17.7759C105.621 17.8035 105.635 17.8311 105.635 17.8725L103.151 31.6045C103.137 31.6597 103.095 31.7011 103.04 31.7011ZM100.556 31.4389L102.93 31.4527L105.372 17.9553L102.999 17.9415L100.556 31.4389Z" fill="black"/>
<path d="M99.1763 58.4335L94.0147 58.4059C93.4075 58.4059 92.9521 57.8538 93.0625 57.2604L98.4034 27.7124C98.6657 26.2633 100.032 25.104 101.453 25.104L104.158 25.1178C105.608 25.1316 106.56 26.3185 106.298 27.7952L101.039 56.8878C100.874 57.7848 100.087 58.4335 99.1763 58.4335Z" fill="#FB9A0B"/>
<path d="M105.248 22.6335L101.26 22.6059L102.405 16.2437L106.394 16.2575L105.248 22.6335Z" fill="black"/>
<path d="M97.2711 53.1892H96.3603C96.029 53.1892 95.7806 52.8856 95.8358 52.5543L99.5483 32.0046C99.5897 31.7424 99.8243 31.563 100.073 31.563H100.984C101.315 31.563 101.563 31.8666 101.508 32.1978L97.7956 52.7476C97.7542 52.996 97.5334 53.1892 97.2711 53.1892Z" fill="white"/>
<path d="M104.351 33.8266C104.338 33.8266 104.338 33.8266 104.324 33.8266C104.255 33.8128 104.213 33.7576 104.227 33.6886C104.407 32.6949 104.572 31.7702 104.724 30.8732C104.738 30.8042 104.793 30.7628 104.862 30.7766C104.931 30.7904 104.973 30.8456 104.959 30.9146C104.807 31.8254 104.641 32.7501 104.462 33.73C104.462 33.799 104.407 33.8266 104.351 33.8266Z" fill="white"/>
<path d="M104.903 28.2092C104.848 28.2092 104.793 28.1678 104.793 28.1126C104.627 27.1327 103.841 26.4565 102.806 26.3874C102.737 26.3874 102.695 26.3322 102.695 26.2632C102.695 26.1942 102.751 26.1528 102.82 26.1528C103.965 26.2218 104.834 26.9809 105.028 28.0712C105.041 28.1402 105 28.1954 104.931 28.2092C104.903 28.2092 104.903 28.2092 104.903 28.2092Z" fill="white"/>
<path d="M92.0545 12.6277C92.0545 12.6277 93.4484 11.5651 93.1172 10.806C93.1172 10.806 91.8889 10.7232 91.6681 11.1648C91.6681 11.1648 91.7785 9.63293 91.2403 9.41211C91.2403 9.41211 90.2742 10.4334 90.495 11.7169C90.495 11.7169 88.7285 11.8273 88.5215 12.6277C88.5353 12.6277 90.8815 13.5248 92.0545 12.6277Z" fill="#029D53"/>
<path d="M90.9369 11.7722C92.3723 11.3167 95.6431 10.9855 97.244 14.3116C98.8449 17.6514 94.8426 21.6537 90.4539 19.8872C86.079 18.1207 87.6247 12.8349 90.9369 11.7722Z" fill="#FF3D00"/>
<path d="M89.3915 17.5962C89.3501 17.5962 89.3225 17.5824 89.2949 17.5548C87.9286 15.6916 89.2811 13.7043 89.2949 13.6767C89.3363 13.6215 89.4053 13.6077 89.4605 13.6491C89.5157 13.6905 89.5295 13.7595 89.4881 13.8147C89.4329 13.8837 88.2184 15.6916 89.4881 17.4168C89.5295 17.472 89.5157 17.541 89.4605 17.5824C89.4329 17.5962 89.4053 17.5962 89.3915 17.5962Z" fill="white"/>
<path d="M93.1729 19.1558C93.1453 19.1558 93.1315 19.1558 93.1177 19.142C93.0625 19.1144 93.0487 19.0316 93.0763 18.9764L93.8354 17.7481C93.863 17.6929 93.9458 17.6791 94.001 17.7067C94.0562 17.7343 94.07 17.8171 94.0424 17.8723L93.2833 19.1006C93.2557 19.1282 93.2143 19.1558 93.1729 19.1558Z" fill="#001331"/>
<path d="M94.3591 18.5349H94.3453L92.6754 18.3002C92.6064 18.2864 92.565 18.2312 92.5788 18.1622C92.5926 18.0932 92.6478 18.0518 92.7168 18.0656L94.3867 18.3002C94.4558 18.3141 94.4972 18.3693 94.4834 18.4383C94.4696 18.4935 94.4143 18.5349 94.3591 18.5349Z" fill="#001331"/>
<path d="M126.971 116.426C125.591 108.946 114.978 117.475 114.978 117.475C114.978 117.475 115.406 115.377 113.281 111.913C111.155 108.449 105.248 111.913 105.248 111.913C105.248 111.913 110.12 102.459 101.287 96.5109C92.4548 90.5764 73.368 113.624 73.368 113.624C73.368 113.624 75.8797 104.888 66.6745 103.287C57.4692 101.672 54.3087 115.377 54.3087 115.377C54.3087 115.377 54.709 112.603 54.2535 109.718C54.2121 109.815 54.1845 109.912 54.1431 110.008C54.5571 113.417 53.8395 116.66 52.625 119.766H125.991C125.991 119.766 127.675 120.276 126.971 116.426Z" fill="#D7F4DF"/>
<path d="M63.39 97.8082C49.2439 88.0094 42.2882 115.584 42.2882 115.584C40.6873 113.072 38.1755 117.406 38.1755 117.406C38.1755 117.406 41.3911 103.729 33.3175 105.095C28.4044 105.923 25.934 110.464 24.7609 113.886C24.7609 113.831 24.7609 113.776 24.7609 113.735C24.7333 113.873 24.7057 114.024 24.6781 114.162C24.4573 115.335 24.2227 116.495 24.0294 117.668C23.8224 118.855 24.7333 119.931 25.934 119.945L66.4262 119.973C66.4262 119.973 77.536 107.621 63.39 97.8082Z" fill="#D7F4DF"/>
<path d="M73.1615 78.7349L66.4404 108.945H84.299L90.9649 76.6924L71.809 78.1553" fill="#D7F4DF"/>
<path d="M54.0325 116.605H49.5886C49.492 116.605 49.4092 116.522 49.4092 116.426C49.4092 116.329 49.492 116.246 49.5886 116.246H54.0325C54.1291 116.246 54.2119 116.329 54.2119 116.426C54.2119 116.522 54.1291 116.605 54.0325 116.605Z" fill="black"/>
<path d="M133.665 120C135.121 120 136.301 118.82 136.301 117.364C136.301 115.908 135.121 114.728 133.665 114.728C132.209 114.728 131.029 115.908 131.029 117.364C131.029 118.82 132.209 120 133.665 120Z" fill="#D7F4DF"/>
<path d="M75.6035 112.81C78.3703 112.81 80.6133 110.567 80.6133 107.8C80.6133 105.033 78.3703 102.79 75.6035 102.79C72.8367 102.79 70.5938 105.033 70.5938 107.8C70.5938 110.567 72.8367 112.81 75.6035 112.81Z" fill="#D7F4DF"/>
<path d="M90.9092 92.8946C91.7171 92.8946 92.3721 92.2396 92.3721 91.4317C92.3721 90.6237 91.7171 89.9688 90.9092 89.9688C90.1013 89.9688 89.4463 90.6237 89.4463 91.4317C89.4463 92.2396 90.1013 92.8946 90.9092 92.8946Z" fill="#D7F4DF"/>
<path d="M53.0531 99.7537C53.5943 99.7537 54.033 99.315 54.033 98.7738C54.033 98.2326 53.5943 97.7939 53.0531 97.7939C52.5119 97.7939 52.0732 98.2326 52.0732 98.7738C52.0732 99.315 52.5119 99.7537 53.0531 99.7537Z" fill="#D7F4DF"/>
<path d="M116.676 114.562C117.034 114.562 117.325 114.272 117.325 113.914C117.325 113.556 117.034 113.265 116.676 113.265C116.318 113.265 116.027 113.556 116.027 113.914C116.027 114.272 116.318 114.562 116.676 114.562Z" fill="#D7F4DF"/>
<path d="M60.1604 113.845C60.5186 113.845 60.809 113.554 60.809 113.196C60.809 112.838 60.5186 112.547 60.1604 112.547C59.8021 112.547 59.5117 112.838 59.5117 113.196C59.5117 113.554 59.8021 113.845 60.1604 113.845Z" fill="#D7F4DF"/>
<path d="M86.8938 104.184C86.8524 104.184 86.8248 104.17 86.7972 104.156C86.7144 104.101 86.7006 103.991 86.7558 103.908C90.1094 99.2016 94.9398 97.8905 94.9812 97.8767C95.0778 97.8491 95.1744 97.9043 95.1882 98.0009C95.2158 98.0976 95.1606 98.1942 95.064 98.208C95.0226 98.2218 90.3026 99.4915 87.0318 104.101C87.0042 104.156 86.949 104.184 86.8938 104.184Z" fill="white"/>
<path d="M26.6796 114.99C26.6658 114.99 26.6658 114.99 26.652 114.99C26.5553 114.976 26.4863 114.88 26.5139 114.783C26.6382 114.052 26.8452 113.306 27.1212 112.575C27.1626 112.478 27.2592 112.437 27.342 112.478C27.4386 112.52 27.48 112.616 27.4386 112.699C27.1626 113.417 26.9694 114.135 26.8452 114.852C26.8314 114.935 26.7624 114.99 26.6796 114.99Z" fill="white"/>
<path d="M27.7423 111.747C27.7147 111.747 27.6871 111.747 27.6733 111.733C27.5905 111.692 27.5491 111.581 27.5905 111.498C28.4047 109.815 29.4536 108.352 30.7233 107.165C30.7923 107.096 30.9027 107.096 30.9717 107.179C31.0407 107.248 31.0407 107.358 30.9579 107.427C29.7158 108.586 28.6945 110.008 27.8941 111.664C27.8665 111.719 27.8113 111.747 27.7423 111.747Z" fill="white"/>
<path d="M79.2889 48.014C79.2751 48.014 79.2613 48.014 79.2475 48.014C79.1509 48.0002 79.0957 47.9036 79.1095 47.807L81.0417 38.2428C81.6351 35.3032 84.2297 33.1641 87.2383 33.1641C89.1429 33.1641 90.9232 34.0059 92.1239 35.4826C93.3246 36.9455 93.8076 38.8639 93.435 40.727L92.0549 47.876C92.0411 47.9726 91.9445 48.0278 91.8479 48.014C91.7513 48.0002 91.6961 47.9036 91.7099 47.807L93.09 40.658C93.4488 38.8915 92.9934 37.0974 91.8479 35.7035C90.7162 34.3095 89.0325 33.5229 87.2383 33.5229C84.4091 33.5229 81.9387 35.5378 81.3867 38.3256L79.4545 47.8898C79.4407 47.9588 79.3579 48.014 79.2889 48.014Z" fill="black"/>
<path d="M98.6377 87.7882H83.705C83.5118 87.7882 83.36 87.6088 83.4014 87.4155L91.268 53.8238C91.3094 53.672 91.4474 53.5754 91.5992 53.5892L93.0759 53.7686C93.2139 53.7824 93.3381 53.7134 93.3933 53.5892L97.2576 44.6186C97.3404 44.4391 97.5612 44.3839 97.7131 44.4943L101.246 46.5231C101.357 46.5921 101.495 46.5921 101.605 46.5231L105.8 45.1568C105.98 45.0326 106.242 45.1292 106.284 45.3362C106.284 45.3362 98.8309 87.7882 98.6377 87.7882Z" fill="black"/>
<path d="M64.0107 87.7886H88.3281C88.5075 87.7886 88.6455 87.6644 88.6869 87.4988L97.4092 44.2739L93.7381 46.1233C93.6139 46.1785 93.4621 46.1785 93.3517 46.0957L91.0469 44.3981C90.9365 44.3153 90.7847 44.3015 90.6605 44.3705L87.3482 46.1233C87.224 46.1923 87.0722 46.1785 86.9618 46.0957L84.5742 44.3843C84.45 44.3015 84.2982 44.2877 84.174 44.3705L81.3586 46.1095C81.2344 46.1785 81.0826 46.1785 80.9584 46.0957L78.4052 44.3705C78.281 44.2877 78.1292 44.2877 78.0049 44.3705L75.2585 46.1095C75.1343 46.1923 74.9687 46.1785 74.8445 46.0957L72.7329 44.5637C72.5121 44.4119 72.2085 44.5223 72.1671 44.7846L63.6519 87.3608C63.6105 87.5816 63.7761 87.7886 64.0107 87.7886Z" fill="#029D53"/>
<path d="M65.0596 80.3357L90.6605 44.3702L87.3482 46.1229C87.224 46.1919 87.0722 46.1781 86.9618 46.0953L84.5742 44.384C84.45 44.3012 84.2982 44.2874 84.174 44.3702L81.3586 46.1091C81.2344 46.1781 81.0826 46.1781 80.9584 46.0953L78.4052 44.3702C78.281 44.2874 78.1291 44.2874 78.0049 44.3702L75.2585 46.1091C75.1343 46.1919 74.9687 46.1781 74.8445 46.0953L72.7329 44.5634C72.5121 44.4116 72.2085 44.522 72.1671 44.7842L65.0596 80.3357Z" fill="#45B874"/>
<path d="M95.2567 83.0682C95.2429 83.0682 95.2291 83.0682 95.2153 83.0682C95.1187 83.0406 95.0635 82.9578 95.0773 82.8612C95.4913 81.0671 95.7811 79.3557 95.9882 77.6306C96.002 77.534 96.0848 77.465 96.1814 77.4788C96.278 77.4926 96.347 77.5754 96.3332 77.672C96.1262 79.411 95.8363 81.1361 95.4223 82.944C95.4085 83.013 95.3395 83.0682 95.2567 83.0682Z" fill="white"/>
<path d="M96.6228 75.1878C96.609 75.1878 96.5952 75.1878 96.5952 75.1878C96.4986 75.174 96.4434 75.0774 96.4572 74.9808C98.0443 66.3689 99.5624 57.5777 100.97 48.8692C100.984 48.7726 101.081 48.7036 101.177 48.7312C101.274 48.745 101.343 48.8416 101.315 48.9382C99.9074 57.6329 98.3893 66.4242 96.8022 75.036C96.7884 75.1188 96.7056 75.1878 96.6228 75.1878Z" fill="white"/>
<path d="M90.909 84.0068C84.9055 83.993 78.7917 83.993 72.7468 84.0068C72.6502 84.0068 72.5674 83.924 72.5674 83.8274C72.5674 83.7308 72.6502 83.6479 72.7468 83.6479C78.7917 83.6479 84.9055 83.6479 90.909 83.6479C91.0056 83.6479 91.0884 83.7308 91.0884 83.8274C91.0884 83.924 91.0056 84.0068 90.909 84.0068Z" fill="black"/>
<path d="M68.7447 84.0068H65.529C65.4324 84.0068 65.3496 83.924 65.3496 83.8274C65.3496 83.7308 65.4324 83.6479 65.529 83.6479H68.7447C68.8413 83.6479 68.9241 83.7308 68.9241 83.8274C68.9241 83.924 68.8413 84.0068 68.7447 84.0068Z" fill="black"/>
<path d="M69.6282 70.551L78.1986 70.5648C78.6954 70.5648 79.1647 70.137 79.2613 69.6126L80.5172 62.4774C80.6138 61.953 80.2826 61.5252 79.7857 61.5114L71.2153 61.4976C70.7184 61.4976 70.2492 61.9254 70.1526 62.4498L68.7449 69.654C68.6621 70.1922 69.1313 70.551 69.6282 70.551Z" fill="#D7F4DF"/>
<path d="M74.5966 90.9627C74.5828 90.9627 74.5689 90.9627 74.5551 90.9627C74.4585 90.9489 74.4033 90.8523 74.4171 90.7557C74.4999 90.3555 74.5828 89.9691 74.6656 89.5688C74.6932 89.4722 74.776 89.417 74.8726 89.4308C74.9692 89.4584 75.0244 89.5412 75.0106 89.6378C74.9278 90.0381 74.845 90.4245 74.7622 90.8247C74.7484 90.9075 74.6794 90.9627 74.5966 90.9627Z" fill="black"/>
<path d="M84.9891 92.9088C84.9753 92.9088 84.9615 92.9088 84.9477 92.9088C84.8511 92.8812 84.7959 92.7846 84.8235 92.7018C84.9615 92.1221 85.0719 91.5839 85.1685 91.0594C85.2513 90.5902 85.348 90.121 85.4584 89.6103C85.486 89.5137 85.5688 89.4585 85.6654 89.4861C85.762 89.5137 85.8172 89.5965 85.7896 89.6931C85.6792 90.19 85.5826 90.6592 85.4998 91.1284C85.4032 91.6529 85.2927 92.2049 85.1547 92.7846C85.1409 92.8536 85.0719 92.9088 84.9891 92.9088Z" fill="black"/>
<path d="M70.8291 65.5963C72.223 65.9689 73.1891 67.1006 73.3547 68.5635C74.0171 67.142 75.2868 66.0241 76.7774 65.5825C75.3696 65.2236 74.3898 64.0781 74.2518 62.6152C73.6583 64.0643 72.3472 65.2098 70.8291 65.5963Z" fill="white"/>
<path d="M75.3418 68.1221C75.8524 68.2602 76.2113 68.6742 76.2665 69.2124C76.5149 68.688 76.9841 68.274 77.5224 68.1083C76.9979 67.9703 76.6391 67.5563 76.5977 67.0181C76.3907 67.5701 75.9076 67.9841 75.3418 68.1221Z" fill="white"/>
<path d="M38.2717 102.169H44.0957C44.2751 102.169 44.4407 102.031 44.4821 101.865L49.8783 77.1752C49.9197 77.0096 49.8231 76.8716 49.6437 76.8716H43.8197C43.6403 76.8716 43.4747 77.0096 43.4333 77.1752L38.0371 101.865C37.9956 102.031 38.1061 102.169 38.2717 102.169Z" fill="#D7F4DF"/>
<path d="M39.9831 106.875C39.9693 106.875 39.9555 106.875 39.9555 106.875C39.8589 106.861 39.8037 106.765 39.8175 106.668C40.1212 105.164 40.4524 103.632 40.7836 102.141C41.3218 99.7123 41.8877 97.2005 42.2741 94.6887C42.2879 94.5921 42.3845 94.5231 42.4673 94.5369C42.5639 94.5507 42.6329 94.6473 42.6191 94.7301C42.2327 97.2419 41.6669 99.7675 41.1286 102.21C40.7974 103.687 40.4524 105.219 40.1626 106.723C40.135 106.82 40.0521 106.875 39.9831 106.875Z" fill="black"/>
<path d="M38.41 95.2962C38.3962 95.2962 38.3824 95.2962 38.3686 95.2962C38.272 95.2824 38.2168 95.1858 38.2306 95.0892C38.3134 94.689 38.3962 94.3025 38.479 93.9023C38.5066 93.8057 38.5894 93.7505 38.686 93.7643C38.7827 93.7919 38.8379 93.8747 38.8241 93.9713C38.7412 94.3715 38.6584 94.758 38.5756 95.1582C38.5618 95.241 38.4928 95.2962 38.41 95.2962Z" fill="black"/>
<path d="M39.0868 92.0806C39.073 92.0806 39.0592 92.0806 39.0454 92.0806C38.9488 92.053 38.8936 91.9564 38.9212 91.8736C39.0592 91.294 39.1696 90.7557 39.2662 90.2313C39.349 89.7621 39.4456 89.2928 39.556 88.7822C39.5836 88.6856 39.6664 88.6304 39.763 88.658C39.8596 88.6856 39.9148 88.7684 39.8872 88.865C39.7768 89.3618 39.6802 89.8311 39.5974 90.3003C39.5008 90.8247 39.3904 91.3768 39.2524 91.9564C39.2248 92.0254 39.1558 92.0806 39.0868 92.0806Z" fill="black"/>
<path d="M71.8085 96.6487C71.7947 96.6487 71.7809 96.6487 71.7671 96.6487C71.6704 96.6211 71.6152 96.5383 71.6428 96.4417C72.1535 94.3301 72.5675 92.1496 72.9677 90.0518C73.0644 89.5274 73.1748 89.0029 73.2714 88.4785C73.2852 88.3819 73.3818 88.3267 73.4784 88.3405C73.575 88.3543 73.6302 88.4509 73.6164 88.5475C73.5198 89.0719 73.4094 89.5964 73.3128 90.1208C72.9125 92.2324 72.4847 94.3991 71.9741 96.5245C71.9603 96.5935 71.8913 96.6487 71.8085 96.6487Z" fill="black"/>
<path d="M98.7655 111.482C100.798 110.293 101.717 108.081 100.816 106.541C99.9155 105.002 97.5374 104.718 95.5044 105.907C93.4713 107.096 92.5533 109.308 93.4538 110.848C94.3543 112.387 96.7324 112.671 98.7655 111.482Z" fill="white"/>
<path d="M99.4325 116.317C101.465 115.128 102.384 112.916 101.483 111.376C100.583 109.837 98.2044 109.553 96.1714 110.742C94.1383 111.931 93.2203 114.143 94.1208 115.683C95.0213 117.222 97.3994 117.506 99.4325 116.317Z" fill="#D7F4DF"/>
<path d="M55.2059 119.31H49.8925C49.4647 119.31 49.1334 118.923 49.1886 118.495L51.3278 104.377H57.4693L55.2059 119.31Z" fill="#45B874"/>
<path d="M55.2061 119.31H60.3538C60.8369 119.31 61.2371 118.965 61.3199 118.482L63.4453 104.377H57.4556L55.2061 119.31Z" fill="#029D53"/>
<path d="M61.0304 114.176C61.2134 114.176 61.3617 114.027 61.3617 113.844C61.3617 113.661 61.2134 113.513 61.0304 113.513C60.8475 113.513 60.6992 113.661 60.6992 113.844C60.6992 114.027 60.8475 114.176 61.0304 114.176Z" fill="#D7F4DF"/>
<path d="M61.0305 101.838H54.5303L54.7373 100.43C54.7925 100.044 55.1375 99.7539 55.5239 99.7539H61.3342L61.0305 101.838Z" fill="#45B874"/>
<path d="M51.3281 104.377L54.53 101.838H61.0302L57.4558 104.377H51.3281Z" fill="white"/>
<path d="M63.4457 104.377L61.1685 101.838L57.4561 104.377H63.4457Z" fill="black"/>
<path d="M61.1677 102.238H61.1539C61.0573 102.224 60.9883 102.142 60.9883 102.045L61.1677 99.961C61.1815 99.8644 61.2643 99.7954 61.3609 99.7954C61.4575 99.8092 61.5265 99.892 61.5265 99.9886L61.3471 102.073C61.3333 102.169 61.2643 102.238 61.1677 102.238Z" fill="black"/>
<path d="M55.5144 112.178C55.9642 110.107 55.4171 108.23 54.2924 107.986C53.1678 107.742 51.8913 109.222 51.4415 111.293C50.9916 113.363 51.5387 115.24 52.6634 115.484C53.7881 115.729 55.0645 114.248 55.5144 112.178Z" fill="white"/>
<path d="M43.958 119.462C43.958 119.462 46.3594 113.182 53.0529 118.22C53.0529 118.22 60.7539 112.396 66.4261 117.157L71.8085 119.42L43.958 119.462Z" fill="#D7F4DF"/>
<path d="M79.3713 102.266C79.7295 102.266 80.02 101.975 80.02 101.617C80.02 101.259 79.7295 100.968 79.3713 100.968C79.0131 100.968 78.7227 101.259 78.7227 101.617C78.7227 101.975 79.0131 102.266 79.3713 102.266Z" fill="#D7F4DF"/>
<path d="M58.1868 114.935C58.7203 114.935 59.1528 114.503 59.1528 113.969C59.1528 113.435 58.7203 113.003 58.1868 113.003C57.6532 113.003 57.2207 113.435 57.2207 113.969C57.2207 114.503 57.6532 114.935 58.1868 114.935Z" fill="#D7F4DF"/>
<path d="M99.8111 14.8498C99.7559 14.8498 99.7007 14.8084 99.7007 14.7532C99.6179 14.2012 99.7421 13.7595 100.06 13.4007C100.819 12.5588 102.433 12.6278 102.502 12.6278C102.571 12.6278 102.613 12.683 102.613 12.752C102.613 12.821 102.558 12.8625 102.489 12.8625C102.475 12.8625 100.915 12.7934 100.225 13.5525C99.963 13.8423 99.8525 14.2426 99.9215 14.7118C99.9353 14.7808 99.8802 14.836 99.8249 14.8498C99.8249 14.8498 99.8249 14.8498 99.8111 14.8498Z" fill="black"/>
<path d="M90.8814 32.9294C90.8676 32.9294 90.8676 32.9294 90.8538 32.9294C90.7848 32.9156 90.7572 32.8466 90.771 32.7914L91.4749 29.8656C91.4887 29.7965 91.5577 29.7689 91.6129 29.7827C91.6819 29.7965 91.7095 29.8656 91.6957 29.9208L90.9918 32.8466C90.9918 32.9018 90.9366 32.9294 90.8814 32.9294Z" fill="black"/>
<path d="M92.5377 31.2593C92.5239 31.2593 92.5239 31.2593 92.5101 31.2593C92.4411 31.2455 92.4135 31.1765 92.4273 31.1213L92.7309 29.8792C92.7447 29.8102 92.8137 29.7826 92.8689 29.7964C92.9379 29.8102 92.9655 29.8792 92.9517 29.9344L92.6481 31.1765C92.6343 31.2317 92.5791 31.2593 92.5377 31.2593Z" fill="black"/>
<path d="M103.827 102.9C103.758 102.9 103.703 102.845 103.717 102.776C103.855 100.678 106.256 99.519 106.353 99.4776C106.408 99.45 106.477 99.4776 106.505 99.5328C106.532 99.588 106.505 99.657 106.45 99.6846C106.422 99.6984 104.076 100.83 103.952 102.79C103.938 102.845 103.896 102.9 103.827 102.9Z" fill="black"/>
<path d="M79.6615 107.772C79.6339 107.731 79.5925 107.703 79.5373 107.69C79.4406 107.676 79.344 107.731 79.3164 107.841L77.9087 115.239C77.8949 115.294 77.9087 115.335 77.9363 115.377C77.9639 115.418 78.0053 115.446 78.0605 115.46C78.0743 115.46 78.0881 115.46 78.0881 115.46C78.171 115.46 78.2538 115.391 78.2676 115.308L79.6753 107.91C79.7029 107.869 79.6891 107.814 79.6615 107.772Z" fill="black"/>
<path d="M76.8736 97.3385C76.8736 97.3385 76.0455 93.074 77.467 92.1769C78.8885 91.2798 77.4118 97.6697 77.4118 97.6697C77.4118 97.6697 79.689 89.2511 82.049 89.9825C84.4089 90.714 78.0467 98.0561 78.0467 98.0561L76.8736 97.3385Z" fill="#029D53"/>
<path d="M77.3014 96.1518C79.206 96.0138 81.4003 98.1805 80.1858 100.389C79.5372 101.576 76.9012 106.737 74.5964 111.25C73.934 112.561 71.9466 111.913 72.1812 110.463L74.0168 99.2294C74.0168 99.2294 74.3618 96.3588 77.3014 96.1518Z" fill="#FF3D00"/>
<path d="M72.1812 110.464L73.6994 101.12C75.2037 100.43 77.122 100.389 78.9576 102.749C77.8121 104.957 76.1283 108.255 74.5964 111.264C73.934 112.561 71.9466 111.913 72.1812 110.464Z" fill="#FF5C36"/>
<path d="M72.1812 110.464L72.9403 105.799C74.141 105.426 75.6453 105.385 76.915 106.696C76.1559 108.173 75.3555 109.746 74.5826 111.25C73.934 112.561 71.9466 111.913 72.1812 110.464Z" fill="#FF9600"/>
<path d="M76.9017 106.916C76.8465 106.916 76.7913 106.889 76.7637 106.847C76.7637 106.834 76.0598 105.881 75.0523 105.826C74.9557 105.826 74.8867 105.743 74.8867 105.647C74.8867 105.55 74.9695 105.481 75.0661 105.481C75.9218 105.523 76.5566 106.102 76.8603 106.42C77.2881 105.523 77.7849 104.653 78.268 103.811C78.4474 103.494 78.6268 103.19 78.8062 102.873C78.6268 102.542 77.7987 101.175 75.4526 100.968C75.356 100.954 75.2869 100.872 75.2869 100.775C75.2869 100.678 75.3836 100.609 75.4802 100.609C78.337 100.858 79.1374 102.721 79.165 102.804C79.1788 102.859 79.1788 102.914 79.1512 102.956C78.958 103.301 78.7648 103.632 78.5716 103.977C78.0472 104.888 77.5089 105.84 77.0535 106.806C77.0259 106.861 76.9707 106.903 76.9155 106.903C76.9155 106.916 76.9017 106.916 76.9017 106.916Z" fill="black"/>
<path d="M71.063 114.59C73.2277 114.59 74.9825 112.835 74.9825 110.67C74.9825 108.506 73.2277 106.751 71.063 106.751C68.8984 106.751 67.1436 108.506 67.1436 110.67C67.1436 112.835 68.8984 114.59 71.063 114.59Z" fill="#D7F4DF"/>
<path d="M79.7029 102.031C80.3813 102.031 80.9312 101.481 80.9312 100.803C80.9312 100.125 80.3813 99.5747 79.7029 99.5747C79.0245 99.5747 78.4746 100.125 78.4746 100.803C78.4746 101.481 79.0245 102.031 79.7029 102.031Z" fill="#D7F4DF"/>
<path d="M41.1983 78.7485C41.1845 78.7485 41.1707 78.7485 41.1569 78.7347C41.1017 78.7071 41.0603 78.6381 41.0879 78.5829L42.6612 74.5392C42.6888 74.484 42.7578 74.4426 42.813 74.4702C42.8682 74.4978 42.9096 74.5668 42.882 74.622L41.3087 78.6657C41.2811 78.7209 41.2397 78.7485 41.1983 78.7485Z" fill="#001331"/>
<path d="M47.5057 91.9562C50.7222 91.9562 53.3297 89.3487 53.3297 86.1321C53.3297 82.9156 50.7222 80.3081 47.5057 80.3081C44.2891 80.3081 41.6816 82.9156 41.6816 86.1321C41.6816 89.3487 44.2891 91.9562 47.5057 91.9562Z" fill="#FF9600"/>
<path d="M42.7438 82.7785C40.9635 85.3041 41.4741 88.7406 43.8341 90.6589C46.9255 87.9401 46.7047 83.9792 45.0624 80.7222C43.4753 80.9016 43.7375 81.3708 42.7438 82.7785Z" fill="black"/>
<path d="M39.97 87.5675C42.9274 87.5675 45.3248 85.1701 45.3248 82.2127C45.3248 79.2553 42.9274 76.8579 39.97 76.8579C37.0127 76.8579 34.6152 79.2553 34.6152 82.2127C34.6152 85.1701 37.0127 87.5675 39.97 87.5675Z" fill="#FF9600"/>
<path d="M37.5818 85.7043C37.5266 85.7043 37.4852 85.6629 37.4714 85.6077C37.4576 85.5386 37.499 85.4834 37.5542 85.4696L40.2316 84.8762C40.3006 84.8624 40.3558 84.9038 40.3696 84.959C40.3834 85.028 40.342 85.0832 40.2868 85.097L37.6094 85.6905C37.5956 85.7043 37.5956 85.7043 37.5818 85.7043Z" fill="#001331"/>
<path d="M39.9281 86.8774C39.8867 86.8774 39.8453 86.8498 39.8177 86.8084L38.2306 83.7032C38.203 83.648 38.2306 83.579 38.2858 83.5514C38.341 83.5238 38.41 83.5514 38.4376 83.6066L40.0247 86.7118C40.0523 86.767 40.0247 86.836 39.9695 86.8636C39.9695 86.8636 39.9557 86.8774 39.9281 86.8774Z" fill="#001331"/>
<path d="M50.9275 84.3243C50.8723 84.3243 50.8171 84.2829 50.8171 84.2277C50.8033 84.1587 50.8447 84.1035 50.9137 84.0897L55.2472 83.2893C55.3162 83.2755 55.3714 83.3169 55.3852 83.3859C55.399 83.4549 55.3576 83.5101 55.2886 83.5239L50.9551 84.3243C50.9413 84.3243 50.9413 84.3243 50.9275 84.3243Z" fill="#001331"/>
<path d="M52.4738 75.2847C52.4738 75.2847 47.9471 79.011 51.839 84.0345C51.839 84.0483 56.9315 79.9218 52.4738 75.2847Z" fill="#029D53"/>
<path d="M35.76 81.9504C35.691 81.9504 35.6358 81.8952 35.6496 81.8262C35.6634 81.4812 35.7048 81.1499 35.7738 80.8463C35.7876 80.7773 35.8428 80.7359 35.9118 80.7497C35.9808 80.7635 36.0222 80.8187 36.0084 80.8877C35.9532 81.1914 35.9118 81.5088 35.898 81.84C35.8842 81.8952 35.829 81.9504 35.76 81.9504Z" fill="white"/>
<path d="M36.34 79.6594C36.3262 79.6594 36.2986 79.6594 36.2848 79.6456C36.2296 79.618 36.202 79.549 36.2296 79.4938C36.7264 78.5415 37.5269 77.7963 38.3963 77.5064C38.4515 77.4926 38.5205 77.5202 38.5481 77.5755C38.562 77.6307 38.5343 77.6997 38.4791 77.7273C37.6649 77.9895 36.9058 78.6933 36.4504 79.5904C36.4228 79.6456 36.3814 79.6594 36.34 79.6594Z" fill="white"/>
<path d="M90.0811 58.8336C90.3019 58.2954 90.4537 57.7295 90.5227 57.1499C90.9919 53.603 88.5078 50.7324 84.9609 50.7324C81.414 50.7324 78.157 53.603 77.6878 57.1499C77.2185 60.6968 79.7027 63.5674 83.2496 63.5674C83.9534 63.5674 84.6435 63.457 85.3059 63.2499" fill="#FF3D00"/>
<path d="M84.9607 50.7324C81.4139 50.7324 78.1568 53.603 77.6876 57.1499C77.522 58.3506 77.7014 59.4685 78.1568 60.4345L85.0849 50.7324C85.0297 50.7324 84.9883 50.7324 84.9607 50.7324Z" fill="#FF9600"/>
<path d="M85.3057 63.2503C86.1475 61.194 87.9279 59.4964 90.067 58.834L85.3057 63.2503Z" fill="black"/>
<path d="M84.4363 56.1838C81.8831 56.1838 80.1442 54.7071 80.1166 54.6933C80.0614 54.6519 80.0614 54.5829 80.1028 54.5277C80.1442 54.4725 80.2132 54.4725 80.2684 54.5139C80.3098 54.5415 84.0912 57.7433 88.6318 54.5139C88.687 54.4725 88.756 54.4863 88.7974 54.5415C88.8388 54.5967 88.825 54.6657 88.7698 54.7071C87.1965 55.8112 85.706 56.1838 84.4363 56.1838Z" fill="black"/>
<path d="M83.0702 54.7076C82.4216 54.7076 82.0904 54.1003 82.0076 53.7691C81.9938 53.7001 82.0352 53.6449 82.0904 53.6311C82.1594 53.6173 82.2146 53.6587 82.2284 53.7139C82.2422 53.7415 82.4354 54.5144 83.1254 54.473C83.8155 54.4178 83.9121 53.7553 83.9121 53.7277C83.9259 53.6587 83.9811 53.6173 84.0501 53.6311C84.1191 53.6449 84.1605 53.7001 84.1467 53.7553C84.1053 54.0589 83.8431 54.6524 83.1392 54.7076C83.1116 54.7076 83.0978 54.7076 83.0702 54.7076Z" fill="black"/>
<path d="M85.6788 54.7074C85.6512 54.7074 85.6236 54.7074 85.596 54.7074C85.3338 54.6936 85.1268 54.597 84.9888 54.4314C84.7542 54.1416 84.8094 53.7552 84.8094 53.7414C84.8232 53.6724 84.8784 53.6309 84.9336 53.6447C85.0026 53.6585 85.044 53.7138 85.0302 53.769C85.0302 53.769 84.9888 54.0726 85.1682 54.2796C85.2648 54.39 85.4166 54.459 85.6098 54.4728C86.2999 54.528 86.7277 53.7 86.7415 53.6861C86.7691 53.6309 86.8381 53.6033 86.8933 53.6309C86.9485 53.6585 86.9761 53.7276 86.9485 53.7828C86.9347 53.838 86.4793 54.7074 85.6788 54.7074Z" fill="black"/>
<path d="M78.6545 59.0131C78.5855 59.0131 78.5165 58.9717 78.4889 58.8889C78.3923 58.6129 78.3371 58.3368 78.2957 58.047C78.2819 57.9504 78.3509 57.8676 78.4475 57.8538C78.5441 57.84 78.6269 57.909 78.6407 58.0056C78.6821 58.2678 78.7373 58.5301 78.8201 58.7923C78.8477 58.8889 78.8063 58.9855 78.7097 59.0131C78.6959 59.0131 78.6683 59.0131 78.6545 59.0131Z" fill="white"/>
<path d="M78.4333 57.3156C78.4195 57.3156 78.4195 57.3156 78.4333 57.3156C78.3229 57.3156 78.2539 57.2328 78.2539 57.1362C78.2953 56.4186 78.4885 55.6871 78.8198 55.0385C78.8612 54.9557 78.9716 54.9143 79.0544 54.9695C79.1372 55.0109 79.1786 55.1213 79.1234 55.2041C78.806 55.8113 78.6265 56.4876 78.5851 57.1638C78.5989 57.2328 78.5161 57.3156 78.4333 57.3156Z" fill="white"/>
<path d="M89.198 68.0527C88.5908 66.5622 86.8794 65.8445 85.3751 66.4518L71.0082 72.3586C69.5177 72.9658 68.8001 74.6772 69.4073 76.1815C70.0146 77.672 71.7259 78.3896 73.2302 77.7824L87.5971 71.8756" fill="white"/>
<path d="M72.3476 76.9546C72.1129 76.9546 71.8783 76.927 71.6575 76.8718C71.0089 76.7062 70.5258 76.3335 70.3188 75.8091C70.098 75.2846 70.1808 74.6774 70.5258 74.0978C70.8708 73.5457 71.4229 73.0765 72.1129 72.8005L84.9893 67.5147C86.4384 66.9212 88.0117 67.6527 88.4396 68.7016C88.481 68.7844 88.4396 68.8948 88.343 68.9362C88.2601 68.9776 88.1497 68.9362 88.1083 68.8396C87.7495 67.9563 86.3556 67.3215 85.1135 67.8321L72.2371 73.1179C71.6299 73.3663 71.1193 73.7803 70.8156 74.2772C70.5258 74.7464 70.4568 75.2432 70.6362 75.6711C70.8156 76.0989 71.2021 76.4025 71.7403 76.5267C72.3062 76.6647 72.941 76.5957 73.562 76.3473L87.4459 70.7717C87.5425 70.7303 87.6391 70.7855 87.6667 70.8683C87.7081 70.9511 87.6529 71.0615 87.5701 71.0891L73.6863 76.6786C73.2446 76.858 72.7892 76.9546 72.3476 76.9546Z" fill="black"/>
<path d="M87.569 71.9307C86.9065 70.454 87.7208 68.7289 89.1975 68.0664L87.569 71.9307Z" fill="black"/>
<path d="M72.623 75.0915C72.554 75.0915 72.485 75.0501 72.4574 74.9811C72.416 74.8983 72.4574 74.7879 72.554 74.7465C74.3481 73.9875 76.1699 73.2698 78.0192 72.5522C78.1158 72.5108 78.2124 72.566 78.24 72.6488C78.2676 72.7316 78.2262 72.842 78.1434 72.8696C76.2941 73.5872 74.4723 74.3049 72.6782 75.0639C72.6782 75.0777 72.6506 75.0915 72.623 75.0915Z" fill="black"/>
<path d="M79.5098 72.2622C79.4408 72.2622 79.3718 72.2208 79.3442 72.1518C79.3028 72.0552 79.358 71.9586 79.4408 71.931C79.8686 71.7654 81.5661 71.0339 83.2222 70.3301C84.6161 69.7366 85.9273 69.1708 86.2999 69.019C86.3965 68.9776 86.4931 69.0328 86.5207 69.1156C86.5621 69.2122 86.5069 69.3088 86.4241 69.3364C86.0653 69.4744 84.7542 70.0402 83.3603 70.6475C81.7041 71.3513 80.0066 72.0828 79.565 72.2622C79.5512 72.2622 79.5374 72.2622 79.5098 72.2622Z" fill="black"/>
<path d="M125.991 119.986H56.7653C56.6687 119.986 56.5859 119.903 56.5859 119.807C56.5859 119.71 56.6687 119.627 56.7653 119.627H125.991C126.088 119.627 126.171 119.71 126.171 119.807C126.171 119.903 126.088 119.986 125.991 119.986Z" fill="black"/>
<path d="M54.0325 119.986H49.5886C49.492 119.986 49.4092 119.903 49.4092 119.807C49.4092 119.71 49.492 119.627 49.5886 119.627H54.0325C54.1291 119.627 54.2119 119.71 54.2119 119.807C54.2119 119.903 54.1291 119.986 54.0325 119.986Z" fill="black"/>
</svg>
