<svg width="152" height="46" viewBox="0 0 152 46" fill="none" xmlns="http://www.w3.org/2000/svg">
<path d="M0 4C0 1.79086 1.79086 0 4 0H148C150.209 0 152 1.79086 152 4V41.037C152 43.2462 150.209 45.037 148 45.037H4C1.79086 45.037 0 43.2462 0 41.037V4Z" fill="#3A3C3B"/>
<path d="M119.607 17.0629C119.429 17.2479 119.338 17.471 119.338 17.7321C119.338 17.9933 119.429 18.2191 119.607 18.4095C119.788 18.5999 120.009 18.6952 120.271 18.6952C120.526 18.6952 120.742 18.5999 120.921 18.4095C121.099 18.2191 121.19 17.9933 121.19 17.7321C121.19 17.471 121.099 17.2479 120.921 17.0629C120.742 16.8779 120.526 16.7854 120.271 16.7854C120.009 16.7854 119.788 16.8779 119.607 17.0629Z" fill="white"/>
<path fill-rule="evenodd" clip-rule="evenodd" d="M117.248 25.42H117.141C116.834 25.42 116.542 25.3901 116.263 25.3303C115.983 25.2704 115.732 25.148 115.51 24.963C115.204 25.2677 114.819 25.42 114.355 25.42H107.995C107.417 25.42 106.984 25.2459 106.699 24.8977C106.413 24.5495 106.272 24.0544 106.272 23.4123V21.5352H107.475V23.2165C107.475 23.5647 107.545 23.8068 107.688 23.9428C107.829 24.0789 108.059 24.1469 108.375 24.1469H114.102C114.429 24.1469 114.64 24.0707 114.735 23.9183C114.831 23.766 114.877 23.5334 114.877 23.2165V21.5352H116.111V23.2818C116.111 23.6191 116.219 23.8476 116.437 23.9673C116.653 24.087 116.887 24.1469 117.141 24.1469L120.558 24.147C120.937 24.147 121.182 24.0681 121.293 23.9103C121.404 23.7525 121.454 23.5648 121.443 23.3472L119.893 23.2982C119.355 23.2764 118.965 23.0915 118.722 22.7432C118.48 22.395 118.358 21.9489 118.358 21.4048C118.358 21.111 118.407 20.8403 118.507 20.5886C118.609 20.3384 118.749 20.1207 118.928 19.9357C119.107 19.7507 119.321 19.6066 119.569 19.5032C119.817 19.3998 120.093 19.3481 120.399 19.3481C120.757 19.3481 121.074 19.4256 121.349 19.5766C121.623 19.729 121.852 19.9276 122.037 20.1724C122.221 20.4173 122.36 20.6947 122.456 21.0049C122.551 21.315 122.598 21.6333 122.598 21.9597V22.8901C122.598 23.2275 122.561 23.5485 122.488 23.8532C122.412 24.1592 122.299 24.4272 122.147 24.6612C121.995 24.8965 121.801 25.0801 121.57 25.2161C121.338 25.3521 121.064 25.4202 120.747 25.4202H117.267L117.248 25.42ZM121.356 21.5598C121.414 21.7393 121.443 21.9175 121.443 22.0902L120.146 22.0413C119.977 22.0318 119.806 21.9896 119.632 21.9189C119.458 21.8481 119.371 21.6985 119.371 21.47C119.371 21.2306 119.437 21.0293 119.569 20.866C119.701 20.7028 119.934 20.6212 120.271 20.6212C120.452 20.6212 120.613 20.6647 120.755 20.7518C120.898 20.8402 121.019 20.9504 121.119 21.0864C121.219 21.2224 121.298 21.3802 121.356 21.5598Z" fill="white"/>
<path d="M102 25.4197H100.845V17.4706H102V25.4197Z" fill="white"/>
<path d="M97.6969 18.581C97.5163 18.766 97.428 18.9891 97.428 19.2502C97.428 19.5114 97.5163 19.7372 97.6969 19.9276C97.8762 20.1181 98.0977 20.2133 98.3614 20.2133C98.6145 20.2133 98.8294 20.1181 99.01 19.9276C99.1893 19.7372 99.279 19.5114 99.279 19.2502C99.279 18.9891 99.1893 18.766 99.01 18.581C98.8294 18.396 98.6145 18.3035 98.3614 18.3035C98.0977 18.3035 97.8762 18.396 97.6969 18.581Z" fill="white"/>
<path d="M97.1353 26.8078C96.7714 27.1233 96.2203 27.2811 95.482 27.2811H94.7227L94.9441 28.5543L95.925 28.5706C96.3891 28.5801 96.8083 28.4999 97.1814 28.3258C97.5572 28.1517 97.8736 27.9123 98.132 27.6076C98.3891 27.3029 98.5908 26.9438 98.7332 26.5303C98.8756 26.1168 98.9468 25.6706 98.9468 25.1918V21.5355H97.6811V25.5019C97.6811 26.0569 97.4992 26.4922 97.1353 26.8078Z" fill="white"/>
<path d="M111.302 19.707C111.302 19.4785 111.38 19.2827 111.533 19.1194C111.684 18.9562 111.873 18.8746 112.094 18.8746C112.316 18.8746 112.502 18.9562 112.655 19.1194C112.809 19.2827 112.884 19.4785 112.884 19.707C112.884 19.9247 112.809 20.1124 112.655 20.2702C112.502 20.428 112.316 20.5069 112.094 20.5069C111.873 20.5069 111.684 20.428 111.533 20.2702C111.38 20.1124 111.302 19.9247 111.302 19.707Z" fill="white"/>
<path d="M109.15 19.707C109.15 19.4785 109.228 19.2827 109.38 19.1194C109.533 18.9562 109.726 18.8746 109.957 18.8746C110.169 18.8746 110.35 18.9562 110.504 19.1194C110.657 19.2827 110.732 19.4785 110.732 19.707C110.732 19.9247 110.657 20.1124 110.504 20.2702C110.35 20.428 110.169 20.5069 109.957 20.5069C109.726 20.5069 109.533 20.428 109.38 20.2702C109.228 20.1124 109.15 19.9247 109.15 19.707Z" fill="white"/>
<path d="M126.49 25.4203C125.877 25.4203 125.393 25.2598 125.035 24.9388C124.676 24.6178 124.496 24.0968 124.496 23.38V17.4711H125.698V23.1678C125.698 23.5799 125.781 23.8479 125.944 23.9676C126.108 24.0873 126.332 24.1458 126.617 24.1458L128.499 24.1463C128.698 24.1463 128.86 24.1232 128.982 24.0729C129.103 24.0239 129.195 23.9586 129.259 23.8784C129.322 23.7954 129.361 23.6974 129.377 23.5832C129.393 23.4689 129.401 23.3465 129.401 23.2173V21.5361H130.635V23.4118C130.635 24.0212 130.49 24.5095 130.2 24.8727C129.909 25.2386 129.464 25.4209 128.862 25.4209H126.901C126.889 25.4209 126.876 25.4207 126.863 25.4203H126.49Z" fill="white"/>
<path d="M128.459 26.9959C128.306 27.1523 128.23 27.3414 128.23 27.5577C128.23 27.7876 128.306 27.9821 128.459 28.1467C128.612 28.3099 128.805 28.3901 129.037 28.3901C129.246 28.3901 129.429 28.3099 129.582 28.1467C129.735 27.9821 129.812 27.7876 129.812 27.5577C129.812 27.3414 129.735 27.1523 129.582 26.9959C129.429 26.8381 129.246 26.7579 129.037 26.7579C128.805 26.7579 128.612 26.8381 128.459 26.9959Z" fill="white"/>
<path d="M126.434 26.9959C126.281 27.1523 126.205 27.3414 126.205 27.5577C126.205 27.7876 126.281 27.9821 126.434 28.1467C126.587 28.3099 126.774 28.3901 126.994 28.3901C127.217 28.3901 127.404 28.3099 127.557 28.1467C127.709 27.9821 127.787 27.7876 127.787 27.5577C127.787 27.3414 127.709 27.1523 127.557 26.9959C127.404 26.8381 127.217 26.7579 126.994 26.7579C126.774 26.7579 126.587 26.8381 126.434 26.9959Z" fill="white"/>
<path d="M132.778 26.8071C133.141 26.4929 133.324 26.0563 133.324 25.5013V21.5362H134.59V25.1925C134.59 25.6699 134.517 26.1161 134.376 26.5296C134.234 26.9445 134.032 27.3022 133.775 27.6069C133.517 27.9116 133.199 28.1483 132.824 28.3169C132.451 28.4856 132.032 28.57 131.568 28.57L131.03 28.5536L130.825 27.2818H131.125C131.863 27.2818 132.414 27.1227 132.778 26.8071Z" fill="white"/>
<path d="M136.172 24.1635L136.329 25.4204H140.08C140.669 25.4204 141.116 25.2626 141.416 24.9456C141.716 24.6314 141.867 24.256 141.867 23.8207C141.867 23.58 141.816 23.3365 141.716 23.0862C141.617 22.8359 141.466 22.602 141.265 22.3843L138.576 19.4299L137.77 20.2787L140.476 23.2331C140.611 23.3855 140.681 23.5432 140.681 23.7065C140.681 23.8262 140.634 23.9323 140.538 24.0248C140.443 24.1173 140.302 24.1635 140.11 24.1635H136.172Z" fill="white"/>
<path fill-rule="evenodd" clip-rule="evenodd" d="M31.3163 15.6271C33.7766 15.8125 38.8391 16.5168 39.4062 17.8515C39.1282 20.7775 38.1302 27.3606 36.3621 30.284C34.1519 33.9383 30.5239 37.1557 24.7692 37.1557C19.0145 37.1557 15.3865 33.9383 13.1763 30.284C11.4082 27.3606 10.4102 20.7775 10.1322 17.8515C10.6993 16.5168 15.7618 15.8125 18.2222 15.6271C18.4585 14.9651 19.2397 13.0691 20.474 10.7812C21.7084 8.49329 23.3097 7.88159 24.7692 7.88159C26.2287 7.88159 27.8301 8.49329 29.0644 10.7812C30.2988 13.0691 31.08 14.9651 31.3163 15.6271ZM24.7692 10.384C25.6449 10.384 26.6041 11.5756 26.9794 12.2509C27.2796 12.7911 28.0636 14.5679 28.3972 15.3888H21.1412C21.4748 14.5679 22.2588 12.7911 22.5591 12.2509C22.9344 11.5756 23.8935 10.384 24.7692 10.384Z" fill="url(#paint0_linear_24945_17548)"/>
<path d="M60.8547 23.6728C60.8547 25.0329 61.9585 26.1367 63.3186 26.1367C64.6817 26.1367 65.7854 25.0329 65.7824 23.6728V11.4712C65.7824 10.1111 64.6787 9.00732 63.3186 9.00732C61.9585 9.00732 60.8547 10.1111 60.8547 11.4712V23.6728Z" fill="white"/>
<path d="M80.4841 23.718H85.3816C86.7297 23.718 87.8244 24.8097 87.8214 26.1608C87.8214 27.5088 86.7267 28.6035 85.3786 28.6035H79.2537C77.2211 28.6035 75.5745 26.9569 75.5745 24.9243V13.9049C75.5745 12.5478 76.6752 11.4501 78.0293 11.4501C79.3864 11.4501 80.4841 12.5508 80.4841 13.9049V23.718Z" fill="white"/>
<path d="M53.5145 16.3174C53.5145 14.9604 54.6152 13.8626 55.9693 13.8626C57.3233 13.8626 58.424 14.9604 58.421 16.3174V24.9243C58.421 26.9569 56.7745 28.6035 54.7419 28.6035H48.6049C47.2568 28.6035 46.1621 27.5088 46.1621 26.1608C46.1621 24.8128 47.2568 23.718 48.6049 23.718H53.5145V16.3174Z" fill="white"/>
<path d="M70.677 18.7512C69.3229 18.7512 68.2222 19.8488 68.2222 21.2059V28.6065H63.3125C61.9645 28.6065 60.8698 29.7012 60.8698 31.0493C60.8698 32.3973 61.9645 33.492 63.3125 33.492H69.4495C71.4822 33.492 73.1287 31.8454 73.1287 29.8128V21.2059C73.1287 19.8488 72.031 18.7512 70.677 18.7512Z" fill="white"/>
<path d="M70.677 16.3597C72.0494 16.3597 73.1619 15.2471 73.1619 13.8747C73.1619 12.5023 72.0494 11.3898 70.677 11.3898C69.3046 11.3898 68.192 12.5023 68.192 13.8747C68.192 15.2471 69.3046 16.3597 70.677 16.3597Z" fill="white"/>
<path d="M80.5474 33.4709C80.5474 34.8433 79.4349 35.9558 78.0625 35.9558C76.6901 35.9558 75.5775 34.8433 75.5775 33.4709C75.5775 32.0985 76.6901 30.9859 78.0625 30.9859C79.4349 30.9859 80.5474 32.0985 80.5474 33.4709Z" fill="white"/>
<path d="M4 1H148V-1H4V1ZM151 4V41.037H153V4H151ZM148 44.037H4V46.037H148V44.037ZM1 41.037V4H-1V41.037H1ZM4 44.037C2.34315 44.037 1 42.6939 1 41.037H-1C-1 43.7984 1.23858 46.037 4 46.037V44.037ZM151 41.037C151 42.6939 149.657 44.037 148 44.037V46.037C150.761 46.037 153 43.7984 153 41.037H151ZM148 1C149.657 1 151 2.34315 151 4H153C153 1.23858 150.761 -1 148 -1V1ZM4 -1C1.23858 -1 -1 1.23858 -1 4H1C1 2.34315 2.34315 1 4 1V-1Z" fill="#595B5A"/>
<defs>
<linearGradient id="paint0_linear_24945_17548" x1="24.7692" y1="7.88159" x2="24.7692" y2="37.1557" gradientUnits="userSpaceOnUse">
<stop stop-color="#8FC345"/>
<stop offset="1" stop-color="#118F4E"/>
</linearGradient>
</defs>
</svg>
