<svg width="200" height="150" viewBox="0 0 200 150" fill="none" xmlns="http://www.w3.org/2000/svg">
<path d="M93.9131 115.495C87.4635 115.495 81.8891 110.934 80.6453 104.622L76.5912 84.6285C76.4991 84.26 76.7755 83.8914 77.1441 83.7993C77.5126 83.7071 77.8811 83.9835 77.9733 84.3521L82.0273 104.346C83.1791 110.012 88.1545 114.113 93.9592 114.113C97.5986 114.113 101.054 112.5 103.357 109.644C105.661 106.834 106.582 103.148 105.891 99.5548L102.989 84.5824C102.897 84.2139 103.173 83.8453 103.541 83.7532C103.91 83.6611 104.279 83.9375 104.371 84.306L107.273 99.2784C108.056 103.286 107.043 107.34 104.463 110.519C101.791 113.652 97.9672 115.495 93.9131 115.495Z" fill="black"/>
<path d="M112.709 115.495C106.26 115.495 100.685 110.934 99.4414 104.622L95.3873 84.6285C95.2952 84.26 95.5716 83.8914 95.9402 83.7993C96.3087 83.7071 96.6773 83.9835 96.7694 84.3521L100.823 104.346C101.975 110.012 106.951 114.113 112.755 114.113C116.395 114.113 119.85 112.5 122.153 109.644C124.457 106.834 125.378 103.148 124.687 99.5548L121.785 84.5824C121.693 84.2139 121.969 83.8453 122.338 83.7532C122.706 83.6611 123.075 83.9375 123.167 84.306L126.023 99.2784C126.806 103.286 125.793 107.34 123.213 110.519C120.633 113.652 116.809 115.495 112.709 115.495Z" fill="black"/>
<path d="M115.888 1.05983C115.796 0.691283 115.519 0.460938 115.151 0.460938H64.2909C63.8302 0.460938 63.4617 0.921625 63.5538 1.38231L80.6453 86.9321C80.8757 86.9781 80.9218 87.0242 81.106 87.0703C83.5016 84.4904 87.0028 82.5555 90.2737 82.8319C90.5501 82.8319 90.7805 82.9241 91.0569 83.0162C91.2872 82.878 91.5637 82.7398 91.794 82.6477C93.0379 82.0488 94.5581 82.8319 94.5581 84.1679C94.9267 84.3061 95.2952 84.4444 95.6638 84.5826C95.8941 83.6612 96.6773 82.9241 97.829 83.3387C99.5796 83.9837 101.238 84.8129 102.851 85.7343C102.758 84.7208 103.495 83.6151 104.647 83.7073C107.734 83.9376 112.894 89.0512 115.151 91.0322C116.763 90.3872 122.844 87.3928 122.844 87.3928C123.075 87.2085 123.397 87.2085 123.628 87.3467L131.782 89.6962C132.795 90.1108 133.809 89.2355 133.578 88.1759L115.888 1.05983Z" fill="black"/>
<path d="M45.3566 0H96.2165C96.5851 0 96.9075 0.276414 96.9536 0.598896L115.197 90.9859L107.503 87.1161C107.227 86.9779 106.951 87.024 106.72 87.1622L101.929 90.7095C101.699 90.8937 101.376 90.8937 101.1 90.7555L94.1895 87.07C93.9131 86.9318 93.6367 86.9779 93.4063 87.1161L88.3848 90.7095C88.1545 90.8937 87.7859 90.8937 87.5556 90.7555L81.6588 87.1161C81.3824 86.9779 81.0599 86.9779 80.8295 87.1161L75.4856 90.7095C75.2552 90.8937 74.8867 90.8937 74.6563 90.7095L68.8977 87.07C68.6213 86.8858 68.2988 86.9318 68.0224 87.1161L63.5998 90.2949C63.1391 90.6173 62.4942 90.387 62.402 89.8342L44.6195 0.82924C44.4813 0.460689 44.8498 0 45.3566 0Z" fill="white"/>
<path d="M45.3566 0H96.2165C96.5851 0 96.9075 0.276414 96.9536 0.598896L115.197 90.9859L107.503 87.1161C107.227 86.9779 106.951 87.024 106.72 87.1622L101.929 90.7095C101.699 90.8937 101.376 90.8937 101.1 90.7555L94.1895 87.07C93.9131 86.9318 93.6367 86.9779 93.4063 87.1161L88.3848 90.7095C88.1545 90.8937 87.7859 90.8937 87.5556 90.7555L81.6588 87.1161C81.3824 86.9779 81.0599 86.9779 80.8295 87.1161L75.4856 90.7095C75.2552 90.8937 74.8867 90.8937 74.6563 90.7095L68.8977 87.07C68.6213 86.8858 68.2988 86.9318 68.0224 87.1161L63.5998 90.2949C63.1391 90.6173 62.4942 90.387 62.402 89.8342L44.6195 0.82924C44.4813 0.460689 44.8498 0 45.3566 0Z" fill="#DDDDDD"/>
<path d="M113.723 34.8739C113.4 34.8739 113.078 34.6436 113.032 34.275C112.617 31.6951 112.064 29.1153 111.373 26.4433C111.281 26.0748 111.511 25.7062 111.88 25.6141C112.248 25.5219 112.617 25.7523 112.709 26.1208C113.446 28.8389 113.999 31.4648 114.414 34.0907C114.46 34.4593 114.229 34.8278 113.815 34.8739C113.815 34.8278 113.769 34.8739 113.723 34.8739Z" fill="white"/>
<path d="M123.72 81.9565C123.397 81.9565 123.121 81.7262 123.029 81.4037C120.403 68.3202 117.593 55.1445 114.69 42.1992C114.598 41.8306 114.828 41.4621 115.197 41.3699C115.565 41.2778 115.934 41.5081 116.026 41.8767C118.929 54.822 121.739 68.0438 124.365 81.1273C124.457 81.4958 124.18 81.8644 123.812 81.9565C123.812 81.9565 123.766 81.9565 123.72 81.9565Z" fill="white"/>
<path d="M79.9543 9.90453C74.4721 9.90453 69.036 9.90453 63.5999 9.90453C63.2313 9.90453 62.9089 9.58204 62.9089 9.21349C62.9089 8.84494 63.2313 8.52246 63.5999 8.52246C76.1767 8.52246 88.9377 8.52246 101.561 8.52246C101.929 8.52246 102.252 8.84494 102.252 9.21349C102.252 9.58204 101.929 9.90453 101.561 9.90453C94.4199 9.90453 87.1871 9.90453 79.9543 9.90453Z" fill="black"/>
<path d="M55.2153 9.90453H48.4893C48.1207 9.90453 47.7982 9.58204 47.7982 9.21349C47.7982 8.84494 48.1207 8.52246 48.4893 8.52246H55.2153C55.5839 8.52246 55.9064 8.84494 55.9064 9.21349C55.9064 9.58204 55.6299 9.90453 55.2153 9.90453Z" fill="black"/>
<path d="M128.926 150H82.396C82.0275 150 81.705 149.678 81.705 149.309C81.705 148.941 82.0275 148.618 82.396 148.618H128.926C129.294 148.618 129.617 148.941 129.617 149.309C129.617 149.678 129.34 150 128.926 150Z" fill="black"/>
<path d="M77.8351 150H73.735C73.3664 150 73.0439 149.678 73.0439 149.309C73.0439 148.941 73.3664 148.618 73.735 148.618H77.8351C78.2037 148.618 78.5261 148.941 78.5261 149.309C78.5261 149.678 78.2037 150 77.8351 150Z" fill="black"/>
<path d="M68.2911 39.4866C69.6304 39.3294 70.3698 36.252 69.9426 32.6132C69.5154 28.9743 68.0834 26.1518 66.7441 26.3091C65.4047 26.4663 64.6653 29.5437 65.0925 33.1826C65.5197 36.8214 66.9518 39.6439 68.2911 39.4866Z" fill="black"/>
<path d="M85.9363 39.8558C87.2756 39.6986 88.015 36.6212 87.5878 32.9823C87.1606 29.3434 85.7286 26.521 84.3893 26.6782C83.0499 26.8354 82.3105 29.9128 82.7377 33.5517C83.1649 37.1906 84.597 40.013 85.9363 39.8558Z" fill="black"/>
<path d="M77.5115 41.4076C77.9158 41.3602 78.1401 40.4408 78.0126 39.3542C77.885 38.2676 77.4538 37.4252 77.0495 37.4726C76.6452 37.5201 76.4208 38.4395 76.5484 39.5261C76.676 40.6127 77.1071 41.4551 77.5115 41.4076Z" fill="black"/>
<path d="M66.41 74.908C66.0876 74.908 65.8111 74.6777 65.719 74.4013C64.5673 69.6562 63.7381 64.7268 62.9549 59.9817L62.7706 58.83C62.7245 58.4615 62.9549 58.0929 63.3234 58.0469C63.692 58.0008 64.0605 58.2311 64.1066 58.5997L64.2909 59.7514C65.0741 64.4504 65.9033 69.3337 67.0089 74.0788C67.1011 74.4473 66.8707 74.8159 66.5022 74.908C66.5022 74.908 66.4561 74.908 66.41 74.908Z" fill="white"/>
<path d="M62.5864 54.2693C62.2639 54.2693 61.9875 54.039 61.8953 53.7165C61.3886 50.8602 60.8818 48.5568 60.3751 46.3915C60.2829 46.023 60.5133 45.6544 60.8818 45.5623C61.2504 45.4702 61.6189 45.7005 61.711 46.0691C62.2178 48.2804 62.7246 50.6299 63.2313 53.4861C63.2774 53.8547 63.047 54.2232 62.6785 54.2693C62.6785 54.2693 62.6324 54.2693 62.5864 54.2693Z" fill="white"/>
<path d="M73.4125 127.887H41.1183C40.7497 127.887 40.4272 127.61 40.3812 127.288L39.5059 122.681C39.4598 122.358 39.6901 122.082 40.0126 122.082H72.3069C72.6754 122.082 72.9979 122.358 73.044 122.681L73.9193 127.288C74.0114 127.61 73.7811 127.887 73.4125 127.887Z" fill="#DDDDDD"/>
<path d="M159.699 45.5164L139.798 45.5624C138.646 45.5624 137.54 44.641 137.31 43.5354L134.408 28.3788C134.177 27.2731 134.96 26.3517 136.112 26.3517L156.014 26.3057C157.166 26.3057 158.271 27.227 158.502 28.3327L161.404 43.4893C161.588 44.595 160.851 45.5164 159.699 45.5164Z" fill="#DDDDDD"/>
<path d="M96.1244 139.588H89.168C88.7534 139.588 88.3848 139.266 88.2927 138.897L87.2792 133.599C87.187 133.185 87.4635 132.908 87.8781 132.908H94.8345C95.2491 132.908 95.6176 133.231 95.7098 133.599L96.7233 138.897C96.7694 139.266 96.539 139.588 96.1244 139.588Z" fill="#DDDDDD"/>
</svg>
