<svg width="240" height="180" viewBox="0 0 240 180" fill="none" xmlns="http://www.w3.org/2000/svg">
<g clip-path="url(#clip0_1_31429)">
<path d="M114.115 140.316C114.365 137.992 112.066 135.839 108.98 135.507C105.894 135.175 103.19 136.791 102.94 139.115C102.69 141.439 104.989 143.593 108.075 143.925C111.161 144.256 113.865 142.641 114.115 140.316Z" fill="#D7F4DF"/>
<path d="M204.236 170.107C205.97 170.107 207.375 168.702 207.375 166.969C207.375 165.236 205.97 163.831 204.236 163.831C202.503 163.831 201.098 165.236 201.098 166.969C201.098 168.702 202.503 170.107 204.236 170.107Z" fill="black"/>
<path d="M68.5616 109.386C69.408 109.386 70.0942 108.7 70.0942 107.853C70.0942 107.007 69.408 106.321 68.5616 106.321C67.7151 106.321 67.0289 107.007 67.0289 107.853C67.0289 108.7 67.7151 109.386 68.5616 109.386Z" fill="black"/>
<path d="M90.3475 150.292C90.4423 149.41 89.577 148.594 88.4147 148.469C87.2525 148.344 86.2334 148.958 86.1387 149.84C86.0439 150.721 86.9092 151.537 88.0714 151.662C89.2337 151.787 90.2527 151.174 90.3475 150.292Z" fill="#D7F4DF"/>
<path d="M92.5728 172.662C92.1349 172.662 91.697 172.37 91.5511 171.932C87.9749 161.423 98.8493 153.175 99.2872 152.811C99.7981 152.446 100.455 152.519 100.82 153.03C101.185 153.54 101.112 154.197 100.601 154.562C100.528 154.635 90.5293 162.225 93.5946 171.202C93.8135 171.786 93.5216 172.37 92.9377 172.589C92.7918 172.662 92.7188 172.662 92.5728 172.662Z" fill="white"/>
<path d="M164.826 123.69C164.753 123.69 164.68 123.69 164.607 123.69C164.023 123.544 163.658 122.961 163.731 122.377C165.191 115.516 166.796 108.656 168.329 101.942L169.424 97.3437C169.57 96.7598 170.153 96.3949 170.737 96.5409C171.321 96.6869 171.686 97.2707 171.54 97.8546L170.445 102.452C168.913 109.094 167.234 116.027 165.847 122.815C165.775 123.326 165.337 123.69 164.826 123.69Z" fill="black"/>
<path d="M48.2725 168.575L98.4116 94.8624L88.9968 178.938H51.4107C47.6156 179.011 45.5721 172.516 48.2725 168.575Z" fill="#FF3D00"/>
<path d="M136.654 2.24731L95.9301 34.5786C92.8648 38.9576 90.8943 43.7015 90.0185 48.6643L68.3426 173.319C67.8317 176.165 70.97 178.865 74.7651 178.865L135.633 179.011C140.158 179.011 143.88 176.603 144.537 173.246L170.153 48.3724C171.102 43.6285 170.737 38.7387 169.132 33.9218L147.456 3.70697C146.142 -0.380064 139.063 -1.32884 136.654 2.24731Z" fill="#FF3D00"/>
<path d="M136.362 2.46633L96.295 34.2138C96.0031 34.4327 95.7841 34.6517 95.6381 34.9436C92.7188 39.1766 90.8213 43.8475 90.0185 48.6644L68.3426 173.319C67.8317 176.165 70.97 178.865 74.7651 178.865H87.3181C89.5076 178.865 91.2592 177.698 91.5511 176.019L115.27 38.3008C115.343 37.7899 115.635 37.2791 116 36.8412L144.464 5.89651C147.456 2.61229 141.325 -1.6207 137.603 1.15264C137.311 1.37159 137.019 1.66352 136.8 1.95545C136.654 2.10142 136.508 2.32036 136.362 2.46633Z" fill="#FF9600"/>
<path d="M156.725 112.013L181.904 170.399C183.509 174.122 181.393 178.719 178.036 178.792L144.537 179.449C143.588 179.449 142.858 178.355 143.077 177.187L153.951 112.597C154.316 110.846 156.068 110.554 156.725 112.013Z" fill="black"/>
<path d="M150.448 111.064L175.043 169.451C176.649 173.173 174.605 177.771 171.321 177.844L138.698 178.5C137.749 178.5 137.092 177.406 137.311 176.238L147.894 111.648C148.04 109.897 149.791 109.532 150.448 111.064Z" fill="#FF3D00"/>
<path d="M138.99 179.887C138.187 179.887 137.457 179.522 137.019 178.938C136.508 178.355 136.289 177.552 136.508 176.749L145.339 135.368C145.412 135.003 145.777 134.711 146.215 134.784C146.58 134.857 146.872 135.222 146.799 135.66L137.968 177.041C137.895 177.406 137.968 177.698 138.187 177.99C138.406 178.282 138.698 178.427 139.063 178.427L181.685 177.771C182.05 177.771 182.415 178.063 182.415 178.5C182.415 178.938 182.123 179.23 181.685 179.23L138.99 179.887Z" fill="black"/>
<path d="M80.6038 146.315C80.5308 146.315 80.5308 146.315 80.4578 146.315C79.8739 146.242 79.436 145.658 79.509 145.074L82.6473 122.012C82.7203 121.428 83.3041 120.99 83.888 121.063C84.4718 121.136 84.9097 121.72 84.8368 122.304L81.6985 145.366C81.6255 145.95 81.1146 146.315 80.6038 146.315Z" fill="white"/>
<path d="M169.132 45.2342C169.059 45.2342 168.913 45.2342 168.84 45.1612C150.083 39.5415 132.567 36.9141 116.584 37.2791C116 37.2791 115.49 36.8412 115.49 36.1843C115.49 35.6005 115.927 35.0896 116.584 35.0896C132.713 34.7247 150.594 37.352 169.497 43.0447C170.081 43.1906 170.373 43.8475 170.227 44.4314C170.008 44.9422 169.57 45.2342 169.132 45.2342Z" fill="black"/>
<path d="M96.149 39.8334C95.6381 39.8334 95.2002 39.5415 95.1273 39.0306C94.9813 38.4467 95.3462 37.8629 95.8571 37.7169C99.7252 36.6222 104.104 35.9653 109.943 35.4545C110.527 35.3815 111.11 35.8194 111.11 36.4762C111.183 37.0601 110.746 37.571 110.089 37.6439C104.396 38.0818 100.163 38.8117 96.4409 39.8334C96.3679 39.8334 96.222 39.8334 96.149 39.8334Z" fill="black"/>
<path d="M137.687 107.021C151.556 94.5945 154.362 75.1026 143.952 63.4846C133.543 51.8665 113.862 52.5218 99.9919 64.9482C86.1223 77.3746 83.317 96.8665 93.7262 108.485C104.135 120.103 123.817 119.447 137.687 107.021Z" fill="#45B874"/>
<path d="M132.057 55.9626C118.409 59.1008 106.586 71.3619 104.104 85.9585C101.623 100.555 109.286 112.816 121.839 115.954C135.487 112.816 147.31 100.555 149.791 85.9585C152.273 71.3619 144.61 59.1008 132.057 55.9626Z" fill="#029D53"/>
<path d="M124.393 55.1597C112.205 55.1597 100.382 62.2391 93.5217 72.4566C91.3322 75.8868 89.5806 79.6819 88.4859 83.696C88.2669 84.4988 88.121 85.3016 87.975 86.1044C87.6831 87.783 87.5371 89.4616 87.4641 91.1402C87.3182 105.664 98.0466 116.757 113.373 116.757C117.606 116.757 121.839 115.881 125.78 114.349C122.642 115.443 119.358 116.027 116.073 116.027C108.994 116.027 102.936 113.254 98.8494 108.145C94.6894 102.963 93.1568 95.9571 94.4705 88.4398C97.2438 72.1647 112.205 58.8818 127.751 58.8818C134.83 58.8818 140.887 61.6552 144.974 66.764C149.134 71.9457 150.667 78.9521 149.353 86.4693C148.697 90.4833 147.237 94.3514 145.266 97.8546C147.456 94.2055 148.989 90.1914 149.791 85.9584C152.857 68.9535 141.471 55.1597 124.393 55.1597Z" fill="black"/>
<path d="M113.373 117.852C104.834 117.852 97.3897 114.568 92.4268 108.583C87.318 102.526 85.3475 94.4244 86.9531 85.8125C90.0914 68.3696 106.877 54.138 124.466 54.138C133.005 54.138 140.449 57.4222 145.412 63.4068C150.521 69.4644 152.492 77.5654 150.886 86.1774C147.748 103.62 130.889 117.852 113.373 117.852ZM89.0696 86.1774C87.61 94.1325 89.4346 101.577 94.1055 107.196C98.7034 112.67 105.564 115.662 113.373 115.662C129.94 115.662 145.777 102.234 148.696 85.7395C150.156 77.7844 148.332 70.3402 143.661 64.7205C139.063 59.2468 132.202 56.2545 124.393 56.2545C107.826 56.3275 91.9889 69.6833 89.0696 86.1774Z" fill="black"/>
<path d="M101.331 107.342C100.966 107.342 100.601 107.123 100.382 106.832C98.9224 104.423 97.8276 101.723 97.2438 98.8034C97.0978 98.2196 97.4627 97.6357 98.0466 97.4898C98.6305 97.3438 99.2143 97.7087 99.3603 98.2926C99.9441 100.92 100.893 103.401 102.28 105.591C102.572 106.102 102.426 106.759 101.915 107.123C101.696 107.269 101.55 107.342 101.331 107.342Z" fill="white"/>
<path d="M97.6817 94.4975C97.0979 94.4975 96.587 93.9866 96.587 93.4027C96.587 91.8701 96.6599 90.4105 96.8059 88.8778C96.8789 88.294 97.4628 87.8561 98.0466 87.929C98.6305 88.002 99.0684 88.5859 98.9954 89.1698C98.7764 90.5564 98.7035 91.9431 98.7765 93.3297C98.7765 93.9866 98.3386 94.4975 97.6817 94.4975Z" fill="white"/>
<path d="M100.236 81.7255C100.09 81.7255 99.9442 81.7255 99.7982 81.6525C99.2144 81.4336 98.9954 80.7767 99.2144 80.1928C99.7253 78.9521 100.309 77.7844 100.966 76.6167C101.258 76.1058 101.915 75.8869 102.426 76.1788C102.936 76.4707 103.155 77.1276 102.864 77.6384C102.28 78.7332 101.696 79.9009 101.185 80.9957C101.039 81.5065 100.674 81.7255 100.236 81.7255Z" fill="white"/>
<path d="M139.282 168.064C125.78 168.064 112.059 168.064 98.4115 168.064C97.8277 168.064 97.3168 167.553 97.3168 166.969C97.3168 166.385 97.8277 165.875 98.4115 165.875C112.059 165.875 125.78 165.875 139.282 165.875C139.866 165.875 140.377 166.385 140.377 166.969C140.377 167.553 139.939 168.064 139.282 168.064Z" fill="black"/>
<path d="M85.2016 168.064H74.5461C73.9622 168.064 73.4514 167.553 73.4514 166.969C73.4514 166.385 73.9622 165.875 74.5461 165.875H85.2016C85.7854 165.875 86.2963 166.385 86.2963 166.969C86.2963 167.553 85.7854 168.064 85.2016 168.064Z" fill="black"/>
<path d="M141.098 80.4406C145.722 76.2985 146.657 69.8012 143.187 65.9285C139.717 62.0558 133.157 62.2742 128.533 66.4164C123.91 70.5585 122.975 77.0558 126.445 80.9285C129.915 84.8012 136.475 84.5827 141.098 80.4406Z" fill="white"/>
<path d="M109.033 79.5139C113.055 75.9097 113.874 70.2622 110.862 66.8999C107.849 63.5376 102.146 63.7336 98.1235 67.3378C94.1007 70.942 93.2817 76.5895 96.2941 79.9519C99.3066 83.3142 105.01 83.1181 109.033 79.5139Z" fill="white"/>
<path d="M133.224 74.7921C133.95 74.7921 134.538 74.204 134.538 73.4784C134.538 72.7529 133.95 72.1647 133.224 72.1647C132.499 72.1647 131.911 72.7529 131.911 73.4784C131.911 74.204 132.499 74.7921 133.224 74.7921Z" fill="black"/>
<path d="M103.52 74.7191C104.206 74.7191 104.761 74.1637 104.761 73.4785C104.761 72.7932 104.206 72.2377 103.52 72.2377C102.835 72.2377 102.28 72.7932 102.28 73.4785C102.28 74.1637 102.835 74.7191 103.52 74.7191Z" fill="black"/>
<path d="M121.693 79.9009C121.547 79.9009 121.401 79.8279 121.255 79.7549C117.606 76.7626 113.884 79.244 113.811 79.317C113.446 79.536 113.008 79.463 112.789 79.0981C112.57 78.7331 112.643 78.2952 113.008 78.0763C113.081 78.0763 117.679 74.9381 122.204 78.5872C122.496 78.8061 122.569 79.317 122.277 79.6089C122.058 79.8279 121.839 79.9009 121.693 79.9009Z" fill="black"/>
<path d="M134.757 87.1991C131.4 87.1991 128.407 86.0314 126.291 83.7689C126.145 83.623 126.145 83.404 126.291 83.258C126.437 83.1121 126.656 83.1121 126.802 83.258C129.21 85.7395 132.859 86.9072 136.8 86.2503C137.019 86.2503 137.165 86.3233 137.238 86.5423C137.238 86.7612 137.165 86.9072 136.946 86.9802C136.217 87.1261 135.487 87.1991 134.757 87.1991Z" fill="black"/>
<path d="M185.699 147.848C185.626 147.848 185.553 147.848 185.48 147.848C184.896 147.702 184.531 147.118 184.604 146.534C185.626 141.863 186.648 137.119 187.669 132.448C187.815 131.864 188.399 131.5 188.983 131.646C189.567 131.791 189.932 132.375 189.786 132.959C188.764 137.63 187.742 142.374 186.721 147.045C186.648 147.483 186.21 147.848 185.699 147.848Z" fill="black"/>
<path d="M170.664 135.587C170.591 135.587 170.518 135.587 170.372 135.587C169.789 135.441 169.424 134.857 169.57 134.273C171.029 128.288 172.489 122.085 174.022 115.152C174.168 114.568 174.751 114.203 175.335 114.349C175.919 114.495 176.284 115.079 176.138 115.662C174.605 122.596 173.146 128.799 171.686 134.784C171.613 135.295 171.102 135.587 170.664 135.587Z" fill="black"/>
<path d="M172.635 89.1697C172.562 89.1697 172.489 89.1697 172.416 89.1697C171.832 89.0238 171.467 88.4399 171.54 87.856C173 81.0686 174.606 74.1353 176.138 67.4939L177.233 62.823C177.379 62.2391 177.963 61.8742 178.547 62.0202C179.13 62.1661 179.495 62.75 179.349 63.3339L178.255 68.0047C176.722 74.6462 175.116 81.5065 173.657 88.2939C173.657 88.8048 173.146 89.1697 172.635 89.1697Z" fill="black"/>
<path d="M180.955 102.161C180.882 102.161 180.809 102.161 180.736 102.161C180.152 102.015 179.787 101.431 179.933 100.847L181.466 93.9136C181.612 93.3297 182.196 92.9648 182.779 93.1107C183.363 93.2567 183.728 93.8406 183.582 94.4244L182.05 101.358C181.904 101.796 181.466 102.161 180.955 102.161Z" fill="black"/>
<path d="M227.883 180.033H29.224C28.6401 180.033 28.1292 179.522 28.1292 178.938C28.1292 178.355 28.6401 177.844 29.224 177.844H227.883C228.467 177.844 228.978 178.355 228.978 178.938C228.978 179.522 228.467 180.033 227.883 180.033Z" fill="black"/>
<path d="M20.6849 180.033H13.0947C12.5109 180.033 12 179.522 12 178.938C12 178.355 12.5109 177.844 13.0947 177.844H20.6849C21.2688 177.844 21.7797 178.355 21.7797 178.938C21.7797 179.522 21.2688 180.033 20.6849 180.033Z" fill="black"/>
<path d="M101.55 84.2798C100.528 84.2798 99.4332 84.2069 98.3385 83.9149C98.1195 83.8419 98.0466 83.696 98.0466 83.477C98.1196 83.2581 98.2655 83.1851 98.4845 83.1851C103.593 84.3528 108.191 82.0174 108.264 81.9444C108.41 81.8714 108.629 81.9444 108.775 82.0904C108.848 82.2363 108.775 82.4553 108.629 82.6012C108.483 82.6742 105.491 84.2798 101.55 84.2798Z" fill="black"/>
</g>
<defs>
<clipPath id="clip0_1_31429">
<rect width="240" height="180" fill="white"/>
</clipPath>
</defs>
</svg>
