<svg width="42" height="32" viewBox="0 0 42 32" fill="none" xmlns="http://www.w3.org/2000/svg">
<g clip-path="url(#clip0)">
<path d="M13.1428 3.70198C13.6351 3.70198 14.0102 4.1641 13.9047 4.66177L13.3772 6.9961C13.2952 7.35158 12.9786 7.61226 12.6152 7.61226H9.48521C8.99285 7.61226 8.61772 7.15014 8.72323 6.65247L9.23903 4.31814C9.32109 3.96266 9.63761 3.70198 10.001 3.70198H13.1428ZM8.67633 10.2902C8.31293 10.2902 7.99641 10.5509 7.91435 10.9182L5.03052 25.1019C5.03052 25.1256 5.0188 25.1375 5.0188 25.1493C4.96018 25.3626 4.88984 25.647 4.83123 25.9788C4.76089 26.3224 4.66711 26.666 4.53816 26.9978C4.40921 27.3296 4.24509 27.614 4.0458 27.851C3.84651 28.088 3.57688 28.2064 3.24864 28.2064C2.96729 28.2064 2.68594 28.2064 2.40459 28.1946C2.34598 28.1946 2.28736 28.1946 2.21703 28.1827C1.83017 28.159 1.50193 28.4316 1.41987 28.7989L0.939234 31.0858C0.845451 31.548 1.16197 31.9745 1.61916 32.0219C1.71294 32.0338 1.80673 32.0456 1.90051 32.0575C2.28736 32.1049 2.6625 32.1286 3.03763 32.1286C4.09269 32.1286 4.98363 32.0219 5.687 31.7968C6.39037 31.5717 6.98824 31.2399 7.4806 30.7896C7.96124 30.3393 8.34809 29.7706 8.64117 29.0833C8.93424 28.396 9.1687 27.5903 9.36798 26.6779L12.5566 11.2382C12.6621 10.7523 12.287 10.2902 11.7946 10.2902H8.67633ZM18.1601 16.0372C17.9022 16.4874 17.6912 16.9496 17.5154 17.4472H25.018C25.018 16.1675 24.7719 14.6863 23.4941 14.082C21.5481 13.217 19.1566 14.0939 18.1601 16.0372ZM34.4667 6.49842C34.959 4.29444 37.1747 1.02402 37.8311 0.0760723C37.9132 -0.0305719 38.0773 -0.00687321 38.1125 0.12347C38.429 1.14251 39.3786 4.43664 39.0738 6.49842C38.8393 7.62411 38.8041 8.02699 38.5462 9.36597L37.6787 13.5725C37.0223 16.9733 35.7445 23.834 35.3928 24.8531C34.537 27.4007 31.9345 28.4079 29.4844 28.3723C26.3662 28.3012 21.0557 28.4197 20.071 28.396C18.9221 28.396 17.8788 28.242 16.941 27.9221C12.4042 26.5238 11.7008 20.8835 13.1428 16.8666C14.866 11.5818 19.6138 9.01049 24.8305 10.6457C27.9487 11.5818 29.6134 14.473 29.5548 17.7435C29.4493 18.49 29.7775 20.4333 28.6287 20.457H17.023C16.6831 23.052 17.914 24.9123 20.7626 24.8412C21.1143 24.8412 25.9324 24.8175 29.6603 24.8057C30.3285 24.6753 30.8091 24.2369 31.0788 23.5496C31.1725 23.289 32.4269 16.5585 33.0482 13.5014L31.2546 13.5488C30.7622 13.5606 30.5043 12.9682 30.8326 12.6127L33.9626 9.16453C34.2439 7.79 34.2791 7.42267 34.4667 6.49842ZM38.3704 13.6436L40.3633 13.6554C40.926 13.6554 41.2777 13.0393 40.9963 12.5534L39.2262 9.44891L38.3704 13.6436Z" fill="#FF6200"/>
</g>
<defs>
<clipPath id="clip0">
<rect width="40.1861" height="32" fill="white" transform="translate(0.906982)"/>
</clipPath>
</defs>
</svg>
