<svg width="40" height="40" viewBox="0 0 40 40" fill="none" xmlns="http://www.w3.org/2000/svg">
<rect width="40" height="40" rx="8" fill="#FF6200"/>
<g clip-path="url(#clip0_18463_271116)">
<path d="M14.5254 11.4306C14.8685 11.4306 15.1299 11.7526 15.0564 12.0993L14.6888 13.7258C14.6316 13.9735 14.4111 14.1551 14.1579 14.1551H11.977C11.634 14.1551 11.3726 13.8331 11.4461 13.4864L11.8055 11.8599C11.8627 11.6122 12.0832 11.4306 12.3364 11.4306H14.5254ZM11.4134 16.021C11.1602 16.021 10.9397 16.2027 10.8825 16.4586L8.87316 26.3412C8.87316 26.3577 8.865 26.366 8.865 26.3742C8.82416 26.5228 8.77515 26.721 8.73431 26.9522C8.6853 27.1916 8.61996 27.431 8.53011 27.6622C8.44026 27.8934 8.32591 28.0915 8.18705 28.2566C8.04819 28.4218 7.86033 28.5043 7.63163 28.5043C7.43559 28.5043 7.23956 28.5043 7.04353 28.4961C7.00269 28.4961 6.96185 28.4961 6.91284 28.4878C6.64329 28.4713 6.41459 28.6612 6.35741 28.9171L6.02252 30.5106C5.95718 30.8325 6.17772 31.1298 6.49627 31.1628C6.56161 31.1711 6.62696 31.1793 6.6923 31.1876C6.96185 31.2206 7.22322 31.2371 7.4846 31.2371C8.21972 31.2371 8.84049 31.1628 9.33057 31.0059C9.82066 30.8491 10.2372 30.6179 10.5803 30.3042C10.9152 29.9904 11.1847 29.5941 11.3889 29.1153C11.5931 28.6364 11.7565 28.075 11.8953 27.4393L14.117 16.6815C14.1906 16.343 13.9292 16.021 13.5861 16.021H11.4134ZM18.0214 20.0253C17.8417 20.339 17.6946 20.661 17.5721 21.0077H22.7996C22.7996 20.1161 22.6281 19.084 21.7378 18.663C20.3819 18.0603 18.7156 18.6712 18.0214 20.0253ZM29.3831 13.3791C29.7261 11.8434 31.2699 9.56471 31.7273 8.90422C31.7845 8.82991 31.8988 8.84642 31.9233 8.93724C32.1439 9.64727 32.8055 11.9425 32.5931 13.3791C32.4298 14.1634 32.4052 14.4441 32.2256 15.377L31.6211 18.308C31.1637 20.6775 30.2734 25.4578 30.0284 26.1678C29.4321 27.9429 27.6188 28.6447 25.9117 28.6199C23.739 28.5704 20.0389 28.6529 19.3527 28.6364C18.5523 28.6364 17.8253 28.5291 17.1719 28.3062C14.0109 27.3319 13.5208 23.402 14.5254 20.6032C15.7261 16.9209 19.0342 15.1294 22.669 16.2687C24.8417 16.9209 26.0015 18.9354 25.9607 21.2141C25.8872 21.7343 26.1159 23.0883 25.3154 23.1048H17.2291C16.9922 24.9129 17.8498 26.2091 19.8347 26.1596C20.0797 26.1596 23.4368 26.1431 26.0342 26.1348C26.4998 26.044 26.8347 25.7385 27.0225 25.2596C27.0879 25.078 27.9618 20.3885 28.3947 18.2584L27.145 18.2915C26.802 18.2997 26.6223 17.8869 26.851 17.6392L29.0319 15.2367C29.2279 14.279 29.2524 14.023 29.3831 13.3791ZM32.103 18.3575L33.4916 18.3658C33.8837 18.3658 34.1287 17.9364 33.9327 17.5979L32.6993 15.4348L32.103 18.3575Z" fill="white"/>
</g>
<defs>
<clipPath id="clip0_18463_271116">
<rect width="28" height="22.2963" fill="white" transform="translate(6 8.85156)"/>
</clipPath>
</defs>
</svg>
