<svg width="200" height="150" viewBox="0 0 200 150" fill="none" xmlns="http://www.w3.org/2000/svg">
<path d="M69.3914 101.847C59.9335 101.847 52.2344 109.513 52.2344 119.004C52.2344 128.462 59.9003 136.161 69.3914 136.161C78.8494 136.161 86.5485 128.495 86.5485 119.004C86.5485 109.513 78.8826 101.847 69.3914 101.847ZM58.0419 112.035C59.303 112.035 59.303 114.026 58.0419 114.026C56.7808 114.026 56.7808 112.035 58.0419 112.035ZM59.5021 122.124C58.241 122.124 58.241 120.133 59.5021 120.133C60.7963 120.133 60.7963 122.124 59.5021 122.124ZM65.9401 107.456C65.7742 107.821 65.5087 108.119 65.21 108.418C65.0109 109.015 64.6459 109.546 64.2476 110.011C63.6503 110.675 62.9202 111.206 62.0906 111.538C61.4268 111.803 60.6304 111.903 60.033 111.471C59.1702 110.907 59.1038 109.779 59.3029 108.849C59.3693 108.518 59.5352 108.219 59.7344 107.987C59.9998 107.655 60.2653 107.323 60.564 107.024C61.1945 106.394 61.8914 105.796 62.6879 105.365C63.4512 104.934 64.4467 104.569 65.2764 105.033C65.6746 105.232 66.0065 105.664 66.1392 106.095C66.272 106.526 66.1392 107.024 65.9401 107.456ZM79.5463 110.31C79.4467 110.476 79.3472 110.642 79.1812 110.774C79.0485 110.907 78.8826 111.04 78.7166 111.106C78.418 111.239 78.2189 111.305 77.9202 111.338C77.8538 111.338 77.7874 111.338 77.7543 111.338C77.6215 111.338 77.4556 111.305 77.3228 111.272C77.0242 111.172 76.7919 111.04 76.5596 110.841C76.3605 110.675 76.2277 110.476 76.095 110.276C76.0286 110.21 75.9954 110.111 75.9622 110.011C75.8959 109.845 75.7963 109.679 75.7631 109.48C75.6636 109.148 75.5972 108.816 75.5972 108.451C75.5972 108.352 75.5972 108.219 75.5972 108.119C75.6304 107.953 75.6304 107.788 75.6967 107.622C75.7963 107.389 75.8627 107.223 76.0286 107.057C76.1945 106.892 76.3605 106.792 76.5928 106.726C76.8582 106.626 77.1901 106.659 77.4224 106.759C77.7211 106.858 77.9534 107.024 78.2189 107.223C78.2852 107.257 78.3184 107.323 78.3848 107.389C78.4843 107.456 78.5839 107.489 78.6835 107.555C78.8826 107.688 79.1149 107.854 79.2808 108.053C79.4799 108.319 79.6127 108.518 79.7122 108.849C79.7454 108.982 79.7786 109.148 79.7786 109.281C79.7786 109.347 79.7786 109.38 79.7786 109.447C79.7454 109.812 79.679 110.044 79.5463 110.31ZM81.4379 112.234C80.7742 112.234 80.7742 111.172 81.4379 111.172C82.1348 111.172 82.1348 112.234 81.4379 112.234Z" fill="#D7F4DF"/>
<path d="M103.839 103.009C107.266 103.009 110.044 100.23 110.044 96.803C110.044 93.3757 107.266 90.5973 103.839 90.5973C100.411 90.5973 97.6328 93.3757 97.6328 96.803C97.6328 100.23 100.411 103.009 103.839 103.009Z" fill="#D7F4DF"/>
<path d="M94.2482 60.1327C97.1624 60.1327 99.5248 57.7703 99.5248 54.8561C99.5248 51.942 97.1624 49.5796 94.2482 49.5796C91.3341 49.5796 88.9717 51.942 88.9717 54.8561C88.9717 57.7703 91.3341 60.1327 94.2482 60.1327Z" fill="#D7F4DF"/>
<path d="M17.4226 85.2543C18.7605 85.2543 19.8451 84.1697 19.8451 82.8317C19.8451 81.4938 18.7605 80.4092 17.4226 80.4092C16.0846 80.4092 15 81.4938 15 82.8317C15 84.1697 16.0846 85.2543 17.4226 85.2543Z" fill="#D7F4DF"/>
<path d="M144.69 150C167.251 150 185.541 131.71 185.541 109.148C185.541 86.5865 167.251 68.2965 144.69 68.2965C122.128 68.2965 103.838 86.5865 103.838 109.148C103.838 131.71 122.128 150 144.69 150Z" fill="#029D53"/>
<path d="M112.632 83.8274C107.123 90.7964 103.838 99.5907 103.838 109.148C103.838 117.345 106.26 125.011 110.442 131.416C120.232 100.387 142.499 131.316 149.734 114.392C155.541 100.719 127.499 89.0044 112.632 83.8274Z" fill="#45B874"/>
<path d="M134.336 145.885C139.321 145.885 143.363 141.844 143.363 136.858C143.363 131.873 139.321 127.832 134.336 127.832C129.351 127.832 125.31 131.873 125.31 136.858C125.31 141.844 129.351 145.885 134.336 145.885Z" fill="#45B874"/>
<path d="M50.8072 88.9712C62.6471 88.9712 72.2452 79.373 72.2452 67.5331C72.2452 55.6932 62.6471 46.0951 50.8072 46.0951C38.9673 46.0951 29.3691 55.6932 29.3691 67.5331C29.3691 79.373 38.9673 88.9712 50.8072 88.9712Z" fill="#45B874"/>
<path d="M55.9509 46.6926C47.0239 49.2811 40.4863 57.5112 40.4863 67.301C40.4863 77.3563 47.4222 85.8187 56.7806 88.1085C65.7075 85.52 72.2451 77.2899 72.2451 67.5001C72.2451 57.4448 65.3093 49.0156 55.9509 46.6926Z" fill="#029D53"/>
<path d="M29.6346 71.1173C29.6346 71.1173 50.3426 80.4093 68.7607 79.2146L69.5904 76.4602L29.4023 69.2257L29.6346 71.1173Z" fill="#029D53"/>
<path d="M72.5111 67.8983L72.0465 67.832C72.0797 67.9647 72.0797 68.0974 72.0465 68.2302C72.0465 68.2966 72.0465 68.3961 72.0133 68.4625C77.4226 70.3209 80.6748 72.0797 80.4425 73.3408C79.9779 75.7302 66.7036 75.166 50.7412 72.1129C34.812 69.0598 22.2346 64.6461 22.6992 62.2567C22.8983 61.1616 25.7855 60.697 30.3319 60.7966C30.3651 60.6306 30.4315 60.4647 30.4979 60.2988L30.2656 60.2656C22.7324 60.0001 17.7877 60.7966 17.4227 62.655C16.7589 66.0731 31.6926 71.8142 50.7412 75.4647C69.7899 79.1151 85.7854 79.3142 86.4491 75.8961C86.8474 73.739 81.3053 70.7523 72.5111 67.8983Z" fill="black"/>
<path d="M163.905 61.5598L154.049 55.0222C153.717 54.7899 153.319 54.6904 152.921 54.7568H143.098L145.321 58.8386L139.879 61.8917C138.418 62.8873 137.755 63.916 137.522 65.2103L134.171 82.6328C133.938 83.9271 134.801 84.989 136.095 84.989L158.927 85.0222C160.221 85.0222 161.516 83.9603 161.748 82.6992L165.1 65.2767C165.398 63.9492 165.133 62.8541 163.905 61.5598Z" fill="black"/>
<path d="M125.409 84.9557L148.705 84.9889C150.033 84.9889 151.327 83.927 151.592 82.6659L155.011 65.2434C155.276 63.9491 155.011 62.854 153.749 61.5597L143.694 55.0221C143.13 54.6571 142.964 54.9889 142.4 55.3208L129.258 61.8916C127.765 62.8872 127.101 63.9159 126.836 65.2102L123.418 82.6327C123.152 83.8938 124.048 84.9557 125.409 84.9557Z" fill="white"/>
<path d="M132.113 61.5929C131.881 61.5929 131.681 61.4933 131.582 61.261C131.416 60.9623 131.516 60.5973 131.814 60.4314C134.867 58.7389 138.65 56.9137 142.301 55.1548L143.131 54.7566C143.429 54.6239 143.794 54.7234 143.96 55.0553C144.093 55.3539 143.993 55.719 143.662 55.8849L142.832 56.2831C139.181 58.042 135.431 59.8672 132.412 61.5265C132.312 61.5597 132.212 61.5929 132.113 61.5929Z" fill="black"/>
<path d="M131.316 69.9226H134.37C134.536 69.9226 134.701 69.7898 134.735 69.6239L135.166 67.3009C135.199 67.1349 135.1 67.0022 134.901 67.0022H131.847C131.682 67.0022 131.516 67.1349 131.482 67.3009L131.051 69.6239C131.018 69.7566 131.151 69.9226 131.316 69.9226Z" fill="black"/>
<path d="M130.288 75.3649H133.341C133.507 75.3649 133.673 75.2322 133.706 75.0663L134.138 72.7433C134.171 72.5773 134.071 72.4446 133.872 72.4446H130.819C130.653 72.4446 130.487 72.5773 130.454 72.7433L130.022 75.0663C130.022 75.2322 130.122 75.3649 130.288 75.3649Z" fill="black"/>
<path d="M125.31 73.4735C125.277 73.4735 125.243 73.4735 125.21 73.4735C124.878 73.4072 124.646 73.1085 124.713 72.7766L125.476 68.0642C125.808 65.6749 126.903 63.551 128.628 62.124C128.894 61.8917 129.259 61.9249 129.491 62.1903C129.724 62.4558 129.69 62.8209 129.425 63.0532C127.965 64.2811 127.002 66.1063 126.704 68.2302L125.94 72.9757C125.874 73.2412 125.609 73.4735 125.31 73.4735Z" fill="black"/>
<path d="M168.849 86.0508H124.049C123.717 86.0508 123.451 85.7853 123.451 85.4534C123.451 85.1216 123.717 84.8561 124.049 84.8561H168.849C169.181 84.8561 169.447 85.1216 169.447 85.4534C169.48 85.7853 169.181 86.0508 168.849 86.0508Z" fill="black"/>
<path d="M120.266 86.0508H116.881C116.549 86.0508 116.283 85.7853 116.283 85.4534C116.283 85.1216 116.549 84.8561 116.881 84.8561H120.232C120.564 84.8561 120.83 85.1216 120.83 85.4534C120.863 85.7853 120.597 86.0508 120.266 86.0508Z" fill="black"/>
<path d="M145.985 149.834L145.122 148.971C149.901 144.093 155.343 140.841 161.084 137.389C163.142 136.161 165.299 134.867 167.39 133.507C171.073 131.051 173.562 125.841 171.339 121.394C168.584 115.885 165.73 110.177 166.195 103.54C167.157 96.4048 171.837 89.7676 178.142 86.615L178.706 87.7101C172.733 90.6968 168.319 96.969 167.423 103.673C166.992 109.911 169.613 115.221 172.434 120.83C174.956 125.907 172.202 131.781 168.087 134.535C165.963 135.929 163.806 137.19 161.748 138.451C156.007 141.869 150.664 145.055 145.985 149.834Z" fill="#45B874"/>
<path d="M67.799 31.8584L49.3808 32.0907C48.2193 32.854 47.6884 33.6836 47.5224 34.7124L47.0578 49.9447C46.8587 50.9734 44.6353 51.8031 45.664 51.8031L63.7171 51.8363C64.7459 51.8363 65.7746 51.0066 65.9406 49.9779L69.3255 34.7456C69.4914 33.8827 69.3919 33.1526 68.7614 32.323C68.5622 32.0243 68.1972 31.8584 67.799 31.8584Z" fill="black"/>
<path d="M40.0888 51.8031L55.5866 51.8363C56.6485 51.8363 57.6773 51.0066 57.8764 49.9778L61.2945 34.7456C61.4937 33.7168 62.6552 31.3606 60.299 31.8252L43.872 32.0907C42.6773 32.854 42.1463 33.6836 41.9472 34.7124L38.5291 49.9447C38.33 50.9734 39.0269 51.8031 40.0888 51.8031Z" fill="white"/>
<path d="M38.529 50.542C38.4958 50.542 38.4294 50.542 38.3963 50.542C38.0644 50.4756 37.8653 50.1438 37.9317 49.8119L41.3498 34.5796C41.4162 34.2478 41.748 34.0486 42.0799 34.115C42.4117 34.1814 42.6109 34.5132 42.5445 34.8451L39.1264 50.0774C39.06 50.3761 38.7945 50.542 38.529 50.542Z" fill="black"/>
<path d="M61.7252 33.02C61.7252 32.9868 61.7252 32.9868 61.7252 32.9536H42.9089C42.8757 32.9536 42.8425 32.9536 42.8425 32.9536C42.3447 33.4846 42.0792 34.0488 41.9465 34.7125L40.4531 42.312L56.0505 42.3452C57.1124 42.3452 58.5062 41.5156 59.1367 40.4868L61.7584 37.6328L63.1854 34.7125C63.2518 34.2811 61.6257 33.6173 61.7252 33.02Z" fill="black"/>
<path d="M43.2744 31.8584C42.4779 31.8584 41.7146 32.2898 41.2832 32.9535L37.2345 39.3916C36.604 40.4203 36.9359 41.25 37.9978 41.25L54.5907 41.2832C56.1504 41.2832 56.7146 40.5531 57.677 39.4248L61.9912 32.5221C62.1571 32.2234 61.958 31.8584 61.6261 31.8584H43.2744Z" fill="#FF3D00"/>
<path d="M40.6855 41.25H43.5727L49.347 31.8584H46.3271L40.6855 41.25Z" fill="white"/>
<path d="M48.252 41.25H51.5373L57.4112 31.8584H54.0595L48.252 41.25Z" fill="white"/>
<path d="M33.3848 65.8738C33.0529 65.8738 32.7875 65.6415 32.7875 65.3097C32.7211 64.3805 32.7543 63.4513 32.8538 62.5884C32.887 62.2566 33.1857 62.0243 33.5507 62.0575C33.8826 62.0907 34.1149 62.3893 34.0817 62.7544C33.9821 63.584 33.949 64.4137 34.0153 65.2433C34.0485 65.5752 33.783 65.8738 33.4512 65.907C33.418 65.8738 33.3848 65.8738 33.3848 65.8738Z" fill="white"/>
<path d="M33.9161 61.0952C33.8497 61.0952 33.7833 61.0952 33.717 61.062C33.3851 60.9625 33.2192 60.6306 33.3187 60.2987C33.9161 58.374 34.9448 56.6815 36.2059 55.5532C36.4714 55.3209 36.8364 55.3541 37.0687 55.5864C37.301 55.8518 37.2678 56.2169 37.0355 56.4492C35.9404 57.4116 35.0444 58.9049 34.5134 60.6306C34.4139 60.9293 34.1816 61.0952 33.9161 61.0952Z" fill="white"/>
<path d="M64.3472 52.4337H45.3981C45.0663 52.4337 44.8008 52.1682 44.8008 51.8364C44.8008 51.5045 45.0663 51.239 45.3981 51.239H64.3472C64.6791 51.239 64.9446 51.5045 64.9446 51.8364C64.9446 52.1682 64.6791 52.4337 64.3472 52.4337Z" fill="black"/>
<path d="M39.8557 52.4337H37.2009C36.869 52.4337 36.6035 52.1682 36.6035 51.8364C36.6035 51.5045 36.869 51.239 37.2009 51.239H39.8557C40.1876 51.239 40.4531 51.5045 40.4531 51.8364C40.4531 52.1682 40.1876 52.4337 39.8557 52.4337Z" fill="black"/>
<path d="M152.456 0C144.06 0.0331858 137.257 7.16814 137.29 15.9624C137.29 22.5663 141.638 37.8318 147.478 42.2455C148.308 42.8761 151.261 42.6106 152.556 42.511C157.102 42.146 167.722 24.6902 167.722 15.896C167.688 7.10176 160.852 0 152.456 0ZM152.489 25.5531C147.246 25.5531 142.998 21.3053 142.998 16.0619C142.998 10.8186 147.246 6.57078 152.489 6.57078C157.733 6.57078 161.98 10.8186 161.98 16.0619C161.98 21.3053 157.733 25.5531 152.489 25.5531Z" fill="black"/>
<path d="M148.44 0C140.044 0.0331858 133.241 7.16814 133.275 15.9624C133.308 24.7566 143.927 42.511 148.54 42.511C153.12 42.511 163.706 24.6902 163.706 15.896C163.673 7.10176 156.87 0 148.44 0ZM148.507 25.5531C143.263 25.5531 139.016 21.3053 139.016 16.0619C139.016 10.8186 143.263 6.57079 148.507 6.57079C153.75 6.57079 157.998 10.8186 157.998 16.0619C157.965 21.3053 153.717 25.5531 148.507 25.5531Z" fill="#FF3D00"/>
</svg>
