<svg width="144" height="108" viewBox="0 0 144 108" fill="none" xmlns="http://www.w3.org/2000/svg">
<g clip-path="url(#clip0_1_15821)">
<path d="M47.2699 99.7054H121.274C122.693 99.7054 124.08 98.5337 124.389 97.1153L137.463 30.4805C137.74 29.0621 136.815 27.8904 135.366 27.8904H61.3616C59.9432 27.8904 58.5556 29.0621 58.2473 30.4805L45.1732 97.1153C44.8956 98.5337 45.8207 99.7054 47.2699 99.7054Z" fill="black"/>
<path d="M39.8698 30.7581C39.8389 30.7581 39.8081 30.7581 39.7772 30.7581C39.5306 30.6964 39.3764 30.4497 39.4072 30.2031C39.4072 30.2031 40.0548 26.9654 40.7023 23.7585C41.0415 22.1551 41.3498 20.5208 41.6274 19.3183C41.7507 18.7016 41.874 18.2082 41.9357 17.869C42.0899 17.2523 42.1515 16.8823 42.6141 16.9748C43.0766 17.0673 43.0149 17.499 42.9533 17.8998C42.9533 17.9924 42.8916 18.0849 42.8299 18.1774C42.3982 20.0583 41.1648 26.1945 40.3014 30.4189C40.3014 30.6039 40.0856 30.7581 39.8698 30.7581Z" fill="black"/>
<path d="M110.421 31.4981C110.39 31.4981 110.359 31.4981 110.328 31.4981C110.081 31.4364 109.927 31.1897 109.958 30.9431C109.958 30.9431 110.606 27.7054 111.253 24.4985C111.592 22.8951 111.901 21.2608 112.178 20.0583C112.301 19.4416 112.425 18.9482 112.487 18.609C112.641 17.9923 112.702 17.6223 113.165 17.7148C113.627 17.8073 113.566 18.239 113.504 18.6398C113.504 18.7323 113.442 18.8248 113.381 18.9174C112.949 20.7983 111.716 26.9345 110.852 31.1589C110.821 31.3439 110.636 31.4981 110.421 31.4981Z" fill="black"/>
<path d="M23.1259 99.7054H97.1302C98.5486 99.7054 99.9362 98.5337 100.245 97.1153L113.319 30.4805C113.596 29.0621 112.671 27.8904 111.222 27.8904H37.2484C35.83 27.8904 34.4424 29.0621 34.134 30.4805L21.0599 97.1153C20.7824 98.5337 21.7075 99.7054 23.1259 99.7054Z" fill="#029D53"/>
<path d="M42.9844 82.2527C43.1036 82.2527 43.2002 82.1561 43.2002 82.0369C43.2002 81.9177 43.1036 81.821 42.9844 81.821C42.8652 81.821 42.7686 81.9177 42.7686 82.0369C42.7686 82.1561 42.8652 82.2527 42.9844 82.2527Z" fill="white"/>
<path d="M40.4561 61.6548C40.3636 61.6548 40.271 61.624 40.2094 61.5315C40.086 61.4082 40.1169 61.1923 40.2402 61.0998L67.2518 38.7752C67.3751 38.6827 67.5601 38.6827 67.6835 38.806L88.1888 60.9456C88.3122 61.069 88.3122 61.254 88.158 61.3773C88.0038 61.5007 87.8497 61.5007 87.7263 61.3465L67.4368 39.4535L40.6719 61.5932C40.6102 61.6548 40.5177 61.6548 40.4561 61.6548Z" fill="black"/>
<path d="M91.7653 76.3322L94.8796 60.7296C94.9721 60.2671 94.6638 59.8662 94.1704 59.8662H34.8744C34.4119 59.8662 33.9494 60.2671 33.826 60.7296L29.4783 82.9617C29.3858 83.4243 29.6941 83.8251 30.1875 83.8251H80.8496" fill="#FF3D00"/>
<path d="M41.1036 65.3242C41.4736 65.3242 41.8436 65.355 42.2136 65.4167C42.5528 65.4784 42.8612 65.6017 43.1695 65.7559C43.4779 65.9101 43.7554 66.0951 44.0021 66.2801C44.2179 66.4651 44.2179 66.7735 44.0021 66.9585L43.3545 67.4827C43.2004 67.606 42.9845 67.606 42.8303 67.4827C42.6453 67.3285 42.4603 67.2051 42.2445 67.1126C41.8128 66.9276 41.3194 66.8043 40.7644 66.8043C40.2093 66.8043 39.6543 66.8968 39.1301 67.1126C38.6059 67.3285 38.0817 67.6368 37.6192 68.0069C37.1258 68.4077 36.725 68.8394 36.4166 69.3328C36.1083 69.8261 35.8924 70.3503 35.7691 70.9054C35.6457 71.4912 35.6149 71.9846 35.7074 72.478C35.7999 72.9713 36.0158 73.403 36.2933 73.773C36.5708 74.1739 36.9408 74.4514 37.4033 74.6672C37.835 74.8523 38.3592 74.9756 38.9143 74.9756C39.4693 74.9756 40.0243 74.8831 40.5485 74.6672C40.826 74.5439 41.1036 74.4206 41.3502 74.2664C41.5353 74.143 41.7819 74.2047 41.9053 74.3897L42.1828 74.7289C42.337 74.9448 42.3061 75.2531 42.0903 75.3765C42.0286 75.4073 41.9669 75.4381 41.9053 75.469C41.5353 75.6848 41.1961 75.8698 40.826 75.9932C40.4252 76.1473 40.0552 76.2707 39.716 76.3323C39.346 76.394 38.9759 76.4557 38.5751 76.4557C37.8042 76.4557 37.1258 76.3323 36.54 76.0548C35.9541 75.7773 35.4299 75.3765 35.029 74.8214C34.5973 74.2664 34.3198 73.6805 34.2273 73.0021C34.104 72.3546 34.1348 71.6454 34.3198 70.8745C34.5048 70.1036 34.8132 69.3944 35.214 68.7469C35.6149 68.0994 36.1699 67.4827 36.8483 66.9276C37.5267 66.3726 38.2359 65.9717 38.9451 65.6942C39.4693 65.5092 39.9935 65.3859 40.5485 65.3242C40.5794 65.3242 40.5794 65.3242 40.6102 65.3242H41.1036Z" fill="white"/>
<path d="M47.764 65.355C48.0415 65.355 48.2573 65.6325 48.1957 65.91L46.2222 74.4205L46.1297 74.8831H50.3541C50.6316 74.8831 50.8475 75.1606 50.7858 75.4381L50.6625 75.9931C50.6316 76.1782 50.4466 76.3015 50.2616 76.3015L44.8963 76.3323C44.6188 76.3323 44.4029 76.0548 44.4646 75.7773L46.8081 65.6634C46.8389 65.4784 47.0239 65.355 47.2089 65.355H47.764Z" fill="white"/>
<path d="M60.9922 65.6325C61.5781 65.91 62.0714 66.3109 62.5031 66.8659C62.9348 67.421 63.2123 68.0068 63.3357 68.6544C63.459 69.3328 63.4282 70.042 63.2432 70.782C63.0582 71.5529 62.7498 72.2621 62.349 72.9096C61.9173 73.5572 61.3622 74.1739 60.6839 74.7289C60.0055 75.2839 59.3271 75.6848 58.5871 75.9623C57.847 76.2398 57.107 76.3632 56.3669 76.3632C55.5961 76.3632 54.9177 76.2398 54.3318 75.9623C53.746 75.6848 53.2218 75.2839 52.8209 74.7289C52.3892 74.1739 52.1117 73.588 52.0192 72.9096C51.8958 72.2621 51.9267 71.5529 52.1117 70.782C52.2967 70.0111 52.6051 69.3019 53.0059 68.6544C53.4068 68.0068 53.9618 67.3901 54.6402 66.8351C55.3185 66.2801 56.0278 65.8792 56.737 65.6017C57.4462 65.3242 58.1862 65.2008 58.9879 65.2008C59.7588 65.2317 60.4372 65.355 60.9922 65.6325ZM56.9836 67.0201C56.4286 67.236 55.9353 67.5443 55.4727 67.9143C54.9794 68.3152 54.5785 68.7469 54.2702 69.2402C53.9618 69.7336 53.746 70.2578 53.6226 70.8128C53.4993 71.3987 53.4684 71.8921 53.5609 72.3854C53.6534 72.848 53.8385 73.3105 54.1468 73.7113C54.4243 74.1122 54.7943 74.3897 55.2569 74.6056C55.6886 74.7906 56.2128 74.9139 56.7678 74.9139C57.3228 74.9139 57.847 74.8214 58.4021 74.6056C58.9263 74.3897 59.4505 74.1122 59.9438 73.7113C60.4372 73.3105 60.838 72.8788 61.1464 72.3854C61.4547 71.9229 61.7014 71.3987 61.8248 70.8128C61.9481 70.2578 61.9789 69.7336 61.8864 69.2402C61.7939 68.7777 61.6089 68.3152 61.3006 67.9143C60.9922 67.5135 60.6222 67.236 60.1905 67.0201C59.7588 66.8351 59.2654 66.7118 58.7104 66.7118C58.0629 66.7118 57.5078 66.8043 56.9836 67.0201Z" fill="white"/>
<path d="M67.961 74.7289C68.2077 74.6364 68.4235 74.5131 68.6393 74.3897C68.8552 74.2355 69.0402 74.0814 69.1944 73.8655C69.3486 73.6497 69.4411 73.4338 69.5027 73.1872C69.5644 73.0021 69.5644 72.8171 69.5027 72.6321C69.4411 72.4471 69.3794 72.3238 69.2869 72.2004C69.1944 72.0771 69.0402 71.9538 68.8552 71.8612C68.6702 71.7687 68.516 71.6762 68.331 71.6146C68.1768 71.5529 67.9918 71.4912 67.776 71.4296C67.3134 71.3062 66.9434 71.1212 66.6042 70.9054C66.265 70.6895 66.0184 70.412 65.8025 70.0728C65.6483 69.8261 65.5867 69.5794 65.525 69.2711C65.4942 68.9627 65.4942 68.6852 65.5867 68.346C65.6792 67.9143 65.8642 67.5135 66.1109 67.1126C66.3575 66.7118 66.6659 66.4034 67.0359 66.0951C67.4059 65.7867 67.776 65.5709 68.2077 65.4167C68.6393 65.2625 69.071 65.17 69.5027 65.17C69.9036 65.17 70.2428 65.2317 70.582 65.355C70.9212 65.4784 71.1678 65.6942 71.4145 65.9101C71.692 66.2184 71.9079 66.5884 71.9695 67.0201C72.0312 67.2668 71.877 67.4827 71.6304 67.5135L70.8595 67.6677C70.6745 67.6985 70.4586 67.606 70.3661 67.421C70.3353 67.3285 70.2736 67.236 70.2119 67.1435C69.9653 66.8043 69.5952 66.6501 69.1635 66.6501C68.9477 66.6501 68.701 66.6809 68.4852 66.7734C68.2693 66.8659 68.0535 66.9893 67.8685 67.1435C67.6835 67.2976 67.4984 67.4827 67.3751 67.6985C67.2518 67.9143 67.1593 68.1302 67.0976 68.346C67.0668 68.5002 67.0359 68.6544 67.0668 68.8086C67.0976 68.9627 67.1284 69.0552 67.1593 69.1786C67.2209 69.2711 67.2826 69.3636 67.3751 69.4561C67.4676 69.5486 67.5601 69.6103 67.6835 69.6719C67.776 69.7336 67.8993 69.7953 68.0535 69.857C68.2077 69.9186 68.331 69.9803 68.4235 70.0111C68.516 70.042 68.6393 70.1036 68.7935 70.1345C68.9477 70.1961 69.0402 70.227 69.1327 70.2578C69.3794 70.3503 69.5952 70.4737 69.8111 70.597C70.0269 70.7203 70.2119 70.8745 70.397 71.0595C70.582 71.2445 70.7361 71.4296 70.8286 71.6454C70.952 71.8612 71.0137 72.0771 71.0445 72.3546C71.0753 72.6321 71.0753 72.9096 70.9828 73.1872C70.8903 73.6188 70.7053 74.0197 70.4278 74.4206C70.1503 74.8214 69.8111 75.1606 69.4411 75.4381C69.071 75.7156 68.6702 75.9315 68.2077 76.1165C67.776 76.2707 67.3134 76.3632 66.8817 76.3632C66.4192 76.3632 65.9875 76.2707 65.5867 76.0857C65.1858 75.9006 64.8775 75.6231 64.6308 75.284C64.4766 75.0373 64.3533 74.7906 64.2608 74.5131C64.1991 74.2664 64.3533 74.0505 64.5691 74.0197L65.34 73.8655C65.525 73.8347 65.7408 73.9272 65.8334 74.0814C65.9259 74.2664 66.0492 74.4514 66.265 74.5747C66.5426 74.7906 66.8817 74.8831 67.2209 74.8831C67.4985 74.8523 67.7451 74.8214 67.961 74.7289Z" fill="white"/>
<path d="M81.1275 65.7867L81.0042 66.3726C80.9734 66.5576 80.7884 66.6809 80.6033 66.6809H76.4714C76.2864 66.6809 76.1014 66.8043 76.0706 66.9893L76.0397 67.1126L75.4847 69.5178L75.3922 69.9803H78.4141C78.6916 69.9803 78.9074 70.2578 78.8457 70.5353L78.7224 71.1212C78.6916 71.3062 78.5066 71.4295 78.3215 71.4295H75.3922C75.2072 71.4295 75.0222 71.5529 74.9914 71.7379L74.9605 71.8612L74.4055 74.2664L74.313 74.7289H78.5374C78.8149 74.7289 79.0307 75.0064 78.9691 75.2839L78.8457 75.8698C78.8149 76.0548 78.6299 76.1782 78.4449 76.1782H73.0796C72.8021 76.1782 72.5862 75.9006 72.6479 75.6231L74.9914 65.4783C75.0222 65.2933 75.2072 65.17 75.3922 65.17L80.7575 65.1392C80.9734 65.2317 81.1892 65.5092 81.1275 65.7867Z" fill="white"/>
<path d="M86.4312 65.2317C87.1096 65.2625 87.7263 65.4167 88.2196 65.6325C88.8363 65.91 89.3605 66.3109 89.7614 66.8351C90.1314 67.3284 90.3781 67.9143 90.4398 68.5927C90.5323 69.2711 90.4706 69.9803 90.3164 70.7203C90.1622 71.4604 89.8539 72.1387 89.453 72.8479C89.0522 73.5263 88.5588 74.1122 87.9421 74.6055C87.2946 75.1297 86.6162 75.5306 85.8453 75.8081C85.1053 76.0856 84.3344 76.2398 83.5327 76.2398H81.4051C81.1276 76.2398 80.9117 75.9623 80.9734 75.6848L83.3169 65.6017C83.3477 65.4167 83.5327 65.2933 83.7177 65.2933H86.092L86.4312 65.2317ZM83.9336 74.7289C84.5194 74.7289 85.0745 74.6364 85.5986 74.4514C86.1228 74.2664 86.6162 73.9888 87.0787 73.6188C87.5413 73.2488 87.9113 72.8171 88.2196 72.3237C88.528 71.8304 88.7438 71.3062 88.8672 70.6895C88.9905 70.1036 89.0522 69.5486 88.9597 69.0861C88.898 68.5927 88.713 68.161 88.4355 67.791C88.158 67.4209 87.7879 67.1434 87.3254 66.9584C86.8937 66.7734 86.3695 66.6809 85.7837 66.6809H84.8586C84.6736 66.6809 84.4886 66.8042 84.4578 66.9893L84.4269 67.1126L82.7618 74.2664L82.6693 74.7289H83.9336Z" fill="white"/>
<path d="M80.8184 83.856L83.6552 76.3322C83.9327 75.5922 84.8269 75.1297 85.5978 75.253L91.7648 76.3631" fill="black"/>
<path d="M113.843 28.9387L34.782 32.7314C34.412 32.7314 34.0112 32.8239 33.6411 33.0089L29.3242 54.871H102.28C103.051 54.871 104.099 54.4085 104.747 53.2984L110.791 43.2462L114.738 33.4406C114.768 33.4098 116.341 25.9476 113.843 28.9387Z" fill="black"/>
<path d="M39.8697 23.6659H114.984C115.601 23.6659 116.31 23.3267 116.464 22.4942L119.178 8.61837C119.424 7.72415 119.208 7.19995 118.191 7.19995H43.2615C42.3057 7.19995 41.6273 7.87833 41.5039 8.68004L38.8213 22.2783C38.8521 22.9259 39.1296 23.6659 39.8697 23.6659Z" fill="black"/>
<path d="M37.0943 23.6659H112.209C112.825 23.6659 113.535 23.3267 113.689 22.4942L116.402 8.61837C116.649 7.72415 116.433 7.19995 115.416 7.19995H40.4862C39.5303 7.19995 38.8519 7.87833 38.7286 8.68004L36.0459 22.2783C36.0459 22.9259 36.3234 23.6659 37.0943 23.6659Z" fill="#029D53"/>
<path d="M37.0943 24.1286H60.159C65.586 21.6617 71.0129 19.2258 76.4399 16.8206C83.5628 13.6755 90.6858 10.6228 97.8703 7.6626H40.4862C39.5303 7.6626 38.8519 8.34097 38.7286 9.14268L36.0459 22.741C36.0459 23.3885 36.3234 24.1286 37.0943 24.1286Z" fill="#45B874"/>
<path d="M39.7467 15.8953C39.7159 15.8953 39.685 15.8953 39.6542 15.8953C39.4075 15.8337 39.2533 15.6178 39.2842 15.3403L39.87 12.4418C39.9317 12.1951 40.1476 12.0409 40.4251 12.0718C40.6718 12.1335 40.8259 12.3493 40.7951 12.6268L40.2092 15.5253C40.1476 15.7412 39.9626 15.8953 39.7467 15.8953Z" fill="white"/>
<path d="M40.6094 11.1468C40.5786 11.1468 40.5786 11.1468 40.5478 11.1468C40.3011 11.116 40.1161 10.8693 40.1469 10.6226C40.3011 9.54341 41.2262 8.7417 42.3671 8.7417H48.1949C48.4416 8.7417 48.6574 8.95755 48.6574 9.20423C48.6574 9.45091 48.4416 9.66675 48.1949 9.66675H42.3671C41.627 9.66675 41.1645 10.2218 41.072 10.746C41.0411 10.9618 40.8253 11.1468 40.6094 11.1468Z" fill="white"/>
<path d="M22.7567 48.889H100.184C100.924 48.889 101.941 48.4265 102.558 47.3781L113.258 29.5554C114.06 28.4145 114.09 27.7361 112.857 27.7361H35.6766C34.5665 27.7361 33.364 28.6303 32.8089 29.6479L22.2941 47.1622C21.9241 47.9639 21.8625 48.889 22.7567 48.889Z" fill="#FF3D00"/>
<path d="M53.9075 27.7361L22.0534 48.2716C22.0219 47.9482 22.1279 47.5414 22.3029 47.1622L32.8177 29.6479C33.3728 28.6303 34.5753 27.7361 35.6854 27.7361H53.9075Z" fill="#FF9600"/>
<path d="M35.6765 49.259H98.1793C98.9502 49.259 99.9986 48.7965 100.646 47.6864L111.839 29.0312C112.672 27.8286 112.703 27.1194 111.438 27.1194H49.1514C47.9797 27.1194 46.7463 28.0444 46.1296 29.1237L35.1523 47.4397C34.8131 48.3031 34.7514 49.259 35.6765 49.259Z" fill="white"/>
<path d="M43.1081 49.3823H99.4439C100.215 49.3823 101.263 48.9198 101.911 47.8097L113.104 29.1545C113.936 27.9519 113.967 27.2427 112.703 27.2427H56.5831C55.4113 27.2427 54.1779 28.1677 53.5612 29.247L42.5839 47.563C42.2447 48.3956 42.1831 49.3823 43.1081 49.3823Z" fill="#FF3D00"/>
<path d="M57.1999 49.3208H98.1182C98.889 49.3208 99.9374 48.8583 100.585 47.7482L111.778 29.0929C112.611 27.8904 112.642 27.1812 111.377 27.1812H70.6749C69.5031 27.1812 68.2697 28.1062 67.653 29.1854L56.6757 47.5015C56.3365 48.3341 56.2749 49.3208 57.1999 49.3208Z" fill="white"/>
<path d="M64.6306 49.4441H100.615C101.386 49.4441 102.434 48.9815 103.082 47.8715L114.275 29.2162C115.108 28.0137 115.139 27.3044 113.874 27.3044H78.1055C76.9338 27.3044 75.7004 28.2295 75.0837 29.3087L64.1064 47.6248C63.7672 48.4573 63.7055 49.4441 64.6306 49.4441Z" fill="#FF3D00"/>
<path d="M80.8816 49.3208H100.215C100.986 49.3208 102.034 48.8583 102.682 47.7482L113.875 29.0929C114.708 27.8904 114.739 27.1812 113.474 27.1812H94.3565C93.1848 27.1812 91.9514 28.1062 91.3347 29.1854L80.3573 47.5015C80.0182 48.3649 79.9565 49.3208 80.8816 49.3208Z" fill="white"/>
<path d="M88.3121 49.4441H101.17C101.941 49.4441 102.99 48.9815 103.637 47.8715L114.83 29.2162C115.663 28.0137 115.694 27.3044 114.429 27.3044H101.787C100.615 27.3044 99.3819 28.2295 98.7652 29.3087L87.7879 47.6248C87.4178 48.4573 87.3562 49.4441 88.3121 49.4441Z" fill="#FF3D00"/>
<path d="M143.537 100.168H16.2809C16.0342 100.168 15.8184 99.9521 15.8184 99.7054C15.8184 99.4588 16.0342 99.2429 16.2809 99.2429H143.537C143.784 99.2429 144 99.4588 144 99.7054C144 99.9521 143.784 100.168 143.537 100.168Z" fill="black"/>
<path d="M5.85868 100.168H0.462527C0.215846 100.168 0 99.9521 0 99.7054C0 99.4588 0.215846 99.2429 0.462527 99.2429H5.85868C6.10536 99.2429 6.3212 99.4588 6.3212 99.7054C6.3212 99.9521 6.10536 100.168 5.85868 100.168Z" fill="black"/>
<path d="M132.961 53.6068C130.279 52.2193 126.918 52.4351 124.42 54.4394L105.333 71.2446L101.417 91.1949L130.402 66.6809L132.961 53.6068Z" fill="#DDDDDD"/>
<path d="M105.302 71.2446L85.9687 81.6977C82.1452 83.7637 80.7268 88.5123 82.7927 92.3359C84.8587 96.1594 89.6073 97.5778 93.4308 95.5119L101.417 91.195L105.302 71.2446Z" fill="white"/>
<path d="M90.2853 94.7408C87.9727 94.7408 85.7526 93.5074 84.5808 91.349C82.8849 88.2038 84.0566 84.2877 87.2018 82.5918L104.747 73.0329L124.512 56.2278C125.252 55.611 126.054 55.1485 126.948 54.871C128.86 54.2851 131.419 53.8843 132.714 55.5185C132.807 55.6419 132.807 55.8577 132.684 55.9502C132.56 56.0427 132.344 56.0427 132.252 55.9194C131.111 54.501 128.552 55.0252 127.133 55.4569C126.332 55.7036 125.561 56.1352 124.913 56.6903L105.148 73.4954C105.117 73.4954 105.117 73.5263 105.086 73.5263L87.5102 83.0851C84.6733 84.6269 83.6249 88.1729 85.1359 91.0098C86.6776 93.8466 90.2237 94.895 93.0605 93.3841L101.725 88.4505L130.649 64.0907C130.772 63.9674 130.988 63.9982 131.08 64.1215C131.204 64.2449 131.173 64.4607 131.049 64.5532L102.095 88.9438L102.064 88.9747L93.3688 93.9391C92.3821 94.4941 91.3337 94.7408 90.2853 94.7408Z" fill="black"/>
<path d="M120.226 65.3551H118.284C117.883 65.3551 117.729 65.1084 117.883 64.615L118.099 63.875H122.508C123.001 63.875 123.156 64.1217 123.001 64.6459C122.878 65.0776 122.662 65.4168 122.323 65.6943L119.332 68.7778H121.83L121.614 69.5178C121.46 70.0112 121.182 70.2579 120.781 70.2579H116.279L116.495 69.487C116.618 69.0553 116.834 68.7161 117.174 68.4386L120.226 65.3551Z" fill="black"/>
<path d="M109.835 74.2664H107.708C107.245 74.2664 107.091 73.9889 107.245 73.4339L107.492 72.6013H112.364C112.888 72.6013 113.073 72.8788 112.919 73.4339C112.795 73.8964 112.549 74.2972 112.179 74.6056L108.848 77.9975H111.593L111.346 78.83C111.192 79.385 110.884 79.6626 110.421 79.6626H105.426L105.672 78.7992C105.796 78.3366 106.042 77.9358 106.413 77.6274L109.835 74.2664Z" fill="black"/>
<path d="M95.5268 83.3009H93.0292C92.505 83.3009 92.32 82.9926 92.505 82.3451L92.7825 81.3892H98.487C99.1037 81.3892 99.3196 81.7284 99.1346 82.3759C98.9804 82.9309 98.7029 83.3626 98.2712 83.7326L94.3859 87.7104H97.5928L97.3153 88.6971C97.1303 89.3446 96.7911 89.6838 96.236 89.6838H90.4082L90.6857 88.6971C90.8399 88.1421 91.1483 87.6795 91.5491 87.3403L95.5268 83.3009Z" fill="black"/>
</g>
<defs>
<clipPath id="clip0_1_15821">
<rect width="144" height="108" fill="white"/>
</clipPath>
</defs>
</svg>
