<svg width="21" height="20" viewBox="0 0 21 20" fill="none" xmlns="http://www.w3.org/2000/svg">
<path fill-rule="evenodd" clip-rule="evenodd" d="M5.95833 16.1581H5.125C4.665 16.1581 4.29167 15.764 4.29167 15.2785V4.72288C4.29167 4.23733 4.665 3.84325 5.125 3.84325H6.79167V10.0007H13.4583V3.84325H15.125C15.585 3.84325 15.9583 4.23733 15.9583 4.72288V15.2785C15.9583 15.764 15.585 16.1581 15.125 16.1581H14.2917V17.9174H15.125C16.5058 17.9174 17.625 16.736 17.625 15.2785V4.72288C17.625 3.26533 16.5058 2.08398 15.125 2.08398H5.125C3.74417 2.08398 2.625 3.26533 2.625 4.72288V15.2785C2.625 16.736 3.74417 17.9174 5.125 17.9174H5.95833V16.1581ZM8.45833 8.24142V3.84325H11.7917V8.24142H8.45833Z" fill="#E05353"/>
<path fill-rule="evenodd" clip-rule="evenodd" d="M11.7917 16.5006C11.7917 16.434 11.765 16.3706 11.7183 16.324C11.6717 16.2773 11.6083 16.2506 11.5417 16.2506C10.9233 16.2506 9.32667 16.2506 8.70833 16.2506C8.64167 16.2506 8.57833 16.2773 8.53167 16.324C8.485 16.3706 8.45833 16.434 8.45833 16.5006C8.45833 16.8156 8.45833 17.3523 8.45833 17.6673C8.45833 17.734 8.485 17.7973 8.53167 17.844C8.57833 17.8906 8.64167 17.9173 8.70833 17.9173C9.32667 17.9173 10.9233 17.9173 11.5417 17.9173C11.6083 17.9173 11.6717 17.8906 11.7183 17.844C11.765 17.7973 11.7917 17.734 11.7917 17.6673C11.7917 17.3523 11.7917 16.8156 11.7917 16.5006Z" fill="#E05353"/>
<path opacity="0.6" fill-rule="evenodd" clip-rule="evenodd" d="M13.4584 11.834C13.4584 11.7673 13.4317 11.704 13.385 11.6573C13.3384 11.6107 13.275 11.584 13.2084 11.584C12.1559 11.584 8.09419 11.584 7.04169 11.584C6.97502 11.584 6.91169 11.6107 6.86502 11.6573C6.81835 11.704 6.79169 11.7673 6.79169 11.834C6.79169 12.149 6.79169 12.6857 6.79169 13.0007C6.79169 13.0673 6.81835 13.1307 6.86502 13.1773C6.91169 13.224 6.97502 13.2507 7.04169 13.2507C8.09419 13.2507 12.1559 13.2507 13.2084 13.2507C13.275 13.2507 13.3384 13.224 13.385 13.1773C13.4317 13.1307 13.4584 13.0673 13.4584 13.0007C13.4584 12.6857 13.4584 12.149 13.4584 11.834Z" fill="#E05353"/>
<path opacity="0.8" fill-rule="evenodd" clip-rule="evenodd" d="M12.625 14.166C12.625 14.0993 12.5983 14.036 12.5517 13.9893C12.505 13.9427 12.4417 13.916 12.375 13.916C11.5217 13.916 8.72833 13.916 7.875 13.916C7.80833 13.916 7.745 13.9427 7.69833 13.9893C7.65167 14.036 7.625 14.0993 7.625 14.166C7.625 14.481 7.625 15.0177 7.625 15.3327C7.625 15.3993 7.65167 15.4627 7.69833 15.5094C7.745 15.556 7.80833 15.5827 7.875 15.5827C8.72833 15.5827 11.5217 15.5827 12.375 15.5827C12.4417 15.5827 12.505 15.556 12.5517 15.5094C12.5983 15.4627 12.625 15.3993 12.625 15.3327C12.625 15.0177 12.625 14.481 12.625 14.166Z" fill="#E05353"/>
</svg>
