<svg width="16" height="17" viewBox="0 0 16 17" fill="none" xmlns="http://www.w3.org/2000/svg">
<path fill-rule="evenodd" clip-rule="evenodd" d="M1.62247 0.556152C1.62247 0.556152 -0.813154 4.63284 1.05221 7.8091L2.99893 11.1239C1.28576 12.1426 0.682442 14.3242 1.65776 16.0503L2.13288 16.8174C3.1506 15.0843 4.63346 14.6513 5.02002 14.5653L5.28979 15.0247C5.28979 15.0247 7.06655 14.972 9.33311 13.6855C11.5997 12.399 12.5345 10.9127 12.5345 10.9127L12.2684 10.4596C12.5586 10.1516 13.6743 9.12605 15.6665 9.12075L15.2331 8.32696C14.2088 6.61788 11.9928 6.04281 10.2446 7.01353L8.29689 3.69711C6.4654 0.578528 1.62247 0.556152 1.62247 0.556152ZM3.04831 7.07712C2.46886 6.09046 2.80631 4.83331 3.80235 4.26797C4.79839 3.70263 6.07457 4.04391 6.65402 5.03056C7.23347 6.01722 6.89602 7.27437 5.89998 7.83971C4.90394 8.40505 3.62776 8.06378 3.04831 7.07712ZM10.8365 13.3341C10.821 13.3062 10.6462 13.4481 10.421 13.6311L10.4209 13.6311C10.1709 13.8342 9.85866 14.0878 9.63241 14.2162C9.41685 14.3386 9.06009 14.4665 8.76323 14.5729C8.46775 14.6788 8.23162 14.7635 8.25317 14.8002C9.23067 16.4643 10.8101 16.3063 10.8101 16.3063C10.8101 16.3063 11.8097 15.0614 10.8365 13.3341Z" fill="url(#paint0_linear_19374_6218)"/>
<defs>
<linearGradient id="paint0_linear_19374_6218" x1="1.8532" y1="0.424982" x2="9.40493" y2="13.73" gradientUnits="userSpaceOnUse">
<stop stop-color="#FF3D00"/>
<stop offset="1" stop-color="#FF9600"/>
</linearGradient>
</defs>
</svg>
