<svg width="152" height="46" viewBox="0 0 152 46" fill="none" xmlns="http://www.w3.org/2000/svg">
<rect x="0.5" y="0.5" width="151" height="44.037" rx="3.5" fill="#3A3C3B"/>
<path fill-rule="evenodd" clip-rule="evenodd" d="M26.8083 9.56982L26.144 10.2454L26.8083 10.9209L27.4839 10.2454L26.8083 9.56982ZM27.0898 15.0756C27.1981 14.7793 27.2589 14.4677 27.2699 14.1523V11.8217H26.3579V14.0735C26.3581 14.2899 26.3316 14.5054 26.2791 14.7153C26.2311 14.872 26.1461 15.0148 26.0314 15.1319C25.9123 15.2473 25.7646 15.3289 25.6036 15.3683C25.4046 15.4168 25.2003 15.4395 24.9956 15.4359H24.5339V16.3592H24.9956C25.3139 16.3618 25.6302 16.3085 25.9301 16.2015C26.1916 16.107 26.4297 15.9572 26.6282 15.7624C26.826 15.5663 26.9829 15.3328 27.0898 15.0756Z" fill="white"/>
<path d="M29.1952 14.3778H28.272V9.07471H29.1952V14.3778Z" fill="white"/>
<path fill-rule="evenodd" clip-rule="evenodd" d="M33.0572 8.37646C32.7463 8.37646 32.4943 8.62851 32.4943 8.93943C32.5019 9.07926 32.5671 9.20968 32.6744 9.29972C32.9088 9.49646 33.2507 9.49646 33.4851 9.29972C33.5757 9.20207 33.6243 9.07262 33.6202 8.93943C33.6202 8.62851 33.3681 8.37646 33.0572 8.37646ZM32.5506 14.3214H33.5076V10.0428H32.5506V14.3214Z" fill="white"/>
<path fill-rule="evenodd" clip-rule="evenodd" d="M38.8557 13.0828C39.0575 12.6137 39.1572 12.1071 39.1484 11.5966V11.2588C39.1625 10.7394 39.0586 10.2235 38.8444 9.75006C38.666 9.35363 38.3766 9.01733 38.0112 8.78176C37.2391 8.33056 36.2838 8.33056 35.5117 8.78176C35.1426 9.02605 34.8499 9.36946 34.6672 9.77257C34.4654 10.2416 34.3656 10.7482 34.3745 11.2588V11.6304C34.3652 12.1348 34.4691 12.635 34.6785 13.0941C34.8547 13.4953 35.1493 13.8332 35.5229 14.0624C36.295 14.5136 37.2504 14.5136 38.0225 14.0624C38.3927 13.8274 38.6831 13.4859 38.8557 13.0828ZM37.786 9.79509C38.0505 10.2357 38.1761 10.7458 38.1463 11.2588V11.5853C38.1791 12.1022 38.0534 12.6167 37.786 13.0603C37.564 13.3992 37.177 13.5927 36.7727 13.5669C36.3612 13.5846 35.9696 13.3888 35.7368 13.049C35.4677 12.61 35.3382 12.0996 35.3653 11.5853V11.2588C35.3386 10.7431 35.4724 10.2317 35.7481 9.79509C35.9701 9.45619 36.3571 9.2627 36.7614 9.28843C37.1673 9.27002 37.5543 9.46135 37.786 9.79509Z" fill="white"/>
<path d="M43.0554 12.8463C43.0682 12.6184 42.967 12.3989 42.7852 12.2608C42.4942 12.0649 42.1698 11.9237 41.8281 11.8442C41.434 11.7358 41.0556 11.5769 40.7022 11.3713C40.2226 11.1219 39.9196 10.6283 39.9141 10.0878C39.9123 9.64437 40.1212 9.22647 40.477 8.96185C40.9003 8.6428 41.4227 8.48332 41.952 8.51148C42.3212 8.50197 42.6876 8.57909 43.0216 8.73667C43.3232 8.87357 43.5805 9.09194 43.7647 9.36719C43.9349 9.63673 44.0247 9.94917 44.0237 10.2679H43.0329C43.0457 10.002 42.9431 9.74338 42.7514 9.55859C42.5211 9.37866 42.2323 9.29041 41.9407 9.31089C41.6739 9.29448 41.409 9.36564 41.1864 9.51356C41.0077 9.65413 40.9072 9.87185 40.9161 10.099C40.9128 10.3149 41.0243 10.5163 41.2089 10.6282C41.5035 10.8175 41.8266 10.9582 42.1659 11.0448C42.5598 11.1435 42.9386 11.295 43.2918 11.4952C43.5353 11.6391 43.74 11.84 43.8886 12.0807C44.0177 12.319 44.0836 12.5865 44.08 12.8576C44.09 13.3002 43.8842 13.7201 43.5283 13.9835C43.0889 14.284 42.5623 14.4304 42.0308 14.4001C41.6443 14.3998 41.2617 14.3233 40.9049 14.1749C40.5804 14.035 40.2974 13.814 40.083 13.5331C39.891 13.2558 39.7925 12.9245 39.8015 12.5873H40.8035C40.7855 12.8742 40.902 13.153 41.1188 13.3417C41.3896 13.5374 41.7199 13.6329 42.0533 13.6119C42.3328 13.6336 42.6113 13.558 42.8415 13.398C42.9924 13.2558 43.071 13.0531 43.0554 12.8463Z" fill="white"/>
<path fill-rule="evenodd" clip-rule="evenodd" d="M50.9256 14.3776H51.0269V13.4206H50.9256H50.6441C50.5331 13.4092 50.4257 13.3747 50.3288 13.3193C50.2171 13.2647 50.1175 13.1881 50.0361 13.0941C49.9396 12.9856 49.8736 12.8535 49.8447 12.7113L49.1691 10.0991L48.2797 10.313L48.3585 10.6621C48.1323 10.7443 47.9106 10.8382 47.6942 10.9436C47.4836 11.0459 47.2869 11.1745 47.1087 11.3264C46.9493 11.4801 46.8162 11.6588 46.7146 11.8556C46.6085 12.0728 46.5545 12.3119 46.557 12.5536C46.5545 12.7665 46.5967 12.9774 46.6808 13.1729C46.7526 13.3471 46.86 13.5043 46.9961 13.6345C47.1274 13.7638 47.2848 13.8637 47.4577 13.9273C47.6336 13.9955 47.8208 14.0299 48.0094 14.0286H48.3472C48.4594 14.0068 48.5689 13.9728 48.6737 13.9273C48.7825 13.8808 48.8847 13.8202 48.9777 13.7471C49.0666 13.6827 49.1429 13.6026 49.2029 13.5107C49.272 13.6647 49.3672 13.8057 49.4844 13.9273C49.6045 14.0411 49.7411 14.136 49.8897 14.2087C50.0442 14.2833 50.2066 14.34 50.3739 14.3776C50.5574 14.3948 50.7421 14.3948 50.9256 14.3776ZM48.7751 12.3397C48.7866 12.4106 48.7866 12.4828 48.7751 12.5536H48.7638C48.7437 12.7038 48.6672 12.8406 48.5499 12.9365C48.4094 13.0221 48.2518 13.0759 48.0883 13.0941C48.0103 13.1108 47.9297 13.1108 47.8518 13.0941C47.7747 13.0741 47.7022 13.0397 47.6379 12.9927C47.5684 12.9499 47.5135 12.8872 47.4803 12.8126C47.4345 12.7424 47.4109 12.66 47.4127 12.5762C47.4116 12.3429 47.5253 12.124 47.7167 11.9907C47.9873 11.7995 48.2879 11.6549 48.6062 11.5628C48.6527 11.621 48.6542 11.6761 48.6556 11.7282C48.6569 11.7771 48.6581 11.8233 48.6963 11.8668C48.7751 11.9569 48.7751 12.047 48.7751 12.1258C48.7806 12.197 48.7806 12.2685 48.7751 12.3397Z" fill="white"/>
<path fill-rule="evenodd" clip-rule="evenodd" d="M52.547 9.01807L51.894 9.68236L52.5583 10.3579L53.2338 9.69362L52.547 9.01807ZM55.7447 12.9926L55.8685 12.9138L55.7447 12.1594H55.5758L55.2493 12.0355L54.8101 11.8779L54.3147 11.6978L53.7968 11.5176L53.3127 11.3713L52.9186 11.2587L52.6258 11.1573C52.4755 11.1521 52.3258 11.179 52.1867 11.2361C52.0605 11.2884 51.9458 11.3649 51.849 11.4613C51.7505 11.5614 51.6671 11.6751 51.6013 11.7991C51.5334 11.933 51.4769 12.0724 51.4324 12.2157L52.2768 12.4747C52.2953 12.4095 52.3258 12.3484 52.3669 12.2945C52.3903 12.2488 52.4207 12.207 52.457 12.1707C52.4915 12.1376 52.5343 12.1143 52.5808 12.1031H52.7272C52.7982 12.0937 52.8701 12.0937 52.9411 12.1031L53.2676 12.1707L53.6392 12.272L54.0445 12.3846L54.4836 12.5873L54.8552 12.6998C54.6508 12.8062 54.4403 12.9002 54.2247 12.9813C53.9806 13.0878 53.7283 13.1744 53.4703 13.2403C53.2082 13.3213 52.9412 13.3852 52.6709 13.4317C52.4152 13.4841 52.1549 13.5105 51.894 13.5105H50.7681V14.3437H51.894C52.147 14.3441 52.3995 14.3215 52.6484 14.2761C52.8961 14.2311 53.1438 14.1748 53.3802 14.1073C53.6132 14.0365 53.8425 13.9538 54.067 13.8595L54.675 13.5893C54.797 13.8253 54.9847 14.0208 55.2155 14.1523C55.4584 14.28 55.7292 14.3458 56.0036 14.3437H56.6792V13.4317H55.9023H55.7447L55.587 13.3416C55.5406 13.2918 55.5026 13.2347 55.4744 13.1727L55.7447 12.9926Z" fill="white"/>
<path d="M58.0753 13.5107C58.1113 13.4956 58.1518 13.4956 58.1879 13.5107C58.201 13.5432 58.201 13.5795 58.1879 13.612V14.2425C58.2059 14.2779 58.2059 14.3197 58.1879 14.3551C58.1518 14.3701 58.1113 14.3701 58.0753 14.3551H56.544C56.5032 14.3635 56.4608 14.3509 56.4314 14.3214C56.4019 14.2919 56.3892 14.2496 56.3977 14.2087V13.5782C56.388 13.5451 56.388 13.51 56.3977 13.4769C56.4337 13.4619 56.4742 13.4619 56.5102 13.4769L58.0753 13.5107Z" fill="white"/>
<path d="M59.6066 13.5106C59.6432 13.4993 59.6825 13.4993 59.7192 13.5106C59.7289 13.5437 59.7289 13.5788 59.7192 13.6119V14.2424C59.7342 14.2785 59.7342 14.319 59.7192 14.355C59.6825 14.3663 59.6432 14.3663 59.6066 14.355H58.064C58.0232 14.3635 57.9809 14.3508 57.9514 14.3213C57.9219 14.2918 57.9092 14.2495 57.9177 14.2087V13.5781C57.908 13.5451 57.908 13.5099 57.9177 13.4768C57.9537 13.4618 57.9942 13.4618 58.0303 13.4768L59.6066 13.5106Z" fill="white"/>
<path d="M59.4827 13.5106H59.9556C60.0715 13.5245 60.1887 13.5245 60.3046 13.5106C60.3815 13.4848 60.4537 13.4468 60.5185 13.398C60.5652 13.3462 60.5998 13.2847 60.6199 13.2179C60.626 13.1429 60.626 13.0676 60.6199 12.9927V11.8668H61.5319V12.9251C61.5201 13.0818 61.573 13.2364 61.6782 13.353C61.8082 13.4581 61.973 13.5104 62.1399 13.4993H62.275C62.3334 13.487 62.3877 13.4599 62.4326 13.4205C62.4876 13.3757 62.5302 13.3176 62.5564 13.2516C62.5959 13.1632 62.6151 13.067 62.6127 12.9702V11.8442H63.5247V12.9026C63.5083 13.0632 63.5616 13.2231 63.6711 13.3417C63.8074 13.469 63.9924 13.5306 64.1778 13.5106C64.2372 13.5224 64.2985 13.5224 64.3579 13.5106C64.4179 13.4961 64.4726 13.4649 64.5156 13.4205C64.562 13.3707 64.6 13.3137 64.6281 13.2516C64.6422 13.1697 64.6422 13.0859 64.6281 13.0039V11.878H65.5401V13.0039C65.5317 13.161 65.5936 13.3137 65.709 13.4205C65.8615 13.5122 66.0382 13.5554 66.2157 13.5444H66.576V14.4564H66.2157C65.9953 14.4622 65.7753 14.4357 65.5627 14.3776C65.3825 14.3264 65.2167 14.2338 65.0785 14.1073C64.9519 14.2235 64.8023 14.3117 64.6394 14.3663C64.4743 14.4297 64.2983 14.4603 64.1215 14.4564C63.9197 14.4618 63.7183 14.4352 63.5247 14.3776C63.3524 14.3236 63.1946 14.2312 63.0631 14.1073C62.9343 14.2147 62.7901 14.302 62.6353 14.3663C62.4801 14.4233 62.3164 14.4537 62.1511 14.4564C61.9446 14.4649 61.7383 14.4343 61.5431 14.3663C61.376 14.3113 61.2197 14.2275 61.0815 14.1186C60.7549 14.3547 60.3582 14.4737 59.9556 14.4564H59.4827L59.4827 13.5106Z" fill="white"/>
<path fill-rule="evenodd" clip-rule="evenodd" d="M67.6344 9.1084L66.9701 9.77269L67.6344 10.4482L68.31 9.78395L67.6344 9.1084ZM68.5352 11.3715V11.2589L67.8146 11.608C67.818 11.6604 67.818 11.7131 67.8146 11.7656C67.8709 11.8331 67.8709 11.912 67.8709 11.9908V12.2497V12.52V12.7677C67.8759 12.8351 67.8759 12.9029 67.8709 12.9703C67.8912 13.0706 67.8912 13.174 67.8709 13.2743C67.8312 13.3379 67.7818 13.3949 67.7245 13.4432C67.6725 13.4753 67.6154 13.4982 67.5556 13.5108H66.4297V14.344H67.1841C67.3572 14.3478 67.5295 14.3172 67.6907 14.2539C67.8594 14.197 68.0159 14.1092 68.1523 13.9949C68.2885 13.8623 68.3992 13.7058 68.4789 13.5333C68.563 13.326 68.6051 13.104 68.6027 12.8802V12.5875V12.261L68.5352 11.912C68.5425 11.8108 68.5425 11.7092 68.5352 11.608V11.3715Z" fill="white"/>
<path fill-rule="evenodd" clip-rule="evenodd" d="M74.2211 11.5291L73.6018 10.9098L74.2098 10.2681L74.8403 10.9098L74.2211 11.5291ZM78.6009 11.8331V12.959C78.5881 13.0335 78.5881 13.1097 78.6009 13.1842C78.6241 13.2396 78.6586 13.2894 78.7023 13.3306C78.7375 13.3732 78.7845 13.4046 78.8374 13.4207C78.8779 13.4488 78.924 13.4679 78.9725 13.477H79.0963H79.4116V14.389H78.9162L78.6235 14.3327L78.3532 14.2313C78.2658 14.1882 78.1859 14.1312 78.1168 14.0624C77.7959 14.31 77.395 14.4302 76.9909 14.4002H72.8249C72.6485 14.3986 72.4736 14.3681 72.307 14.3101C72.1457 14.2537 71.9994 14.1613 71.8792 14.0399C71.8249 13.9886 71.7759 13.932 71.7328 13.871C71.6094 13.7125 71.5246 13.5275 71.4851 13.3306C71.4672 13.2036 71.4672 13.0747 71.4851 12.9478C71.4697 12.8131 71.4697 12.6771 71.4851 12.5424C71.4851 12.4073 71.4851 12.2722 71.5639 12.1371C71.6018 12.0721 71.6032 12.0149 71.6046 11.9631C71.606 11.9071 71.6072 11.8573 71.654 11.8106C71.7226 11.742 71.6867 11.6865 71.6657 11.6539C71.6591 11.6437 71.654 11.6358 71.654 11.6304L72.0931 11.7768L72.5322 11.9119C72.5322 11.9795 72.5322 12.0583 72.4534 12.1484L72.3858 12.4298V12.7226C72.3819 12.7976 72.3819 12.8728 72.3858 12.9478C72.3655 13.0443 72.3655 13.144 72.3858 13.2405C72.4108 13.304 72.4539 13.3588 72.5097 13.3981C72.549 13.4391 72.6002 13.4667 72.656 13.477H72.8137H77.0246C77.1403 13.4951 77.258 13.4951 77.3737 13.477C77.455 13.4628 77.5298 13.4234 77.5876 13.3644C77.6483 13.2881 77.6766 13.1911 77.6664 13.0941V11.8331H78.6009ZM75.1443 10.8986L75.7636 11.5291L76.3941 10.8986L75.7523 10.2681L75.1443 10.8986Z" fill="white"/>
<path d="M80.909 13.5107C80.9451 13.4956 80.9856 13.4956 81.0216 13.5107C81.0348 13.5432 81.0348 13.5795 81.0216 13.612V14.2425C81.0397 14.2779 81.0397 14.3197 81.0216 14.3551C80.9856 14.3701 80.9451 14.3701 80.909 14.3551H79.3778C79.3369 14.3635 79.2946 14.3509 79.2651 14.3214C79.2356 14.2919 79.2229 14.2496 79.2314 14.2087V13.5782C79.2217 13.5451 79.2217 13.51 79.2314 13.4769C79.2674 13.4619 79.308 13.4619 79.344 13.4769L80.909 13.5107Z" fill="white"/>
<path d="M82.4403 13.5106C82.477 13.4993 82.5162 13.4993 82.5529 13.5106C82.5626 13.5437 82.5626 13.5788 82.5529 13.6119V14.2424C82.5679 14.2785 82.5679 14.319 82.5529 14.355C82.5162 14.3663 82.477 14.3663 82.4403 14.355H80.8978C80.8569 14.3635 80.8146 14.3508 80.7851 14.3213C80.7556 14.2918 80.743 14.2495 80.7514 14.2087V13.5781C80.7417 13.5451 80.7417 13.5099 80.7514 13.4768C80.7874 13.4618 80.828 13.4618 80.864 13.4768L82.4403 13.5106Z" fill="white"/>
<path fill-rule="evenodd" clip-rule="evenodd" d="M83.6226 8.84938L84.2756 8.17383L84.9624 8.86064L84.2869 9.52494L83.6226 8.84938ZM82.3278 14.3777V13.5107H83.8365C84.0089 13.524 84.182 13.524 84.3544 13.5107C84.4697 13.4917 84.5828 13.4615 84.6922 13.4206C84.7624 13.3901 84.827 13.3483 84.8836 13.2968C84.9244 13.2575 84.9586 13.2118 84.9849 13.1617C84.6932 13.1952 84.3985 13.1952 84.1067 13.1617C83.8717 13.1349 83.6452 13.0582 83.4424 12.9365C83.2646 12.8278 83.1203 12.6719 83.0258 12.4861C82.9212 12.2808 82.8708 12.0521 82.8795 11.8218C82.8754 11.6209 82.9138 11.4214 82.9921 11.2363C83.0616 11.0352 83.1728 10.851 83.3186 10.6959C83.4556 10.5547 83.6204 10.4435 83.8027 10.3694C83.9952 10.2904 84.203 10.2557 84.4107 10.268C84.5911 10.2758 84.7694 10.3099 84.9399 10.3694C85.083 10.4317 85.2158 10.5152 85.334 10.6171C85.4421 10.7182 85.5334 10.8361 85.6042 10.9661C85.6804 11.1014 85.7409 11.2449 85.7844 11.394C85.8289 11.5529 85.8627 11.7147 85.8857 11.8781C85.8969 12.0468 85.8969 12.2161 85.8857 12.3848V12.6663C85.8736 12.9582 85.8047 13.245 85.683 13.5107C85.5729 13.721 85.4147 13.9023 85.2214 14.0399C85.0246 14.1661 84.8075 14.2575 84.5796 14.3101C84.3308 14.3559 84.0782 14.3786 83.8252 14.3777H82.3278ZM84.1855 11.18C84.2715 11.1685 84.3586 11.1685 84.4445 11.18C84.5648 11.1704 84.6855 11.1938 84.7935 11.2476C84.8732 11.3185 84.9349 11.4072 84.9737 11.5066C85.0155 11.6157 85.0457 11.7289 85.0638 11.8443V12.1821C84.7474 12.2728 84.4119 12.2728 84.0955 12.1821C83.892 12.1215 83.7539 11.9327 83.7577 11.7205C83.7523 11.6342 83.7718 11.5482 83.814 11.4728C83.8471 11.4015 83.8974 11.3396 83.9604 11.2926C84.0253 11.2375 84.1025 11.1989 84.1855 11.18Z" fill="white"/>
<path d="M88.5653 14.3778C88.333 14.3969 88.0995 14.3969 87.8672 14.3778C87.6996 14.3526 87.5366 14.3033 87.3831 14.2314C87.2603 14.1743 87.1524 14.0895 87.0678 13.9837C86.9844 13.8752 86.9197 13.7534 86.8764 13.6234C86.8364 13.4761 86.81 13.3253 86.7976 13.1731C86.7976 12.9929 86.7976 12.8128 86.7976 12.5989V9.07471H87.7209V12.5538C87.7072 12.7112 87.7072 12.8694 87.7209 13.0267C87.7248 13.1287 87.7602 13.227 87.8222 13.3082C87.8948 13.3736 87.9847 13.4166 88.0812 13.432C88.2422 13.4462 88.4042 13.4462 88.5653 13.432V14.3778Z" fill="white"/>
<path fill-rule="evenodd" clip-rule="evenodd" d="M91.2 11.2588C91.2065 11.296 91.2065 11.3341 91.2 11.3714V11.6078V11.9118V12.2609V12.5874V12.8801C91.2024 13.1039 91.1603 13.3258 91.0762 13.5332C90.9965 13.7057 90.8858 13.8622 90.7496 13.9948C90.6132 14.1091 90.4567 14.1969 90.288 14.2538C90.1265 14.3162 89.9545 14.3468 89.7813 14.3438H88.4077V13.5106H90.1529C90.2127 13.498 90.2698 13.4752 90.3218 13.4431C90.3761 13.3918 90.4251 13.3352 90.4682 13.2742C90.5074 13.1777 90.5266 13.0743 90.5245 12.9702C90.5295 12.9027 90.5295 12.835 90.5245 12.7675V12.5198C90.5299 12.4298 90.5299 12.3396 90.5245 12.2496V11.9906V11.7655V11.6078L91.2 11.2588ZM89.2184 16.348L88.5428 15.7625L89.1508 15.132L89.7813 15.7625L89.2184 16.348ZM90.0741 15.7625L90.7609 16.348L91.3126 15.7625L90.6821 15.132L90.0741 15.7625Z" fill="white"/>
<path d="M94.4089 14.1524C94.3942 14.4684 94.3296 14.78 94.2174 15.0757C94.1144 15.3323 93.9613 15.5657 93.7671 15.7625C93.5645 15.9576 93.3227 16.1073 93.0577 16.2016C92.7581 16.3095 92.4416 16.3629 92.1232 16.3593H91.6729V15.436H92.1232C92.3316 15.4389 92.5396 15.4162 92.7425 15.3684C92.9013 15.3315 93.0459 15.2494 93.1591 15.132C93.2738 15.0149 93.3587 14.8721 93.4068 14.7154C93.4535 14.5049 93.4687 14.2886 93.4518 14.0736V11.8218H94.3751L94.4089 14.1524Z" fill="white"/>
<path d="M96.458 14.3888H96.1766H95.9063L95.6136 14.3213L95.3096 14.2312L94.8705 14.0961L95.1294 13.2178C95.3473 13.2935 95.569 13.3574 95.7937 13.4093C96.0077 13.4658 96.2262 13.5035 96.4468 13.5218C96.622 13.551 96.8008 13.551 96.976 13.5218C97.1041 13.5062 97.2149 13.4252 97.2687 13.3079C97.2856 13.2684 97.2856 13.2236 97.2687 13.1841C97.2518 13.1239 97.2252 13.0668 97.1899 13.0152L95.8163 11.0223L96.5819 10.5156L96.8409 10.8984V10.9773L96.9534 11.1461L97.1449 11.4276L97.4376 11.8667L97.9555 12.3847C98.0742 12.5613 98.1547 12.7607 98.192 12.9701C98.2274 13.2736 98.138 13.5784 97.9443 13.8146C97.8756 13.9036 97.7917 13.9798 97.6966 14.0398C97.5054 14.1644 97.2909 14.2486 97.066 14.2875C96.8667 14.3389 96.6633 14.3729 96.458 14.3888Z" fill="white"/>
<path d="M43.6071 32.0997L42.1209 29.1272C41.8523 28.5896 41.3032 28.2496 40.7022 28.249H25.1081C24.8872 28.2499 24.6823 28.3643 24.5657 28.5519C24.449 28.7394 24.437 28.9738 24.5339 29.1723L25.536 31.1201C26.0764 32.1621 27.1545 32.8142 28.3283 32.809H43.1567C43.3275 32.8102 43.4869 32.7234 43.5785 32.5792C43.67 32.435 43.6808 32.2538 43.6071 32.0997Z" fill="white"/>
<path d="M35.3765 34.3628H33.0459C32.8201 34.3627 32.6354 34.5425 32.6293 34.7681V37.02C32.6354 37.2456 32.8201 37.4254 33.0459 37.4253H35.3765C35.6023 37.4254 35.787 37.2456 35.7931 37.02V34.7681C35.787 34.5425 35.6023 34.3627 35.3765 34.3628Z" fill="white"/>
<path d="M97.4038 28.2491H80.4249C80.3307 28.2517 80.2416 28.207 80.1873 28.1301C80.133 28.0531 80.1207 27.9541 80.1547 27.8663C80.4184 27.1177 80.5517 26.3293 80.5487 25.5356V23.205C80.5487 22.9127 80.3118 22.6758 80.0195 22.6758H76.4166C76.1243 22.6758 75.8874 22.9127 75.8874 23.205V25.5694C75.875 27.053 74.6688 28.2492 73.1852 28.2491H71.6201C71.5288 28.2503 71.4427 28.2071 71.3889 28.1332C71.3352 28.0594 71.3207 27.9641 71.3499 27.8776C71.6011 27.1533 71.7305 26.3923 71.7327 25.6257V23.2613C71.7328 23.1189 71.6755 22.9826 71.5738 22.883C71.4721 22.7835 71.3346 22.729 71.1923 22.7321H67.5555C67.2614 22.732 67.0212 22.9672 67.0151 23.2613V25.5919C67.0122 26.3096 66.7227 26.9963 66.211 27.4995C65.6994 28.0027 65.0079 28.2806 64.2904 28.2716H53.8418C53.2408 28.2722 52.6916 28.6122 52.4231 29.1499L50.9369 32.1223C50.8631 32.2764 50.8739 32.4576 50.9655 32.6018C51.057 32.746 51.2164 32.8329 51.3873 32.8316H64.3129C66.5259 32.8394 68.6286 31.8664 70.0551 30.1744L71.091 32.2461C71.262 32.5862 71.611 32.8 71.9917 32.7979H73.1176C75.4602 32.8085 77.671 31.7156 79.085 29.8479L80.1434 32.2349C80.3032 32.5962 80.6603 32.8299 81.0554 32.8316H94.1837C95.3619 32.8311 96.4422 32.176 96.9873 31.1315L97.9555 29.1724C98.0575 28.978 98.051 28.7446 97.9384 28.5562C97.8258 28.3678 97.6233 28.2515 97.4038 28.2491Z" fill="white"/>
<path d="M78.1167 34.3628H71.8341C71.6083 34.3627 71.4236 34.5425 71.4175 34.7681V37.02C71.4236 37.2456 71.6083 37.4254 71.8341 37.4253H78.1167C78.3425 37.4254 78.5272 37.2456 78.5333 37.02V34.7681C78.5272 34.5425 78.3425 34.3627 78.1167 34.3628Z" fill="white"/>
<path d="M43.5395 34.3628H37.2568C37.0311 34.3627 36.8463 34.5425 36.8402 34.7681V37.02C36.8463 37.2456 37.0311 37.4254 37.2568 37.4253H43.5395C43.7652 37.4254 43.95 37.2456 43.9561 37.02V34.7681C43.95 34.5425 43.7652 34.3627 43.5395 34.3628Z" fill="white"/>
<path d="M62.5677 34.3629H60.2483C60.1388 34.3599 60.0328 34.4013 59.9543 34.4776C59.8759 34.554 59.8316 34.6588 59.8317 34.7683V37.0201C59.8316 37.1296 59.8759 37.2345 59.9543 37.3108C60.0328 37.3872 60.1388 37.4285 60.2483 37.4255H62.5677C62.6771 37.4285 62.7831 37.3872 62.8616 37.3108C62.9401 37.2345 62.9843 37.1296 62.9843 37.0201V34.7683C62.9843 34.6588 62.9401 34.554 62.8616 34.4776C62.7831 34.4013 62.6771 34.3599 62.5677 34.3629Z" fill="white"/>
<path d="M49.2142 18.2959H45.3522C45.1327 18.2958 44.953 18.4705 44.9469 18.69V32.37C44.953 32.6143 45.1529 32.8092 45.3973 32.8091H49.1691C49.4116 32.8091 49.6082 32.6125 49.6082 32.37V18.69C49.6082 18.4723 49.4318 18.2959 49.2142 18.2959Z" fill="white"/>
<path d="M120.474 20.075C123.129 22.4646 123.845 26.3411 122.219 29.5216C126.419 22.507 124.831 16.99 124.831 16.99C115.711 12.4188 110.588 16.3145 110.588 16.3145C114.235 16.3028 117.757 17.6425 120.474 20.075Z" fill="white"/>
<path d="M110.149 21.584C112.509 18.9103 116.385 18.186 119.551 19.8275C112.57 15.6053 107.087 17.1929 107.087 17.1929C102.583 26.3692 106.411 31.5146 106.411 31.5146C106.396 27.8578 107.726 24.3231 110.149 21.584Z" fill="white"/>
<path d="M111.771 31.8073C109.117 29.4224 108.396 25.5522 110.014 22.3721C105.837 29.3753 107.413 34.9036 107.413 34.9036C116.533 39.4749 121.645 35.5792 121.645 35.5792C118 35.5871 114.482 34.2432 111.771 31.8073Z" fill="white"/>
<path d="M125.878 20.3452C125.893 24.0039 124.558 27.5395 122.129 30.2759C119.773 32.9477 115.901 33.6721 112.739 32.0323C119.708 36.2545 125.203 34.6557 125.203 34.6557C129.752 25.4907 125.878 20.3452 125.878 20.3452Z" fill="white"/>
<path d="M122.636 6.96924C116.117 7.09309 115.689 12.7903 115.689 12.7903C122.242 13.342 122.636 6.96924 122.636 6.96924Z" fill="white"/>
<rect x="0.5" y="0.5" width="151" height="44.037" rx="3.5" stroke="#595B5A"/>
</svg>
